<?xml version="1.0" encoding="utf-8"?>
<!-- Generator: Adobe Illustrator 25.3.0, SVG Export Plug-In . SVG Version: 6.00 Build 0)  -->
<svg version="1.1" id="Calque_1" xmlns="http://www.w3.org/2000/svg" xmlns:xlink="http://www.w3.org/1999/xlink" x="0px" y="0px"
	 viewBox="0 0 773 543" style="enable-background:new 0 0 773 543;" xml:space="preserve">
<style type="text/css">
	.st0{fill-rule:evenodd;clip-rule:evenodd;fill:#FFFFFF;}
	.st1{fill:#C5F1FE;}
	.st2{fill-rule:evenodd;clip-rule:evenodd;fill:#A0C6F4;}
	.st3{fill-rule:evenodd;clip-rule:evenodd;fill:#2A1E17;}
	.st4{fill-rule:evenodd;clip-rule:evenodd;fill:#F9865F;}
	.st5{fill-rule:evenodd;clip-rule:evenodd;fill:#C6CBCB;}
	.st6{fill-rule:evenodd;clip-rule:evenodd;}
	.st7{fill-rule:evenodd;clip-rule:evenodd;fill:#2A1E33;}
	.st8{fill-rule:evenodd;clip-rule:evenodd;fill:#64A9A5;}
	.st9{fill-rule:evenodd;clip-rule:evenodd;fill:#C5F1FE;}
	.st10{fill-rule:evenodd;clip-rule:evenodd;fill:#3B2D60;}
	.st11{fill-rule:evenodd;clip-rule:evenodd;fill:#FAD8B0;}
	.st12{fill-rule:evenodd;clip-rule:evenodd;fill:#91BA83;}
	.st13{fill-rule:evenodd;clip-rule:evenodd;fill:#9EBFCF;}
	.st14{fill-rule:evenodd;clip-rule:evenodd;fill:#FF6D66;}
	.st15{fill:#FFFFFF;filter:url(#Adobe_OpacityMaskFilter);}
	.st16{mask:url(#mask0_1_);}
	.st17{font-family:'MyriadPro-Regular';}
	.st18{font-size:12px;}
</style>
<path class="st0" d="M492.5,152.4c-51.2-45.1-111.2-56.7-127.1-59.1c10.7-27.1,27.2-67.3,31.3-73.2c1.3-0.2,4-0.4,8-0.4
	c11.7,0,36.6,2.3,72.7,17.5c52.1,22,66,46.8,68.8,52.8L492.5,152.4z"/>
<ellipse class="st1" cx="40.1" cy="86.9" rx="40.1" ry="40.6"/>
<path class="st2" d="M404.7,16.7c-6.3,0-9.6,0.6-9.6,0.6c-3.7,1.2-34,78.4-34,78.4s72,6.9,131.7,61l57-66.2c0,0-9.5-30.1-71.1-56.1
	C442.6,19.2,417.5,16.7,404.7,16.7z M404.7,22.6c11.4,0,35.8,2.2,71.4,17.3c47.1,19.9,62.4,42.2,66.4,49.7l-50.3,58.5
	c-30.3-25.9-62.9-40.2-85.5-47.7c-16-5.3-29.1-8.1-37-9.4c11.8-29.8,24.6-60.5,29-68.1C400.1,22.8,402.1,22.6,404.7,22.6z"/>
<path class="st3" d="M371.6,102.5c0,0,0.3,0,0.8,0.1c7.9,0.9,72.6,9,113.2,44.1c0.3,0.3,0.8,0.3,1.1,0c0.3-0.3,0.3-0.8,0-1
	c-43.9-37.8-114.9-44.5-114.9-44.5c-0.4,0-0.8,0.3-0.9,0.7C370.8,102.1,371.1,102.5,371.6,102.5"/>
<path class="st2" d="M432.8,98.5l26.4-48.2l27.2,50.3L432.8,98.5z"/>
<path class="st3" d="M438,97.8l0.7,0.3l25.7-47l25.8,47.9l-52.2-2L438,97.8l0.7,0.3L438,97.8l0,0.7l53.6,2.1c0.3,0,0.5-0.1,0.7-0.3
	c0.2-0.2,0.2-0.5,0-0.7l-27.2-50.3c-0.1-0.2-0.4-0.4-0.7-0.4c-0.3,0-0.6,0.2-0.7,0.4l-26.4,48.2c-0.1,0.2-0.1,0.5,0,0.7
	c0.1,0.2,0.4,0.4,0.6,0.4L438,97.8z"/>
<path class="st3" d="M413.1,14.5c0,0,0.3,0,0.9,0.1c8.8,0.9,81.3,10.1,127.4,61.5c0.3,0.3,0.8,0.4,1.1,0.1c0.3-0.3,0.4-0.7,0.1-1
	c-24.8-27.7-57.1-43.2-83.2-51.8c-26.1-8.6-46-10.3-46.1-10.3c-0.4,0-0.8,0.3-0.9,0.7C412.3,14.1,412.6,14.5,413.1,14.5z"/>
<path class="st3" d="M453.7,227.6c-4.4-3-7.2-5-7.2-5c1.2-1.5,20.3-20.6,31.4-36C477.9,186.5,455.5,228.8,453.7,227.6z"/>
<path class="st3" d="M182.3,88.6c0.6,0.9,1.1,1.5,1.7,2c0.6,0.4,1.4,0.6,2.2,0.6c1.4,0,3.1-0.4,6.1-0.6c0.3,0,0.6,0,0.8,0
	c2.8,0,6.3,1,9.3,2.8c3,1.8,5.7,4.4,7,7.6c1.5,3.3,2,5.3,2,6.4c0,0.6-0.1,0.9-0.3,1.1c-0.2,0.2-0.4,0.4-0.8,0.6
	c-0.1,0-0.4,0.2-0.9,0.3c-1.6,0.4-4.8,1-7.5,1.6c-1.4,0.3-2.7,0.7-3.7,1.1c-0.5,0.2-1,0.5-1.4,0.7c-0.4,0.3-0.7,0.6-0.8,1.1
	c-0.1,0.4,0.2,0.8,0.6,0.9c0.4,0.1,0.8-0.2,0.9-0.6l0.1-0.1c0.1-0.1,0.4-0.3,0.8-0.5c1.4-0.7,4.2-1.4,6.8-1.9
	c1.3-0.3,2.6-0.5,3.6-0.7c0.5-0.1,1-0.2,1.4-0.3c0.4-0.1,0.7-0.2,1-0.4c0.5-0.3,1-0.6,1.3-1.1c0.4-0.5,0.6-1.2,0.6-2
	c0-1.5-0.6-3.6-2.1-7c-1.5-3.6-4.4-6.4-7.7-8.3c-3.3-1.9-6.9-3-10.1-3c-0.3,0-0.6,0-1,0c-3,0.2-4.9,0.6-5.9,0.6
	c-0.6,0-0.9-0.1-1.2-0.3c-0.4-0.2-0.8-0.7-1.3-1.5c-0.2-0.4-0.7-0.5-1.1-0.3S182,88.2,182.3,88.6z"/>
<path class="st4" d="M342.3,449.6l-5.5-8.7l-19.5,30.6l5.1,3.7L342.3,449.6z"/>
<path class="st5" d="M215.7,368.8c0,0-8.9-12.1-5.1-18.1l28.4,2.5L215.7,368.8z"/>
<path class="st6" d="M212.5,373.8l1.9,4.2l-6,21.9c-0.8,2.8,0.2,5.7,2.5,7.5l29.5-41c2.8-3.9,2.2-9.1-1.5-12.3l-6.6-5.8L212.5,373.8
	z"/>
<path class="st7" d="M196.7,114.2c9.3-0.2,21-0.8,18.6-7.4c-2.3-6.6-11.1-23.1-31.1-18.2c0,0-7,5.5,1.8,15.4
	C194.8,114,196.7,114.2,196.7,114.2z"/>
<path class="st8" d="M243.5,354.3c0,0-15.8-43.8-2.4-63c11-15.9,47.1,9.9,52,13.4l25.8-43.7c0,0-6-7.8-20.6-15.5
	c-14.6-7.7-75-30.7-103.4,11.4c-10.5,15.5-10.6,82.2,9.5,107.7L243.5,354.3z"/>
<path class="st3" d="M244.2,354.1c0,0-0.1-0.3-0.3-1c-1.5-4.4-7.4-23-7.4-40c0-8.2,1.4-15.9,5.2-21.5c1.2-1.7,2.7-2.9,4.4-3.7
	c1.7-0.8,3.7-1.1,5.9-1.1c7.2,0,16.5,3.9,24.3,8.2c7.9,4.3,14.3,8.9,16.2,10.2c0.4,0.2,0.8,0.2,1.1-0.1c0.3-0.3,0.2-0.8-0.2-1
	c-1.9-1.3-8.4-6-16.4-10.3c-8-4.3-17.3-8.4-25.1-8.4c-2.4,0-4.6,0.4-6.6,1.2c-2,0.9-3.7,2.3-5.1,4.2c-4.1,5.9-5.5,13.9-5.5,22.3
	c0,19.7,7.8,41.4,7.8,41.4c0.1,0.4,0.6,0.6,1,0.5C244.2,354.9,244.4,354.5,244.2,354.1"/>
<path class="st8" d="M318.9,261c-11.7,11.6-46.5,68.1-54.3,95.1c-10.5,36.1-6.5,66,51,124.7l27.8-38c0,0-19.5-27.9-15.9-54.1
	c5.3-38,34.1-74.8,48.6-98.2L318.9,261z"/>
<path class="st3" d="M323.3,265.9l46.2,34.1l13.8-19.7L323.3,265.9z"/>
<path class="st5" d="M588.7,237.8c7.2,0.7,12.7,1.9,16.5,3.7c3.8,1.8,2.1,2.7,0.7,3.3c-1.4,0.5-6.7-0.1-11.3-1.9
	C589.9,241,588.7,237.8,588.7,237.8z"/>
<path class="st5" d="M446.5,222.5c1.2-1.5,20.3-20.6,31.4-36c0,0,33.4,35.2,37.1,36.3c1.3,0.4,9.5,0.3,19.7,0.2
	c17.2-0.2,40.1-0.3,45.1,2c8.1,3.8,12.9,5.7,14.9,11c2,5.3,2.8,8.8-2,9.1c-5.6,0.4-9.3-6.4-9.3-6.4s-4.6,2.6-16.5,6.8
	c0,0-42.9,15.6-71.5,8.1C487.6,251.5,446.5,222.5,446.5,222.5z"/>
<path class="st5" d="M186.7,82c-3.7,1.3-5.9,2.9-3.8,6.2c2.1,3.3,3.1,2,9.2,1.6c6.1-0.4,14.9,3.8,18,10.9c3.1,7.1,2.1,8.2,0.5,9.1
	c-1.7,0.9-13.5,2.2-14,4.4c-0.5,2.2,4.8,8.8,15.7,8.3l2.6-0.4c0,0,22.9,21,26.2,24.1c3.3,3.1,27.6,18.6,41,21.7
	c10.2,2.4,30.8-0.7,43.2-3c6-1.1,10.1-2,10.1-2s-9.3-15.7-11.2-39.9c0,0-22.3,3.4-37.1,6.4c0,0-34.5-18.1-51.3-26.1
	c0,0-14.7-16.9-21.5-19.1C207.5,82,191.7,80.2,186.7,82z"/>
<path class="st3" d="M325.4,164.9c6-1.1,10.1-2,10.1-2s-11.3-13.3-13.1-37.5c0,0-5.1,5.2-3.5,18.9
	C320.8,161.5,325.4,164.9,325.4,164.9z"/>
<path class="st9" d="M321.8,122.7c0,0,0.3,29.6,8.8,41.9l3-1.1c0,0-39.8,43.7-52.6,72.2c-2.1,4.7,82.6,55.5,95.1,54.7
	c0,0,41.3-59.1,55.4-76.7l15.2,11c0,0,29.7-28.3,31.3-38.3c0,0-28.7-32.8-52.2-42.4c-23.5-9.6-44.5-26.1-69.7-25.6
	C334.1,118.8,321.8,122.7,321.8,122.7z"/>
<path class="st3" d="M446.5,224.8l-15.2-11l2.4-6.2L446.5,224.8z"/>
<path class="st4" d="M469.6,107.9c-2.7,7.8-10.3,30.2-18.9,33c-8.6,2.8-17.5-0.7-17.5-0.7l-9.1,4.4c-1,2.9-8.2,5.3-17.5,5.7
	c-6.9,0.2-11.1-8-9-14c0.9-2.8,4.4-16.3,4.4-16.3s7.4-25.5,14.2-30.7c6.8-5.3,13.2-10.5,31.3-3.6C475.2,96,469.6,107.9,469.6,107.9z
	"/>
<path class="st7" d="M414.7,109c-1.2,4.8-6.5,14.3-9.9,12.6c-3.4-1.7-4.7-6.1-2.2-14.5c2.4-8.4,4.5-27.4,11.4-30.9
	c6.9-3.4,9.9,0.6,9.9,0.6s-3-13.9,5.9-15.8c0,0,3-1.3,1.8,8.2c0,0,3.4-8.8,14.6-7.6c11.2,1.1,15,15.8,15,15.8s0.8-4,5.9-4
	c5.1,0,12.8,7,11,14.9c0,0,13-3.8,19.9,5.9c6.9,9.7,6.1,20.4-10.5,24.6c-17.4,4.4-17.2-14.7-19.9-17.1c-2.6-2.5-5.5-5.3-15.2-1.9
	c-9.7,3.4-19.9-6.7-19.9-6.7s-1.6,12.2-3.2,13.3c-1.6,1.1-4.9,2.7-4.1-3c0.8-5.7,1.8-5.1,1.2-6.7c-0.6-1.5-3.4-6.3-9.1-2.1
	C410.6,99.3,414.7,109,414.7,109z"/>
<path class="st7" d="M417.9,110.5c-2.5-2-4.4-4.9-4.4-8.1c0-1.5,0.4-3.1,1.4-4.7c2.2-3.4,5.2-4.8,7.3-4.7c1,0,1.8,0.3,2.1,0.8
	c0.9,1.1,1.5,2.6,1.5,4.6c0,1.3-0.3,2.7-0.9,4.2c-0.2,0.4,0.1,0.8,0.5,1c0.4,0.1,0.9-0.1,1-0.4c0.7-1.7,1-3.3,1-4.7
	c0-2.2-0.7-4.1-1.8-5.5c-0.8-0.9-2-1.3-3.4-1.3c-2.8,0-6.2,1.7-8.6,5.5c-1.2,1.8-1.7,3.7-1.7,5.5c0,3.8,2.2,7.1,5,9.3
	c0.3,0.3,0.8,0.2,1.1-0.1C418.3,111.3,418.3,110.8,417.9,110.5z"/>
<path class="st6" d="M322.3,480l1.9,3.6l-6,18.8c-0.8,2.4,0.2,4.9,2.5,6.5l29.5-35.2c2.8-3.3,2.2-7.8-1.5-10.6l-6.6-4.9L322.3,480z"
	/>
<path class="st7" d="M424.5,76.6c0,0-0.6-1.8-2.1-3.9c-1.5-2-3.9-4.4-7.5-5.3c-0.4-0.1-0.9,0.1-1,0.5c-0.1,0.4,0.1,0.8,0.5,0.9
	c3.1,0.8,5.3,2.9,6.6,4.8c0.7,0.9,1.1,1.8,1.5,2.5c0.2,0.3,0.3,0.6,0.3,0.8l0.1,0.2l0,0.1c0.1,0.4,0.6,0.6,1,0.5
	C424.4,77.4,424.7,77,424.5,76.6z"/>
<path class="st3" d="M280.7,234l81.9-107.4c0.3-0.3,0.2-0.8-0.2-1c-0.4-0.2-0.8-0.2-1.1,0.2l-81.9,107.4c-0.3,0.3-0.2,0.8,0.2,1
	C279.9,234.5,280.4,234.4,280.7,234z"/>
<path class="st3" d="M395,133.3c-0.6,0.8-1.1,1.9-1.5,3.3c-0.4,1.4-0.6,2.9-0.6,4.6c0,2.9,0.7,6,2.5,8.6c1.8,2.6,4.9,4.5,9.4,4.8
	c1.1,0.1,2.2,0.1,3.3,0.1c11.9,0,19.4-4.8,19.4-4.8c0.4-0.2,0.4-0.7,0.2-1c-0.2-0.3-0.7-0.4-1.1-0.2l-0.1,0
	c-0.8,0.5-7.7,4.5-18.5,4.5c-1,0-2.1,0-3.2-0.1c-4.1-0.3-6.6-1.9-8.2-4.2c-1.6-2.2-2.2-5.1-2.2-7.8c0-1.5,0.2-3,0.5-4.2
	c0.3-1.2,0.8-2.2,1.2-2.7c0.3-0.3,0.2-0.8-0.1-1C395.8,132.9,395.3,133,395,133.3z"/>
<path class="st3" d="M213.8,84.7c0,0,0.6,0.7,1.5,1.9c1.3,1.7,3.4,4.4,5.2,7c1.8,2.6,3.5,5.2,4,6.6c0.1,0.4,0.6,0.6,1,0.5
	c0.4-0.1,0.6-0.5,0.5-0.9c-0.4-1.2-1.3-2.7-2.4-4.4c-3.3-5.1-8.6-11.6-8.6-11.6c-0.3-0.3-0.8-0.4-1.1-0.1
	C213.6,83.9,213.5,84.3,213.8,84.7z"/>
<path class="st3" d="M564.2,240.7c0.1,0.1,2.6,2,7.4,2c3.1,0,7.2-0.8,12.2-3.3c1.7-0.8,2.6-2.2,2.5-3.5c0-1.2-0.6-2.3-1.6-3.1
	c-1-0.8-2.4-1.3-4-1.3c-0.6,0-1.3,0.1-2,0.2c-1.3,0.3-2.8,0.4-4.2,0.4c-2.1,0-4.1-0.3-5.5-0.6c-0.7-0.1-1.3-0.3-1.7-0.4
	c-0.2,0-0.4-0.1-0.5-0.1l-0.2,0c-0.4-0.1-0.9,0.1-1,0.5c-0.1,0.4,0.1,0.8,0.5,0.9c0,0,3.9,1.2,8.4,1.2c1.5,0,3-0.1,4.6-0.5
	c0.6-0.1,1.1-0.2,1.6-0.2c1.3,0,2.3,0.4,3,0.9c0.7,0.6,1,1.3,1,1.9c0,0.8-0.4,1.6-1.7,2.2c-4.8,2.4-8.6,3.1-11.4,3.1
	c-2.2,0-3.8-0.4-4.9-0.8c-0.5-0.2-0.9-0.4-1.2-0.6l-0.3-0.2l-0.1,0l0,0l-0.1,0.2l0.1-0.2l0,0l-0.1,0.2l0.1-0.2
	c-0.3-0.3-0.8-0.2-1.1,0.1C563.9,240,563.9,240.4,564.2,240.7z"/>
<path class="st3" d="M590.2,231.3c0,0,0.1,0.1,0.2,0.3c0.4,0.6,1.3,2.3,2.1,4.1c0.8,1.9,1.5,4,1.5,5.4l0,0.1c0,0.4,0.2,0.8,0.5,0.8
	c0.3,0,0.5-0.3,0.5-0.7l0-0.2c0-1.2-0.3-2.4-0.7-3.6c-1.2-3.6-3.4-7.2-3.4-7.2c-0.2-0.3-0.5-0.3-0.7-0.1
	C590,230.5,590,231,590.2,231.3z"/>
<path class="st3" d="M503.2,230.5L503.2,230.5c0.3-0.4,1.8-2.1,3.9-3.6c2.1-1.6,4.9-3.1,7.9-3.3c0.4,0,0.8-0.4,0.7-0.8
	c0-0.4-0.4-0.7-0.8-0.7c-3.7,0.3-6.9,2.2-9.2,4c-2.3,1.8-3.7,3.5-3.7,3.6c-0.3,0.3-0.2,0.8,0.2,1C502.5,230.9,503,230.8,503.2,230.5
	z"/>
<path class="st3" d="M274.7,140.6L274.7,140.6c0.2-0.5,1.1-2.8,3.1-5.1c2-2.3,5.1-4.6,9.6-5.4c0.4-0.1,0.7-0.5,0.6-0.9
	c-0.1-0.4-0.5-0.7-0.9-0.6c-5.3,0.9-8.8,3.8-10.9,6.4c-2.1,2.6-3,5-3,5.1c-0.1,0.4,0.1,0.8,0.5,0.9
	C274.1,141.2,274.5,141,274.7,140.6z"/>
<path class="st3" d="M300.7,280.5l-12.1,21.7l0.7,0.3l-0.7-0.4c0,0-7.3,11.6-14.6,28.1c-7.3,16.5-14.6,37.9-14.6,57.6
	c0,6.7,0.8,13.2,2.8,19.2c0.1,0.4,0.6,0.6,1,0.5c0.4-0.1,0.6-0.5,0.5-0.9c-1.9-5.9-2.8-12.2-2.8-18.8c0-19.4,7.2-40.6,14.5-57.1
	c3.6-8.2,7.3-15.2,10-20.1c1.4-2.5,2.5-4.4,3.3-5.8c0.4-0.7,0.7-1.2,0.9-1.5c0.2-0.3,0.3-0.5,0.3-0.5l12.1-21.8
	c0.2-0.4,0.1-0.8-0.3-1C301.4,280,300.9,280.2,300.7,280.5z"/>
<path class="st3" d="M337.4,354l39.3-63.2l-0.7-0.4l0.7,0.4c0,0,12.9-17.5,26.4-36.3c6.8-9.4,13.7-19.1,19.3-27
	c2.8-4,5.2-7.5,7.1-10.4c1.9-2.9,3.3-5,4-6.3l-0.7-0.3l0.7,0.4l18.2-31.5c0.2-0.4,0.1-0.8-0.3-1c-0.4-0.2-0.9-0.1-1.1,0.3
	l-18.2,31.5l0,0c-0.6,1.2-2,3.4-3.9,6.2c-6.7,10-19.9,28.4-31.4,44.3c-5.8,8-11.1,15.3-15,20.6c-2,2.7-3.5,4.8-4.6,6.4
	c-1.1,1.5-1.7,2.3-1.7,2.3l0,0l-39.3,63.2c-0.2,0.4-0.1,0.8,0.3,1C336.7,354.5,337.2,354.4,337.4,354z"/>
<path class="st3" d="M285,240.9c0,0,17.5,12,37.5,24.2c10,6.1,20.7,12.3,30.2,17.1c9.5,4.8,17.7,8.3,23.2,8.9c0.4,0,0.8-0.2,0.9-0.6
	c0.1-0.4-0.3-0.8-0.7-0.8c-4.9-0.5-13.2-3.9-22.6-8.7c-14.1-7.2-31-17.5-44.4-26c-6.7-4.3-12.5-8.1-16.6-10.8
	c-2.1-1.4-3.7-2.5-4.8-3.2c-1.1-0.8-1.7-1.2-1.7-1.2c-0.4-0.2-0.8-0.2-1.1,0.2C284.6,240.2,284.7,240.7,285,240.9z"/>
<path class="st3" d="M321,122.7L321,122.7c0,0.5,0,8,1.1,17c1.1,9,3.2,19.4,7.6,25.7c0.2,0.3,0.7,0.4,1.1,0.2c0.4-0.2,0.5-0.7,0.2-1
	c-4.1-5.8-6.3-16.1-7.3-25c-1.1-8.9-1.1-16.4-1.1-16.8v0c0-0.4-0.3-0.7-0.8-0.8C321.4,121.9,321,122.3,321,122.7z"/>
<path class="st3" d="M474.9,181.6c-0.5,2.9-2.7,6.8-5.7,10.9c-4.5,6.2-10.9,13-16.1,18.2c-2.6,2.6-4.9,4.8-6.6,6.4
	c-0.8,0.8-1.5,1.4-2,1.8c-0.5,0.4-0.7,0.6-0.7,0.6c-0.3,0.3-0.3,0.8,0,1c0.3,0.3,0.8,0.3,1.1,0c0,0,7.3-6.5,14.9-14.6
	c3.8-4,7.7-8.5,10.7-12.7c3.1-4.2,5.4-8.2,6-11.5c0.1-0.4-0.2-0.8-0.6-0.9C475.3,180.9,474.9,181.2,474.9,181.6z"/>
<path class="st3" d="M262.3,331.8c0,2.1-1.9,3.9-4.1,3.9c-2.3,0-4.1-1.7-4.1-3.9c0-2.2,1.9-3.9,4.1-3.9
	C260.5,327.9,262.3,329.7,262.3,331.8z"/>
<path class="st3" d="M647.1,415.5l0.8-0.1l-2-13.2l10.5,6.6l-5.3,1.1c-0.2,0-0.3,0.1-0.5,0.3l-4.2,5L647.1,415.5l0.8-0.1
	L647.1,415.5l0.6,0.5l4-4.8l6.8-1.4c0.3-0.1,0.6-0.3,0.6-0.6c0.1-0.3-0.1-0.6-0.3-0.8l-13.5-8.4c-0.3-0.2-0.6-0.2-0.9,0
	c-0.3,0.2-0.4,0.4-0.4,0.7l2.3,14.9c0,0.3,0.3,0.5,0.6,0.6c0.3,0.1,0.6,0,0.8-0.3L647.1,415.5z"/>
<path class="st10" d="M199.1,160.7c-3.6-3-7.7-4.6-11.5-4.6c-4.1,0-8,1.9-10.7,5.7c-2.7,3.8-4.4,9.4-4.4,17
	c0,14.6,6.2,36.5,23.3,66.7C212.9,275.7,241,314.2,285,362c29.7,32.3,57.3,54.9,81.3,69.4c24,14.5,44.4,20.9,59.8,21
	c7.8,0,14.3-1.7,19.3-4.8c5-3.2,8.4-7.8,10.1-13.7c2.1-7.6,3.1-14.5,3.1-20.8c0-14.5-4.9-25.2-10.9-32.4c-3-3.6-6.2-6.2-9.1-8
	c-3-1.8-5.7-2.7-7.8-2.7c-1,0-1.9,0.2-2.6,0.7c-0.7,0.5-1.1,1.4-1.1,2.3c0,1.1,0.4,2.3,1.3,3.8c0.9,1.5,2.2,3.2,4.1,5.1
	c9.5,9.9,23.9,17.5,41.2,22.6c17.3,5.2,37.5,7.9,58.8,7.9c33.1,0,68.8-6.6,99.8-20.7c15.4-7,25.4-14.9,31.6-23.1
	c6.2-8.1,8.4-16.5,8.4-24.3c0-10-3.7-19-7.7-25.8c-2-3.4-4.1-6.2-5.8-8.3c-0.9-1-1.6-1.9-2.3-2.6c-0.7-0.7-1.2-1.1-1.5-1.4
	c-0.4-0.2-0.8-0.2-1.1,0.2c-0.3,0.3-0.2,0.8,0.2,1c0.2,0.1,0.7,0.6,1.3,1.2c2.1,2.2,6,6.9,9.3,13.2c3.3,6.3,6,14.1,6,22.5
	c0,7.5-2.2,15.5-8.1,23.4c-6,7.9-15.7,15.6-31,22.6c-30.8,14.1-66.2,20.6-99.1,20.6c-21.2,0-41.2-2.7-58.4-7.8
	c-17.1-5.1-31.2-12.6-40.5-22.2c-1.8-1.9-3.1-3.5-3.9-4.8c-0.8-1.3-1.1-2.4-1.1-3.1c0-0.6,0.2-0.9,0.5-1.1c0.3-0.2,0.8-0.4,1.6-0.4
	c1.6,0,4.1,0.8,6.9,2.5c8.4,5.1,19.3,17.9,19.3,39.1c0,6.1-0.9,12.9-3,20.4c-1.6,5.5-4.8,9.8-9.4,12.8c-4.7,3-10.9,4.6-18.4,4.6
	c-14.9,0-35.1-6.3-59-20.7c-23.8-14.4-51.3-36.9-81-69.1c-43.9-47.8-72-86.2-89-116.3c-17.1-30.1-23.1-51.8-23.1-66
	c0-7.4,1.6-12.7,4.1-16.2c2.5-3.4,5.8-5,9.4-5c3.4,0,7,1.4,10.5,4.3c0.3,0.3,0.8,0.2,1.1-0.1C199.5,161.5,199.4,161,199.1,160.7z"/>
<path class="st3" d="M637.3,390.7c0,2.1-1.9,3.9-4.1,3.9c-2.3,0-4.1-1.7-4.1-3.9c0-2.1,1.9-3.9,4.1-3.9
	C635.4,386.8,637.3,388.6,637.3,390.7z"/>
<path class="st10" d="M573.2,423.1l122.9-65c0.4-0.2,0.5-0.7,0.3-1c-0.2-0.4-0.7-0.5-1.1-0.3l-122.9,65c-0.4,0.2-0.5,0.7-0.3,1
	C572.4,423.2,572.8,423.4,573.2,423.1z"/>
<path class="st3" d="M205.3,164.4c0,2.1-1.9,3.9-4.1,3.9s-4.1-1.7-4.1-3.9c0-2.1,1.9-3.9,4.1-3.9S205.3,162.3,205.3,164.4z"/>
<path class="st5" d="M315.7,80.9c0,2.9-4,5.2-8.9,5.2c-4.9,0-8.9-2.3-8.9-5.2c0-2.9,4-5.2,8.9-5.2C311.8,75.7,315.7,78,315.7,80.9z"
	/>
<path class="st2" d="M145.5,20.4c-2.2,0-3.9,1.6-3.9,3.7s1.8,3.7,3.9,3.7c2.2,0,3.9-1.6,3.9-3.7S147.6,20.4,145.5,20.4z"/>
<path class="st9" d="M673.3,472.7c0,2-1.8,3.7-3.9,3.7c-2.2,0-3.9-1.6-3.9-3.7c0-2,1.8-3.7,3.9-3.7
	C671.5,469,673.3,470.7,673.3,472.7z"/>
<path class="st7" d="M599.5,306.9l-42-18.5c-3.4-1.5-3.3-6,0.1-7.5l78.2-32.3c1.1-0.5,2.4-0.5,3.5,0l53.7,21.7L599.5,306.9z"/>
<path class="st5" d="M596.9,246c0.1,16.3,2.6,60.9,2.6,60.9l93.5-36.7l-2.1-62c-0.1-3.8-4.3-6.3-8-4.7L602.4,238
	C599,239.4,596.9,242.6,596.9,246z"/>
<path class="st3" d="M599.8,307.6l93.5-36.7c0.3-0.1,0.5-0.4,0.5-0.7l-2.1-62l0,0c0-0.1-0.1-1.4-0.9-2.8c-0.4-0.7-1-1.4-1.9-2
	c-0.9-0.6-2-0.9-3.4-0.9c-0.9,0-1.8,0.1-2.8,0.4c-0.4,0.1-0.7,0.5-0.5,0.9c0.1,0.4,0.6,0.6,1,0.5c0.9-0.3,1.7-0.4,2.4-0.4
	c1.1,0,1.9,0.3,2.5,0.7c0.9,0.6,1.5,1.5,1.8,2.3c0.2,0.4,0.2,0.8,0.3,1l0.1,0.3l0,0.1l0,0l0.8-0.1l-0.8,0l2.1,61.5l-92.9,36.5
	c-0.4,0.2-0.6,0.6-0.4,1C598.9,307.5,599.4,307.7,599.8,307.6z"/>
<path class="st3" d="M645.5,262.6l6.3-14c0.2-0.4,0-0.8-0.4-1c-0.4-0.2-0.9,0-1,0.4l-6.3,14c-0.2,0.4,0,0.8,0.4,1
	C644.8,263.2,645.3,263,645.5,262.6z"/>
<path class="st3" d="M651.8,262.6l6.3-14c0.2-0.4,0-0.8-0.4-1c-0.4-0.2-0.9,0-1,0.4l-6.3,14c-0.2,0.4,0,0.8,0.4,1
	C651.1,263.2,651.6,263,651.8,262.6z"/>
<path class="st8" d="M164.2,411.4c0,2-1.3,3.7-2.9,3.7c-1.6,0-2.9-1.6-2.9-3.7c0-2,1.3-3.7,2.9-3.7
	C162.9,407.8,164.2,409.4,164.2,411.4z"/>
<path class="st9" d="M497.4,429.6c0,2.8-2.4,5.1-5.4,5.1c-3,0-5.4-2.3-5.4-5.1c0-2.8,2.4-5.1,5.4-5.1
	C495,424.5,497.4,426.8,497.4,429.6z"/>
<path class="st9" d="M202.8,465.9c6.4,2.9,24.9,10.1,49.4,9.9c1.3,0,2.4,1.1,2.2,2.4l-3.4,25.4c-0.1,0.9-0.8,1.6-1.8,1.8
	c-6.9,1.2-34.8,4.8-55.7-11.8c-0.7-0.5-0.9-1.4-0.7-2.1l6.9-24.2C200.1,465.9,201.6,465.3,202.8,465.9z"/>
<path class="st3" d="M204.6,473.8c0,0,3,4,6.6,8.3c1.8,2.1,3.7,4.4,5.5,6.2c1.8,1.8,3.3,3.3,4.6,4c0.5,0.3,1.1,0.4,1.8,0.4
	c1.8,0,4.3-0.7,7.1-1.8c8.4-3.1,19.4-9.3,19.4-9.3c0.4-0.2,0.5-0.7,0.3-1c-0.2-0.4-0.7-0.5-1.1-0.3c0,0-0.3,0.2-0.8,0.5
	c-1.9,1-6.8,3.7-11.9,6c-2.5,1.2-5.1,2.3-7.4,3.1c-2.3,0.8-4.3,1.3-5.5,1.3c-0.5,0-0.8-0.1-1-0.2c-0.9-0.5-2.5-1.9-4.2-3.6
	c-2.6-2.7-5.6-6.3-7.9-9.2c-1.2-1.5-2.2-2.7-2.9-3.7c-0.7-0.9-1.1-1.5-1.1-1.5c-0.3-0.3-0.7-0.4-1.1-0.2
	C204.5,473,204.4,473.4,204.6,473.8"/>
<path class="st3" d="M232.4,489.8l12.7,12.2c0.3,0.3,0.8,0.3,1.1,0c0.3-0.3,0.3-0.8,0-1l-12.7-12.2c-0.3-0.3-0.8-0.3-1.1,0
	C232.1,489.1,232.1,489.5,232.4,489.8z"/>
<path class="st3" d="M215.2,486.2l-14.8,3.8c-0.4,0.1-0.7,0.5-0.6,0.9c0.1,0.4,0.5,0.6,1,0.5l14.8-3.8c0.4-0.1,0.7-0.5,0.6-0.9
	C216.1,486.4,215.6,486.1,215.2,486.2z"/>
<path class="st5" d="M576.4,178.4h14.1v-8.3h-14.1V178.4z"/>
<path class="st2" d="M578.3,344.3l8.4,13.7h-16.8L578.3,344.3z"/>
<path class="st3" d="M238.3,41.3l0.8,0l1.1-31v-0.1l0-0.3c0-1.2,0.3-1.9,0.7-2.3c0.4-0.4,0.9-0.7,1.8-0.8c5.4-1.1,17.5-3.7,32.8-3.7
	c9.9,0,21.2,1.1,32.8,4.3c1.6,0.4,2.3,1,2.6,1.5c0.4,0.5,0.5,1.1,0.5,1.8c0,0.2,0,0.5,0,0.7v0L310.2,41c0,0.7-0.4,1.4-1.1,1.9
	c-0.6,0.5-1.6,0.8-2.6,0.8c-0.2,0-0.4,0-0.7,0c-7.9-1.1-18.3-1.5-29-1.5c-1.2,0-2.4,0-3.5,0c-12.4,0.1-23.5,1-31.3,2.4
	c-0.3,0.1-0.5,0.1-0.7,0.1c-0.9,0-1.3-0.3-1.7-0.8c-0.4-0.5-0.6-1.3-0.6-2.2l0-0.2v0L238.3,41.3l-0.8,0l0,0.3c0,1.1,0.2,2.2,0.9,3.1
	c0.6,0.9,1.7,1.5,3,1.4c0.3,0,0.7,0,1-0.1c7.6-1.4,18.6-2.2,31-2.3c1.2,0,2.4,0,3.5,0c10.7,0,21,0.4,28.8,1.5c0.3,0,0.6,0.1,0.9,0.1
	c1.4,0,2.6-0.4,3.6-1.1c0.9-0.7,1.6-1.8,1.6-3l1.1-29.6v0c0-0.2,0-0.5,0-0.8c0-0.8-0.1-1.8-0.7-2.6c-0.6-0.9-1.7-1.6-3.5-2
	c-11.8-3.3-23.2-4.4-33.3-4.4c-15.4,0-27.6,2.6-33.1,3.7c-1,0.2-1.9,0.6-2.6,1.3c-0.7,0.8-1,1.8-1,3.2l0,0.4l0.8,0l-0.8,0l-1.1,31v0
	L238.3,41.3z"/>
<path class="st3" d="M248.3,36.8l0.6,0.5l16.7-18.4L284.2,36l0.6-0.5l0.2-0.7c-1.7-0.5-4.6-0.7-8-0.7c-11.2,0-28.7,1.9-28.7,1.9
	L248.3,36.8l0.6,0.5L248.3,36.8l0.1,0.7c0,0,1.1-0.1,2.9-0.3c5.4-0.5,17.3-1.6,25.6-1.6c3.4,0,6.2,0.2,7.6,0.6
	c0.3,0.1,0.7,0,0.9-0.3c0.2-0.3,0.1-0.7-0.1-0.9l-19.1-17.7c-0.2-0.1-0.4-0.2-0.6-0.2s-0.4,0.1-0.6,0.3l-17.3,19
	c-0.2,0.2-0.2,0.6-0.1,0.8c0.2,0.3,0.5,0.4,0.8,0.4L248.3,36.8z"/>
<path class="st3" d="M276.7,27.2L290.2,17l11,7.4l0.4,11.2l-16.8-0.8c-0.4,0-0.8,0.3-0.8,0.7c0,0.4,0.3,0.8,0.8,0.8l17.6,0.8
	c0.2,0,0.4-0.1,0.6-0.2c0.2-0.1,0.2-0.3,0.2-0.6L302.7,24c0-0.2-0.1-0.4-0.3-0.6l-11.8-7.9c-0.3-0.2-0.7-0.2-1,0l-14,10.5
	c-0.3,0.3-0.4,0.7-0.1,1C275.9,27.4,276.4,27.4,276.7,27.2z"/>
<path class="st3" d="M255.8,15.9l-0.8,0.1l0,0.2c0,0.5-0.2,0.9-0.6,1.2c-0.4,0.3-1,0.6-1.7,0.6l-0.2,0c-0.7,0-1.4-0.2-1.9-0.6
	c-0.5-0.4-0.8-0.8-0.8-1.3l0-0.2c0-0.5,0.2-0.9,0.6-1.2c0.4-0.3,1-0.6,1.7-0.6l0.2,0c0.7,0,1.4,0.2,1.9,0.6c0.5,0.4,0.8,0.8,0.8,1.3
	L255.8,15.9l0.8-0.1c-0.1-0.9-0.7-1.8-1.4-2.3c-0.8-0.6-1.8-0.9-2.8-0.9l-0.3,0c-1,0.1-2,0.4-2.7,1c-0.7,0.6-1.1,1.4-1.1,2.3l0,0.4
	c0.1,0.9,0.7,1.8,1.4,2.3c0.8,0.6,1.8,0.9,2.8,0.9l0.3,0c1.1-0.1,2-0.4,2.7-1c0.7-0.6,1.1-1.4,1.1-2.3l0-0.4L255.8,15.9z"/>
<path class="st3" d="M572.5,444.7l-0.7,0.4l11.6,20.1l0,0c0.5,0.7,0.6,1.2,0.6,1.5c0,0.4-0.2,0.8-0.7,1.3
	c-4.9,4.3-19.9,17.4-41.8,22.4c-0.5,0.1-0.9,0.2-1.2,0.2c-0.7,0-1-0.2-1.3-0.4c-0.3-0.2-0.5-0.6-0.8-1.1l-11-19.2
	c-0.1-0.2-0.2-0.5-0.2-0.8c0-0.8,0.6-1.7,1.8-2.2c6-2.3,13.7-6.2,21.3-10.4c7.9-4.4,14.5-8.8,18.9-12.4c0.5-0.4,0.8-0.5,1.1-0.5
	c0.3,0,0.6,0.1,0.9,0.3c0.3,0.2,0.6,0.6,0.9,1.1L572.5,444.7l0.7-0.4c-0.3-0.6-0.8-1.1-1.3-1.5c-0.5-0.4-1.2-0.7-1.9-0.7
	c-0.7,0-1.5,0.3-2.1,0.8c-4.3,3.5-10.9,7.9-18.7,12.3c-7.5,4.2-15.2,8.1-21.1,10.3c-1.7,0.6-2.7,2-2.8,3.5c0,0.5,0.1,1,0.4,1.5
	l11,19.2c0.3,0.4,0.6,1,1.1,1.5c0.5,0.5,1.3,0.8,2.4,0.8c0.5,0,1-0.1,1.6-0.2c22.3-5.2,37.5-18.5,42.5-22.8c0.7-0.6,1.3-1.4,1.3-2.4
	c0-0.7-0.3-1.5-0.9-2.3l-0.7,0.4l0.7-0.4l-11.6-20.1L572.5,444.7z"/>
<path class="st3" d="M568,451l-0.8-0.1l-3.3,17.3l-18.3-4.4l-0.2,0.7l0.2,0.7c1.5-0.3,3.5-1.3,5.9-2.6c7.1-4,17-11,17.1-11L568,451
	l-0.8-0.1L568,451l-0.5-0.6c0,0-1.1,0.8-2.8,2c-2.6,1.8-6.6,4.5-10.4,6.8c-1.9,1.2-3.8,2.2-5.4,3.1c-1.6,0.8-3,1.4-3.7,1.6
	c-0.4,0.1-0.6,0.4-0.6,0.7c0,0.3,0.2,0.6,0.6,0.7l19.2,4.6c0.2,0.1,0.4,0,0.6-0.1c0.2-0.1,0.3-0.3,0.4-0.5l3.5-18.1
	c0.1-0.3-0.1-0.6-0.4-0.8c-0.3-0.2-0.6-0.1-0.9,0L568,451z"/>
<path class="st3" d="M553.6,467l-4.5,11l-9.6-0.8l-4.5-6.7l10.8-5.3c0.4-0.2,0.5-0.6,0.3-1c-0.2-0.4-0.7-0.5-1.1-0.3l-11.5,5.7
	c-0.2,0.1-0.3,0.3-0.4,0.5c-0.1,0.2,0,0.4,0.1,0.6l5.2,7.7c0.1,0.2,0.4,0.3,0.6,0.3l10.6,0.9c0.3,0,0.7-0.2,0.8-0.5l4.7-11.5
	c0.2-0.4,0-0.8-0.5-1C554.2,466.4,553.7,466.6,553.6,467z"/>
<path class="st3" d="M571.5,466.9l0.6-0.4c-0.1-0.2-0.2-0.4-0.2-0.6c0-0.4,0.3-0.9,0.8-1.2c0.4-0.2,0.8-0.3,1.1-0.3
	c0.5,0,0.9,0.2,1.1,0.5c0.1,0.2,0.2,0.4,0.2,0.6c0,0.4-0.3,0.9-0.8,1.2c-0.4,0.2-0.8,0.3-1.1,0.3c-0.5,0-0.9-0.2-1.1-0.5l-1.3,0.9
	c0.6,0.7,1.5,1.1,2.4,1.1c0.7,0,1.4-0.2,2-0.6c0.9-0.6,1.5-1.5,1.5-2.5c0-0.5-0.2-1-0.5-1.5c-0.6-0.7-1.5-1.1-2.4-1.1
	c-0.7,0-1.4,0.2-2,0.6c-0.9,0.6-1.5,1.5-1.5,2.5c0,0.5,0.2,1,0.5,1.5L571.5,466.9z"/>
<path class="st0" d="M516.1,101.5l47.1,33.9c1,0.7,2.5,0.5,3.3-0.4l7.1-9.1c0.7-0.9,0.6-2.3-0.4-3L526.7,88c-1-0.8-2.6-0.6-3.3,0.4
	l-7.8,10.1C514.9,99.4,515.1,100.8,516.1,101.5z"/>
<path class="st3" d="M516.1,101.5l-0.5,0.6l47.1,33.9c0.6,0.4,1.2,0.6,1.9,0.6c1,0,1.9-0.4,2.5-1.2l7.1-9.1c0.4-0.5,0.6-1.1,0.6-1.7
	c0-0.9-0.4-1.7-1.2-2.3l-46.4-34.9c-0.6-0.4-1.3-0.6-1.9-0.6c-1,0-1.9,0.4-2.5,1.2L515,98c-0.4,0.5-0.6,1.1-0.6,1.7
	c0,0.9,0.4,1.8,1.2,2.3L516.1,101.5l0.5-0.6c-0.4-0.3-0.6-0.7-0.6-1.1c0-0.3,0.1-0.6,0.3-0.8l7.8-10.1c0.3-0.4,0.8-0.6,1.2-0.6
	c0.3,0,0.7,0.1,1,0.3l46.4,34.9c0.4,0.3,0.6,0.7,0.6,1.1c0,0.3-0.1,0.6-0.3,0.9l-7.1,9.1c-0.3,0.4-0.8,0.6-1.2,0.6
	c-0.3,0-0.7-0.1-0.9-0.3l-47.1-33.9L516.1,101.5z"/>
<path class="st10" d="M519.6,100l11.4,7.5l6.7-7.6L526.3,91L519.6,100z"/>
<path class="st11" d="M535.3,110.4l11.4,8.5l6.1-7.1l-11.5-8.8L535.3,110.4z"/>
<path class="st2" d="M550.6,122.2l11.4,7.5l5.4-6.6l-10.8-8.5L550.6,122.2z"/>
<path class="st0" d="M610.1,54.2l10.7,84.7c0.2,1.9,2,3.2,4,2.9l18.2-2.3c1.9-0.2,3.2-1.9,3.1-3.6l-8.8-85.1c-0.2-1.9-2-3.3-4.1-3
	l-20.1,2.8C611.2,50.7,609.8,52.4,610.1,54.2z"/>
<path class="st3" d="M610.1,54.2l-0.8,0.1l10.7,84.7c0.3,2.1,2.1,3.6,4.3,3.6c0.2,0,0.4,0,0.6,0l18.2-2.3c2.2-0.3,3.8-2,3.8-4l0-0.4
	L638,50.6c-0.2-2.1-2.1-3.7-4.3-3.7c-0.2,0-0.4,0-0.6,0L613,49.7c-2.2,0.3-3.7,2-3.7,4c0,0.2,0,0.3,0,0.5v0L610.1,54.2l0.8-0.1
	l0-0.3c0-1.3,1-2.4,2.4-2.6l20.1-2.8l0.4,0c1.4,0,2.6,1,2.8,2.4l8.8,85.1l0,0.3c0,1.3-1,2.4-2.4,2.6l-18.2,2.3l-0.4,0
	c-1.4,0-2.6-1-2.7-2.3l-10.7-84.7v0L610.1,54.2z"/>
<path class="st9" d="M615.6,56.1l3.4,19.8l16-1.1l-1.7-21.3L615.6,56.1z"/>
<path class="st12" d="M620.1,83.5l2.3,20.9l14.8-1.2l-2-21.2L620.1,83.5z"/>
<path class="st8" d="M622.7,111.9l3.4,19.8l13.5-1.4l-1.6-20.2L622.7,111.9z"/>
<path class="st0" d="M586.6,72.2l29.7,82c0.5,1.4,2.2,2.2,3.6,1.6l18.6-6.3c1.4-0.5,2.2-1.9,1.7-3.3l-27.9-82.9
	c-0.5-1.5-2.2-2.2-3.7-1.7l-20.4,7.1C586.9,69.3,586.1,70.8,586.6,72.2z"/>
<path class="st3" d="M586.6,72.2l-0.7,0.2l29.7,82c0.5,1.4,1.9,2.3,3.4,2.3c0.4,0,0.8-0.1,1.2-0.2l18.6-6.3c1.5-0.5,2.4-1.8,2.4-3.2
	c0-0.3-0.1-0.7-0.2-1l-27.9-82.9c-0.5-1.5-1.9-2.4-3.5-2.4c-0.4,0-0.8,0.1-1.3,0.2l-20.4,7.1c-1.5,0.5-2.4,1.8-2.4,3.2
	c0,0.4,0.1,0.7,0.2,1.1v0L586.6,72.2l0.7-0.2c-0.1-0.2-0.1-0.4-0.1-0.6c0-0.8,0.5-1.5,1.3-1.8l20.4-7.1c0.2-0.1,0.5-0.1,0.7-0.1
	c0.9,0,1.7,0.5,1.9,1.3l27.9,82.9c0.1,0.2,0.1,0.4,0.1,0.6c0,0.8-0.5,1.5-1.4,1.8l-18.6,6.3c-0.2,0.1-0.5,0.1-0.7,0.1
	c-0.8,0-1.6-0.5-1.9-1.3l-29.7-82v0L586.6,72.2z"/>
<path class="st2" d="M592.7,73.7l7.7,18.7l15.4-4.2l-6.4-20.5L592.7,73.7z"/>
<path class="st10" d="M603.2,99.6l6.8,20l14.2-4.1l-6.7-20.4L603.2,99.6z"/>
<path class="st8" d="M612,126.8l7.7,18.7l12.9-4l-6.1-19.5L612,126.8z"/>
<path class="st13" d="M362.6,211.2H212.5c-4.8,0-8.7-3.6-8.7-8.1V184c0-4.5,3.9-8.1,8.7-8.1h150.1c4.8,0,8.7,3.6,8.7,8.1V203
	C371.3,207.5,367.4,211.2,362.6,211.2z"/>
<path class="st0" d="M306.4,191.6h-81.8c-1.6,0-2.9-1.2-2.9-2.7c0-1.5,1.3-2.7,2.9-2.7h81.8c1.6,0,2.9,1.2,2.9,2.7
	C309.3,190.4,308,191.6,306.4,191.6z"/>
<path class="st3" d="M222.5,199.3h139.1c0.4,0,0.8-0.3,0.8-0.7c0-0.4-0.4-0.7-0.8-0.7H222.5c-0.4,0-0.8,0.3-0.8,0.7
	C221.7,199,222.1,199.3,222.5,199.3z"/>
<path class="st12" d="M153.7,111.8l-2.4-2.4l-7.8,6.7l2.4,2.4c1,1,2.7,1.1,3.8,0.2l3.9-3.3C154.6,114.4,154.7,112.8,153.7,111.8z"/>
<path class="st3" d="M140.1,96l-0.6,0.5l11.2,11.5c0.1,0.1,0.2,0.3,0.2,0.5c0,0.2-0.1,0.4-0.2,0.5l-7.7,6.6
	c-0.1,0.1-0.3,0.2-0.5,0.2c-0.2,0-0.4-0.1-0.6-0.2l-11.2-11.5c-0.1-0.1-0.2-0.3-0.2-0.5c0-0.2,0.1-0.4,0.2-0.5l7.7-6.6
	c0.1-0.1,0.3-0.2,0.5-0.2c0.2,0,0.4,0.1,0.6,0.2L140.1,96l0.6-0.5c-0.5-0.5-1.1-0.7-1.7-0.7c-0.6,0-1.1,0.2-1.6,0.6l-7.7,6.6
	c-0.5,0.4-0.8,1-0.8,1.6c0,0.5,0.2,1.1,0.6,1.5l11.2,11.5c0.5,0.5,1.1,0.7,1.7,0.7c0.6,0,1.1-0.2,1.6-0.6l7.7-6.6
	c0.5-0.4,0.8-1,0.8-1.6c0-0.5-0.2-1.1-0.6-1.5l-11.2-11.5L140.1,96z"/>
<path class="st8" d="M104.4,168.7h14v-12h-14V168.7z"/>
<path class="st3" d="M103.6,149v7H96c-0.4,0-0.8,0.3-0.8,0.7c0,0.4,0.4,0.7,0.8,0.7h8.4c0.2,0,0.4-0.1,0.6-0.2
	c0.1-0.1,0.2-0.3,0.2-0.5V149c0-0.4-0.4-0.7-0.8-0.7C103.9,148.2,103.6,148.6,103.6,149z"/>
<path class="st11" d="M566.4,33h14v-12h-14V33z"/>
<path class="st3" d="M565.6,13.2v7H558c-0.4,0-0.8,0.3-0.8,0.7c0,0.4,0.4,0.7,0.8,0.7h8.4c0.2,0,0.4-0.1,0.6-0.2
	c0.1-0.1,0.2-0.3,0.2-0.5v-7.7c0-0.4-0.4-0.7-0.8-0.7C565.9,12.5,565.6,12.8,565.6,13.2z"/>
<path class="st10" d="M187.1,96.9c-26.5-10.2-51.9-15-74.1-15c-22.8,0-42.2,5-56,14.5c-13.8,9.5-21.9,23.4-21.9,40.9
	c0,21,11.5,47,38.2,77.1c26.7,30,68.7,64.1,129.8,100.9c21.8,13.1,54.9,17.7,55,17.7c0.4,0.1,0.8-0.2,0.9-0.6
	c0.1-0.4-0.2-0.8-0.7-0.8c0,0-0.5-0.1-1.4-0.2c-6.6-1-34.2-6-52.9-17.2c-61-36.8-102.9-70.7-129.4-100.6
	c-26.6-29.9-37.8-55.7-37.8-76.1c0-17.1,7.8-30.5,21.2-39.8c13.4-9.2,32.5-14.2,55.1-14.2c22,0,47.2,4.7,73.5,14.9
	c0.4,0.2,0.9,0,1-0.4C187.7,97.5,187.5,97.1,187.1,96.9z"/>
<path class="st3" d="M57.3,99.1c0,2.1-1.9,3.9-4.1,3.9c-2.3,0-4.1-1.7-4.1-3.9c0-2.1,1.9-3.9,4.1-3.9C55.4,95.2,57.3,96.9,57.3,99.1
	z"/>
<path class="st3" d="M26.7,77.7l0.5,0.5l4.1-3.7l9.7,5.2l4.6,13.4l-14.1-5.5l-4.1-10.1L26.7,77.7l0.5,0.5L26.7,77.7L26,78l4.2,10.4
	c0.1,0.2,0.2,0.3,0.4,0.4l16,6.3c0.3,0.1,0.6,0.1,0.8-0.1c0.2-0.2,0.3-0.5,0.2-0.8L42.5,79c-0.1-0.2-0.2-0.3-0.4-0.4L31.7,73
	c-0.3-0.2-0.7-0.1-0.9,0.1l-4.5,4.1C26,77.4,25.9,77.7,26,78L26.7,77.7z"/>
<path class="st3" d="M31.3,73.6l-0.5-0.5l-3.9,3.5l-1.5-1.7l3.2-2.9l2.2,2.2L31.3,73.6l-0.5-0.5L31.3,73.6l0.6-0.5l-2.7-2.7
	c-0.1-0.1-0.3-0.2-0.6-0.2c-0.2,0-0.4,0.1-0.6,0.2l-4.4,3.9c-0.3,0.3-0.3,0.7-0.1,1l2.5,2.9c0.1,0.2,0.3,0.3,0.6,0.3
	c0.2,0,0.4-0.1,0.6-0.2l4.5-4.1c0.3-0.3,0.3-0.7,0-1L31.3,73.6z"/>
<path class="st3" d="M47.5,93.9L37.1,83.2c-0.3-0.3-0.8-0.3-1.1,0c-0.3,0.3-0.3,0.7-0.1,1l10.4,10.7c0.3,0.3,0.8,0.3,1.1,0
	C47.8,94.7,47.8,94.2,47.5,93.9z"/>
<path class="st0" d="M72.1,366.9l11.3,54.7c0.2,1.2,1.5,2,2.8,1.7l11.7-2.3c1.2-0.2,2-1.4,1.8-2.5l-10.1-55c-0.2-1.2-1.5-2-2.8-1.8
	l-12.9,2.7C72.7,364.6,71.9,365.8,72.1,366.9z"/>
<path class="st3" d="M72.1,366.9l-0.8,0.1l11.3,54.7c0.3,1.4,1.6,2.4,3.1,2.4c0.2,0,0.4,0,0.6-0.1l11.7-2.3c1.5-0.3,2.5-1.5,2.5-2.9
	c0-0.2,0-0.3,0-0.5l-10.1-55c-0.3-1.4-1.6-2.4-3.1-2.4c-0.2,0-0.5,0-0.7,0.1l-12.9,2.7c-1.4,0.3-2.4,1.5-2.4,2.9
	c0,0.2,0,0.4,0.1,0.6L72.1,366.9l0.8-0.1l0-0.3c0-0.7,0.5-1.3,1.2-1.4l12.9-2.7l0.3,0c0.7,0,1.4,0.5,1.5,1.2l10.1,55l0,0.2
	c0,0.7-0.5,1.3-1.2,1.4L86,422.6l-0.3,0c-0.7,0-1.4-0.5-1.5-1.2l-11.3-54.7L72.1,366.9z"/>
<path class="st9" d="M75.8,367.7L79,379l10.4-1.3l-2.2-12.2L75.8,367.7z"/>
<path class="st11" d="M80.2,385.6l2.5,13.5l9.6-1.5l-2.4-13.7L80.2,385.6z"/>
<path class="st8" d="M83.3,403.9l3.2,12.8l8.7-1.5l-2.1-13.1L83.3,403.9z"/>
<path class="st3" d="M395.7,504l0.2,0.7l47-11.8l1.3,3.5l-46.7,11.4l-1.1-3.9L395.7,504l0.2,0.7L395.7,504l-0.8,0.2l1.3,4.6
	c0.1,0.4,0.5,0.6,1,0.5l48.3-11.8c0.2-0.1,0.4-0.2,0.5-0.4c0.1-0.2,0.1-0.4,0-0.6l-1.8-4.9c-0.1-0.4-0.6-0.6-1-0.5l-47.8,12
	c-0.4,0.1-0.7,0.5-0.6,0.9L395.7,504z"/>
<path class="st3" d="M388.3,497.9l1.4,4.1c0.1,0.4,0.6,0.6,1,0.5c0.4-0.1,0.6-0.5,0.5-0.9l-1.4-4.1c-0.1-0.4-0.6-0.6-1-0.5
	C388.4,497.1,388.2,497.5,388.3,497.9z"/>
<path class="st3" d="M388,501.1l4-1.3c0.4-0.1,0.6-0.6,0.5-0.9c-0.1-0.4-0.6-0.6-1-0.5l-4,1.3c-0.4,0.1-0.6,0.6-0.5,0.9
	C387.1,501,387.6,501.2,388,501.1z"/>
<path class="st3" d="M386,513.5l2.6,7.7c0.1,0.4,0.6,0.6,1,0.5c0.4-0.1,0.6-0.5,0.5-0.9l-2.6-7.7c-0.1-0.4-0.6-0.6-1-0.5
	C386.1,512.7,385.9,513.1,386,513.5z"/>
<path class="st3" d="M384.8,518.8l7.2-2.1c0.4-0.1,0.6-0.5,0.5-0.9c-0.1-0.4-0.6-0.6-1-0.5l-7.2,2.1c-0.4,0.1-0.6,0.5-0.5,0.9
	C383.9,518.7,384.4,518.9,384.8,518.8z"/>
<path class="st3" d="M375.1,500.8l3.4,10.2c0.1,0.4,0.6,0.6,1,0.5c0.4-0.1,0.6-0.5,0.5-0.9l-3.4-10.2c-0.1-0.4-0.6-0.6-1-0.5
	C375.2,500,375,500.4,375.1,500.8z"/>
<path class="st3" d="M372.7,507.6l10.1-3c0.4-0.1,0.6-0.5,0.5-0.9c-0.1-0.4-0.6-0.6-1-0.5l-10.1,3c-0.4,0.1-0.6,0.5-0.5,0.9
	C371.9,507.5,372.3,507.7,372.7,507.6z"/>
<path class="st3" d="M47.5,16.8l0.2-0.5L18,3.7l0.9-2.3l29.4,12.7L47,16.6L47.5,16.8l0.2-0.5L47.5,16.8L48,17l1.4-2.9
	c0.1-0.3,0-0.5-0.3-0.7L18.8,0.3l-0.4,0L18,0.6l-1.3,3.2c-0.1,0.2,0,0.5,0.3,0.6l30.2,12.8c0.3,0.1,0.6,0,0.7-0.2L47.5,16.8z"/>
<path class="st3" d="M48.6,22.9l1.1-2.7c0.1-0.3,0-0.5-0.3-0.6c-0.3-0.1-0.6,0-0.7,0.3l-1.1,2.7c-0.1,0.3,0,0.5,0.3,0.6
	C48.2,23.3,48.5,23.1,48.6,22.9z"/>
<path class="st3" d="M50.2,21.4l-2.7-0.9c-0.3-0.1-0.6,0-0.7,0.3c-0.1,0.3,0,0.5,0.3,0.6l2.7,0.9c0.3,0.1,0.6,0,0.7-0.3
	C50.6,21.8,50.5,21.5,50.2,21.4z"/>
<path class="st3" d="M56.8,15.7l2.1-5c0.1-0.3,0-0.5-0.3-0.6c-0.3-0.1-0.6,0-0.7,0.3l-2.1,5c-0.1,0.3,0,0.5,0.3,0.6
	C56.4,16.1,56.7,16,56.8,15.7z"/>
<path class="st3" d="M59.9,13.5l-4.7-1.7c-0.3-0.1-0.6,0-0.7,0.3c-0.1,0.3,0,0.5,0.3,0.6l4.7,1.8c0.3,0.1,0.6,0,0.7-0.3
	C60.3,13.8,60.2,13.6,59.9,13.5z"/>
<path class="st3" d="M56.8,26.7l2.8-6.6c0.1-0.3,0-0.5-0.3-0.6c-0.3-0.1-0.6,0-0.7,0.3l-2.8,6.6c-0.1,0.3,0,0.5,0.3,0.6
	C56.4,27.1,56.7,26.9,56.8,26.7z"/>
<path class="st3" d="M61.1,24.1l-6.6-2.4c-0.3-0.1-0.6,0-0.7,0.3c-0.1,0.3,0,0.5,0.3,0.6l6.6,2.4c0.3,0.1,0.6,0,0.7-0.3
	C61.5,24.5,61.4,24.2,61.1,24.1z"/>
<path class="st9" d="M160.4,256.5c-21.3-14.4-42.2-36.8-33.1-59.8c0,0,14.7-9.2,37.9,2.3c23.3,11.5,23.3,11.5,23.3,11.5L160.4,256.5
	z"/>
<path class="st0" d="M150.8,352.4c-9.6-4.3-50.5-24.3-57.8-58.4c-6.3-29.5,17.8-69.4,29.8-86.9c-0.8,23.4,24.2,43.1,36.2,51.3
	c12.2,8.3,21.2,12.3,33.6,16.7L150.8,352.4z"/>
<path class="st9" d="M127.4,196.7c0,0-45.3,57.5-36.7,97.7s61.2,60.9,61.2,60.9l44.1-81.6c-13.8-4.7-22.7-8.6-35.5-17.2
	C139.1,242.1,118.2,219.7,127.4,196.7z M121,214c2.6,15.5,15.2,31.6,36.7,46.1c11.6,7.8,20.3,11.9,31.6,16l-39.6,73.3
	c-12.1-5.6-47.8-24.7-54.4-55.9C89.8,267.6,108.5,233.2,121,214z"/>
<path class="st3" d="M114.7,230.2c0,0.1,0.7,5.9,4.5,13.3c3.8,7.4,10.7,16.4,23.2,22.7c0.4,0.2,0.9,0.1,1.1-0.3
	c0.2-0.4,0.1-0.8-0.3-1c-12.1-6.1-18.8-14.8-22.5-22c-1.8-3.6-2.9-6.8-3.5-9.2c-0.3-1.2-0.5-2.1-0.6-2.7c-0.1-0.3-0.1-0.6-0.1-0.7
	c0-0.2,0-0.2,0-0.2c0-0.4-0.4-0.7-0.9-0.7C115,229.4,114.7,229.8,114.7,230.2z"/>
<path class="st3" d="M155.5,274.5l24.6,12.4c0.4,0.2,0.9,0.1,1.1-0.3c0.2-0.4,0.1-0.8-0.3-1l-24.6-12.4c-0.4-0.2-0.9-0.1-1.1,0.3
	C155,273.8,155.1,274.3,155.5,274.5z"/>
<path class="st3" d="M118.3,263.4c0,0.1,8.1,16.8,33.8,27.6c0.4,0.2,0.9,0,1-0.4c0.2-0.4,0-0.8-0.4-1c-12.6-5.3-20.9-12-26-17.4
	c-2.5-2.7-4.3-5.1-5.4-6.7c-0.6-0.8-1-1.5-1.2-2c-0.1-0.2-0.2-0.4-0.3-0.5l-0.1-0.1l0,0c-0.2-0.4-0.6-0.5-1-0.4
	C118.3,262.6,118.1,263,118.3,263.4z"/>
<path class="st3" d="M98,265.6c0,0,0.2,4.4,2,9.6c1.8,5.1,5.2,11.1,11.6,14.1c0.4,0.2,0.9,0,1.1-0.3c0.2-0.4,0-0.8-0.4-1
	c-5.9-2.7-9.1-8.3-10.8-13.3c-0.9-2.5-1.3-4.8-1.6-6.5c-0.1-0.8-0.2-1.5-0.3-2c0-0.2,0-0.4,0-0.5l0-0.2c0-0.4-0.4-0.7-0.8-0.7
	C98.3,264.8,98,265.2,98,265.6z"/>
<path class="st3" d="M126.1,205.3c0,0,0,0.3,0,0.9c0,4.5,1.9,25.1,33.8,50.8c0.3,0.3,0.8,0.2,1.1-0.1c0.3-0.3,0.2-0.8-0.1-1
	c-31.6-25.5-33.3-45.6-33.3-49.7c0-0.3,0-0.5,0-0.6l0-0.1l0,0c0-0.4-0.3-0.8-0.7-0.8C126.5,204.6,126.2,204.9,126.1,205.3z"/>
<path class="st3" d="M140.1,210.2L140.1,210.2c0.1,0,0.2,0,0.5,0c2.3,0,12.6,0.6,27.1,10.6c0.4,0.2,0.8,0.2,1.1-0.2
	c0.3-0.3,0.2-0.8-0.2-1c-14.7-10.2-25.5-10.9-28-10.9c-0.4,0-0.6,0-0.6,0c-0.4,0-0.8,0.4-0.7,0.8C139.3,210,139.7,210.3,140.1,210.2
	"/>
<path class="st3" d="M85.6,280.4c-0.1,0.9-0.1,2-0.1,3.3c0,7.2,1.5,19.8,10.1,33.5c8.6,13.8,24.4,28.6,52.9,40.4
	c0.4,0.2,0.9,0,1-0.4c0.2-0.4,0-0.8-0.4-1c-28.2-11.7-43.7-26.3-52.1-39.8c-8.5-13.5-9.9-25.8-9.9-32.8c0-1.2,0-2.3,0.1-3.2
	c0-0.4-0.3-0.8-0.7-0.8C86,279.7,85.6,280,85.6,280.4z"/>
<path class="st9" d="M480.1,258.2l-26.1,49.2c0,0,17.7,6.1,3.9,25.2c0,0,32.8,12.8,54.2-20.4C533.5,279.1,480.1,258.2,480.1,258.2z"
	/>
<path class="st0" d="M420.2,408.7c-13.2,0-27.2-5.1-41.5-15.1l48.9-76.1l29.1,17.2l0.2,0.1c0.3,0.1,6.7,2.6,15.9,2.6h0
	c7.4,0,16.6-1.6,25.7-7.6l-35.8,57.4C462.6,387.3,447.2,408.6,420.2,408.7L420.2,408.7z"/>
<path class="st9" d="M512,312.3c-12.1,18.7-27.9,22.8-39.3,22.8c-8.8,0-15-2.4-15-2.4l-31-18.3l-51.3,79.8
	c17.2,12.4,32.1,16.7,44.7,16.7c28.6,0,44.5-22.6,44.5-22.6L512,312.3z M428.4,326.6l26.9,14.8l0.3,0.2l0.4,0.1
	c0.3,0.1,7.2,2.6,16.8,2.6c5.6,0,12.3-0.8,19.1-3.5l-31.2,46.6c-1,1.3-15.5,19.1-40.5,19.1c-12.2,0-25.1-4.2-38.4-12.5L428.4,326.6z
	"/>
<path class="st3" d="M453.7,308.2L453.7,308.2c0.6,0.2,3,1.1,5.2,3c2.2,1.8,4.2,4.5,4.2,8.3c0,3.3-1.5,7.5-5.9,12.8
	c-0.3,0.3-0.2,0.8,0.1,1c0.3,0.3,0.8,0.2,1.1-0.1c4.5-5.4,6.2-10,6.2-13.7c0-4.6-2.7-7.9-5.3-9.8c-2.6-2-5.2-2.8-5.2-2.9
	c-0.4-0.1-0.9,0.1-1,0.5C453,307.6,453.3,308,453.7,308.2z"/>
<path class="st3" d="M425.7,313.2c0,0,6.6,5.7,15.1,11.4c4.2,2.9,9,5.7,13.6,7.9c4.6,2.2,9.1,3.6,13,3.6l0.2,0
	c7.4-0.1,15.5-0.9,23.1-3.9c7.6-2.9,14.6-8,19.7-16.4c0.2-0.4,0.1-0.8-0.3-1c-0.4-0.2-0.9-0.1-1.1,0.3c-5,8.1-11.7,12.9-19,15.8
	c-7.3,2.8-15.2,3.7-22.5,3.8l-0.1,0c-3.5,0-7.8-1.4-12.3-3.5c-6.7-3.2-13.8-7.9-19.2-11.9c-2.7-2-5-3.8-6.6-5.1
	c-0.8-0.6-1.4-1.2-1.9-1.5c-0.4-0.4-0.7-0.6-0.7-0.6c-0.3-0.3-0.8-0.3-1.1,0C425.3,312.5,425.4,312.9,425.7,313.2z"/>
<path class="st3" d="M429,342.8c0.1,0,13.7,11.5,30.9,11.5c2.8,0,5.6-0.3,8.5-1c0.4-0.1,0.7-0.5,0.6-0.9c-0.1-0.4-0.5-0.6-1-0.5
	c-2.8,0.7-5.5,0.9-8.1,0.9c-8.2,0-15.7-2.8-21.1-5.6c-2.7-1.4-4.9-2.8-6.4-3.8c-0.8-0.5-1.3-1-1.7-1.3c-0.2-0.2-0.3-0.3-0.4-0.3
	l-0.1-0.1c-0.3-0.3-0.8-0.2-1.1,0.1C428.6,342,428.6,342.5,429,342.8z"/>
<path class="st3" d="M448.2,365.5c0.1,0.1,4.6,3.2,11.9,3.3c3.4,0,7.5-0.7,11.9-2.8c0.4-0.2,0.5-0.6,0.3-1c-0.2-0.4-0.7-0.5-1.1-0.3
	c-4.2,2-8,2.7-11.2,2.7c-3.4,0-6.1-0.7-8-1.5c-1-0.4-1.7-0.7-2.2-1c-0.2-0.1-0.4-0.3-0.6-0.3l-0.1-0.1l0,0c-0.3-0.2-0.8-0.2-1.1,0.1
	C447.7,364.8,447.8,365.3,448.2,365.5z"/>
<path class="st3" d="M404.1,374.8c0.1,0.1,12.7,11.9,34,11.9c7,0,15-1.3,23.7-4.7c0.4-0.2,0.6-0.6,0.4-1c-0.2-0.4-0.6-0.6-1-0.4
	c-8.5,3.3-16.3,4.6-23.1,4.6c-10.3,0-18.6-2.9-24.2-5.7c-2.8-1.4-5-2.9-6.5-3.9c-0.7-0.5-1.3-1-1.7-1.3c-0.2-0.2-0.3-0.3-0.4-0.4
	l-0.1-0.1c-0.3-0.3-0.8-0.3-1.1,0C403.8,374.1,403.8,374.6,404.1,374.8z"/>
<path class="st3" d="M416.2,354.8c0,0,2.3,1.5,5.2,3.3c3,1.8,6.7,3.8,9.6,4.8c0.4,0.1,0.9-0.1,1-0.4c0.1-0.4-0.1-0.8-0.5-1
	c-2.7-0.9-6.4-2.9-9.3-4.6c-1.5-0.9-2.8-1.7-3.7-2.3c-0.9-0.6-1.5-1-1.5-1c-0.4-0.2-0.8-0.2-1.1,0.2
	C415.7,354.1,415.8,354.6,416.2,354.8z"/>
<path class="st3" d="M484.3,273.2L484.3,273.2c0.6,0.2,5.5,1.9,10.6,6.5c5.1,4.6,10.3,12.1,11.5,24c0,0.4,0.4,0.7,0.9,0.7
	c0.4,0,0.8-0.4,0.7-0.8c-1.2-12.7-7-20.7-12.4-25.4c-5.5-4.8-10.6-6.4-10.7-6.4c-0.4-0.1-0.9,0.1-1,0.5
	C483.7,272.7,483.9,273.1,484.3,273.2z"/>
<path class="st3" d="M494,303.8L494,303.8c0.3,0.4,2.6,4.1,2.6,9.3c0,4.7-1.8,10.6-8.9,16.7c-0.3,0.3-0.3,0.7-0.1,1
	c0.3,0.3,0.8,0.3,1.1,0c7.3-6.3,9.4-12.7,9.4-17.8c0-6-2.8-10.1-2.9-10.1c-0.2-0.3-0.7-0.4-1.1-0.2C493.9,303,493.8,303.5,494,303.8
	z"/>
<path class="st3" d="M376.9,398.5c0.1,0,20.3,16.4,44.8,16.4c14.3,0,30.1-5.7,43.7-23.4c0.3-0.3,0.2-0.8-0.2-1
	c-0.4-0.2-0.8-0.2-1.1,0.2c-13.4,17.4-28.6,22.8-42.4,22.8c-11.9,0-22.8-4-30.8-8c-4-2-7.2-4-9.5-5.5c-1.1-0.8-2-1.4-2.6-1.8
	c-0.3-0.2-0.5-0.4-0.7-0.5c-0.1-0.1-0.2-0.2-0.2-0.2c-0.3-0.3-0.8-0.2-1.1,0.1C376.5,397.7,376.6,398.2,376.9,398.5"/>
<path class="st14" d="M12.1,243.6h11.8c0.4,0,0.8-0.3,0.8-0.7c0-0.4-0.4-0.7-0.8-0.7H12.1c-0.4,0-0.8,0.3-0.8,0.7
	C11.3,243.3,11.7,243.6,12.1,243.6z"/>
<path class="st14" d="M669.4,110.4h11.8c0.4,0,0.8-0.3,0.8-0.7c0-0.4-0.4-0.7-0.8-0.7h-11.8c-0.4,0-0.8,0.3-0.8,0.7
	C668.6,110,668.9,110.4,669.4,110.4z"/>
<path class="st11" d="M353,34.4h11.8v-1.5H353V34.4z"/>
<path class="st11" d="M691.7,167.8l11.6,2l0.3-1.5l-11.6-2"/>
<path class="st2" d="M228.4,444.3h11.8c0.4,0,0.8-0.3,0.8-0.7c0-0.4-0.4-0.7-0.8-0.7h-11.8c-0.4,0-0.8,0.3-0.8,0.7
	C227.6,444,228,444.3,228.4,444.3z"/>
<path class="st12" d="M721.2,305.4c0,2-1.8,3.7-3.9,3.7c-2.2,0-3.9-1.6-3.9-3.7c0-2,1.8-3.7,3.9-3.7
	C719.5,301.8,721.2,303.4,721.2,305.4z"/>
<defs>
	<filter id="Adobe_OpacityMaskFilter" filterUnits="userSpaceOnUse" x="365.1" y="264.5" width="636.9" height="278.4">
		<feColorMatrix  type="matrix" values="1 0 0 0 0  0 1 0 0 0  0 0 1 0 0  0 0 0 1 0"/>
	</filter>
</defs>
<mask maskUnits="userSpaceOnUse" x="365.1" y="264.5" width="636.9" height="278.4" id="mask0_1_">
	<path class="st15" d="M692,340h80.2v202.9H692V340z"/>
</mask>
<g class="st16">
	<path class="st3" d="M759.7,531.6c-2.2-0.6-3.4-2.8-2.7-4.9c0.7-2,3-3.2,5.2-2.5c2.2,0.7,3.4,2.8,2.7,4.9
		C764.2,531.1,761.9,532.2,759.7,531.6z"/>
	<path class="st5" d="M998.8,395.3c0,0,3.1-8.8,3.2-19.4c0-7.9-1.8-16.9-8-23.9c-6.3-7-17-12-34.6-12c-17.3,0-41.3,4.8-74.5,17
		c-64.8,23.9-113,59.1-145,92.2c-16,16.6-27.9,32.6-35.9,46.5c-8,13.9-11.9,25.7-11.9,33.8c0,2.7,0.5,5.1,1.4,7c1,1.9,2.5,3.3,4.5,4
		c4.6,1.7,9.6,2.4,14.7,2.4c11.5,0,23.4-3.5,32.4-7c9.1-3.5,15.3-7,15.3-7c0.4-0.2,0.5-0.7,0.3-1c-0.2-0.4-0.7-0.5-1.1-0.3
		c0,0-0.1,0.1-0.3,0.2c-1.4,0.8-7.8,4.2-16.5,7.4c-8.7,3.2-19.7,6.3-30.1,6.3c-4.9,0-9.7-0.7-14.1-2.3c-1.6-0.6-2.8-1.7-3.6-3.3
		c-0.8-1.6-1.3-3.7-1.3-6.3c0-7.7,3.9-19.3,11.8-33.1C729,455,788.5,394.1,885.4,358.4c33.1-12.2,56.9-16.9,73.9-16.9
		c17.3,0,27.5,4.8,33.4,11.4c5.9,6.6,7.7,15.2,7.7,23c0,5.1-0.8,9.9-1.5,13.3c-0.4,1.7-0.8,3.1-1.1,4.1c-0.1,0.5-0.3,0.9-0.3,1.1
		c-0.1,0.3-0.1,0.4-0.1,0.4c-0.1,0.4,0.1,0.8,0.5,0.9C998.3,395.9,998.7,395.6,998.8,395.3z"/>
	<g>
		<text transform="matrix(1 0 0 1 365.1416 274.522)" class="st17 st18">c6cbcb</text>
	</g>
</g>
</svg>
