<?xml version="1.0" encoding="utf-8"?>
<!-- Generator: Adobe Illustrator 25.3.0, SVG Export Plug-In . SVG Version: 6.00 Build 0)  -->
<svg version="1.1" id="Calque_1" xmlns="http://www.w3.org/2000/svg" xmlns:xlink="http://www.w3.org/1999/xlink" x="0px" y="0px"
	 viewBox="0 0 750 500" style="enable-background:new 0 0 750 500;" xml:space="preserve">
<style type="text/css">
	.st0{fill:#EBEBEB;}
	.st1{fill:#FFFFFF;}
	.st2{fill:#DBDBDB;}
	.st3{fill:#C7C7C7;}
	.st4{fill:#A6A6A6;}
	.st5{fill:#ECEFF1;}
	.st6{fill:#263238;}
	.st7{fill:#455A64;}
	.st8{opacity:0.1;fill:#263238;enable-background:new    ;}
	.st9{fill:#AD6359;}
	.st10{fill:#64A9A5;}
	.st11{fill:#DFDEBB;}
	.st12{fill:#37474F;}
	.st13{font-family:'MyriadPro-Regular';}
	.st14{font-size:12px;}
	.st15{opacity:0.1;enable-background:new    ;}
	.st16{opacity:0.8;fill:#ECEFF1;enable-background:new    ;}
	.st17{opacity:0.6;fill:#ECEFF1;enable-background:new    ;}
	.st18{opacity:0.4;fill:#ECEFF1;enable-background:new    ;}
	.st19{opacity:0.2;fill:#ECEFF1;enable-background:new    ;}
	.st20{opacity:0.1;}
	.st21{opacity:0.8;enable-background:new    ;}
	.st22{opacity:0.6;enable-background:new    ;}
	.st23{opacity:0.4;enable-background:new    ;}
	.st24{opacity:0.2;enable-background:new    ;}
	.st25{fill:#FF9ABB;}
	.st26{fill:#F7A9A0;}
	.st27{fill:#FF99BA;}
	.st28{opacity:0.1;fill:#DFDEBB;enable-background:new    ;}
	.st29{fill:#EB9481;}
	.st30{fill:#01080C;}
	.st31{opacity:0.6;fill:#FFFFFF;enable-background:new    ;}
	.st32{opacity:0.2;fill:#FFFFFF;enable-background:new    ;}
</style>
<g id="freepik--background-complete--inject-339">
	<polygon class="st0" points="685,379.7 683.2,379.7 683.2,378.5 683.8,378.5 683.8,378 685,378 	"/>
	<path class="st0" d="M680.8,379.7h-2.4v-1.2h2.4V379.7z M676,379.7h-2.4v-1.2h2.4V379.7z M671.2,379.7h-2.4v-1.2h2.4V379.7z
		 M666.4,379.7H664v-1.2h2.4L666.4,379.7z M661.6,379.7h-2.4v-1.2h2.4V379.7z M656.9,379.7h-2.4v-1.2h2.4V379.7z M652.1,379.7h-2.4
		v-1.2h2.4V379.7z M647.3,379.7h-2.4v-1.2h2.4V379.7z M642.5,379.7h-2.4v-1.2h2.4V379.7z M637.7,379.7h-2.4v-1.2h2.4V379.7z
		 M632.9,379.7h-2.4v-1.2h2.4V379.7z M628.1,379.7h-2.4v-1.2h2.4V379.7z M623.3,379.7h-2.4v-1.2h2.4V379.7z"/>
	<polygon class="st0" points="618.5,379.7 616.8,379.7 616.8,378 618,378 618,378.5 618.5,378.5 	"/>
	<path class="st0" d="M618,375.6h-1.2v-2.4h1.2V375.6z M618,370.8h-1.2v-2.4h1.2V370.8z M618,366h-1.2v-2.4h1.2V366z M618,361.2
		h-1.2v-2.4h1.2V361.2z M618,356.4h-1.2V354h1.2V356.4z M618,351.6h-1.2v-2.4h1.2V351.6z M618,346.8h-1.2v-2.4h1.2V346.8z M618,342
		h-1.2v-2.4h1.2V342z M618,337.3h-1.2v-2.4h1.2V337.3z M618,332.5h-1.2v-2.4h1.2V332.5z M618,327.7h-1.2v-2.4h1.2V327.7z M618,322.9
		h-1.2v-2.4h1.2V322.9z M618,318.1h-1.2v-2.4h1.2V318.1z"/>
	<polygon class="st0" points="618,313.3 616.8,313.3 616.8,311.5 618.5,311.5 618.5,312.7 618,312.7 	"/>
	<path class="st0" d="M680.8,312.7h-2.4v-1.2h2.4V312.7z M676,312.7h-2.4v-1.2h2.4V312.7z M671.2,312.7h-2.4v-1.2h2.4V312.7z
		 M666.4,312.7H664v-1.2h2.4L666.4,312.7z M661.6,312.7h-2.4v-1.2h2.4V312.7z M656.9,312.7h-2.4v-1.2h2.4V312.7z M652.1,312.7h-2.4
		v-1.2h2.4V312.7z M647.3,312.7h-2.4v-1.2h2.4V312.7z M642.5,312.7h-2.4v-1.2h2.4V312.7z M637.7,312.7h-2.4v-1.2h2.4V312.7z
		 M632.9,312.7h-2.4v-1.2h2.4V312.7z M628.1,312.7h-2.4v-1.2h2.4V312.7z M623.3,312.7h-2.4v-1.2h2.4V312.7z"/>
	<polygon class="st0" points="685,313.3 683.8,313.3 683.8,312.7 683.2,312.7 683.2,311.5 685,311.5 	"/>
	<path class="st0" d="M685,375.6h-1.2v-2.4h1.2V375.6z M685,370.8h-1.2v-2.4h1.2V370.8z M685,366h-1.2v-2.4h1.2V366z M685,361.2
		h-1.2v-2.4h1.2V361.2z M685,356.4h-1.2V354h1.2V356.4z M685,351.6h-1.2v-2.4h1.2V351.6z M685,346.8h-1.2v-2.4h1.2V346.8z M685,342
		h-1.2v-2.4h1.2V342z M685,337.3h-1.2v-2.4h1.2V337.3z M685,332.5h-1.2v-2.4h1.2V332.5z M685,327.7h-1.2v-2.4h1.2V327.7z M685,322.9
		h-1.2v-2.4h1.2V322.9z M685,318.1h-1.2v-2.4h1.2V318.1z"/>
	<rect x="613.2" y="375" class="st1" width="8.3" height="8.4"/>
	<path class="st0" d="M622.1,383.9h-9.5v-9.5h9.5V383.9z M613.8,382.7h7.2v-7.2h-7.2L613.8,382.7z"/>
	<rect x="613.2" y="341.5" class="st1" width="8.3" height="8.4"/>
	<path class="st0" d="M622.1,350.4h-9.5v-9.5h9.5V350.4z M613.8,349.2h7.2v-7.2h-7.2L613.8,349.2z"/>
	<rect x="613.2" y="308" class="st1" width="8.3" height="8.4"/>
	<path class="st0" d="M622.1,316.9h-9.5v-9.5h9.5V316.9z M613.8,315.7h7.2v-7.2h-7.2L613.8,315.7z"/>
	<rect x="680.2" y="375" class="st1" width="8.3" height="8.4"/>
	<path class="st0" d="M689.1,383.9h-9.5v-9.5h9.5V383.9z M680.8,382.7h7.2v-7.2h-7.2L680.8,382.7z"/>
	<rect x="680.2" y="341.5" class="st1" width="8.3" height="8.4"/>
	<path class="st0" d="M689.1,350.4h-9.5v-9.5h9.5V350.4z M680.8,349.2h7.2v-7.2h-7.2L680.8,349.2z"/>
	<rect x="680.2" y="308" class="st1" width="8.3" height="8.4"/>
	<path class="st0" d="M689.1,316.9h-9.5v-9.5h9.5V316.9z M680.8,315.7h7.2v-7.2h-7.2L680.8,315.7z"/>
	<rect x="646.7" y="308" class="st1" width="8.3" height="8.4"/>
	<path class="st0" d="M655.6,316.9h-9.5v-9.5h9.5V316.9z M647.3,315.7h7.2v-7.2h-7.2V315.7z"/>
	<rect x="646.7" y="375" class="st1" width="8.3" height="8.4"/>
	<path class="st0" d="M655.6,383.9h-9.5v-9.5h9.5V383.9z M647.3,382.7h7.2v-7.2h-7.2V382.7z"/>
	<path class="st2" d="M651.7,353.6h-13.4l-5.2,14.6h5.1v1.3h-10.3v-1.3h3.2l17.2-46.4h5.5l17,46.4h3.1v1.3h-22.1v-1.3h4.8
		L651.7,353.6z M638.9,352.1h12.2l-5.9-17.7L638.9,352.1z"/>
	<path class="st0" d="M120.4,83c0,0-0.2,13.2-8.7,28.1H99.8c-8.4-15-8.7-28.1-8.7-28.1c12.2-6.8,12.5-22.1,12.5-22.1h1.2V85
		c-2,0.5-3.2,2.5-2.8,4.5c0.5,2,2.5,3.2,4.5,2.8c2-0.5,3.2-2.5,2.8-4.5c-0.3-1.4-1.4-2.5-2.8-2.8V60.9h1.2
		C107.9,60.9,108.2,76.1,120.4,83z"/>
	<rect x="97" y="109.6" class="st3" width="17.5" height="7.4"/>
	<path class="st0" d="M146.5,100.4h-1.2c0-21.8-17.7-39.5-39.5-39.5s-39.5,17.7-39.5,39.5h-1.2c0-22.5,18.2-40.7,40.7-40.7
		C128.3,59.7,146.5,77.9,146.5,100.4z"/>
	<rect x="64.7" y="59.2" class="st0" width="81.2" height="1.2"/>
	<rect x="61.5" y="96.2" class="st1" width="8.3" height="8.3"/>
	<path class="st0" d="M70.4,105.1h-9.5v-9.5h9.5V105.1z M62,104h7.2v-7.2H62V104z"/>
	<rect x="61.5" y="55.6" class="st1" width="8.3" height="8.3"/>
	<path class="st0" d="M70.4,64.5h-9.5V55h9.5V64.5z M62.1,63.3h7.2v-7.2H62L62.1,63.3z"/>
	<rect x="141.7" y="96.2" class="st1" width="8.4" height="8.3"/>
	<path class="st0" d="M150.7,105.1h-9.5v-9.5h9.5V105.1z M142.3,104h7.2v-7.2h-7.2V104z"/>
	<rect x="141.7" y="55.6" class="st1" width="8.4" height="8.3"/>
	<path class="st0" d="M150.7,64.5h-9.5V55h9.5V64.5z M142.3,63.3h7.2v-7.2h-7.2V63.3z"/>
	<path class="st0" d="M184.5,243.3H57.8v-86.6h126.6V243.3z M58.9,242.3h124.6v-84.6H58.8L58.9,242.3z"/>
	<path class="st4" d="M67.8,162.2c0,1.4-1.1,2.5-2.5,2.5c-1.4,0-2.5-1.1-2.5-2.5c0-1.4,1.1-2.5,2.5-2.5
		C66.6,159.7,67.8,160.9,67.8,162.2L67.8,162.2z"/>
	<path class="st0" d="M78,162.2c0,1.4-1.1,2.5-2.5,2.5c-1.4,0-2.5-1.1-2.5-2.5c0-1.4,1.1-2.5,2.5-2.5S78,160.9,78,162.2L78,162.2z"
		/>
	<path class="st5" d="M88.3,162.2c0,1.4-1.1,2.5-2.5,2.5c-1.4,0-2.5-1.1-2.5-2.5c0-1.4,1.1-2.5,2.5-2.5S88.3,160.9,88.3,162.2
		L88.3,162.2z"/>
	<rect x="58.3" y="166.7" class="st0" width="125.6" height="1"/>
	<path class="st0" d="M665.7,239.6l5.9-9.5l-2.9-1.8c-0.8-0.5-1.3-1.5-1.2-2.5c0-0.6,0-1.1,0-1.7c0-1,0.5-1.9,1.4-2.4l3-1.6
		l-5.3-9.8l-3,1.6c-0.9,0.5-2,0.4-2.8-0.2c-0.5-0.3-0.9-0.6-1.4-0.9c-0.9-0.5-1.4-1.4-1.4-2.4l0.1-3.4l-11.1-0.4l-0.1,3.4
		c0,1-0.6,1.9-1.6,2.3l-0.7,0.4l-0.7,0.4c-0.8,0.5-1.9,0.5-2.8,0l-2.9-1.8l-5.9,9.5l2.9,1.8c0.8,0.5,1.3,1.5,1.2,2.5
		c0,0.6-0.1,1.1-0.1,1.7c0,1-0.5,1.9-1.4,2.4l-3,1.6l5.3,9.9l3-1.6c0.9-0.5,2-0.4,2.8,0.2c0.5,0.3,0.9,0.6,1.4,0.9
		c0.9,0.5,1.4,1.4,1.4,2.4l-0.1,3.4l11.2,0.3l0.1-3.4c0-1,0.6-1.9,1.5-2.3c0.2-0.1,0.5-0.2,0.7-0.4s0.5-0.3,0.7-0.4
		c0.9-0.5,1.9-0.5,2.8,0L665.7,239.6z M656.3,232.6c-4.5,2.4-10,0.7-12.4-3.7s-0.7-10,3.7-12.4c4.4-2.4,10-0.7,12.4,3.7
		C662.4,224.7,660.7,230.2,656.3,232.6C656.3,232.6,656.3,232.6,656.3,232.6L656.3,232.6z"/>
	<path class="st0" d="M111.8,376.9l5.9-9.5l-2.9-1.8c-0.9-0.5-1.3-1.5-1.2-2.5c0.1-0.6,0.1-1.1,0.1-1.7c0-1,0.5-1.9,1.4-2.4l3-1.6
		l-5.3-9.9l-3,1.6c-0.9,0.5-1.9,0.4-2.7-0.2c-0.5-0.3-0.9-0.6-1.4-0.9c-0.9-0.5-1.4-1.4-1.4-2.4l0.1-3.4l-11.2-0.4l-0.1,3.4
		c0,1-0.6,1.9-1.6,2.3c-0.2,0.1-0.5,0.2-0.7,0.4s-0.5,0.3-0.7,0.4c-0.9,0.5-1.9,0.5-2.8,0l-2.9-1.8l-5.9,9.5l2.9,1.9
		c0.9,0.5,1.3,1.5,1.2,2.5c0,0.6,0,1.1,0,1.7c0,1-0.5,1.9-1.4,2.4l-3,1.6l5.2,9.8l3-1.6c0.9-0.5,2-0.4,2.8,0.2
		c0.5,0.3,0.9,0.6,1.4,0.9c0.9,0.5,1.4,1.4,1.4,2.4l-0.1,3.4l11.2,0.3l0.1-3.4c0-1,0.6-1.9,1.6-2.3l0.7-0.4c0.2-0.1,0.5-0.3,0.7-0.4
		c0.9-0.5,1.9-0.5,2.8,0L111.8,376.9z M102.4,369.8c-4.5,2.4-10,0.7-12.4-3.7c-2.4-4.5-0.7-10,3.7-12.4c4.5-2.4,10-0.7,12.4,3.7
		c0,0,0,0,0,0C108.5,361.9,106.8,367.4,102.4,369.8C102.4,369.8,102.4,369.8,102.4,369.8L102.4,369.8z"/>
	<path class="st0" d="M625.7,167.6l-3.9-6.8l-2.1,1.2c-0.6,0.4-1.4,0.3-2-0.1c-0.3-0.2-0.7-0.4-1-0.6c-0.6-0.3-1-1-1-1.6v-2.4h-7.8
		v2.4c0,0.7-0.4,1.3-1,1.6c-0.3,0.2-0.7,0.4-1,0.6c-0.6,0.4-1.4,0.4-2,0.1l-2.1-1.2l-3.9,6.8l2.1,1.2c0.6,0.4,1,1,0.9,1.7
		c0,0.2,0,0.4,0,0.6s0,0.4,0,0.6c0,0.7-0.3,1.4-0.9,1.7l-2.1,1.2l3.9,6.8l2.1-1.2c0.6-0.4,1.4-0.3,2,0.1c0.3,0.2,0.7,0.4,1,0.6
		c0.6,0.3,1,1,1,1.6v2.4h7.8v-2.4c0-0.7,0.4-1.3,1-1.6c0.3-0.2,0.7-0.4,1-0.6c0.6-0.4,1.4-0.4,2-0.1l2.1,1.2l3.9-6.8l-2.1-1.2
		c-0.6-0.4-1-1-0.9-1.7c0-0.2,0-0.4,0-0.6s0-0.4,0-0.6c-0.1-0.7,0.3-1.4,0.9-1.7L625.7,167.6z M618.2,171.1c0,3.5-2.9,6.4-6.4,6.4
		c-3.5,0-6.4-2.9-6.4-6.4c0-3.5,2.9-6.4,6.4-6.4c0,0,0,0,0,0C615.4,164.7,618.2,167.5,618.2,171.1
		C618.2,171.1,618.2,171.1,618.2,171.1z"/>
</g>
<g id="freepik--Floor--inject-339">
	<polygon class="st6" points="46.2,419.1 128.4,418.9 210.6,418.8 375,418.6 539.4,418.8 621.6,418.9 703.8,419.1 621.6,419.4 
		539.4,419.4 375,419.6 210.6,419.4 128.4,419.4 	"/>
</g>
<g id="freepik--Shadow--inject-339">
	<ellipse class="st0" cx="375" cy="456.8" rx="304" ry="15.4"/>
</g>
<g id="freepik--Screens--inject-339">
	<rect x="188.8" y="60.5" class="st3" width="372.2" height="271.7"/>
	<rect x="188.8" y="60.5" class="st6" width="372.4" height="10.2"/>
	<path class="st3" d="M197.7,65.6c0,1.3-1,2.3-2.3,2.3c-1.3,0-2.3-1-2.3-2.3s1-2.3,2.3-2.3l0,0C196.7,63.3,197.7,64.4,197.7,65.6z"
		/>
	<path class="st1" d="M207.1,65.6c0,1.3-1,2.3-2.3,2.3c-1.3,0-2.3-1-2.3-2.3s1-2.3,2.3-2.3l0,0C206,63.3,207.1,64.4,207.1,65.6z"/>
	<path class="st5" d="M216.4,65.6c0,1.3-1,2.3-2.3,2.3c-1.3,0-2.3-1-2.3-2.3s1-2.3,2.3-2.3l0,0C215.4,63.3,216.4,64.4,216.4,65.6z"
		/>
	<rect x="225.5" y="104.8" class="st1" width="299" height="199"/>
	<path class="st5" d="M306.1,242.3V241c32.3,0,58.5-26.2,58.5-58.5S338.4,124,306.1,124s-58.5,26.2-58.5,58.5h-1.3
		c0-33,26.8-59.8,59.8-59.8s59.8,26.8,59.8,59.8S339.1,242.3,306.1,242.3C306.1,242.3,306.1,242.3,306.1,242.3L306.1,242.3z"/>
	<path class="st1" d="M250.1,182.5c0,1.8-1.4,3.2-3.2,3.2s-3.2-1.4-3.2-3.2c0-1.8,1.4-3.2,3.2-3.2S250.1,180.7,250.1,182.5
		L250.1,182.5z"/>
	<path class="st5" d="M246.9,186.4c-2.1,0-3.9-1.7-3.9-3.9c0-2.1,1.7-3.9,3.9-3.9c2.1,0,3.9,1.7,3.9,3.9c0,0,0,0,0,0
		C250.8,184.7,249.1,186.4,246.9,186.4z M246.9,180c-1.4,0-2.6,1.1-2.6,2.6s1.1,2.6,2.6,2.6s2.6-1.1,2.6-2.6l0,0
		C249.5,181.1,248.3,180,246.9,180L246.9,180z"/>
	<path class="st5" d="M288.1,170.2c0,3.9-3.1,7-7,7s-7-3.1-7-7s3.1-7,7-7S288.1,166.3,288.1,170.2z"/>
	<path class="st5" d="M338,170.2c0,3.9-3.1,7-7,7s-7-3.1-7-7s3.1-7,7-7S338,166.3,338,170.2z"/>
	<circle class="st1" cx="365.2" cy="182.5" r="3.2"/>
	<path class="st5" d="M365.2,186.4c-2.1,0-3.9-1.7-3.9-3.9s1.7-3.9,3.9-3.9c2.1,0,3.9,1.7,3.9,3.9c0,0,0,0,0,0
		C369.1,184.7,367.4,186.4,365.2,186.4z M365.2,180c-1.4,0-2.6,1.1-2.6,2.6s1.1,2.6,2.6,2.6s2.6-1.1,2.6-2.6l0,0
		C367.8,181.1,366.6,180,365.2,180L365.2,180z"/>
	<path class="st1" d="M309.3,123.4c0,1.8-1.4,3.2-3.2,3.2s-3.2-1.4-3.2-3.2s1.4-3.2,3.2-3.2l0,0
		C307.9,120.2,309.3,121.6,309.3,123.4z"/>
	<path class="st5" d="M306.1,127.2c-2.1,0-3.9-1.7-3.9-3.9c0-2.1,1.7-3.9,3.9-3.9s3.9,1.7,3.9,3.9c0,0,0,0,0,0
		C309.9,125.5,308.2,127.2,306.1,127.2z M306.1,120.8c-1.4,0-2.6,1.1-2.6,2.5s1.1,2.6,2.5,2.6c1.4,0,2.6-1.1,2.6-2.5c0,0,0,0,0,0
		C308.6,122,307.5,120.8,306.1,120.8z"/>
	<path class="st5" d="M309.3,241.6c0,1.8-1.4,3.2-3.2,3.2c-1.8,0-3.2-1.4-3.2-3.2c0-1.8,1.4-3.2,3.2-3.2l0,0
		C307.9,238.4,309.3,239.9,309.3,241.6z"/>
	<path class="st5" d="M319.2,168.6c-0.2,7.2-6.2,12.9-13.5,12.7c-7-0.2-12.5-5.8-12.7-12.7H319.2z"/>
	<rect x="399.4" y="123.7" class="st5" width="88.5" height="8.2"/>
	<rect x="399.6" y="132" class="st1" width="88" height="87.8"/>
	<path class="st2" d="M487.9,219.9h-88.5v-88.1h88.5L487.9,219.9z M399.9,219.6h87.5v-87.5h-87.5V219.6z"/>
	<polygon class="st2" points="399.9,219.8 399.4,219.7 487.4,131.9 487.9,132 	"/>
	<polygon class="st2" points="487.4,219.8 399.4,132 399.9,131.9 487.9,219.7 	"/>
	<rect x="399.4" y="230.8" class="st2" width="56.1" height="4.2"/>
	<rect x="399.4" y="239.6" class="st2" width="88.2" height="2.4"/>
	<rect x="399.4" y="245.5" class="st2" width="88.2" height="2.4"/>
	<rect x="399.4" y="251.4" class="st2" width="88.2" height="2.4"/>
	<rect x="399.4" y="257.4" class="st2" width="88.2" height="2.4"/>
	<rect x="399.4" y="263.3" class="st2" width="40" height="2.4"/>
	<rect x="399.4" y="275.1" class="st2" width="88.2" height="2.4"/>
	<rect x="399.4" y="281" class="st2" width="88.2" height="2.4"/>
	<rect x="399.4" y="286.9" class="st2" width="88.2" height="2.4"/>
	<rect x="107.6" y="122.7" class="st2" width="52" height="195.7"/>
	
		<rect x="111.6" y="124.3" transform="matrix(0.7071 -0.7071 0.7071 0.7071 -56.7717 116.1256)" class="st1" width="0.4" height="4.5"/>
	
		<rect x="109.5" y="126.4" transform="matrix(0.7071 -0.7071 0.7071 0.7071 -56.7717 116.1256)" class="st1" width="4.6" height="0.4"/>
	<rect x="154" y="126.1" transform="matrix(0.707 -0.7072 0.7072 0.707 -44.9255 146.3837)" class="st1" width="0.4" height="2.7"/>
	
		<rect x="152.8" y="125.6" transform="matrix(0.7072 -0.707 0.707 0.7072 -43.7929 145.847)" class="st1" width="2.7" height="0.4"/>
	<rect x="156.1" y="126" transform="matrix(0.7071 -0.7071 0.7071 0.7071 -44.3 147.8326)" class="st1" width="0.4" height="2.7"/>
	<rect x="155" y="125.6" transform="matrix(0.7072 -0.707 0.707 0.7072 -43.1732 147.3339)" class="st1" width="2.7" height="0.4"/>
	<path class="st1" d="M121.9,155.2l-2.2-5.4l-4,3.1v-17.4l12.1,12.3l-5.1,0.8l2.2,5.4L121.9,155.2z M120.1,148.5l2.3,5.6l1.5-0.6
		l-2.3-5.6l4.5-0.7l-9.5-9.6v13.6L120.1,148.5z"/>
	<polygon class="st1" points="149.6,148.2 151.9,153.7 149.6,154.7 147.3,149.1 143.6,152.1 143.6,136.6 154.4,147.5 	"/>
	
		<rect x="113" y="176" transform="matrix(0.6146 -0.7889 0.7889 0.6146 -92.5091 163.9773)" class="st1" width="17.2" height="1.3"/>
	<polygon class="st1" points="120.5,171.2 117.9,171.6 117.4,174.4 116.8,171.6 114.2,171.2 116.8,170.5 117.4,168 118,170.5 	"/>
	<polygon class="st1" points="126.3,166.9 124.7,167.1 124.4,168.7 124.1,167.1 122.6,166.9 124.1,166.5 124.4,165 124.8,166.5 	"/>
	<polygon class="st1" points="128.1,175.4 127.2,175.6 127,176.5 126.8,175.6 125.9,175.4 126.8,175.2 127,174.4 127.2,175.2 	"/>
	
		<rect x="138.1" y="224.5" transform="matrix(0.6144 -0.789 0.789 0.6144 -121.0886 202.505)" class="st1" width="17.2" height="1.3"/>
	<polygon class="st1" points="149.6,179 151.9,184.5 149.6,185.4 147.3,179.9 143.6,182.8 143.6,167.4 154.4,178.3 	"/>
	<path class="st1" d="M142.5,176.9c-2.2,0-4-0.8-4.6-1.9c-0.9-1.8-0.2-5.5,5.3-8.5c4.4-2.4,8.8-1.4,9.9,0.3c0.5,0.9,0.6,2,0.2,3
		c-1.1,2.8-3.3,5-6.1,6.1l0,0C145.8,176.6,144.2,176.9,142.5,176.9z M148.7,165.9c-1.8,0-3.5,0.5-5,1.3c-5,2.7-5.7,6-5,7.4
		s4.2,2.3,8.2,0.5l0,0c2.6-1,4.6-3,5.6-5.6c0.3-0.7,0.3-1.5-0.1-2.2C152,166.5,150.5,165.9,148.7,165.9L148.7,165.9z"/>
	<path class="st1" d="M140.1,178c-0.6,0-1.2-0.3-1.6-0.8l0,0c-0.5-0.6-0.6-1.3-0.2-2c0.4-0.8,1.3-1.3,2.2-1.3c0.7,0,1.4,0.4,1.8,1
		c0.5,1,0.2,2.2-0.8,2.7C141.1,177.8,140.6,178,140.1,178z M139.2,176.7c0.5,0.5,1.2,0.6,1.8,0.2c0.6-0.3,0.8-1,0.5-1.5c0,0,0,0,0,0
		c-0.2-0.4-0.6-0.6-1-0.5c-0.6,0-1.2,0.3-1.5,0.8C138.9,176,138.9,176.4,139.2,176.7L139.2,176.7z"/>
	<path class="st1" d="M142.5,180.3l-0.5-0.7c0.3-0.2,0.6-0.5,0.5-0.8c-0.1-0.5-1-1-1.4-1.2l0.3-0.8c0.2,0.1,1.8,0.8,2,1.9
		C143.4,179.4,143.1,180,142.5,180.3z"/>
	<path class="st1" d="M116.1,199.1c2.4-2.1,5.3-3.6,8.4-4.4l2.7,2.7c-0.8,3.1-2.3,6-4.4,8.4c-4.3-1.2-7.9,2.2-7.9,2.2l-0.3-0.3
		l5.5-5.5c0.5,0.3,1.1,0.2,1.5-0.2c0.5-0.5,0.5-1.2,0-1.7c0,0,0,0,0,0c-0.5-0.5-1.2-0.5-1.7,0c-0.4,0.4-0.5,1-0.2,1.5l-5.5,5.5
		l-0.3-0.3C113.9,207,117.3,203.4,116.1,199.1z"/>
	
		<rect x="125.1" y="192.7" transform="matrix(0.7071 -0.7071 0.7071 0.7071 -101.2637 146.602)" class="st1" width="2.4" height="5.6"/>
	<rect x="135.3" y="190" class="st6" width="20.8" height="19.4"/>
	<path class="st1" d="M142.8,199.1c2.4-2.1,5.3-3.6,8.4-4.4l2.7,2.7c-0.8,3.1-2.3,6-4.4,8.4c-4.3-1.2-7.9,2.2-7.9,2.2l-0.3-0.3
		l5.5-5.5c0.6,0.3,1.3,0.2,1.7-0.4c0.3-0.6,0.2-1.3-0.4-1.7c-0.6-0.3-1.3-0.2-1.7,0.4c-0.2,0.4-0.2,0.9,0,1.3l-5.5,5.5l-0.3-0.3
		C140.6,207,144,203.4,142.8,199.1z"/>
	
		<rect x="151.9" y="192.7" transform="matrix(0.7071 -0.7071 0.7071 0.7071 -93.4372 165.4949)" class="st1" width="2.4" height="5.6"/>
	<path class="st1" d="M140.9,207.7c-1.2,0.1-2.3-0.5-2.9-1.4c-0.6-1-1-2.8,0.6-6.1c0.5-0.9,0.6-1.9,0.2-2.9
		c-0.6-0.8-1.6-1.4-2.6-1.5l0.1-0.9c1.3,0.1,2.5,0.8,3.3,1.9c0.5,1.2,0.5,2.6-0.2,3.7c-1.4,3-1.2,4.5-0.7,5.3c0.5,0.7,1.3,1.1,2.2,1
		V207.7z"/>
	<path class="st1" d="M126.6,217.2v3.5h-1.2c-0.2,0-0.4-0.2-0.5-0.4c0-0.1-0.1-0.4-0.1-0.8h-3v10.4l0.6,0.1c0.1,0,0.2,0.1,0.3,0.1
		h0.1c0.3,0,0.6,0.3,0.5,0.6v1.2h-5.8v-1.2c0-0.3,0.2-0.6,0.5-0.6c0,0,0.1,0,0.1,0c0.1,0,0.2,0,0.3-0.1l0.6-0.1v-10.4h-3
		c0,0.4-0.1,0.7-0.1,0.9c0,0.2-0.2,0.4-0.5,0.4h-1.2v-3.5H126.6L126.6,217.2z"/>
	<path class="st1" d="M128.7,260.2h-14.9v-14.9h14.9V260.2z M115.1,258.9h12.3v-12.4h-12.3V258.9z"/>
	<path class="st1" d="M152.2,304.6h-12.9v-11.5h12.9V304.6z M140.6,303.3h10.3v-9h-10.3V303.3z"/>
	<path class="st1" d="M145.1,308h-9v-8.1h9V308z M137.4,306.7h6.4v-5.5h-6.4V306.7z"/>
	
		<rect x="145.7" y="297" transform="matrix(0.7071 -0.7071 0.7071 0.7071 -166.9306 191.7619)" class="st1" width="4.6" height="0.9"/>
	<polygon class="st1" points="150.2,297.7 149.4,297.7 149.4,296 147.8,296 147.8,295.1 150.2,295.1 	"/>
	<path class="st1" d="M152.9,260.2H138v-14.9h7c0.5-3.1,3.3-5.2,6.4-4.8c2.8,0.4,4.8,2.7,4.8,5.5c0,2.2-1.3,4.2-3.3,5.1L152.9,260.2
		z M139.2,258.9h12.4v-8.6l0.4-0.2c2.3-0.8,3.5-3.3,2.7-5.6c-0.6-1.8-2.3-2.9-4.2-2.9c-2.4,0-4.3,1.9-4.4,4.3v0.6h-6.9L139.2,258.9z
		"/>
	<path class="st1" d="M147.4,249.5c-2.2-0.4-2.5,2-2.6,2.9c-0.2,1-0.9,1.7-1.8,2c0,0,3.4,0.9,5.2-0.8S148.9,249.7,147.4,249.5z"/>
	<path class="st1" d="M155,242.3l-5.6,7.9c-0.3-0.7-1-1.2-1.7-1.3c-0.1,0-0.3,0-0.4,0l4.6-6.5L155,242.3z"/>
	
		<rect x="114.7" y="275.6" transform="matrix(0.7071 -0.7071 0.7071 0.7071 -161.6116 166.6385)" class="st1" width="11.3" height="5.5"/>
	
		<rect x="124.6" y="270.1" transform="matrix(0.7071 -0.7071 0.7071 0.7071 -156.1269 168.9069)" class="st1" width="2.4" height="5.5"/>
	<polygon class="st1" points="114.1,284.7 114.4,280.5 115.2,280.6 115,283.8 118.2,283.5 118.2,284.4 	"/>
	<path class="st1" d="M150.1,278.1c-1.7,0-3-1.3-3-3s1.3-3,3-3s3,1.3,3,3S151.7,278.1,150.1,278.1z M150.1,273.3
		c-1,0-1.7,0.8-1.7,1.7c0,1,0.8,1.7,1.7,1.7c1,0,1.7-0.8,1.7-1.7S151,273.3,150.1,273.3L150.1,273.3z"/>
	<path class="st1" d="M136.3,282.8l11.8-6.5l2,1.1c0,0-8.6,5.2-10.1,5.8S136.3,282.8,136.3,282.8z"/>
	<path class="st1" d="M150,284.7c-1.7,0-3-1.3-3-3s1.3-3,3-3s3,1.3,3,3S151.7,284.7,150,284.7z M150,280c-1,0-1.7,0.8-1.7,1.7
		c0,1,0.8,1.7,1.7,1.7c1,0,1.7-0.8,1.7-1.7c0,0,0,0,0,0C151.7,280.8,151,280,150,280C150,280,150,280,150,280L150,280z"/>
	<path class="st1" d="M136.2,274l11.8,6.5l2-1.1c0,0-8.6-5.2-10.1-5.8S136.2,274,136.2,274z"/>
	<path class="st1" d="M113.9,306.1V295l7,5.5L113.9,306.1z M115.2,297.6v5.8l3.7-2.9L115.2,297.6z"/>
	<polygon class="st1" points="128.6,295.2 128.6,305.9 121.8,300.5 	"/>
	<path class="st1" d="M121.6,306.4h-0.4v-1.7h0.4V306.4z M121.6,303h-0.4v-1.7h0.4V303z M121.6,299.6h-0.4v-1.7h0.4V299.6z
		 M121.6,296.2h-0.4v-1.7h0.4V296.2z"/>
	<rect x="535.3" y="75.8" class="st2" width="107.2" height="63.6"/>
	<polygon class="st1" points="541,81.6 537.7,78.3 538,78 541.3,81.2 	"/>
	<polygon class="st1" points="538,81.6 537.7,81.2 541,78 541.3,78.3 	"/>
	
		<rect x="636.6" y="79.2" transform="matrix(0.7072 -0.707 0.707 0.7072 129.4516 473.7994)" class="st1" width="0.4" height="2.7"/>
	
		<rect x="635.5" y="78.8" transform="matrix(0.7071 -0.7071 0.7071 0.7071 130.6594 473.4244)" class="st1" width="2.7" height="0.4"/>
	
		<rect x="638.7" y="79.2" transform="matrix(0.7072 -0.707 0.707 0.7072 130.0712 475.2923)" class="st1" width="0.4" height="2.7"/>
	
		<rect x="637.6" y="78.8" transform="matrix(0.7069 -0.7074 0.7074 0.7069 131.4133 475.0835)" class="st1" width="2.7" height="0.4"/>
	<rect x="554.2" y="86" class="st1" width="0.4" height="41.8"/>
	<rect x="569.6" y="86" class="st1" width="0.4" height="41.8"/>
	<path class="st1" d="M546.6,89.8c-1.8,0-3.5,1-4.5,2.5c1,1.5,2.7,2.5,4.5,2.5c1.8-0.1,3.5-1,4.5-2.5
		C550.1,90.8,548.4,89.8,546.6,89.8z M546.6,94.4c-1.1,0-2.1-0.9-2.1-2.1c0-1.1,0.9-2.1,2.1-2.1c1.1,0,2.1,0.9,2.1,2.1c0,0,0,0,0,0
		C548.6,93.5,547.7,94.4,546.6,94.4z"/>
	<path class="st1" d="M548.2,92.3c0,0.9-0.7,1.6-1.6,1.6c-0.9,0-1.6-0.7-1.6-1.6c0-0.9,0.7-1.6,1.6-1.6l0,0
		C547.5,90.8,548.2,91.5,548.2,92.3z"/>
	<path class="st1" d="M546.6,104.3c-1.8,0-3.5,1-4.5,2.5c1,1.5,2.7,2.5,4.5,2.5c1.8-0.1,3.5-1,4.5-2.5
		C550.1,105.3,548.4,104.4,546.6,104.3z M546.6,109c-1.1,0-2.1-0.9-2.1-2.1c0-1.1,0.9-2.1,2.1-2.1c1.1,0,2.1,0.9,2.1,2.1
		c0,0,0,0,0,0C548.7,108,547.8,109,546.6,109C546.6,109,546.6,109,546.6,109L546.6,109z"/>
	<path class="st1" d="M548.2,106.9c0,0.9-0.7,1.6-1.6,1.6c-0.9,0-1.6-0.7-1.6-1.6c0-0.9,0.7-1.6,1.6-1.6l0,0
		C547.5,105.3,548.2,106,548.2,106.9z"/>
	<path class="st1" d="M546.6,118.2c-1.8,0-3.5,1-4.5,2.5c1,1.5,2.7,2.5,4.5,2.6c1.8-0.1,3.5-1,4.5-2.6
		C550.1,119.2,548.4,118.3,546.6,118.2z M546.6,122.8c-1.1,0-2.1-0.9-2.1-2.1s0.9-2.1,2.1-2.1c1.1,0,2.1,0.9,2.1,2.1c0,0,0,0,0,0
		C548.6,121.9,547.7,122.8,546.6,122.8z"/>
	<path class="st1" d="M548.2,120.8c0,0.9-0.7,1.6-1.6,1.6c-0.9,0-1.6-0.7-1.6-1.6c0-0.9,0.7-1.6,1.6-1.6l0,0
		C547.5,119.2,548.2,119.9,548.2,120.8z"/>
	<rect x="539.7" y="99.7" class="st1" width="98.3" height="0.4"/>
	<rect x="539.7" y="113.7" class="st1" width="98.3" height="0.4"/>
	<path class="st1" d="M581.5,95.4L581.5,95.4c-0.1,0-0.2-0.1-0.2-0.2v-6.6c0-0.1,0.1-0.2,0.2-0.2s0.2,0.1,0.2,0.2v6.4h3.4
		c0.1,0,0.2,0.1,0.2,0.2s-0.1,0.2-0.2,0.2H581.5z"/>
	<path class="st1" d="M591,90.7v4.5c0,0.1-0.1,0.2-0.2,0.2c-0.1,0-0.2-0.1-0.2-0.2c0,0,0,0,0,0v-0.7c-0.4,0.6-1.1,1-1.9,1
		c-1.4,0-2.5-1.1-2.5-2.5s1.1-2.5,2.5-2.5c0.7,0,1.4,0.4,1.9,1v-0.7c0-0.1,0.1-0.2,0.2-0.2C590.9,90.4,591,90.5,591,90.7
		C591,90.7,591,90.7,591,90.7L591,90.7z M590.5,92.9c-0.1-1-1-1.8-2-1.7c-1,0.1-1.8,1-1.7,2c0.1,1,0.9,1.7,1.9,1.7
		C589.7,94.8,590.5,93.9,590.5,92.9L590.5,92.9z"/>
	<path class="st1" d="M593,90.6c0-0.1,0.1-0.2,0.2-0.2c0.1,0,0.2,0.1,0.2,0.2v2.7c0,0.8,0.7,1.5,1.5,1.5h0c0.9,0,1.5-0.7,1.5-1.5
		c0,0,0,0,0,0v-2.7c0,0,0-0.1,0-0.1l0,0l0,0c0,0,0.1,0,0.1-0.1h0.1c0,0,0.1,0,0.1,0.1c0,0,0,0,0.1,0.1c0,0,0,0.1,0,0.1V95
		c0,1.3-1,2.3-2.3,2.3c0,0,0,0,0,0c-0.3,0-0.7-0.1-1-0.2c-0.1-0.1-0.2-0.2-0.1-0.3c0.1-0.1,0.2-0.2,0.3-0.1c0.2,0.1,0.5,0.2,0.8,0.2
		c1,0,1.9-0.8,1.9-1.8c0,0,0,0,0,0v-0.3c-0.4,0.4-1,0.7-1.5,0.7c-1.1,0-2-0.9-2-2L593,90.6z"/>
	<path class="st1" d="M598.7,92.9c-0.1-1.3,0.9-2.5,2.2-2.6s2.5,0.9,2.6,2.2c0,0.1,0,0.2,0,0.3l0,0l0,0c0,0.1-0.1,0.2-0.2,0.2h-4.1
		c0,1,0.9,1.9,1.9,1.9c0.7,0,1.3-0.3,1.6-0.9c0.1-0.1,0.2-0.2,0.3-0.1c0,0,0,0,0,0c0.1,0.1,0.1,0.2,0.1,0.3c-0.4,0.7-1.2,1.1-2,1.1
		C599.8,95.3,598.7,94.2,598.7,92.9z M599.2,92.5h3.8c-0.2-0.9-0.9-1.6-1.9-1.6C600.2,90.9,599.4,91.6,599.2,92.5z"/>
	<path class="st1" d="M605,90.7c0-0.1,0.1-0.2,0.2-0.2c0.1,0,0.2,0.1,0.2,0.2c0,0,0,0,0,0v1.1l0.1-0.1c0.4-0.7,1.2-1.2,2-1.2
		c0.1,0,0.2,0.2,0.2,0.3c0,0.1-0.1,0.2-0.2,0.2c-0.6,0-1.1,0.3-1.5,0.8c-0.3,0.4-0.4,0.7-0.6,1.2c0,0,0,0.1,0,0.1v2.2
		c0,0.1-0.1,0.2-0.2,0.2c0,0,0,0,0,0c-0.1,0-0.2-0.1-0.2-0.2L605,90.7z"/>
	<path class="st1" d="M613.3,89l-1,0.6c-0.1,0.1-0.2,0-0.3-0.1c0,0,0,0,0,0c-0.1-0.1,0-0.2,0.1-0.3c0,0,0,0,0,0l1.4-0.8
		c0.1-0.1,0.3,0,0.3,0.1c0,0.1,0,0.1,0,0.2v6.5c0,0.1-0.1,0.3-0.2,0.3c-0.1,0-0.3-0.1-0.3-0.2c0,0,0-0.1,0-0.1L613.3,89z"/>
	<path class="st1" d="M581.5,110L581.5,110c-0.1,0-0.2-0.1-0.2-0.2v-6.6c0-0.1,0.1-0.2,0.2-0.2c0.1,0,0.2,0.1,0.2,0.2v6.4h3.4
		c0.1,0,0.3,0.1,0.2,0.3c0,0.1-0.1,0.2-0.2,0.2H581.5z"/>
	<path class="st1" d="M591,105.3v4.5c0,0.1-0.1,0.2-0.2,0.2c-0.1,0-0.2-0.1-0.2-0.2V109c-0.4,0.6-1.1,1-1.9,1
		c-1.4,0-2.5-1.1-2.5-2.5s1.1-2.5,2.5-2.5c0.7,0,1.4,0.4,1.9,1v-0.7c0-0.1,0.1-0.2,0.2-0.2C590.9,105,591,105.1,591,105.3
		C591,105.3,591,105.3,591,105.3L591,105.3z M590.5,107.5c-0.1-1-1-1.8-2-1.7c-1,0.1-1.8,1-1.7,2c0.1,1,0.9,1.7,1.9,1.7
		C589.7,109.5,590.5,108.6,590.5,107.5L590.5,107.5z"/>
	<path class="st1" d="M593,105.3c0-0.1,0.1-0.2,0.2-0.2c0.1,0,0.2,0.1,0.2,0.2c0,0,0,0,0,0v2.7c0,0.8,0.7,1.5,1.5,1.5
		c0.9,0,1.5-0.7,1.5-1.5c0,0,0,0,0,0v-2.7c0,0,0-0.1,0-0.1l0,0l0,0c0,0,0.1,0,0.1-0.1h0.1h0.1c0,0,0,0,0.1,0.1c0,0,0,0.1,0,0.1v4.3
		c0,1.3-1,2.3-2.3,2.3c0,0,0,0,0,0c-0.3,0-0.7-0.1-1-0.2c-0.1-0.1-0.2-0.2-0.1-0.3c0.1-0.1,0.2-0.2,0.3-0.1c0.3,0.1,0.5,0.2,0.8,0.2
		c1,0,1.9-0.8,1.9-1.8v-0.3c-0.4,0.4-0.9,0.7-1.5,0.7c-1.1,0-2-0.9-2-2V105.3z"/>
	<path class="st1" d="M598.7,107.5c0-1.3,1.1-2.4,2.4-2.4c1.2,0,2.3,1,2.4,2.2l0,0l0,0c0,0.1-0.1,0.2-0.2,0.2c0,0,0,0,0,0h-4.1
		c0.1,1,0.9,1.9,1.9,1.9c0.7,0,1.3-0.3,1.6-0.9c0.1-0.1,0.2-0.1,0.3-0.1c0,0,0,0,0,0c0.1,0.1,0.1,0.2,0.1,0.3
		c-0.4,0.7-1.2,1.1-2,1.1C599.8,110,598.7,108.9,598.7,107.5z M599.2,107.1h3.8c-0.2-0.9-0.9-1.6-1.9-1.6
		C600.2,105.5,599.4,106.2,599.2,107.1z"/>
	<path class="st1" d="M605,105.3c0-0.1,0.1-0.2,0.2-0.2c0,0,0,0,0,0c0.1,0,0.2,0.1,0.2,0.2c0,0,0,0,0,0v1.1l0.1-0.1
		c0.4-0.7,1.2-1.2,2-1.2c0.1,0,0.2,0.1,0.2,0.2c0,0.1-0.1,0.2-0.2,0.2c-0.6,0-1.1,0.3-1.5,0.8c-0.3,0.4-0.5,0.7-0.6,1.2
		c0,0,0,0.1,0,0.1v2.2c0,0.1-0.1,0.2-0.2,0.2c0,0,0,0,0,0c-0.1,0-0.2-0.1-0.2-0.2c0,0,0,0,0,0L605,105.3z"/>
	<path class="st1" d="M612.1,109.6l3.3-3c0.4-0.3,0.6-0.8,0.6-1.4c0-0.5-0.2-0.9-0.5-1.2c-0.3-0.4-0.8-0.6-1.3-0.6
		c-0.5,0-0.9,0.2-1.2,0.5l-0.3,0.3c-0.1,0.1-0.3,0.1-0.3-0.1c-0.1-0.1-0.1-0.2,0-0.3l0.3-0.3c0.4-0.4,1-0.6,1.6-0.6
		c1.3,0,2.3,1,2.3,2.3c0,0.7-0.3,1.3-0.8,1.7l-2.8,2.6h3.4c0.1,0,0.2,0.1,0.2,0.3c0,0,0,0,0,0c0,0.1-0.1,0.2-0.2,0.2h-4
		c-0.1,0-0.1,0-0.2-0.1C612,109.8,612,109.7,612.1,109.6z"/>
	<path class="st1" d="M581.5,124.6L581.5,124.6c-0.1,0-0.2-0.1-0.2-0.2v-6.6c0-0.1,0.1-0.2,0.2-0.2s0.2,0.1,0.2,0.2v6.4h3.4
		c0.1,0,0.3,0.1,0.3,0.2s-0.1,0.3-0.2,0.3c0,0-0.1,0-0.1,0H581.5z"/>
	<path class="st1" d="M591,119.9v4.5c0,0.1-0.1,0.2-0.2,0.2c-0.1,0-0.2-0.1-0.2-0.2v-0.7c-0.4,0.6-1.1,1-1.9,1
		c-1.4,0-2.5-1.1-2.5-2.5s1.1-2.5,2.5-2.5c0.7,0,1.4,0.4,1.9,1v-0.7c0-0.1,0.1-0.2,0.2-0.2C590.9,119.7,591,119.8,591,119.9
		C591,119.9,591,119.9,591,119.9L591,119.9z M590.5,122.2c-0.1-1-1-1.8-2-1.7c-1,0.1-1.8,1-1.7,2c0.1,1,0.9,1.7,1.9,1.7
		C589.7,124.1,590.5,123.2,590.5,122.2L590.5,122.2z"/>
	<path class="st1" d="M593,119.9c0-0.1,0.1-0.2,0.2-0.2c0.1,0,0.2,0.1,0.2,0.2c0,0,0,0,0,0v2.7c0,0.8,0.7,1.5,1.5,1.5c0,0,0,0,0,0
		c0.9,0,1.5-0.7,1.5-1.5c0,0,0,0,0,0v-2.7c0,0,0-0.1,0-0.1l0,0l0,0c0,0,0.1,0,0.1-0.1h0.1h0.1c0,0,0,0,0.1,0.1c0,0,0,0.1,0,0.1v4.3
		c0,1.3-1,2.3-2.3,2.3c0,0,0,0,0,0c-0.3,0-0.7-0.1-1-0.2c-0.1-0.1-0.2-0.2-0.1-0.3c0.1-0.1,0.2-0.2,0.3-0.1c0.3,0.1,0.5,0.2,0.8,0.2
		c1,0,1.9-0.8,1.9-1.8v-0.3c-0.4,0.4-1,0.7-1.5,0.7c-1.1,0-2-0.9-2-2L593,119.9z"/>
	<path class="st1" d="M598.7,122.2c-0.1-1.3,0.9-2.5,2.2-2.6s2.5,0.9,2.6,2.2c0,0.1,0,0.2,0,0.3l0,0l0,0c0,0.1-0.1,0.2-0.2,0.2h-4.1
		c0,1,0.9,1.9,1.9,1.9c0.7,0,1.3-0.3,1.6-0.9c0.1-0.1,0.2-0.1,0.3-0.1c0,0,0,0,0,0c0.1,0.1,0.1,0.2,0.1,0.3c-0.4,0.7-1.2,1.1-2,1.1
		C599.8,124.6,598.7,123.5,598.7,122.2z M599.2,121.8h3.8c-0.2-0.9-0.9-1.6-1.9-1.6C600.2,120.2,599.4,120.8,599.2,121.8z"/>
	<path class="st1" d="M605,119.9c0-0.1,0.1-0.2,0.2-0.2c0,0,0,0,0,0c0.1,0,0.2,0.1,0.2,0.2c0,0,0,0,0,0v1.1l0.1-0.1
		c0.4-0.7,1.2-1.2,2-1.2c0.1,0,0.2,0.1,0.2,0.2c0,0,0,0,0,0c0,0.1-0.1,0.2-0.2,0.2c-0.6,0-1.1,0.3-1.5,0.8c-0.3,0.4-0.4,0.7-0.6,1.2
		c0,0,0,0.1,0,0.1v2.2c0,0.1-0.1,0.2-0.2,0.2c0,0,0,0,0,0c-0.1,0-0.2-0.1-0.2-0.2c0,0,0,0,0,0L605,119.9z"/>
	<path class="st1" d="M616.4,118l-1.8,1.9c1.1,0.2,1.9,1.2,1.9,2.3c0,0.6-0.3,1.3-0.7,1.7c-0.4,0.5-1.1,0.7-1.7,0.7
		c-0.6,0-1.2-0.3-1.7-0.7c-0.1-0.1-0.1-0.2,0-0.3c0,0,0,0,0,0c0.1-0.1,0.2-0.1,0.3,0c0,0,0,0,0,0c0.4,0.3,0.8,0.5,1.3,0.6
		c0.5,0,1-0.2,1.3-0.6c0.4-0.4,0.6-0.8,0.6-1.3c0-1-0.9-1.9-1.9-1.9c-0.1,0-0.2,0-0.2-0.1l0,0c-0.1-0.1-0.1-0.3,0-0.4c0,0,0,0,0,0
		l1.8-1.8h-2.7c-0.1,0-0.2-0.2-0.2-0.3c0-0.1,0.1-0.2,0.2-0.2h3.3c0.1,0,0.3,0.1,0.3,0.2c0,0,0,0,0,0
		C616.5,117.8,616.5,117.9,616.4,118C616.5,118,616.5,118,616.4,118z"/>
	<rect x="571.1" y="100.9" class="st7" width="3.2" height="12.1"/>
	<rect x="571.1" y="114.7" class="st6" width="3.2" height="12.1"/>
	<rect x="571.1" y="86.3" class="st5" width="3.2" height="12.1"/>
	<rect x="539.7" y="134.3" class="st1" width="18.7" height="0.4"/>
	<rect x="558.9" y="91.6" class="st1" width="6.5" height="5.4"/>
	<path class="st1" d="M564.6,92.2h-0.8v-1.4c0-1.6-0.6-2.4-1.7-2.4c-1.8,0-1.8,2.1-1.8,2.2v1.6h-0.8v-1.6c-0.2-1.5,0.9-2.8,2.4-2.9
		c0.1,0,0.1,0,0.2,0c1.5,0,2.4,1.1,2.4,3.1V92.2z"/>
	<path class="st1" d="M629.4,95.7c-1.8,0-3.3-1.5-3.3-3.3c0-1.8,1.5-3.3,3.3-3.3c1.8,0,3.3,1.5,3.3,3.3c0,0,0,0,0,0
		C632.7,94.2,631.2,95.7,629.4,95.7z M629.4,89.5c-1.6,0-2.9,1.3-2.9,2.9s1.3,2.9,2.9,2.9c1.6,0,2.9-1.3,2.9-2.9c0,0,0,0,0,0
		C632.3,90.8,631,89.5,629.4,89.5L629.4,89.5z"/>
	<path class="st1" d="M629.4,110.2c-1.8,0-3.3-1.5-3.3-3.3c0-1.8,1.5-3.3,3.3-3.3c1.8,0,3.3,1.5,3.3,3.3c0,0,0,0,0,0
		C632.7,108.7,631.2,110.2,629.4,110.2z M629.4,104c-1.6,0-2.9,1.3-2.9,2.9s1.3,2.9,2.9,2.9c1.6,0,2.9-1.3,2.9-2.9
		C632.3,105.3,631,104,629.4,104C629.4,104,629.4,104,629.4,104L629.4,104z"/>
	<path class="st1" d="M629.4,124.7c-1.8,0-3.3-1.5-3.3-3.3c0-1.8,1.5-3.3,3.3-3.3c1.8,0,3.3,1.5,3.3,3.3c0,0,0,0,0,0
		C632.7,123.2,631.2,124.7,629.4,124.7z M629.4,118.5c-1.6,0-2.9,1.3-2.9,2.9s1.3,2.9,2.9,2.9c1.6,0,2.9-1.3,2.9-2.9
		C632.3,119.8,631,118.5,629.4,118.5L629.4,118.5z"/>
</g>
<g id="freepik--character-3--inject-339">
	<rect x="571.7" y="393.3" class="st3" width="46.9" height="3.5"/>
	<polygon class="st3" points="614.7,279.5 615,298.2 616.6,386.2 616.6,390.1 617.3,442.2 620,442.2 620.7,390.1 620.7,386.2 
		622.3,298.2 622.6,279.5 	"/>
	<polygon class="st4" points="622.6,279.5 614.7,279.5 615,298.2 622.3,298.2 	"/>
	<polygon class="st3" points="567.8,279.5 568.1,298.2 570.4,442.2 573.1,442.2 573.8,390.1 573.8,386.2 575.4,298.2 575.7,279.5 	
		"/>
	<polygon class="st4" points="567.8,279.5 568.1,298.2 575.4,298.2 575.7,279.5 	"/>
	<rect x="596" y="393.3" class="st3" width="46.1" height="3.5"/>
	<polygon class="st3" points="638.2,279.5 638.4,298.2 640,386.2 640.1,390.1 640.8,442.2 643.4,442.2 645.8,298.2 646,279.5 	"/>
	<polygon class="st4" points="646,279.5 638.2,279.5 638.4,298.2 645.8,298.2 	"/>
	<polygon class="st3" points="592.1,279.5 592.4,298.2 594,386.2 594,390.1 594.7,442.2 597.4,442.2 598.1,390.1 598.1,386.2 
		599.7,298.2 599.9,279.5 	"/>
	<polygon class="st4" points="599.9,279.5 592.1,279.5 592.4,298.2 599.7,298.2 	"/>
	<rect x="563.8" y="260.8" class="st5" width="85.4" height="20.3"/>
	<rect x="581.6" y="260.8" class="st8" width="67.5" height="20.3"/>
	<path class="st9" d="M534.4,452.3c2.3-0.3,57.9-27.5,59.4-29.9c0.6-0.9-2.9-9.2-7.4-19.2c-1-2.1-4.9-36.7-4.9-36.7l-37.7,14.2
		l6.6,39.9c0,0-16.7,20-18,22.7S532.2,452.6,534.4,452.3z"/>
	<path class="st0" d="M593.8,422.4c-1.5,2.4-57.1,29.6-59.4,29.9s-3.3-6.1-2-8.9s18-22.7,18-22.7l-1.4-8.3l36.2-15.5
		c0.2,2.2,0.6,4.3,1.1,6.4C590.9,413.1,594.4,421.5,593.8,422.4z"/>
	<path class="st10" d="M534.4,452.3c2.3-0.3,57.9-27.5,59.4-29.9c0.6-0.9-2.9-9.2-7.4-19.2l-36,17.4c0,0-16.7,20-18,22.7
		S532.2,452.6,534.4,452.3z"/>
	<path class="st6" d="M534.1,449.6c9.2-4.8,46.8-23.2,56.3-27.3c0.1,0,0.1,0,0,0.1c-9,5-46.8,23.1-56.3,27.4
		C534,449.9,533.9,449.7,534.1,449.6z"/>
	<path class="st6" d="M535.1,439.6c2.1-1.1,4.5-1.2,6.7-0.5c2,0.7,3.6,2.1,4.5,4c0,0.1-0.1,0.1-0.1,0.1c-2.5-3.5-7-4.9-11-3.5
		c0,0-0.1,0-0.1,0C535,439.7,535,439.6,535.1,439.6z"/>
	<path class="st6" d="M547.3,423.3c3.7-1.9,8.7-2.7,12.5-0.8c0.2,0.1,0,0.3-0.1,0.3c-4.1-0.1-8.2,0.2-12.2,1c-0.1,0-0.3,0-0.3-0.2
		C547,423.5,547.1,423.4,547.3,423.3z"/>
	<path class="st6" d="M544.9,425.9c3.7-1.9,8.7-2.7,12.5-0.8c0.2,0.1,0,0.3-0.1,0.3c-4.1-0.1-8.2,0.2-12.2,1c-0.1,0-0.3,0-0.3-0.2
		C544.7,426,544.8,425.9,544.9,425.9z"/>
	<path class="st6" d="M542.6,428.3c3.7-1.9,8.7-2.7,12.5-0.8c0.2,0.1,0,0.3-0.1,0.3c-4.1-0.1-8.2,0.2-12.2,1c-0.1,0-0.3,0-0.3-0.2
		C542.4,428.5,542.5,428.4,542.6,428.3L542.6,428.3z"/>
	<path class="st6" d="M540.3,430.9c3.7-1.9,8.7-2.7,12.5-0.8c0.1,0.1,0,0.3-0.1,0.3c-4.1-0.1-8.2,0.2-12.2,1c-0.1,0-0.3,0-0.3-0.2
		C540,431.1,540.1,431,540.3,430.9L540.3,430.9z"/>
	<path class="st6" d="M583.7,414.7c4.2-2,7.4,4.5,3.2,6.5S579.5,416.7,583.7,414.7z"/>
	<path class="st6" d="M541.3,420.6c3.3,1.6,7.2,1.8,10.7,2.3c0.3,0,0.5-0.2,0.5-0.5c0,0,0-0.1,0-0.1c0.1,0,0.1-0.1,0.1-0.2
		c0,0,0,0,0,0c-1.9-3.3-4.7-6-8.1-7.9c-2-1.1-5.1-1.4-6.2,1.1S539.4,419.7,541.3,420.6z M539.7,417.6c-1.6-4.2,3.6-2.9,5-2.1
		c0.9,0.6,1.8,1.2,2.6,1.9c1.7,1.4,3.2,3,4.8,4.5c-1.7-0.4-3.5-0.6-5.2-0.9C544.8,420.7,540.5,420,539.7,417.6L539.7,417.6z"/>
	<path class="st6" d="M564.7,413.3c-1.5-2.3-4.5-1.5-6.3-0.1c-3,2.4-5.4,5.5-6.8,9c0,0.1,0,0.1,0.1,0.2c0,0,0,0,0,0
		c0,0.3,0.2,0.5,0.5,0.6c0.1,0,0.1,0,0.2,0c3.4-1.1,7.2-1.8,10.2-3.9C564.4,417.8,566.1,415.5,564.7,413.3z M557.2,420.2
		c-1.7,0.6-3.4,1-5,1.7c1.3-1.8,2.6-3.5,4.1-5.2c0.7-0.8,1.5-1.5,2.3-2.2c1.3-1,6.2-3.1,5.2,1.3
		C563.3,418.2,559.2,419.5,557.2,420.2L557.2,420.2z"/>
	<path class="st11" d="M589.4,398.3l-45.2,19.6c0,0-12.4-79.4-9.5-111.6c2-21.9,30.1-51.3,43.6-71c0.8-1.1,3.1-14,3.1-14h37.2
		l-0.6,28c-0.8,17-39.2,51.7-39.5,61.9C578.2,322.7,589.4,398.3,589.4,398.3z"/>
	<path class="st12" d="M545,406.6c10.3-5.4,38.3-17.1,39.8-17.5c0.1,0,0.2,0.1,0.1,0.2c-1.1,0.8-27.5,13.4-39.8,17.5
		C545,406.7,545,406.7,545,406.6C544.9,406.6,545,406.6,545,406.6z"/>
	<path class="st12" d="M609.4,256c-0.3,0.7-0.7,1.3-1.1,2c-1.5,2.3-3.1,4.5-4.8,6.6l-5.4,7c-3.6,4.7-7.2,9.4-10.8,14.1
		c-3.5,4.5-7,9-10.4,13.6c-1.6,2-2.9,4.3-3.9,6.6c-1,2.4-1.5,5-1.6,7.6c-0.3,5.5,0.8,11.2,1.5,16.7c0.7,5.8,1.5,11.6,2.3,17.4
		c0.8,5.8,1.7,11.6,2.7,17.3c0.9,5.7,1.7,11.4,2.9,17c0.3,1.5,0.6,2.9,0.9,4.4c0,0.1,0.1,0.1,0.1,0c-1.8-11.5-3.4-23.1-5-34.6
		c-0.8-5.8-1.6-11.5-2.4-17.3c-0.7-5.6-1.6-11.3-1.9-16.9c-0.2-2.7,0-5.5,0.5-8.2c0.7-2.6,1.8-5,3.3-7.2c1.5-2.3,3.3-4.5,5-6.6
		c1.8-2.3,3.6-4.7,5.4-7c3.6-4.7,7.2-9.3,10.8-14c3.4-4.5,7-8.9,10.2-13.5c1.5-2.2,2.8-4.5,3.7-7c0.9-2.4,1.4-4.9,1.6-7.5
		c0.6-5.6,0.3-11.3,0.2-16.9c0-1.4-0.1-2.9-0.1-4.3c0,0,0-0.1-0.1-0.1c0,0-0.1,0-0.1,0.1c-0.3,5.7-0.3,11.4-0.5,17.1
		c-0.1,2.8-0.4,5.5-1,8.3C610.9,252.5,610.2,254.3,609.4,256"/>
	<path class="st9" d="M582.5,324.9c-0.3-2.3,11.3-63.1,13.2-65.2c0.7-0.8,9.7,0.4,20.5,2.1c2.3,0.4,36.7-5,36.7-5L649,297l-40.2,4.1
		c0,0-14.9,21.3-17.2,23.3S582.8,327.1,582.5,324.9z"/>
	<path class="st10" d="M595.7,259.7c-1.9,2-13.5,62.9-13.2,65.1s6.8,1.5,9.1-0.5s17.2-23.3,17.2-23.3l8.3-0.9l5.5-39
		c-2.1,0.4-4.3,0.5-6.5,0.6C605.4,260.1,596.4,258.9,595.7,259.7z"/>
	<path class="st10" d="M582.5,324.9c-0.3-2.3,11.3-63.1,13.2-65.2c0.7-0.8,9.7,0.4,20.5,2.1l-7.4,39.2c0,0-14.9,21.3-17.2,23.3
		S582.8,327.1,582.5,324.9z"/>
	<path class="st6" d="M585.1,324.4c2.2-10.1,10.1-51.3,11.5-61.5c0-0.1,0-0.1-0.1,0c-2.4,10-10,51.2-11.6,61.5
		C584.9,324.6,585.1,324.6,585.1,324.4z"/>
	<path class="st6" d="M594.6,320.9c0.5-2.3,0-4.7-1.3-6.6c-1.2-1.7-3-2.9-5-3.3c-0.1,0-0.1,0.1,0,0.1c4,1.5,6.5,5.5,6.2,9.8
		C594.5,320.9,594.5,320.9,594.6,320.9C594.5,320.9,594.5,320.9,594.6,320.9z"/>
	<path class="st6" d="M607,304.8c0.8-4.1,0.3-9.1-2.5-12.2c-0.1-0.1-0.3,0-0.2,0.2c1.2,3.9,2,8,2.3,12.1c0,0.1,0.2,0.2,0.3,0.2
		C606.9,305,607,304.9,607,304.8z"/>
	<path class="st6" d="M605.2,307.8c0.8-4.1,0.3-9.1-2.5-12.2c-0.1-0.1-0.3,0-0.2,0.2c1.2,3.9,2,8,2.3,12.1c0,0.1,0.2,0.2,0.3,0.2
		C605.1,307.9,605.2,307.9,605.2,307.8z"/>
	<path class="st6" d="M603.4,310.7c0.8-4.1,0.3-9.1-2.5-12.3c-0.1-0.1-0.3,0-0.2,0.2c1.2,3.9,2,8,2.3,12.1c0,0.1,0.1,0.2,0.3,0.2
		C603.3,310.9,603.4,310.8,603.4,310.7z"/>
	<path class="st6" d="M601.6,313.6c0.8-4.1,0.3-9.1-2.5-12.3c-0.1-0.1-0.3,0-0.2,0.2c1.2,3.9,2,8,2.3,12.1c0,0.1,0.1,0.2,0.3,0.2
		C601.4,313.8,601.5,313.7,601.6,313.6z"/>
	<path class="st6" d="M605.8,267.3c0.9-4.6-6.3-5.9-7.1-1.3S604.9,272,605.8,267.3z"/>
	<path class="st6" d="M617.1,311.3c2.1-1.7,0.9-4.7-0.6-6.3c-2.7-2.7-6-4.7-9.7-5.7c-0.1,0-0.1,0-0.1,0.1c0,0,0,0,0,0
		c-0.3,0-0.5,0.2-0.5,0.5c0,0,0,0.1,0,0.1c1.5,3.3,2.6,7,5,9.7C612.6,311.5,615.1,313,617.1,311.3z M609.4,304.7
		c-0.8-1.6-1.4-3.2-2.2-4.8c1.9,1.1,3.8,2.1,5.6,3.5c0.9,0.6,1.7,1.3,2.5,2c1.2,1.1,3.8,5.8-0.7,5.4
		C612,310.4,610.3,306.6,609.4,304.7z"/>
	<path class="st6" d="M607.2,288.9c-1.2,3.5-0.9,7.3-1,10.9c0,0.3,0.3,0.5,0.6,0.5c0,0,0.1,0,0.1,0c0,0,0.1,0.1,0.1,0c0,0,0,0,0,0
		c3-2.3,5.4-5.4,6.9-8.9c0.8-2.1,0.8-5.2-1.8-6S607.9,286.9,607.2,288.9z M610,286.9c4-2.1,3.3,3.2,2.7,4.7c-0.5,1-1,1.9-1.5,2.8
		c-1.2,1.8-2.5,3.6-3.9,5.3c0.2-1.8,0.2-3.5,0.3-5.3C607.6,292.3,607.8,288,610,286.9L610,286.9z"/>
	<path class="st11" d="M605,221.4h27.1c0,0,1.6,10.4,4.1,11.6c7.6,3.6,40.4,8,59.6,18.2c16.6,8.8,18.6,29.4-3.9,38.1
		c-30.8,11.8-72.5,13.9-72.5,13.9l2.5-45.2c0,0,30.4-3.5,53.5-2.9c0,0-23.5,6.5-49.6,2c-6-1-12.6-4-18.5-6.2L605,221.4z"/>
	<path class="st12" d="M627.6,298.5c0.2-2.5,0.2-5.1,0.3-7.7l0.3-7.7c0.2-5.1,1.4-22.6,1.7-23.9c0,0,0-0.1,0.1-0.1
		c0,0,0.1,0,0.1,0.1c0.2,1.2-0.3,12.6-0.5,15.2c-0.3,5.1-0.7,10.2-1.1,15.3c-0.1,1.5-0.3,2.9-0.4,4.4s-0.3,2.9-0.4,4.4
		C627.8,298.6,627.6,298.6,627.6,298.5z"/>
	<path class="st12" d="M686.5,254.7c-4.9-0.5-9.7-0.8-14.6-0.8c1.9-0.4,3.8-0.7,5.6-1c0.1,0,0.1-0.2,0-0.2c-2.2,0.2-4.4,0.6-6.5,1.2
		c-3.2,0-6.5,0.1-9.7,0.3c-8.4,0.4-16.8,1.2-25.3,2.1c-4.8,0.5-9.5,1-14.3,1.5c-0.2,0-0.4,0.2-0.4,0.4c0,1.2,0.1,2.5,0.2,3.8
		c0,0.1,0.2,0.2,0.3,0.2c0.1,0,0.2-0.1,0.2-0.2c0-1.1,0.1-2.2,0.2-3.4c8.3-0.7,16.6-1.4,24.9-2.1c8.4-0.7,16.8-1.3,25.3-1.5
		c4.7-0.1,9.5-0.1,14.2,0C686.6,254.9,686.6,254.7,686.5,254.7z"/>
	<path class="st12" d="M688.3,257.8c-7.4,0-14.7,0.2-22,0.7s-14.5,1.2-21.7,2.2c-2,0.3-4,0.6-6,0.9c-2,0.3-4,0.8-6,1.1
		c-0.1,0-0.1,0.1,0,0.1c3.6-0.5,7.3-0.9,10.9-1.3s7.2-0.8,10.7-1.2c7.2-0.7,14.5-1.3,21.8-1.7c4.1-0.2,8.2-0.5,12.3-0.7
		C688.4,257.9,688.4,257.8,688.3,257.8z"/>
	<path class="st12" d="M601.5,248.1c4,1.2,7.9,2.8,11.6,4.7c0.2,0.1,0.1,0.3-0.1,0.2c-3.9-1.5-7.9-2.8-11.7-4.5
		c-0.1,0-0.2-0.2-0.1-0.3C601.3,248.1,601.4,248,601.5,248.1z"/>
	<path class="st12" d="M599,221.6c0-0.1,0.2-0.2,0.2,0c0.2,4.6,0.7,8.6,1.3,12.9c0.3,2,2.4,12.9,5.8,11.9c0.6-0.2,0.8-0.8,0.9-1.6
		c-0.1-1.1-0.3-2.3-0.6-3.4c-0.5-2.3-0.9-4.6-1.2-6.9c-0.6-4.3-0.8-8.7-0.5-13c0-0.1,0-0.1,0.1-0.1c0.1,0,0.1,0,0.1,0.1c0,0,0,0,0,0
		c0.2,6,0.9,12,2,17.9c0.6,2.8,2.2,7.1-0.7,7.7s-5.3-6.5-5.8-8.4C599.3,233.1,598.7,227.3,599,221.6z"/>
	<path class="st12" d="M606.2,246.7c0.3,0.7,0.6,1.5,0.9,2.2c0.2,0.6,0.4,1.2,0.4,1.8c0,0.1-0.2,0.1-0.2,0.1
		c-0.4-0.5-0.7-1.1-0.9-1.8c-0.3-0.7-0.6-1.4-0.9-2.1c-0.1-0.2,0-0.4,0.2-0.5C605.9,246.4,606.1,246.5,606.2,246.7z"/>
	<path class="st6" d="M622.5,166.5c0,3,1.6,4,1.7,5.6c0,0-6.9,3.2-18.5,3.2s-18.5-3.2-18.5-3.2c0.1-1.6,1.7-2.6,1.7-5.6
		c0-3.5-2.3-3.7-1.8-9c0.4-3.9,3.4-4.4,3.8-12.1c0.5-8,3.5-11.2,5.9-13c2.5-2.1,5.7-3.1,8.9-3c0,0,4.2-0.8,8.7,2.7
		c2.3,1.8,5.6,5.3,6.1,13.3c0.5,7.7,3.4,8.2,3.8,12.1C624.8,162.8,622.5,163,622.5,166.5z"/>
	<path class="st6" d="M590.6,149.7c1-2.2,1-4.8,0.8-7.2c0,0,0-0.1-0.1-0.1c0,0-0.1,0-0.1,0.1c0,0,0,0,0,0.1c0,2.3,0.1,4.7-0.8,6.8
		c-0.8,1.9-2.3,3.2-3.4,4.8c-1.1,1.4-1.7,3.2-1.7,5c0,0.9,0.2,1.9,0.5,2.8c0.4,0.9,0.9,1.7,1.4,2.5c1.4,2.6-0.3,5.3-1.7,7.3l0,0
		c1.2-1.5,2.4-3.2,2.5-5.3c0-1-0.2-1.9-0.8-2.8c-0.6-0.9-1.1-1.9-1.3-2.9c-0.5-2.1,0-4.4,1.3-6.2
		C588.3,152.8,589.8,151.5,590.6,149.7z"/>
	<path class="st6" d="M625.4,157.2c-0.5-2.1-1.5-4-2.8-5.7c-0.6-0.9-1.1-1.8-1.5-2.8c-0.4-1.1-0.7-2.3-0.8-3.5
		c-0.2-1.3-0.4-2.6-0.7-3.9c-0.3-1.3-0.8-2.5-1.3-3.7c0-0.1-0.1,0-0.1,0c0.9,2.3,1.5,4.7,1.7,7.2c0.2,2.2,0.8,4.3,1.9,6.2
		c1.1,1.8,2.5,3.4,3,5.6s0.8,5.2-0.4,7.3c-1,1.7-2.8,3.7-1.8,5.9c0,0.1,0.1,0,0.1,0c-0.8-2.5,1.3-4.3,2.3-6.3
		C625.7,161.5,625.9,159.3,625.4,157.2z"/>
	<path class="st9" d="M600.9,178.2c-5.5,8.2-29.7,37.2-40,36.3c-7.3-0.6-41.2-17.5-46.4-22.2c-2.9-2.6,17.8-22.1,22.1-20.1
		c5.4,2.4,23,16.8,26.5,17.2c1.9,0.2,14.1-7.9,31.4-18.5C603.4,165.4,605.6,171.1,600.9,178.2z"/>
	<path class="st9" d="M514.5,192.3c-2.8-1.4-14.9-9-17.8-11.9s-10.7-11.7-8.7-14.2s4.5,0,4.5,0s-2.7-4.3-0.5-6.6s5.9,1.6,5.9,1.6
		s-2.4-4.6-0.1-6.7s5.5,2.4,5.5,2.4s-2.4-4.1,0.3-5c3.2-1.1,6.8,6.9,10.3,9.9c0.8,0.7,16.8,12.4,16.8,12.4L514.5,192.3z"/>
	<path class="st6" d="M503.1,156.6c2.7,5.9,4.9,8,10.2,11.5c0.1,0,0.1,0.1,0.1,0.1c0,0.1-0.1,0.1-0.1,0.1c0,0,0,0,0,0
		c-5.5-3-8.6-5.2-10.4-11.6C502.7,156.3,502.9,156.3,503.1,156.6z"/>
	<path class="st6" d="M497.7,160.7c3.3,5.9,5.7,8.2,11,12.3c0.1,0.1,0,0.2-0.1,0.1c-5.5-3.6-8.6-5.9-11.1-12.2
		C497.4,160.7,497.6,160.5,497.7,160.7z"/>
	<path class="st6" d="M492.7,166.3c3.6,5.5,6.1,8.1,11.8,11.4c0.1,0,0.1,0.1,0.1,0.2c0,0.1-0.1,0.1-0.2,0.1
		c-6.1-2.8-9.2-6.1-11.8-11.5C492.4,166.1,492.5,166,492.7,166.3z"/>
	<path class="st9" d="M536.6,172.1c0,0-4.2-7-6.7-9.6s-15.5-9.1-17.1-6.3c-2,3.5,4.8,8.7,8.4,10.8c0,0-4.6,8.1-0.6,12.9
		S536.6,172.1,536.6,172.1z"/>
	<path class="st6" d="M512.6,157.3c0.5,4.5,5.5,7,8.9,9.3c0.2,0.1,0.2,0.3,0.1,0.5c0,0-0.1,0.1-0.1,0.1c-1.7,3.6-3.1,9.1-1,12.7
		c0,0,0,0.1,0,0.1s-0.1,0-0.1,0c-2.7-3.6-1.8-9.1,0.3-12.9C517.1,164.8,512.2,162.1,512.6,157.3
		C512.6,157.3,512.6,157.3,512.6,157.3z"/>
	<path class="st10" d="M569,185.1l21.7,11.2c0,0,9.7-12.2,13.4-21c2.9-6.7-0.7-8.8-5.2-7.1C583.9,174.1,569,185.1,569,185.1z"/>
	<text transform="matrix(1 0 0 1 177.0156 249.522)" class="st10 st13 st14">64a9a5</text>
	<path class="st1" d="M589.5,178.7c-0.8,0-1.5,0.7-1.5,1.5s0.7,1.5,1.5,1.5s1.5-0.7,1.5-1.5C591,179.4,590.3,178.7,589.5,178.7z
		 M589.5,181.4c-0.7,0-1.2-0.5-1.2-1.2c0-0.7,0.5-1.2,1.2-1.2c0,0,0,0,0,0c0.7,0,1.2,0.5,1.2,1.2
		C590.7,180.9,590.2,181.4,589.5,181.4z M575,180.9c-0.1,0.5-0.6,0.9-1.2,0.9h-0.2l-0.3,0.2c0.2,0.1,0.3,0.1,0.5,0.1
		c0.8,0,1.4-0.6,1.5-1.4L575,180.9z M604.7,169.2c-0.2,0.1-0.4,0.1-0.6,0.1c-0.7,0-1.2-0.5-1.2-1.2c0,0,0,0,0,0c0-0.1,0-0.2,0-0.3
		l-0.3-0.1c0,0.1-0.1,0.3-0.1,0.4c0,0.8,0.7,1.5,1.5,1.5c0.2,0,0.5-0.1,0.7-0.2C604.8,169.4,604.8,169.3,604.7,169.2L604.7,169.2z
		 M590.2,191.1c-0.8,0-1.5,0.7-1.5,1.5c0.1,0.8,0.8,1.4,1.7,1.3c0.7-0.1,1.2-0.6,1.3-1.3C591.7,191.8,591.1,191.2,590.2,191.1
		L590.2,191.1z M590.2,193.9c-0.7,0-1.2-0.5-1.2-1.2c0-0.7,0.5-1.2,1.2-1.2s1.2,0.5,1.2,1.2c0,0,0,0,0,0
		C591.4,193.3,590.9,193.8,590.2,193.9L590.2,193.9z M598.7,185c-0.8,0-1.5,0.7-1.5,1.5c0,0.2,0.1,0.5,0.2,0.7
		c0.1-0.1,0.1-0.2,0.2-0.3c0-0.1-0.1-0.2-0.1-0.4c0-0.6,0.5-1.1,1.1-1.2L598.7,185L598.7,185z M596.5,173.2c-0.8,0-1.5,0.7-1.5,1.5
		c0,0.8,0.7,1.5,1.5,1.5s1.5-0.7,1.5-1.5c0,0,0,0,0,0C598,173.9,597.4,173.2,596.5,173.2L596.5,173.2z M596.5,175.9
		c-0.7,0-1.2-0.5-1.2-1.2c0-0.7,0.5-1.2,1.2-1.2s1.2,0.5,1.2,1.2c0,0,0,0,0,0C597.7,175.4,597.2,175.9,596.5,175.9L596.5,175.9z
		 M581.6,185.7c-0.8,0-1.5,0.7-1.5,1.5s0.7,1.5,1.5,1.5c0.8,0,1.5-0.7,1.5-1.5C583.1,186.4,582.4,185.7,581.6,185.7L581.6,185.7z
		 M581.6,188.4c-0.7,0-1.2-0.5-1.2-1.2c0,0,0,0,0,0c0-0.7,0.5-1.2,1.2-1.2c0.7,0,1.2,0.5,1.2,1.2S582.3,188.4,581.6,188.4
		C581.6,188.4,581.6,188.4,581.6,188.4z"/>
	<path class="st6" d="M591.8,192.4c-5.9-3.6-12-6.8-18.4-9.6c0,0-0.1,0.1-0.1,0.1c4.8,2.9,14.9,8,18.3,9.7
		C591.7,192.7,591.8,192.5,591.8,192.4z"/>
	<path class="st15" d="M604.1,175.3c-3.8,8.8-13.4,21-13.4,21l-14.5-7.5l27.4-20.7C605.3,169.1,605.8,171.4,604.1,175.3z"/>
	<path class="st10" d="M583.8,205.9l-4,16.7l50.6-0.3c0,0-5.3-39-14.1-49.8c-6-7.3-13.4-7.2-18.5-2.6c-1.3,1.1-14.7,14.9-16.6,22.1
		C579.5,198.3,583.8,205.9,583.8,205.9z"/>
	<path class="st6" d="M592.2,181c-1.5,1.1-3.1,2.2-4.5,3.4c0.6-0.7,1.2-1.3,1.9-1.9c0,0,0-0.1,0,0c-0.6,0.5-1.1,0.9-1.6,1.4
		c-0.3,0.3-0.6,0.7-0.8,1c-0.5,0.4-1,0.8-1.4,1.2c-1,0.9-1.8,1.8-2.6,2.7c-0.7,1-1.3,1.9-1.9,2.9c0,0.1,0.1,0.1,0.1,0
		c0.7-1,1.4-1.9,2.3-2.8c0.8-0.9,1.7-1.8,2.7-2.7C588.2,184.5,590.2,182.7,592.2,181C592.2,181,592.2,181,592.2,181z"/>
	<path class="st1" d="M589.8,178.7l-0.2,0.3c0.7,0,1.2,0.6,1.2,1.2c0,0.7-0.6,1.2-1.2,1.2c-0.6,0-1-0.4-1.2-0.9l-0.2,0.3
		c0.2,0.6,0.8,0.9,1.4,0.9c0.8,0.1,1.6-0.5,1.6-1.4S590.6,178.8,589.8,178.7L589.8,178.7z M616.4,208.1c-0.8,0-1.5,0.7-1.5,1.5
		s0.7,1.5,1.5,1.5c0.8,0,1.5-0.7,1.5-1.5c0,0,0,0,0,0C617.9,208.7,617.2,208.1,616.4,208.1z M616.4,210.8c-0.7,0-1.2-0.5-1.2-1.2
		c0-0.7,0.5-1.2,1.2-1.2c0.7,0,1.2,0.5,1.2,1.2C617.6,210.2,617.1,210.8,616.4,210.8z M599.5,220c-0.8,0-1.5,0.7-1.5,1.5
		c0,0.4,0.1,0.7,0.4,1h0.5c-0.3-0.2-0.6-0.6-0.6-1c0-0.7,0.5-1.2,1.2-1.2s1.2,0.5,1.2,1.2c0,0.4-0.2,0.8-0.6,1.1h0.5
		c0.3-0.3,0.4-0.6,0.4-1C601,220.7,600.3,220,599.5,220L599.5,220L599.5,220z M599.5,208.7c-0.8,0.1-1.4,0.8-1.3,1.7
		c0.1,0.7,0.6,1.2,1.3,1.3c0.8,0.1,1.6-0.5,1.7-1.3c0.1-0.8-0.5-1.6-1.3-1.7C599.7,208.7,599.6,208.7,599.5,208.7z M599.5,211.4
		c-0.7,0-1.2-0.5-1.2-1.2s0.5-1.2,1.2-1.2c0.7,0,1.2,0.5,1.2,1.2C600.7,210.8,600.2,211.4,599.5,211.4
		C599.5,211.4,599.5,211.4,599.5,211.4L599.5,211.4z M612.6,172.6c-0.8,0-1.5,0.7-1.5,1.5c0,0.8,0.7,1.5,1.5,1.5
		c0.8,0,1.5-0.7,1.5-1.5c0,0,0,0,0,0C614.1,173.3,613.4,172.6,612.6,172.6L612.6,172.6z M612.6,175.3c-0.7,0-1.2-0.5-1.2-1.2
		s0.5-1.2,1.2-1.2c0.7,0,1.2,0.5,1.2,1.2S613.3,175.3,612.6,175.3C612.6,175.3,612.6,175.3,612.6,175.3L612.6,175.3z M613.2,184.3
		c-0.8,0-1.5,0.7-1.5,1.5s0.7,1.5,1.5,1.5c0.8,0,1.5-0.7,1.5-1.5S614,184.3,613.2,184.3C613.1,184.3,613.1,184.3,613.2,184.3
		L613.2,184.3z M613.2,187.1c-0.7,0-1.2-0.5-1.2-1.2s0.5-1.2,1.2-1.2c0.7,0,1.2,0.5,1.2,1.2C614.3,186.5,613.8,187,613.2,187.1
		L613.2,187.1z M604.8,166.9c-0.6,0-1.1,0.1-1.7,0.3c-0.3,0.3-0.5,0.7-0.5,1.1c-0.1,0.8,0.5,1.6,1.3,1.7c0.8,0.1,1.6-0.5,1.7-1.3
		c0-0.1,0-0.2,0-0.3C605.7,167.6,605.3,167.1,604.8,166.9L604.8,166.9z M604.2,169.4c-0.7,0-1.2-0.5-1.2-1.2s0.5-1.2,1.2-1.2
		c0.7,0,1.2,0.5,1.2,1.2C605.4,168.9,604.8,169.4,604.2,169.4L604.2,169.4z M590.2,191.1c-0.8,0-1.5,0.7-1.5,1.5
		c0.1,0.8,0.8,1.4,1.7,1.3c0.7-0.1,1.2-0.6,1.3-1.3C591.7,191.8,591.1,191.2,590.2,191.1z M590.2,193.9c-0.7,0-1.2-0.5-1.2-1.2
		c0-0.7,0.5-1.2,1.2-1.2s1.2,0.5,1.2,1.2c0,0,0,0,0,0C591.4,193.3,590.9,193.9,590.2,193.9L590.2,193.9z M598.1,197.7
		c-0.8,0-1.5,0.7-1.5,1.5s0.7,1.5,1.5,1.5s1.5-0.7,1.5-1.5S598.9,197.7,598.1,197.7z M598.1,200.4c-0.7,0-1.2-0.6-1.2-1.2
		s0.6-1.2,1.2-1.2c0.7,0,1.2,0.5,1.2,1.2C599.3,199.8,598.8,200.3,598.1,200.4C598.1,200.3,598.1,200.3,598.1,200.4L598.1,200.4z
		 M606.5,203.2c-0.8-0.1-1.6,0.5-1.7,1.3c-0.1,0.8,0.5,1.6,1.3,1.7c0.1,0,0.2,0,0.3,0c0.8-0.1,1.4-0.8,1.3-1.7
		C607.8,203.8,607.2,203.2,606.5,203.2z M606.5,205.9c-0.7,0-1.2-0.5-1.2-1.2c0-0.7,0.5-1.2,1.2-1.2c0.7,0,1.2,0.5,1.2,1.2
		c0,0,0,0,0,0C607.7,205.3,607.2,205.9,606.5,205.9L606.5,205.9z M589.5,214c-0.8,0-1.5,0.7-1.5,1.5s0.7,1.5,1.5,1.5
		s1.5-0.7,1.5-1.5C591,214.7,590.3,214,589.5,214L589.5,214z M589.5,216.7c-0.7,0-1.2-0.5-1.2-1.2c0-0.7,0.5-1.2,1.2-1.2
		c0,0,0,0,0,0c0.7,0,1.2,0.5,1.2,1.2C590.7,216.1,590.2,216.7,589.5,216.7z M605.1,178.7c-0.8,0-1.5,0.7-1.5,1.5
		c0,0.8,0.7,1.5,1.5,1.5c0.8,0,1.5-0.7,1.5-1.5C606.6,179.4,606,178.7,605.1,178.7L605.1,178.7z M605.1,181.4
		c-0.7,0-1.2-0.5-1.2-1.2c0-0.7,0.5-1.2,1.2-1.2c0.7,0,1.2,0.5,1.2,1.2c0,0,0,0,0,0C606.4,180.9,605.8,181.4,605.1,181.4
		C605.2,181.4,605.2,181.4,605.1,181.4L605.1,181.4z M598.7,185c-0.8,0-1.5,0.7-1.5,1.5s0.7,1.5,1.5,1.5c0.8,0,1.5-0.7,1.5-1.5
		C600.2,185.7,599.5,185,598.7,185L598.7,185z M598.7,187.7c-0.7,0-1.2-0.5-1.2-1.2c0-0.7,0.5-1.2,1.2-1.2c0.7,0,1.2,0.5,1.2,1.2
		C599.9,187.2,599.3,187.7,598.7,187.7C598.7,187.7,598.7,187.7,598.7,187.7z M590,203.1c-0.8,0-1.5,0.7-1.5,1.5s0.7,1.5,1.5,1.5
		c0.8,0,1.5-0.7,1.5-1.5C591.5,203.8,590.8,203.2,590,203.1L590,203.1z M590,205.9c-0.7,0-1.2-0.6-1.2-1.2c0-0.7,0.6-1.2,1.2-1.2
		c0.7,0,1.2,0.5,1.2,1.2C591.2,205.3,590.7,205.9,590,205.9L590,205.9z M581.3,219.4c-0.3,0-0.5,0.1-0.8,0.2l-0.1,0.5
		c0.2-0.3,0.5-0.4,0.9-0.4c0.7-0.1,1.3,0.4,1.3,1.1c0.1,0.7-0.4,1.3-1.1,1.3c-0.1,0-0.1,0-0.2,0c-0.5,0-1-0.4-1.2-0.9l-0.1,0.5
		c0.3,0.4,0.8,0.7,1.3,0.7c0.8,0.1,1.6-0.5,1.7-1.3c0.1-0.8-0.5-1.6-1.3-1.7C581.6,219.4,581.4,219.4,581.3,219.4L581.3,219.4z
		 M615,197.3c-0.8,0-1.5,0.7-1.5,1.5c0,0.8,0.7,1.5,1.5,1.5c0.8,0,1.5-0.7,1.5-1.5c0,0,0,0,0,0C616.5,198,615.8,197.3,615,197.3
		L615,197.3z M615,200c-0.7,0-1.2-0.6-1.2-1.2c0.1-0.7,0.6-1.2,1.3-1.1c0.6,0.1,1,0.5,1.1,1.1C616.2,199.4,615.7,200,615,200
		C615,200,615,200,615,200L615,200z M624.1,201.4c-0.8,0.1-1.4,0.8-1.3,1.7c0.1,0.7,0.6,1.2,1.3,1.3c0.8,0.1,1.6-0.5,1.7-1.3
		c0.1-0.8-0.5-1.6-1.3-1.7C624.3,201.4,624.2,201.4,624.1,201.4z M624.1,204.1c-0.7,0-1.2-0.6-1.2-1.2c0,0,0,0,0,0
		c0-0.7,0.5-1.2,1.2-1.2c0,0,0,0,0,0c0.7,0,1.2,0.5,1.2,1.2c0,0,0,0,0,0C625.3,203.6,624.8,204.1,624.1,204.1
		C624.1,204.1,624.1,204.1,624.1,204.1L624.1,204.1z M609.9,214.3c-0.8,0-1.5,0.7-1.5,1.5c0,0.8,0.7,1.5,1.5,1.5
		c0.8,0,1.5-0.7,1.5-1.5c0,0,0,0,0,0C611.4,215,610.7,214.3,609.9,214.3z M609.9,217.1c-0.7,0-1.2-0.5-1.2-1.2
		c0-0.7,0.5-1.2,1.2-1.2c0,0,0,0,0,0c0.7,0,1.2,0.5,1.2,1.2C611.1,216.5,610.6,217,609.9,217.1z M626.5,213c-0.8,0-1.5,0.7-1.5,1.5
		c0,0.8,0.7,1.5,1.5,1.5c0.8,0,1.5-0.7,1.5-1.5c0,0,0,0,0,0C628,213.7,627.3,213,626.5,213L626.5,213z M626.5,215.7
		c-0.7,0-1.2-0.6-1.2-1.2c0-0.7,0.6-1.2,1.2-1.2c0.7,0,1.2,0.6,1.2,1.2C627.7,215.2,627.2,215.7,626.5,215.7z M596.5,173.1
		c-0.8,0-1.5,0.7-1.5,1.5c0,0.8,0.7,1.5,1.5,1.5s1.5-0.7,1.5-1.5c0,0,0,0,0,0C598,173.9,597.3,173.2,596.5,173.1L596.5,173.1z
		 M596.5,175.9c-0.7,0-1.2-0.5-1.2-1.2c0-0.7,0.5-1.2,1.2-1.2s1.2,0.5,1.2,1.2c0,0,0,0,0,0C597.7,175.3,597.2,175.9,596.5,175.9
		L596.5,175.9z M581.6,197.5c-0.2,0-0.4,0-0.6,0.1c0,0.1,0,0.2,0,0.3c0.2-0.1,0.4-0.1,0.5-0.1c0.7,0,1.2,0.5,1.2,1.2
		c0,0.7-0.5,1.2-1.2,1.2c0,0,0,0,0,0h-0.1l0.1,0.3c0.8-0.1,1.4-0.8,1.3-1.7C582.8,198.1,582.3,197.6,581.6,197.5L581.6,197.5z
		 M620.6,179.9L620.6,179.9c0,0-0.1-0.1-0.1-0.1c-0.1-0.1-0.2-0.3-0.3-0.4c0,0.1,0,0.1,0,0.2c0,0.3,0.3,0.6,0.7,0.7
		C620.8,180.2,620.7,180,620.6,179.9L620.6,179.9z M606.5,191.1c-0.8,0-1.5,0.7-1.5,1.5c0,0.8,0.7,1.5,1.5,1.5h0
		c0.8,0,1.5-0.7,1.5-1.5c0,0,0,0,0,0C608,191.8,607.3,191.1,606.5,191.1L606.5,191.1z M606.5,192.6c-0.7,0-1.2-0.3-1.2-0.6
		c0-0.3,0.5-0.6,1.2-0.6c0.7,0,1.2,0.3,1.2,0.6c0,0,0,0,0,0C607.7,192.4,607.2,192.6,606.5,192.6L606.5,192.6z M621.6,189.8
		c-0.8,0-1.5,0.7-1.5,1.5s0.7,1.5,1.5,1.5c0.8,0,1.5-0.7,1.5-1.5S622.5,189.8,621.6,189.8L621.6,189.8z M621.6,192.5
		c-0.7,0-1.2-0.5-1.2-1.2c0-0.7,0.5-1.2,1.2-1.2c0.7,0,1.2,0.5,1.2,1.2S622.3,192.5,621.6,192.5
		C621.6,192.5,621.6,192.5,621.6,192.5L621.6,192.5z M618,220.6c-0.8,0-1.5,0.7-1.5,1.5c0,0.1,0,0.3,0,0.4h0.3
		c0-0.1-0.1-0.3-0.1-0.4c0-0.7,0.5-1.2,1.2-1.2s1.2,0.5,1.2,1.2c0,0,0,0,0,0c0,0.1,0,0.2-0.1,0.4h0.3c0-0.1,0.1-0.2,0-0.4
		C619.5,221.2,618.8,220.6,618,220.6C618,220.6,618,220.6,618,220.6z"/>
	<path class="st6" d="M592.1,202.6c2.3,0.1,4.5,0.3,6.8,0.8c1.1,0.2,2.2,0.5,3.3,0.8c0.5,0.1,1.1,0.3,1.6,0.4
		c0.6,0.2,1.2,0.2,1.8,0.2c0,0,0,0.1,0,0.1c-0.6,0-1.1,0-1.7,0c-0.5,0-1.1-0.1-1.6-0.2c-1.1-0.2-2.2-0.5-3.4-0.7
		c-2.3-0.5-4.5-0.9-6.8-1.2C592,202.8,592,202.6,592.1,202.6z"/>
	<path class="st6" d="M586.6,204.9c1.9-0.3,3.7-0.5,5.6-0.6c0.9,0,1.9,0,2.8,0l1.3,0.1c0.5,0,1,0.1,1.5,0.2v0.1
		c-0.5,0-0.9,0-1.4,0.1h-1.4c-0.9,0-1.9,0.1-2.8,0.1C590.4,204.8,588.5,204.9,586.6,204.9C586.5,205.1,586.5,204.9,586.6,204.9z"/>
	
		<rect x="505.1" y="125.1" transform="matrix(0.707 -0.7072 0.7072 0.707 14.2032 429.7389)" class="st0" width="41.3" height="145.2"/>
	
		<rect x="469.2" y="146.7" transform="matrix(0.707 -0.7072 0.7072 0.707 31.1663 388.7498)" class="st5" width="31" height="20.1"/>
	
		<rect x="486.4" y="163.9" transform="matrix(0.707 -0.7072 0.7072 0.707 24.0402 405.9677)" class="st16" width="31" height="20.1"/>
	
		<rect x="503.7" y="181.1" transform="matrix(0.707 -0.7072 0.7072 0.707 16.9172 423.1926)" class="st17" width="31" height="20.1"/>
	
		<rect x="520.9" y="198.4" transform="matrix(0.707 -0.7072 0.7072 0.707 9.7841 440.4076)" class="st18" width="31" height="20.1"/>
	
		<rect x="538.1" y="215.6" transform="matrix(0.707 -0.7072 0.7072 0.707 2.6581 457.6254)" class="st19" width="31" height="20.1"/>
	<g class="st20">
		<rect x="469.2" y="146.7" transform="matrix(0.707 -0.7072 0.7072 0.707 31.1663 388.7498)" width="31" height="20.1"/>
		
			<rect x="486.4" y="163.9" transform="matrix(0.707 -0.7072 0.7072 0.707 24.0402 405.9677)" class="st21" width="31" height="20.1"/>
		
			<rect x="503.7" y="181.1" transform="matrix(0.707 -0.7072 0.7072 0.707 16.9172 423.1926)" class="st22" width="31" height="20.1"/>
		
			<rect x="520.9" y="198.4" transform="matrix(0.707 -0.7072 0.7072 0.707 9.7841 440.4076)" class="st23" width="31" height="20.1"/>
		
			<rect x="538.1" y="215.6" transform="matrix(0.707 -0.7072 0.7072 0.707 2.6581 457.6254)" class="st24" width="31" height="20.1"/>
	</g>
	<path class="st6" d="M573.1,239.1c1.7,1.7,1.7,4.3,0,6c-1.7,1.7-4.3,1.7-6,0s-1.7-4.3,0-6c0,0,0,0,0,0
		C568.8,237.4,571.4,237.4,573.1,239.1z"/>
	
		<rect x="533.2" y="108.9" transform="matrix(0.9659 -0.259 0.259 0.9659 -28.1068 149.632)" class="st0" width="41.3" height="145.2"/>
	<rect x="523.3" y="115.5" transform="matrix(0.9659 -0.259 0.259 0.9659 -14.12 143.8356)" class="st5" width="31" height="20.1"/>
	
		<rect x="529.6" y="139" transform="matrix(0.9659 -0.259 0.259 0.9659 -19.9947 146.2704)" class="st16" width="31" height="20.1"/>
	
		<rect x="535.9" y="162.5" transform="matrix(0.9659 -0.259 0.259 0.9659 -25.8675 148.705)" class="st17" width="31" height="20.1"/>
	<rect x="542.3" y="186" transform="matrix(0.9659 -0.259 0.259 0.9659 -31.7428 151.14)" class="st18" width="31" height="20.1"/>
	
		<rect x="548.6" y="209.5" transform="matrix(0.9659 -0.259 0.259 0.9659 -37.6173 153.5755)" class="st19" width="31" height="20.1"/>
	<path class="st6" d="M574.2,241c0.6,2.3-0.7,4.6-3,5.2c-2.3,0.6-4.6-0.7-5.2-3c-0.6-2.3,0.7-4.6,3-5.2
		C571.3,237.4,573.6,238.7,574.2,241C574.2,241,574.2,241,574.2,241z"/>
	<path class="st9" d="M617.4,172.8c13.6,11.9,38.3,40.1,33.5,49.1c-7.9,14.9-26.7,31.2-34.3,35.6c-3.3,1.9-21.9-20.9-19-23.8
		c3.4-3.5,26.8-19.4,26.6-20.7s-9-17.9-13.8-31.4C604.5,164.8,611.8,167.8,617.4,172.8z"/>
	<path class="st9" d="M610.1,228.9c0,0-11.5-0.7-19.1-0.8c-4.2-0.1-11.4,0.5-14.5,1.9c-4.7,2.1-22.8,13.6-20.1,18.1
		c2.5,4,16.8-7.9,16.8-7.9s-15.5,10.8-11.7,15.1s18.2-11.3,18.2-11.3s-15.7,11.4-11,15.2c3.5,2.9,17.4-10.5,17.4-10.5
		s-13.4,9.9-9.9,13c3.9,3.5,17.4-8.1,17.4-8.1c10.3,6.5,17.7,5.9,23,3.9C617.9,257,610.1,228.9,610.1,228.9z"/>
	<path class="st6" d="M577.6,236.7c-12,7.1-15.8,14.2-15.7,14c3.3-4,9.5-9,11.2-10.3S575.9,238.1,577.6,236.7
		C577.7,236.7,577.6,236.7,577.6,236.7z"/>
	<path class="st6" d="M583.3,242.4c-5,2.6-9.5,6.1-13.3,10.4c-0.1,0.2,0,0.2,0.1,0C572.4,251,581.1,244.2,583.3,242.4L583.3,242.4z"
		/>
	<path class="st6" d="M588.6,247c-3.8,2.1-7.2,4.9-10,8.3c-0.1,0.2,0,0.2,0.2,0c3.3-2.8,5.8-5.1,9.9-8.2
		C588.8,247.1,588.7,247,588.6,247z"/>
	<path class="st10" d="M640,190.8l-23.3,7.4c0,0-7.5-13.7-9.6-23c-1.7-7.1,2.2-8.6,6.3-6.1C627.2,177.3,640,190.8,640,190.8z"/>
	<path class="st1" d="M638.6,189.3c-0.4,0.5-1.2,0.6-1.7,0.2c-0.5-0.4-0.6-1.2-0.2-1.7c0.1-0.1,0.1-0.1,0.2-0.2
		c-0.1-0.1-0.1-0.1-0.2-0.2c-0.3,0.3-0.5,0.7-0.5,1.1c0,0.8,0.7,1.5,1.5,1.5c0.4,0,0.9-0.2,1.1-0.5L638.6,189.3z M612.6,172.6
		c-0.8,0-1.5,0.7-1.5,1.5c0,0.8,0.7,1.5,1.5,1.5c0.8,0,1.5-0.7,1.5-1.5c0,0,0,0,0,0C614.1,173.3,613.4,172.7,612.6,172.6
		L612.6,172.6z M612.6,175.4c-0.7,0-1.2-0.5-1.2-1.2s0.5-1.2,1.2-1.2c0.7,0,1.2,0.5,1.2,1.2C613.8,174.8,613.3,175.3,612.6,175.4
		L612.6,175.4z M613.1,184.4c-0.8,0-1.5,0.7-1.5,1.5s0.7,1.5,1.5,1.5c0.8,0,1.5-0.7,1.5-1.5C614.6,185,614,184.4,613.1,184.4
		L613.1,184.4z M613.1,187.1c-0.7,0-1.2-0.5-1.2-1.2s0.5-1.2,1.2-1.2c0.7,0,1.2,0.5,1.2,1.2C614.3,186.5,613.8,187,613.1,187.1
		L613.1,187.1z M629.2,183c-0.8,0-1.5,0.7-1.5,1.5c0,0.8,0.7,1.5,1.5,1.5c0.8,0,1.5-0.7,1.5-1.5C630.7,183.7,630,183,629.2,183z
		 M629.2,185.7c-0.7,0-1.2-0.5-1.2-1.2c0-0.7,0.5-1.2,1.2-1.2s1.2,0.5,1.2,1.2c0,0,0,0,0,0C630.4,185.2,629.9,185.7,629.2,185.7
		L629.2,185.7z M621.6,178.3c-0.8,0-1.5,0.7-1.5,1.5c0,0.8,0.7,1.5,1.5,1.5c0.8,0,1.5-0.7,1.5-1.5c0,0,0,0,0,0
		C623.1,179,622.5,178.3,621.6,178.3C621.6,178.3,621.6,178.3,621.6,178.3L621.6,178.3z M621.6,181c-0.7,0-1.2-0.6-1.2-1.2
		c0-0.7,0.6-1.2,1.2-1.2c0.7,0,1.2,0.5,1.2,1.2C622.8,180.5,622.3,181,621.6,181L621.6,181z M621.6,189.8c-0.8,0-1.5,0.7-1.5,1.5
		s0.7,1.5,1.5,1.5c0.8,0,1.5-0.7,1.5-1.5C623.1,190.5,622.5,189.8,621.6,189.8C621.6,189.8,621.6,189.8,621.6,189.8L621.6,189.8z
		 M621.6,192.5c-0.7,0-1.2-0.5-1.2-1.2c0-0.7,0.5-1.2,1.2-1.2c0.7,0,1.2,0.5,1.2,1.2S622.3,192.5,621.6,192.5
		C621.6,192.5,621.6,192.5,621.6,192.5L621.6,192.5z"/>
	<path class="st6" d="M616.3,194.1c6.4-2.5,13-4.7,19.7-6.4c0,0,0.1,0.1,0.1,0.1c-5.3,2-16.1,5.4-19.7,6.4
		C616.3,194.3,616.2,194.1,616.3,194.1z"/>
	<path class="st6" d="M616.4,198.3c-1-1.8-1.8-3.6-2.6-5.4c-0.3-0.5-0.7-0.9-1-1.4c-0.4-0.6-0.7-1.3-1-2c0,0,0-0.1,0,0
		c0.2,0.3,0.3,0.6,0.5,0.9l0.6,0.9c0.2,0.3,0.4,0.6,0.6,0.9c-0.8-1.8-1.6-3.6-2.2-5.4 M611.4,186.8c1,1.8,1.9,3.7,2.8,5.6
		c0.8,1.9,1.8,3.7,2.5,5.6c0.3-0.1,0.7-0.2,1-0.2c0.1,0,0.1,0.1,0.1,0.1c-0.4,0.2-0.7,0.3-1.1,0.5c-0.1,0-0.2,0-0.3-0.1L611.4,186.8
		z"/>
	<path class="st9" d="M607.9,169.2c-0.4,1.4-4.2,7.5-8.4,7c-2.2-0.2-1.6-8-1.6-8l-0.1-0.6l-0.9-8l11.3-5.6
		C608.1,154.1,608,168.8,607.9,169.2z"/>
	<path class="st6" d="M608,159.6c-2.1,4-5.9,7-10.3,8.1l-0.9-8l11.3-5.6C608.1,154.2,608.1,156.7,608,159.6z"/>
	<path class="st9" d="M586.6,146.7c-2.3,14,5.8,17,8.8,17.5c2.7,0.4,12.1,1.6,15.9-12.1s-2-19.2-8.2-20.6S588.9,132.7,586.6,146.7z"
		/>
	<path class="st6" d="M589.3,143.8c0.3,0,0.7,0,1-0.1c0.4,0,0.7-0.1,1-0.3c0.2-0.2,0.2-0.4,0.1-0.6c-0.3-0.3-0.8-0.5-1.2-0.4
		c-0.5,0-0.9,0.2-1.2,0.5c-0.2,0.2-0.2,0.6,0,0.8C589,143.8,589.2,143.8,589.3,143.8z"/>
	<path class="st6" d="M598.8,144.9c-0.3-0.1-0.6-0.2-0.9-0.3c-0.3-0.1-0.7-0.2-0.9-0.5c-0.1-0.2-0.1-0.4,0.1-0.6
		c0.4-0.3,0.8-0.3,1.3-0.2c0.4,0.1,0.8,0.4,1.1,0.8c0.2,0.3,0.1,0.6-0.2,0.7C599,144.9,598.9,144.9,598.8,144.9z"/>
	<path class="st6" d="M596.5,148.2c0,0,0.1,0.1,0.1,0.1c-0.2,0.9-0.2,2.1,0.7,2.5c0,0,0,0.1,0,0.1
		C596.2,150.6,596.2,149.1,596.5,148.2z"/>
	<path class="st6" d="M597.5,147.3c1.6,0.1,1.3,3.2-0.2,3.1S596.2,147.3,597.5,147.3z"/>
	<path class="st6" d="M598.1,147.6c0.3,0.2,0.5,0.5,0.8,0.6s0.7-0.2,1-0.5l0,0c0,0.6-0.3,1.2-1,1.2s-1-0.5-1-1.1
		C597.9,147.6,598,147.5,598.1,147.6z"/>
	<path class="st6" d="M590.8,147.6C590.8,147.6,590.7,147.6,590.8,147.6c-0.1,1.1-0.3,2.1-1.2,2.4c0,0,0,0.1,0,0.1
		C590.6,149.9,590.9,148.5,590.8,147.6z"/>
	<path class="st6" d="M590,146.5c-1.5-0.2-1.9,2.9-0.5,3.1S591.3,146.7,590,146.5z"/>
	<path class="st6" d="M589.3,146.6c-0.3,0.1-0.5,0.4-0.8,0.4s-0.5-0.4-0.7-0.7h0c-0.1,0.6,0,1.2,0.6,1.4s1-0.3,1.2-0.9
		C589.5,146.7,589.4,146.5,589.3,146.6z"/>
	<path class="st6" d="M595.9,155.8c-0.2,0.2-0.4,0.6-0.7,0.7c-0.4,0-0.7,0-1.1-0.1c0,0-0.1,0,0,0c0.3,0.3,0.8,0.5,1.3,0.4
		c0.4-0.2,0.7-0.6,0.6-1c0,0-0.1-0.1-0.1,0C595.9,155.7,595.9,155.8,595.9,155.8z"/>
	<path class="st6" d="M591.8,151.9c0,0-0.3,1.4-0.4,2.1c1.3,0.4,2.7,0.2,3.7-0.7c0.1-0.1,0-0.1-0.1-0.1c-0.9,0.5-2,0.7-3,0.6
		c0-0.2,0.7-2.4,0.6-2.4c-0.5,0-1.1,0.1-1.6,0.2c0.6-3,1.7-5.8,2.3-8.8c0,0,0-0.1-0.1-0.1s-0.1,0-0.1,0.1l0,0
		c-1.3,3-2.2,6.1-2.9,9.4C590.1,152.4,591.6,152,591.8,151.9z"/>
	<path class="st6" d="M592.4,154.1c0.3,0.5,0.8,0.9,1.3,1.2c0.3,0.2,0.7,0.2,1,0.1c0.7-0.1,0.8-0.8,0.7-1.3c0-0.3-0.1-0.6-0.2-0.9
		C594.4,153.8,593.4,154.1,592.4,154.1z"/>
	<path class="st25" d="M593.7,155.3c0.3,0.2,0.7,0.2,1,0.1c0.7-0.1,0.8-0.8,0.7-1.3C594.6,154,593.9,154.5,593.7,155.3z"/>
	<path class="st6" d="M610.6,151.7c-2.7,0.2-3-5.9-3-5.9s-11.2-2.6-11.6-11.8c-1.7,3.6-4.6,6.5-8.3,8c0,0,1-10,9.1-11.5
		c0,0,10.1-3,15.2,5.2S612.4,151.6,610.6,151.7z"/>
	<path class="st6" d="M596,133.2c-0.2,1.4-0.1,2.9,0.2,4.2c0.4,1.4,1,2.7,1.9,3.8c0.2,0.3,0.5,0.6,0.7,0.8l0.4,0.4l0.4,0.4
		c0.3,0.2,0.5,0.5,0.8,0.7s0.6,0.4,0.9,0.6l0.5,0.3l0.5,0.2l1,0.4c0.7,0.2,1.3,0.4,2,0.6c-0.6-0.3-1.3-0.6-1.9-0.9l-0.9-0.5
		l-0.5-0.2l-0.4-0.3l-0.8-0.6c-0.3-0.2-0.5-0.4-0.8-0.7l-0.4-0.3l-0.3-0.4c-0.2-0.2-0.5-0.5-0.7-0.8C597,138.7,596.1,136,596,133.2
		L596,133.2z"/>
	<path class="st5" d="M597.3,153.8c-2.5-0.7-4-3.3-3.3-5.8l0,0c0.7-2.5,3.3-4,5.8-3.3c2.5,0.7,4,3.3,3.3,5.8
		c-0.6,2.1-2.5,3.5-4.7,3.5C598,153.9,597.6,153.9,597.3,153.8z M594.6,148.1c-0.6,2.2,0.7,4.4,2.8,5.1c2.2,0.6,4.4-0.7,5.1-2.8
		s-0.7-4.4-2.8-5.1c0,0,0,0,0,0c-0.3-0.1-0.7-0.1-1-0.1C596.8,145.1,595.1,146.3,594.6,148.1z"/>
	<path class="st5" d="M587.4,152.3c-1.9-0.3-3.2-2.6-2.8-5.2c0.1-1.2,0.7-2.3,1.5-3.1c0.7-0.8,1.7-1.1,2.7-1c1,0.2,1.9,0.8,2.3,1.8
		c0.5,1.1,0.7,2.3,0.5,3.4c-0.3,2.4-2,4.2-3.8,4.2L587.4,152.3z M586.5,144.5c-0.7,0.8-1.2,1.7-1.3,2.8c-0.3,2.2,0.7,4.2,2.3,4.5
		s3.1-1.4,3.4-3.6c0.2-1,0-2.1-0.5-3c-0.3-0.7-1-1.3-1.8-1.4h-0.2C587.7,143.6,587,143.9,586.5,144.5L586.5,144.5z"/>
	<path class="st5" d="M594.1,148.5l0.5-0.4c-0.6-0.7-2.2-1.7-3.5-0.7l0.4,0.5C592.6,146.9,594,148.4,594.1,148.5z"/>
	<path class="st5" d="M614.8,152.7l0.6-0.2c-0.1-0.3-1-2.7-2.3-3.2s-9.8-0.8-10.1-0.8v0.6c2.4,0.1,9,0.5,10,0.8
		S614.5,152,614.8,152.7z"/>
	<path class="st9" d="M608.9,151c0,0,3.4-4.2,5.4-2.9s-0.9,7.5-3.3,8.2c-1.2,0.4-2.6-0.2-3.1-1.4c0,0,0-0.1,0-0.1L608.9,151z"/>
	<path class="st6" d="M613.4,149.9C613.4,149.9,613.5,149.9,613.4,149.9c-1.6,0.7-2.8,2-3.4,3.6c0.4-0.6,1.3-0.7,1.9-0.3
		c0.1,0,0.1,0.1,0.1,0.1c0,0,0,0.1-0.1,0.1c-0.6-0.2-1.2-0.1-1.7,0.4c-0.3,0.4-0.6,0.8-0.9,1.2c-0.1,0.1-0.3,0-0.3-0.1l0,0
		C609.3,152.7,611.2,149.9,613.4,149.9z"/>
	<path class="st7" d="M610.7,155.7c-0.1,0.3-0.5,0.5-0.8,0.4s-0.5-0.5-0.4-0.8c0.1-0.3,0.5-0.5,0.8-0.4
		C610.7,155.1,610.8,155.4,610.7,155.7z"/>
	<path class="st6" d="M610.4,155.6c-0.1,0.1-0.2,0.2-0.4,0.2c0,0,0,0,0,0c-0.2-0.1-0.2-0.2-0.2-0.4c0,0,0,0,0,0
		c0.1-0.1,0.2-0.2,0.4-0.1C610.4,155.4,610.4,155.5,610.4,155.6z"/>
	<path class="st7" d="M611.9,155.1c-0.1,0.2-0.3,0.3-0.5,0.3c-0.2-0.1-0.3-0.3-0.3-0.5c0.1-0.2,0.3-0.3,0.5-0.3
		C611.8,154.6,611.9,154.9,611.9,155.1C611.9,155.1,611.9,155.1,611.9,155.1z"/>
</g>
<g id="freepik--character-2--inject-339">
	<path class="st26" d="M502.9,451c0,2.4-6.8,2.6-9.5,0.9c-2.2-1.8-4.2-3.7-6.2-5.8c-6.4-6.5-15.2-15.9-15.2-15.9l-7.2,2.7l-34.8,9
		l-11.8-38.2c0,0,17-5.9,33.1-11c2.5-0.8,4.9-1.6,7.3-2.3l0.4-0.1c10.8-3.3,19.7-5.8,20.6-5.1C481.8,386.9,502.9,448.5,502.9,451z"
		/>
	<path class="st0" d="M502.9,450.9c0,2.4-6.8,2.6-9.5,0.9c-2.2-1.8-4.2-3.8-6.2-5.8c-6.4-6.5-15.2-15.9-15.2-15.9l-7.2,2.7l-1.2,0.3
		l-13-40.3l0.5-0.2l7.3-2.3c0.1-0.1,0.3-0.1,0.4-0.1c10.8-3.3,19.7-5.8,20.6-5.1C481.8,386.9,502.9,448.5,502.9,450.9z"/>
	<path class="st11" d="M503.5,451.9c0-2.4-20.7-65.5-23-67.4c-0.9-0.7-10.2,1.7-21.5,5.1l-0.4,0.1l12.9,40.8l0.7-0.2
		c0,0,18.7,20.6,21.5,22.4S503.4,454.3,503.5,451.9z"/>
	<path class="st6" d="M500.8,452c-3.8-10.6-17.9-53.5-20.8-64.2c0-0.1,0-0.1,0.1,0c4,10.4,17.8,53.4,20.9,64.1
		C501,452.1,500.9,452.2,500.8,452z"/>
	<path class="st6" d="M473.1,435c-2.1-3.9-3.2-9.2-1.3-13.4c0.1-0.2,0.3,0,0.3,0.1c0,4.4,0.5,8.8,1.5,13.1c0.1,0.1,0,0.3-0.2,0.4
		C473.3,435.2,473.2,435.1,473.1,435L473.1,435z"/>
	<path class="st6" d="M475.9,437.4c-2.1-3.9-3.2-9.2-1.3-13.4c0.1-0.2,0.3,0,0.3,0.1c0,4.4,0.5,8.8,1.5,13.1c0.1,0.1,0,0.3-0.2,0.4
		S476,437.5,475.9,437.4L475.9,437.4z"/>
	<path class="st6" d="M478.8,439.8c-2.2-3.9-3.2-9.3-1.3-13.4c0.1-0.2,0.3-0.1,0.3,0.1c0,4.4,0.5,8.8,1.5,13.1
		c0,0.2-0.1,0.3-0.2,0.3C478.9,440,478.8,439.9,478.8,439.8z"/>
	<path class="st6" d="M471.1,439.6c1.3-3.7,1-7.9,1.1-11.8c0-0.3-0.3-0.5-0.6-0.5c-0.1,0-0.1,0-0.2,0c0-0.1-0.1-0.1-0.2,0
		c0,0,0,0,0,0c-3.3,2.5-5.9,5.8-7.5,9.6c-0.9,2.2-0.9,5.6,1.9,6.5C468.5,444.2,470.4,441.7,471.1,439.6z M468.1,441.7
		c-4.4,2.2-3.5-3.5-2.8-5.1c0.5-1,1-2,1.7-3c1.3-2,2.7-3.9,4.2-5.7c-0.2,1.9-0.2,3.8-0.3,5.7C470.7,435.9,470.5,440.5,468.1,441.7
		L468.1,441.7z"/>
	<path class="st6" d="M460.4,415.4c-2.3,1.9-1,5,0.6,6.8c2.9,2.9,6.5,5.1,10.5,6.2c0.1,0,0.1,0,0.1-0.1c0,0,0,0,0,0
		c0.3,0,0.5-0.3,0.5-0.6c0,0,0-0.1,0-0.1c-1.6-3.5-2.8-7.5-5.4-10.5C465.3,415.3,462.5,413.6,460.4,415.4z M468.7,422.6
		c0.8,1.7,1.5,3.5,2.4,5.2c-2-1.2-4.1-2.3-6-3.7c-0.9-0.7-1.8-1.4-2.7-2.2c-1.3-1.2-4.1-6.3,0.8-5.8
		C465.9,416.4,467.7,420.6,468.7,422.6L468.7,422.6z"/>
	<path class="st15" d="M503.4,451.9c0,2.5-7,2.6-9.7,0.8s-21.5-22.4-21.5-22.4l-0.7,0.2l-10.2-32.3l24.5-0.5
		C492.7,416.8,503.5,450.1,503.4,451.9z"/>
	<path class="st10" d="M458.1,439.2c0,0-75.2,12-102.1,5.2c-12.9-3.2-21.1-20.7-14-33.1c6.7-11.6,43.2-21.3,53.8-27.7
		c3.3-2,3.6-10.8,3.6-10.8l26.6,1.5c0,0,8.4,15.7,3.9,22.7c-0.1,0.1-0.2,0.2-0.3,0.4l12.3-3.7L458.1,439.2z"/>
	<path class="st6" d="M443.1,418c-2.5-6.6-5.3-13.1-7.9-19.7c0-0.1-0.2-0.1-0.2,0.1c2.4,6.6,4.6,13.3,7.1,19.9s5.3,13.2,7.9,19.7
		c0.1,0.2,0.3,0.1,0.3-0.1C447.9,431.3,445.6,424.6,443.1,418z"/>
	<path class="st6" d="M429.8,397.7c-1.9,0.9-3.7,2-5.6,3.1s-3.7,2-5.5,3c-3.8,1.9-7.6,3.7-11.5,5.3c-7.8,3.4-15.9,6.2-24.1,8.5
		c-4.6,1.3-9.2,2.5-13.9,3.3c-0.1,0-0.1,0.2,0,0.2c3.4-0.6,6.8-1.1,10.2-1.8c-1.8,1-3.6,2-5.5,3c0,0-0.1,0.1,0,0.1
		c0,0,0.1,0.1,0.1,0l0,0c2-1,4-2,6-3c0.1,0,0.1-0.2,0.1-0.2c0,0,0,0,0,0l1.7-0.4c4.2-1,8.3-2.1,12.4-3.5c8.1-2.6,15.9-5.9,23.4-9.9
		c2.1-1.1,4.2-2.3,6.3-3.5c2.1-1.2,4.1-2.4,6-3.8C430.1,397.8,430,397.6,429.8,397.7z"/>
	<path class="st26" d="M530.7,462c0,2.4-6.8,2.6-9.5,0.9c-2.2-1.8-4.2-3.8-6.2-5.9c-6.4-6.5-15.2-15.9-15.2-15.9l-7.2,2.7l-33.8,9
		l-12.9-38.2c0,0,17-5.9,33.1-11l7.3-2.3l0.4-0.1c10.8-3.3,19.7-5.8,20.6-5.1C509.6,397.9,530.7,459.6,530.7,462z"/>
	<path class="st11" d="M530.7,462c0,2.4-6.8,2.6-9.5,0.9c-2.2-1.8-4.2-3.8-6.2-5.9c-6.4-6.5-15.2-15.9-15.2-15.9l-7.2,2.7l-1,0.3
		l-13.6-40.1l0.9-0.3l7.3-2.3c0.1,0,0.3-0.1,0.4-0.1c10.8-3.3,19.7-5.8,20.6-5.1C509.6,397.9,530.7,459.6,530.7,462z"/>
	<path class="st11" d="M531.3,462.6c0-2.5-21.6-65.2-24-67.1c-0.9-0.7-10.2,1.9-21.4,5.4l-0.3,0.1l13.5,40.6l0.7-0.2
		c0,0,19,20.3,21.8,22.1S531.3,465,531.3,462.6z"/>
	<path class="st6" d="M528.6,462.7c-3.9-10.5-18.6-53.2-21.7-63.9c0-0.1,0-0.1,0.1,0c4.1,10.3,18.5,53.1,21.8,63.8
		C528.8,462.9,528.7,462.9,528.6,462.7z"/>
	<path class="st6" d="M500.7,446.1c-2.2-3.9-3.3-9.2-1.5-13.4c0.1-0.2,0.3-0.1,0.3,0.1c0.1,4.4,0.6,8.8,1.7,13.1
		c0,0.1,0,0.3-0.2,0.3C500.9,446.3,500.8,446.2,500.7,446.1z"/>
	<path class="st6" d="M503.6,448.5c-2.2-3.9-3.3-9.2-1.5-13.4c0.1-0.2,0.3-0.1,0.3,0.1c0.1,4.4,0.6,8.8,1.7,13.1
		c0,0.1,0,0.3-0.2,0.3C503.8,448.6,503.6,448.6,503.6,448.5z"/>
	<path class="st6" d="M506.4,450.9c-2.2-3.9-3.3-9.2-1.5-13.4c0.1-0.2,0.3,0,0.3,0.1c0.1,4.4,0.7,8.8,1.7,13.1
		c0.1,0.2,0,0.3-0.2,0.4S506.5,451,506.4,450.9L506.4,450.9z"/>
	<path class="st6" d="M498.8,450.7c1.3-3.7,0.9-7.9,1-11.8c0-0.3-0.3-0.5-0.6-0.5c-0.1,0-0.1,0-0.2,0c0-0.1-0.1-0.1-0.2,0
		c0,0,0,0,0,0c-3.2,2.5-5.8,5.9-7.3,9.7c-0.9,2.2-0.8,5.6,2,6.5C496.2,455.4,498.1,452.9,498.8,450.7z M495.8,452.9
		c-4.3,2.3-3.6-3.4-2.9-5.1c0.5-1,1-2,1.6-3c1.2-2,2.7-3.9,4.2-5.8c-0.2,1.9-0.2,3.8-0.2,5.7C498.4,447.1,498.2,451.6,495.8,452.9
		L495.8,452.9z"/>
	<path class="st6" d="M487.7,426.7c-2.2,1.9-1,5,0.7,6.8c2.9,2.9,6.6,5,10.5,6c0.1,0,0.1,0,0.1-0.1c0,0,0,0,0-0.1
		c0.3,0,0.5-0.3,0.5-0.5c0-0.1,0-0.1,0-0.2c-1.6-3.5-2.9-7.5-5.5-10.4C492.6,426.5,489.9,424.9,487.7,426.7z M496.1,433.8
		c0.8,1.7,1.6,3.5,2.5,5.1c-2.1-1.1-4.1-2.3-6.1-3.6c-0.9-0.7-1.8-1.4-2.7-2.1c-1.3-1.2-4.2-6.2,0.7-5.8
		C493.2,427.6,495.1,431.8,496.1,433.8L496.1,433.8z"/>
	<path class="st10" d="M408.5,373.3l45.7,2.4c0,0,8,25.3,3.5,32.3s-47.2,14.6-47.2,14.6l59.2-18l16.2,45.6c0,0-71.3,10.5-108.2,4.2
		c-13.9-2.4-21.4-21.2-12.3-34.7c9.6-14.2,42.2-32.2,42.2-32.2L408.5,373.3z"/>
	<path class="st6" d="M468.2,404.4c-18.2,6.9-36.6,13.4-55.3,18.9l-7.8,2.2c-2.7,0.8-5.4,1.7-8.1,2.2c-0.1,0-0.1,0.2,0,0.2
		c2.4-0.7,4.8-1.2,7.2-1.8s4.7-1.2,7.1-1.9l3-0.9l-0.6,0.4c-1,0.5-1.9,1.1-2.8,1.7c-1.9,1.2-3.8,2.6-5.8,3.6c-0.1,0.1,0,0.3,0.1,0.2
		c1.9-1.2,4.1-2,6-3.1c1-0.5,1.9-1.1,2.8-1.7c0.9-0.5,1.7-1,2.5-1.7c3-0.8,5.9-1.7,8.9-2.6c9.3-2.9,18.6-6,27.7-9.4
		c5.1-1.9,10.2-3.9,15.2-6C468.7,404.8,468.5,404.3,468.2,404.4z"/>
	<path class="st6" d="M471.9,428.8c-2.5-6.6-5.3-13.1-7.9-19.7c0-0.1-0.2-0.1-0.2,0.1c2.4,6.6,4.6,13.3,7.1,19.9s5.3,13.1,8,19.7
		c0.1,0.2,0.3,0.1,0.3-0.1C476.7,442,474.4,435.4,471.9,428.8z"/>
	<path class="st6" d="M406.8,387.9c-5.2,2.5-10.2,5.4-15.1,8.6c-4.8,3.1-9.5,6.4-14,9.9c-2.3,1.8-4.5,3.6-6.6,5.6
		c-2.1,1.8-4,3.8-5.7,6c-3.1,3.9-4.7,8.7-4.7,13.6c0,2.6,0.4,5.2,1.3,7.7c0.9,2.4,2.2,4.7,3.8,6.8c0.1,0.1,0.2,0,0.1-0.1
		c-1.5-1.9-2.5-4.1-3.1-6.5c-2-6.8-0.8-14.1,3.2-20c3.1-4.5,7.5-8,11.7-11.5c4.3-3.5,8.8-6.8,13.4-9.9c2.6-1.7,5.2-3.4,7.9-5
		s5.4-3.2,8-5c0.1,0,0.1-0.2,0.1-0.2S406.9,387.8,406.8,387.9z"/>
	<path class="st6" d="M419.9,390.6c-3.7-1.4-7.6-2.4-11.5-3c-3.9-0.7-7.7-1.2-11.6-1.5c-0.1,0-0.1,0.1,0,0.2
		c3.9,0.6,7.9,1.4,11.8,2.2s7.5,1.9,11.3,2.5C420.1,391,420.1,390.7,419.9,390.6z"/>
	<path class="st6" d="M450.9,393.3c-2.4-0.2-4.8-0.6-7.2-1.2c-2-0.3-3.9-1-5.6-2.2c-3.1-2.6-4.1-7-4.5-10.9c0-0.1-0.2-0.1-0.2,0
		c0.3,4.2,0.1,9,3.6,12c1.7,1.4,3.8,2.2,6.1,2.4c2.6,0.3,5.2,0.3,7.8,0C451,393.5,451,393.3,450.9,393.3z"/>
	<path class="st6" d="M455.5,400.2c-0.1-2.4-0.4-4.8-0.8-7.2c-0.4-2.4-0.9-4.9-1.5-7.3c-0.7-2.7-1.5-5.4-2.4-8.1
		c0-0.1-0.2-0.1-0.1,0c1.2,4.5,2.3,9.1,3.1,13.6c0.4,2.3,0.8,4.6,1.1,6.9c0.4,2.2,0.3,4.5-0.4,6.6c-0.8,2.2-2.2,4.1-4,5.4
		c0,0,0,0,0,0C453.6,407.9,455.5,404.2,455.5,400.2z"/>
	<path class="st6" d="M462.4,414.2c-3.1,0.6-6.2,1.5-9.3,2.2s-6.2,1.5-9.3,2.4c-6.2,1.6-12.3,3.3-18.5,5c-3.5,1-7,2-10.5,3
		c-0.1,0-0.1,0.2,0,0.2c12.4-3,24.8-6.1,37.1-9.5c3.5-1,7-1.8,10.5-3C462.5,414.3,462.4,414.2,462.4,414.2z"/>
	<path class="st26" d="M425.7,315c-14.3-1.4-35.7-7.5-45.4-14.2c-4.2-2.9-15.4-21.5-19.8-32.6c-1.6-4.1,23-10.6,25.3-6.3
		c1.5,2.9,6.8,21.4,8.7,23.2c3.4,3.4,22.2,12.8,33.1,20.2C433.7,309.5,434.6,315.8,425.7,315z"/>
	<path class="st11" d="M412.1,294.5l-14.8,18.8c0,0,25.9,4.8,33.9,4.1c9-0.8,6.6-5.3,0-10.8S412.1,294.5,412.1,294.5z"/>
	<path class="st15" d="M415,294.5l-13.1,18.8c0,0,22.9,4.8,30,4.1c8-0.8,5.9-5.3,0-10.8C426.2,301.1,415,294.5,415,294.5z"/>
	<path class="st6" d="M415,297.9c-1.6,2.7-7.4,10-8.3,11.2c-0.5,0.6-2.6,3.1-3.1,3.8c-0.1,0.1-0.2,0-0.1-0.1
		c0.9-1.2,1.8-2.5,2.7-3.8s6.6-8.9,8.7-11.1C414.9,297.8,415,297.8,415,297.9C415,297.8,415,297.9,415,297.9z"/>
	<path class="st6" d="M309.1,246.7c-2.8-1.2-5.2-2.7-4.7-4v-0.1c0.6-1.3,3.4-0.5,6.2,0.7L309.1,246.7z"/>
	<path class="st12" d="M321.4,268.5c-2.9-1.2-11-16.3-13.1-22.2c-0.3-1.3,0.2-2.7,1.4-3.4c5.7-2.5,22.3-7,25.2-5.8
		c2,0.8,8.1,6,14.7,10.7c8.6,6.2,128.4,61.3,129.4,62.6s-0.1,4.9-0.9,6.8s-2.7,5.2-4.3,5.4s-124.1-48.8-134.5-50.8
		C331.2,270.3,323.3,269.4,321.4,268.5z"/>
	<path class="st4" d="M321.3,268.5c-0.3-0.1-0.6-0.3-0.8-0.6c1.1-6.2,2.8-12.2,5.3-18c1.9-4.7,4.5-9,7.7-13c0.5-0.1,0.9,0,1.4,0.2
		c0.4,0.2,0.8,0.4,1.2,0.7C333,241.3,326,251,322.8,269C322.3,268.9,321.8,268.7,321.3,268.5z"/>
	<path class="st6" d="M382.2,273.1l-2.2,5.1c-0.2,0.4-0.6,0.5-1,0.4l-38.2-16.4c-0.4-0.2-0.5-0.6-0.4-1l2.2-5.1
		c0.2-0.4,0.6-0.5,1-0.4l38.2,16.4C382.2,272.3,382.3,272.7,382.2,273.1z"/>
	<path class="st4" d="M369,268.6l-1.3,3c-0.1,0.2-0.3,0.3-0.6,0.2l-24.3-10.5c-0.2-0.1-0.3-0.3-0.2-0.6l1.3-3
		c0.1-0.2,0.3-0.3,0.6-0.2l24.3,10.5C369,268.2,369.1,268.4,369,268.6z"/>
	
		<rect x="350" y="262.6" transform="matrix(0.3951 -0.9187 0.9187 0.3951 -28.7666 482.6331)" class="st6" width="4.1" height="1.2"/>
	<path class="st5" d="M458.2,386.9l-65.1-2.3c0,1.3,5.4-50.9,23.4-81c1.2-2.1,11.5-4,15.9,0.4C451.5,322.8,458.2,387.7,458.2,386.9z
		"/>
	<path class="st15" d="M457.8,384.1l-64.4-2.2c0-0.2,0-0.5,0.1-0.8l64.2,2.2C457.8,383.6,457.8,383.8,457.8,384.1z M457.1,378.6
		l-62.8-2.2c0,0.3-0.1,0.5-0.1,0.8l63.1,2.2C457.2,379.1,457.1,378.9,457.1,378.6z M456.4,373.9l-61.4-2.1l-0.1,0.8l61.6,2.1
		L456.4,373.9z M455.6,369.2l-59.8-2.1c0,0.3-0.1,0.5-0.1,0.8l60.1,2.1C455.7,369.8,455.7,369.5,455.6,369.2z M454.8,364.5l-58.1-2
		c0,0.3-0.1,0.5-0.2,0.8l58.4,2C454.9,365.1,454.9,364.8,454.8,364.5z M453.9,359.8l-56.3-2c-0.1,0.3-0.1,0.5-0.2,0.8l56.6,2
		C454,360.4,454,360.1,453.9,359.8z M452.9,355.1l-54.3-1.9c-0.1,0.3-0.1,0.5-0.2,0.8l54.7,1.9L452.9,355.1z M451.9,350.4l-52.2-1.8
		c-0.1,0.3-0.1,0.5-0.2,0.8l52.6,1.8C452.1,351,452,350.7,451.9,350.4L451.9,350.4z M450.8,345.7l-49.9-1.7
		c-0.1,0.3-0.1,0.5-0.2,0.8l50.3,1.7C451,346.2,450.9,346,450.8,345.7L450.8,345.7z M449.6,341l-47.5-1.6l-0.2,0.8l47.9,1.7
		C449.7,341.5,449.7,341.3,449.6,341z M448.3,336.3l-44.8-1.6c-0.1,0.3-0.2,0.5-0.2,0.8l45.3,1.6
		C448.4,336.8,448.4,336.6,448.3,336.3L448.3,336.3z M446.8,331.6l-41.9-1.5c-0.1,0.3-0.2,0.5-0.3,0.8l42.4,1.5
		C447,332.1,446.9,331.9,446.8,331.6L446.8,331.6z M445.2,326.9l-38.7-1.4c-0.1,0.3-0.2,0.5-0.3,0.8l39.2,1.4
		C445.4,327.4,445.3,327.1,445.2,326.9L445.2,326.9z M443.4,322.1l-35.1-1.2c-0.1,0.3-0.2,0.5-0.3,0.8l35.8,1.2
		C443.6,322.7,443.5,322.4,443.4,322.1L443.4,322.1z M441.3,317.4l-31.2-1.1c-0.1,0.2-0.2,0.5-0.3,0.8l31.9,1.1L441.3,317.4z
		 M445.2,309.1l-26.6-0.9l-0.4,0.8l27.5,1C445.5,309.6,445.4,309.3,445.2,309.1L445.2,309.1z M435.8,307.9l-21.3-0.7
		c-0.1,0.2-0.3,0.5-0.4,0.8l22.2,0.8L435.8,307.9z M431.3,303.1l-13.5-0.5c-0.4,0.2-0.8,0.4-1.1,0.8l15.7,0.6
		C432,303.6,431.7,303.3,431.3,303.1L431.3,303.1z"/>
	<path class="st26" d="M419.1,311.8c3,1,9.8-2,12.4-6.2c0.2-0.3-0.1-3.5-0.3-7.3c-0.1-2.3-0.1-4.9,0-7.3c0-0.5-15.1,2.8-15.1,2.8
		c0.7,3,1,6.1,0.9,9.2c0,0.3-0.1,0.7-0.1,1c0,0.1,0,0.1,0,0.2C416.4,305.9,415.9,310.7,419.1,311.8z"/>
	<path class="st6" d="M416.9,303.9c0,0.1,0,0.1,0,0.2c0.5,0.1,1,0.1,1.5,0.2c8.8,0.3,11.7-10.6,12.3-13.4
		c-2.7,0.2-14.6,2.8-14.6,2.8c0.7,3,1,6.1,1,9.2C417,303.3,416.9,303.6,416.9,303.9z"/>
	<path class="st26" d="M437.9,276.8c-0.4,5.5-8.5,18.8-13.3,20.6c-6.9,2.7-15.4-0.1-17-7.8c-1.5-7.4,9.4-24.5,14.5-25.9
		C429.5,261.7,438.5,268.6,437.9,276.8z"/>
	<path class="st6" d="M420.6,280c0,0,0,0.1,0,0.1c-0.6,0.9-1.1,2-0.4,2.8c0,0,0,0.1,0,0C419.2,282.2,419.9,280.7,420.6,280z"/>
	<path class="st6" d="M422,279.5c1.5,0.8-0.1,3.7-1.5,3S420.7,278.9,422,279.5z"/>
	<path class="st6" d="M415.2,277.2c0,0-0.1,0-0.1,0c-0.5,0.9-1.2,1.9-2.2,1.8c0,0,0,0,0,0C414,279.5,414.9,278.1,415.2,277.2z"/>
	<path class="st6" d="M414.9,275.8c-1.4-0.9-3.2,2-1.9,2.8S416.1,276.5,414.9,275.8z"/>
	<path class="st6" d="M423.9,278.8c-0.3-0.3-0.6-0.7-0.9-1c-0.4-0.3-0.6-0.8-0.7-1.2c0-0.3,0.2-0.6,0.5-0.7c0.6-0.1,1.3,0.2,1.7,0.7
		c0.5,0.5,0.7,1.1,0.8,1.7c0,0.4-0.4,0.7-0.8,0.7C424.2,279,424,278.9,423.9,278.8z"/>
	<path class="st6" d="M414.6,273.6c0.5,0.2,0.9,0.3,1.4,0.4c0.5,0.2,1,0.2,1.4,0.1c0.3-0.1,0.5-0.5,0.4-0.8c-0.2-0.6-0.8-1-1.4-1.1
		c-0.6-0.2-1.3-0.2-1.9,0.1c-0.4,0.2-0.5,0.7-0.3,1C414.3,273.4,414.5,273.6,414.6,273.6z"/>
	<path class="st6" d="M416.8,289c-0.3,0.2-0.7,0.2-1.1,0.1c-0.3-0.2-0.6-0.5-0.9-0.8 M414.8,288.3c0.1,0.5,0.4,1,0.9,1.1
		c0.4,0.1,0.9-0.1,1.2-0.4c0,0,0-0.1-0.1-0.1L414.8,288.3z"/>
	<path class="st6" d="M417.3,285.7c-0.9,0.5-1.9,0.6-2.9,0.2c-0.4-0.1-0.8-0.3-1.1-0.6c-0.1,0-0.1-0.1-0.2-0.1l-0.2-0.1
		c-0.1-0.1-0.1-0.2-0.1-0.3l0,0l0.1-0.1l0,0v-0.1c0.4-0.7,1-1.8,1-1.8c-0.3,0-2-0.1-1.8-0.5c1.9-3.1,4-6.1,6.5-8.8
		c0.1-0.1,0.2,0,0.1,0.1c-1.7,2.9-3.9,5.5-5.6,8.4c0.6,0,1.2,0.2,1.7,0.4c0.1,0.1-1.3,2-1.5,2.3l0,0c1.1,0.8,2.5,1,3.8,0.8
		C417.4,285.5,417.4,285.6,417.3,285.7z"/>
	<path class="st6" d="M413.9,285.2c0.1,0.7,0.4,1.4,0.9,2c0.3,0.3,0.6,0.5,1,0.6c0.8,0.2,1.2-0.5,1.4-1.1c0.1-0.3,0.1-0.7,0.1-1.1
		C416.2,285.9,415,285.7,413.9,285.2z"/>
	<path class="st27" d="M414.8,287.2c0.3,0.3,0.6,0.5,1,0.6c0.8,0.2,1.2-0.5,1.4-1.1C416.4,286.3,415.4,286.5,414.8,287.2z"/>
	<path class="st6" d="M430.7,282.4c-0.1-3.3,3.2-7.8,2.1-9.6c-2.4-3.9-10.7-0.4-15.3-1.8s-5-4.6-3.1-8s5.7-4.8,10.9-4
		c4.5,0.8,8.6,3.2,11.5,6.8c0,0-0.6-2.1,0-2.6s2.2,2,2.7,2.9c0.3,0.8,0.4,1.6,0.4,2.5c0.7,0,1.5,0.2,2.2,0.4c1,0.4,1.8,1.1,2.3,2
		c0,0.3-1.7,0-2.8-0.3c0,0,1.2,3.5,0.5,5.8s-8,12.6-9,12.5C431.7,288.8,430.8,283.8,430.7,282.4z"/>
	<path class="st6" d="M441,270.2C441,270.2,440.9,270.2,441,270.2c0.8,1.2,1.2,2.7,1.3,4.1c0,1.8-0.5,3.5-1.5,5
		c-1.7,2.9-4.1,5.3-6.3,7.8c-0.1,0.1,0,0.2,0.1,0.1c2.7-2.4,5-5.3,6.8-8.4C442.9,276.2,443.2,272.7,441,270.2z"/>
	<path class="st6" d="M433.3,271.7c-1.3-0.6-2.7-0.9-4.1-1c-1.4,0-2.7,0.3-4,0.6c-2.9,0.8-6,0.7-8.9-0.3c0,0,0,0,0,0.1
		c2.6,1,5.4,1.3,8.1,0.7c1.4-0.3,2.8-0.6,4.1-0.8c1.6,0,3.1,0.3,4.6,0.9C433.3,271.9,433.4,271.8,433.3,271.7
		C433.4,271.7,433.4,271.7,433.3,271.7z"/>
	<path class="st6" d="M434.4,263.6c-1.5-1.4-3.2-2.7-5.1-3.6c-1.8-1-3.7-1.7-5.7-2c-3.4-0.5-7.1,0.7-8.9,3.8
		c-0.9,1.6-1.3,3.5-0.9,5.3c0,0.1,0,0.1,0.1,0.1s0.1,0,0.1-0.1c-0.5-3.4,1.3-6.7,4.4-8.2c3.4-1.5,7.2-0.5,10.5,1
		C430.8,261,432.6,262.2,434.4,263.6C434.4,263.6,434.4,263.6,434.4,263.6z"/>
	<path class="st26" d="M429.7,287.2c0,0,5.1-3.3,6.7-1.3s-3.5,7.7-6.3,7.6c-1.5,0.1-2.7-1.1-2.8-2.6c0,0,0-0.1,0-0.1L429.7,287.2z"
		/>
	<path class="st6" d="M434.9,287.5L434.9,287.5c-2,0.1-3.5,1.3-4.9,2.7c0.6-0.5,1.6-0.4,2.1,0.3c0.1,0.1,0.1,0.1,0.1,0.2
		c0,0,0,0.1-0.1,0.1c-0.5-0.4-1.3-0.5-1.9-0.2c-0.5,0.3-1,0.6-1.4,1c-0.1,0.1-0.4-0.1-0.2-0.2l0,0
		C429.5,289.1,432.5,286.8,434.9,287.5z"/>
	<path class="st26" d="M422.8,321.4c-14.7,5.4-45,17.5-55.7,13c-14.1-5.8-25.4-23.7-29.4-30.5c-1.8-3,17.2-15.7,20.8-14.6
		s19.6,20.7,21.9,22.2s26.4-2.7,39.7-2.7C436.8,308.8,435.3,316.9,422.8,321.4z"/>
	<path class="st26" d="M349.2,282.2c1.5,0.9,2,0.1,0.8-2.8s-8.2-13.4-4.3-15.5s13.6,12.8,15.1,17.7s2.4,13.5,2.4,13.5
		C360.7,292.6,354.1,287.1,349.2,282.2z"/>
	<path class="st26" d="M342.8,311.2c-6.7-7.4-15.5-16.1-17.8-27.1c-0.3-1.2-0.2-2.5,0.4-3.6c-1.1-4.9,0.9-6.9,0.9-6.9
		c0.4-4.9,2.7-6.7,2.7-6.7s-1.3-5.8,2.1-7.1c3.8-1.5,4.8,6.9,8.2,11.2c7.8,9.8,21.6,21.6,24.1,24.2L342.8,311.2z"/>
	<path class="st6" d="M340,287c-2.3-2.9-4.4-5.9-6.3-9c-1.9-3.5-3.5-7.2-4.8-11c0,0-0.1-0.1-0.1-0.1s-0.1,0.1-0.1,0.1l0,0
		c1.8,7.6,5.7,14.5,11.1,20C340,287.2,340.1,287.1,340,287z"/>
	<path class="st6" d="M334.8,292.5c-2-3-5.5-8.2-8.5-19c0,0-0.1,0-0.1,0c1,7,3.9,13.6,8.5,19.1C334.8,292.8,334.9,292.7,334.8,292.5
		z"/>
	<path class="st6" d="M331.9,295.5c-3.2-5.2-4.6-8.9-6.6-14.9c0,0-0.1,0-0.1,0c1.5,7.1,2.9,9.6,6.5,15.1
		C331.9,295.8,332.1,295.6,331.9,295.5z"/>
	<path class="st5" d="M404,308.7l-2.7,23.8c0,0,22.9-9.4,28.9-14.1c6.8-5.4,2.7-7.9-5.2-9.3C417.1,307.7,404,308.7,404,308.7z"/>
	<path class="st28" d="M408.9,307.6l-2.9,23.8c0,0,24.6-9.4,31.1-14.1c7.3-5.4,2.9-7.9-5.6-9.3S408.9,307.6,408.9,307.6z"/>
	<path class="st6" d="M405.9,310c0,3.1-1.1,12.3-1.3,13.9c-0.1,0.8-0.6,4-0.7,4.8c0,0.1-0.2,0.1-0.1,0c0.2-1.5,0.2-3.1,0.3-4.6
		s1-11,1.7-14C405.8,310,405.8,310,405.9,310C405.9,309.9,405.9,310,405.9,310z"/>
	<path class="st6" d="M412,307.9c1.3-0.2,2.5-0.3,3.8-0.5l0,0c-0.9,0.2-1.8,0.3-2.8,0.4c1.9,0,3.7,0.1,5.6,0.2v0
		c-2.8,0.2-5.6,0.2-8.4,0.3s-5.5,0.2-8.3,0.3c-0.1,0.5-0.3,1.1-0.4,1.6c0,0,0,0.1-0.1,0.1c0,0-0.1,0-0.1-0.1c0-0.6,0.1-1.2,0.1-1.8
		c0-0.1,0.1-0.3,0.2-0.3C405,308,408.5,307.9,412,307.9z"/>
	<path class="st26" d="M388,263.9c-2.6-3.7-4.5-10.4-7.2-12.4c-1.3-1.1-3.2-1.1-4.6-0.2c0,0,0.2-3.7-2.5-5.1
		c-1.4-0.7-3.8,0.9-3.8,0.9s0-3-2.5-4.1c-2-0.9-4.1,0.9-4.1,0.9s-1.3-2.9-3.6-3.1c-4.7-0.5-14.1,15.7-9.5,21.7
		c2.1,2.8,4.2-1.3,4.2-1.3s-1.6,6.6,1.7,8.6s5.7-3.5,5.7-3.5s-1.5,6.4,2.2,8.2s5.2-4.1,5.2-4.1s0.4,5,3.5,5.7
		c5.1,1.2,3.6-8.8,6.5-11.9l7,1.4L388,263.9z"/>
	<path class="st26" d="M384.8,257.7c2.7,3.3,9.5,1.5,12.6,4.2c4.1,3.8-3.6,6.4-11.1,3.6l-5.5-3.2L384.8,257.7z"/>
	<path class="st6" d="M363,244L363,244c-4.6,4.8-7.6,10.8-8.7,17.3c0,0.2,0.3,0.4,0.4,0.1C356.6,255.2,359.4,249.4,363,244z"/>
	<path class="st6" d="M370,247c0-0.1,0-0.1-0.1-0.1c-4.5,4.8-8.1,12-8.3,19.5c0,0.3,0.2,0.5,0.3,0.2
		C362.3,261.6,366.5,251.9,370,247z"/>
	<path class="st6" d="M369.4,270.9c0.4-7.1,3-13.4,6.7-19.4c0-0.1-0.1-0.1-0.1-0.1c-2.6,2.5-4.5,6.5-5.7,9.9
		c-1.2,3.1-1.6,6.4-1.1,9.6C369.2,271,369.4,271,369.4,270.9z"/>
</g>
<g id="freepik--character-1--inject-339">
	<path class="st29" d="M216.5,454.3c-2.2,0.7-65.6-0.1-68-1.7c-0.9-0.6-1.3-9.8-1.5-21v-0.4c0-2.3-0.1-4.7-0.1-7.1c0-0.3,0-0.7,0-1
		c-0.1-16.1,0.2-32.9,0.2-32.9l42.4,0.4l-1.3,32.6v1.3l-0.3,6.7v0.7c0,0,24.1,11.2,26.6,13.2S218.7,453.6,216.5,454.3z"/>
	<path class="st5" d="M197.5,436.4c-0.2,0-0.2-0.1-0.3-0.1L197.5,436.4z"/>
	<path class="st30" d="M216.5,454.3c-2.2,0.7-65.6-0.1-68-1.7c-0.8-0.5-1.2-7.9-1.5-17.4c11.6,2.4,56.6,11.5,57.8,7.7
		c0.5-1.5-3.4-4.1-5.8-5.6c6.6,3.2,14,6.8,15.3,7.9C216.9,447.2,218.7,453.6,216.5,454.3z"/>
	<path class="st10" d="M134.1,207.8c0,0,9.5,107.1,11.1,115.2c0.4,1.9,0.6,12,0.7,25c0.3,28.4,0.1,79.6,0.1,79.6h44.7
		c0,0-1.3-88.7-3.3-105s-14.6-114.8-14.6-114.8L134.1,207.8z"/>
	<path class="st6" d="M188.6,419.8c-7-0.1-5-0.2-11.9-0.3c-3.4,0-25.8-0.2-29,0.3c0,0-0.1,0.1,0,0.1c0,0,0,0,0,0
		c3.2,0.5,25.6,0.3,29,0.3c7-0.1,5-0.1,11.9-0.3C188.7,420,188.7,420,188.6,419.8C188.7,419.9,188.7,419.9,188.6,419.8z"/>
	<path class="st6" d="M154.5,369.1l-0.1-19.4c0-6.3,0-12.5-0.3-18.8c-0.6-12.7-3.2-25.2-5-37.7s-3.4-25.2-4.8-37.8
		c-1.6-14.1-2.9-28.3-4.4-42.5c0-0.1-0.2-0.1-0.2,0c2.1,25.3,4.5,50.6,8,75.7c0.9,6.3,1.8,12.5,2.9,18.7c1,6.3,2.1,12.6,2.6,19
		s0.6,12.5,0.6,18.8c0.1,6.5,0.1,13,0.2,19.4c0.1,14.4,0.3,36.5,0.4,50.9c0,0.3,0.4,0.3,0.4,0C154.7,402.5,154.6,382,154.5,369.1z"
		/>
	<path class="st6" d="M124.7,207.8c0,0,18.9,107.1,20.5,115.2c0.4,1.9,0.6,12,0.7,25l0,0l21.3-140.3L124.7,207.8z"/>
	<path class="st29" d="M110.9,457.9c-2.3-0.4-58.5-29.7-59.9-32.2c-0.6-0.9,3.2-9.4,8.1-19.4l0.2-0.3c1-2.1,21.1-35.9,21.1-35.9
		l34.5,20.3l-19.1,34.2l-0.3,0.6c0,0,16.5,20.9,17.8,23.7S113.2,458.3,110.9,457.9z"/>
	<path class="st30" d="M110.9,457.9c-2.3-0.4-58.5-29.7-59.9-32.2c-0.5-0.8,2.2-7.1,6.1-15.1c8,6.1,46.9,35.3,49.8,32.2
		c0.6-0.6,0.2-2.2-0.6-3.8c3.4,4.5,6.4,8.6,7,9.8C114.4,451.7,113.2,458.3,110.9,457.9z"/>
	<path class="st10" d="M100.7,423.3L59.7,398c0,0,47.3-67.8,47.6-73.8c0.3-9,4.6-45.9,8.2-75.8c0,0-6.8-16.2,6-40.6h51.3
		c0,0-3.4,23.3-9.3,38c-4,1.4-7.8,3.1-11.5,5.2c0,0-5.1,66.7-5.3,75C146.4,342.4,100.7,423.3,100.7,423.3z"/>
	<path class="st6" d="M103.2,413.8c-5.9-3.7-4.2-2.7-10.1-6.4c-2.9-1.8-22-13.5-25-14.6c-0.1,0-0.1,0.1-0.1,0.1
		c2.5,2.1,21.8,13.4,24.7,15.1c6,3.5,4.3,2.5,10.4,5.9C103.2,414,103.2,413.9,103.2,413.8C103.2,413.9,103.2,413.8,103.2,413.8z"/>
	<path class="st6" d="M165.4,244.8c-4.6,1.7-9.1,3.8-13.4,6.2c-0.1,0-0.1,0.1-0.1,0.2c0,0.1,0.1,0.1,0.2,0.1
		c4.5-1.9,9.1-3.8,13.5-5.9c0.1-0.1,0.2-0.3,0-0.4C165.6,244.8,165.5,244.8,165.4,244.8z"/>
	<path class="st6" d="M159.1,237.4c0.4-2.7,0.8-5.4,1-8.1c0.5-5,0.4-10.1-0.2-15.1c0-0.1-0.1-0.1-0.1-0.1c-0.1,0-0.1,0.1-0.1,0.1
		c0.1,7-0.3,14-1.2,20.9c-0.5,3.3-2.2,8.3,1.3,8.9s5.8-7.9,6.3-10.2c1.1-6.5,1.4-13.2,0.8-19.8c0-0.2-0.3-0.2-0.3,0
		c0,5.3-0.3,10-0.8,15c-0.2,2.3-2.1,15.1-6.1,14.2c-0.7-0.1-1-0.8-1.1-1.8C158.6,240,158.8,238.6,159.1,237.4"/>
	<path class="st6" d="M159.8,243.5c-0.4,0.9-0.7,1.7-0.9,2.6c-0.3,0.7-0.4,1.4-0.4,2.2c0,0.1,0.2,0.1,0.3,0.1
		c0.4-0.7,0.7-1.4,0.9-2.1c0.3-0.8,0.6-1.6,0.9-2.5c0.1-0.2-0.1-0.5-0.3-0.5C160.1,243.2,159.9,243.3,159.8,243.5z"/>
	<path class="st6" d="M127.5,211c-1.6,2.7-2.8,5.5-3.8,8.4c-1,2.9-1.8,5.9-2.3,9c-0.3,1.5-0.4,3.1-0.6,4.6s-0.2,3.1-0.1,4.6
		c0.1,3.1,0.4,6.2,1.1,9.2v0.1c-1.2,12.9-2.4,25.9-3.7,38.8c-1.3,12.9-2.5,25.8-3.8,38.8l-0.1,1.2l-0.1,0.6c0,0.2,0,0.4-0.1,0.7
		c-0.3,0.8-0.7,1.5-1.2,2.2c-0.8,1.4-1.7,2.8-2.5,4.2c-1.7,2.8-3.4,5.5-5.2,8.3c-3.5,5.5-7,10.9-10.6,16.4
		c-7.1,10.9-14.3,21.7-21.5,32.5L94,357.6l10.4-16.5c1.7-2.7,3.4-5.5,5.1-8.3c0.8-1.4,1.7-2.8,2.5-4.2c0.4-0.7,0.8-1.4,1.1-2
		c0.1-0.2,0.1-0.3,0.1-0.5l0.1-0.6l0.1-1.2c1.2-12.9,2.5-25.8,3.8-38.8s2.7-25.8,4-38.7v0.1c-0.6-3.1-1-6.2-1-9.3
		c-0.1-1.6,0.1-3.1,0.2-4.7s0.3-3.1,0.7-4.6c0.6-3.1,1.4-6.1,2.5-9C124.6,216.5,125.9,213.7,127.5,211z"/>
	<path class="st6" d="M151.6,181.2c0,0-1.4,0.6-3.6,1.2c0.1-0.8,0.3-1.6,0.4-2.4c0.4-2.4,0.9-4.9,1.2-7.3 M149.5,172.8
		c-0.6,2.4-1.1,4.9-1.6,7.3c-0.2,0.8-0.3,1.7-0.5,2.5c-0.7,0.2-1.4,0.4-2.2,0.6l0.2-1c0.4-1.6,0.7-3.2,1.1-4.8
		c0.7-3.1,1.2-6.3,1.9-9.5c0,0,0-0.1-0.1-0.1c0,0-0.1,0-0.1,0.1c-0.7,3.1-1.6,6.3-2.3,9.4l-1,4.6c-0.1,0.5-0.2,1-0.3,1.4
		c-1.1,0.2-2.2,0.4-3.4,0.6c0.1-0.2,0.1-0.5,0.2-0.7c0.3-1.2,0.6-2.5,0.9-3.7c0.6-2.5,1-5,1.5-7.5c0,0,0-0.1-0.1-0.1s-0.1,0-0.1,0.1
		c-0.6,2.5-1.2,4.9-1.8,7.4c-0.3,1.2-0.6,2.5-0.9,3.7c-0.1,0.3-0.1,0.6-0.2,0.9c-2.2,0.3-4.4,0.2-6.6-0.2h-0.1c-2-0.6-4-1.5-5.7-2.7
		c0.9-3.7,1.7-7.4,2.6-11c0-0.1-0.1-0.1-0.1,0c-0.9,3.6-1.9,7.2-2.8,10.8c-1.4-1-2.7-2-4-3.2c0.2-1,0.4-2,0.7-3
		c0.6-2.8,1.3-5.7,1.9-8.5c0-0.1-0.1-0.1-0.1,0c-0.7,2.8-1.5,5.6-2.2,8.4l-0.7,2.6l-0.9-0.9c1.2-5.4,2.2-10.8,3.6-16.2 M126,160.2
		c-1.3,5.2-2.8,10.4-4,15.7c-1.4-1.4-2.3-2.4-2.3-2.4s7.9-52.6,17.1-61c7.6-7,15.4-3.3,15.4-3.3h0.1c0,0,8.7,0.4,12.2,10
		c4.2,11.6-13,61.9-13,61.9L126,160.2z"/>
	<path class="st29" d="M152.3,161.4c7.6,4.1,43,15,55.5,14.5c11.7-0.4,37.4-14.2,38.6-18c1.2-3.6-5.4-25.4-9.2-24.3
		s-26.7,17.7-31.7,18.4c-3,0.4-31.2-0.5-45.7,0C146.6,152.4,141.8,155.8,152.3,161.4z"/>
	<path class="st11" d="M173.3,171.4l11.4-21c0,0-26.3-0.4-34,1.6c-8.7,2.3-5.6,6.3,1.8,10.6S173.3,171.4,173.3,171.4z"/>
	<path class="st1" d="M157.6,152c0,1-0.8,1.8-1.8,1.8S154,153,154,152c0-0.2,0-0.3,0.1-0.4c1-0.1,2.1-0.3,3.3-0.4
		C157.6,151.4,157.6,151.7,157.6,152z M168.4,150.6L168.4,150.6c-0.7,0.7-0.8,1.8-0.1,2.5c0.7,0.7,1.8,0.8,2.5,0.1
		c0.4-0.3,0.6-0.8,0.6-1.3c0-0.6-0.3-1.1-0.7-1.4l0,0L168.4,150.6z M184.2,150.5h-2c-0.5,0.3-0.8,0.9-0.8,1.5c0,0.9,0.6,1.6,1.5,1.8
		l1.6-3C184.5,150.7,184.4,150.6,184.2,150.5L184.2,150.5z M149.5,160.9c0.3,0.2,0.5,0.4,0.8,0.6C150.1,161.2,149.8,161,149.5,160.9
		z M162.7,160.8c-1,0-1.8,0.8-1.8,1.8c0,1,0.8,1.8,1.8,1.8c1,0,1.8-0.8,1.8-1.8C164.5,161.6,163.7,160.8,162.7,160.8z M176.4,160.8
		c-1,0-1.8,0.8-1.8,1.8c0,1,0.8,1.8,1.8,1.8c1,0,1.8-0.8,1.8-1.8C178.2,161.6,177.4,160.8,176.4,160.8L176.4,160.8z"/>
	<path class="st6" d="M179.4,151.4c-0.5,0.7-4.2,7.1-4.9,8.6s-3.9,7.2-4.6,8.8c0,0.1,0.1,0.1,0.1,0.1c0.9-1.4,4.2-7.2,5-8.7
		s4.3-7.9,4.6-8.7C179.5,151.4,179.4,151.4,179.4,151.4z"/>
	<path class="st15" d="M176.9,164.9l-3.6,6.5c0,0-13.5-4.3-20.9-8.7c-6.2-3.6-9.3-7-5.2-9.4L176.9,164.9z"/>
	<path class="st11" d="M171.8,198.4l1.6,12.1l-52.4-1.6c0,0,2.6-38.6,17.7-53.2c7.6-7.3,15.9-6.2,20.9-0.5
		c1.3,1.4,16.1,20.9,17.3,29.1C177.9,191.4,171.8,198.4,171.8,198.4z"/>
	<path class="st1" d="M143.9,152c0,1-0.8,1.8-1.8,1.8c-0.3,0-0.6-0.1-0.9-0.2C142.1,153,143,152.4,143.9,152z M154.1,151.4
		c-0.1,0.2-0.1,0.4-0.1,0.6c0,1,0.8,1.8,1.8,1.8c0.6,0,1.1-0.3,1.4-0.7C156.3,152.3,155.3,151.8,154.1,151.4L154.1,151.4z
		 M129.1,171.3c-0.4,1.1-0.9,2.2-1.3,3.4c0.2,0.1,0.4,0.1,0.6,0.1c1,0,1.8-0.8,1.8-1.8c0,0,0,0,0,0
		C130.3,172.2,129.8,171.5,129.1,171.3L129.1,171.3z M142.1,171.2c-1,0-1.8,0.8-1.8,1.8s0.8,1.8,1.8,1.8s1.8-0.8,1.8-1.8
		c0,0,0,0,0,0C144,172,143.2,171.1,142.1,171.2C142.2,171.1,142.1,171.1,142.1,171.2L142.1,171.2z M155.8,171.2
		c-1,0-1.8,0.8-1.8,1.8s0.8,1.8,1.8,1.8s1.8-0.8,1.8-1.8c0,0,0,0,0,0C157.7,172,156.9,171.1,155.8,171.2
		C155.9,171.1,155.8,171.1,155.8,171.2L155.8,171.2z M169.6,171.2c-1,0-1.8,0.8-1.8,1.8s0.8,1.8,1.8,1.8s1.8-0.8,1.8-1.8
		c0,0,0,0,0,0C171.4,172,170.6,171.1,169.6,171.2C169.6,171.1,169.6,171.1,169.6,171.2L169.6,171.2z M135.3,160.9
		c-0.4,0-0.7,0.1-1,0.3l0,0c-0.3,0.4-0.5,0.8-0.7,1.1l0,0c0,0.1,0,0.2,0,0.3c0,1,0.8,1.8,1.8,1.8c1,0,1.8-0.8,1.8-1.8
		C137.1,161.6,136.3,160.8,135.3,160.9L135.3,160.9z M149,160.9c-1,0-1.8,0.8-1.8,1.8c0,1,0.8,1.8,1.8,1.8c1,0,1.8-0.8,1.8-1.8
		C150.8,161.7,150,160.8,149,160.9C149,160.8,149,160.8,149,160.9L149,160.9z M162.7,160.9c-1,0-1.8,0.8-1.8,1.8
		c0,1,0.8,1.8,1.8,1.8c1,0,1.8-0.8,1.8-1.8C164.5,161.7,163.7,160.8,162.7,160.9C162.7,160.8,162.7,160.8,162.7,160.9L162.7,160.9z
		 M128.4,192.1c-1,0-1.8,0.8-1.8,1.8c0,1,0.8,1.8,1.8,1.8s1.8-0.8,1.8-1.8c0,0,0,0,0,0C130.3,192.9,129.5,192.1,128.4,192.1
		C128.4,192.1,128.4,192.1,128.4,192.1L128.4,192.1z M142.1,192.1c-1,0-1.8,0.8-1.8,1.8s0.8,1.8,1.8,1.8s1.8-0.8,1.8-1.8
		c0,0,0,0,0,0C144,192.9,143.2,192.1,142.1,192.1C142.2,192.1,142.1,192.1,142.1,192.1L142.1,192.1z M155.8,192.1
		c-1,0-1.8,0.8-1.8,1.8s0.8,1.8,1.8,1.8s1.8-0.8,1.8-1.8c0,0,0,0,0,0C157.7,192.9,156.9,192.1,155.8,192.1
		C155.9,192.1,155.8,192.1,155.8,192.1L155.8,192.1z M169.6,192.1c-1,0-1.8,0.8-1.8,1.8s0.8,1.8,1.8,1.8s1.8-0.8,1.8-1.8
		c0,0,0,0,0,0C171.4,192.9,170.6,192.1,169.6,192.1C169.6,192.1,169.6,192.1,169.6,192.1L169.6,192.1z M135.3,181.8
		c-1,0-1.8,0.8-1.8,1.8c0,1,0.8,1.8,1.8,1.8c1,0,1.8-0.8,1.8-1.8C137.1,182.6,136.3,181.8,135.3,181.8
		C135.3,181.8,135.3,181.8,135.3,181.8L135.3,181.8z M149,181.8c-1,0-1.8,0.8-1.8,1.8c0,1,0.8,1.8,1.8,1.8c1,0,1.8-0.8,1.8-1.8
		C150.8,182.6,150,181.8,149,181.8C149,181.8,149,181.8,149,181.8L149,181.8z M162.7,181.8c-1,0-1.8,0.8-1.8,1.8
		c0,1,0.8,1.8,1.8,1.8c1,0,1.8-0.8,1.8-1.8C164.5,182.6,163.7,181.8,162.7,181.8C162.7,181.8,162.7,181.8,162.7,181.8L162.7,181.8z
		 M176.9,184.2c-0.1-0.8-0.3-1.6-0.6-2.4c-1,0.1-1.7,1-1.6,2c0.1,0.9,0.8,1.6,1.7,1.6c0.2,0,0.4,0,0.6-0.1
		C177,184.9,176.9,184.6,176.9,184.2L176.9,184.2z M121.6,202.8c-0.2,1.4-0.3,2.6-0.4,3.6l0,0c0.1,0,0.3,0,0.4,0
		c1-0.1,1.7-0.9,1.7-1.9C123.2,203.5,122.5,202.8,121.6,202.8L121.6,202.8z M135.3,202.8c-1,0-1.8,0.8-1.8,1.8c0,1,0.8,1.8,1.8,1.8
		c1,0,1.8-0.8,1.8-1.8C137.1,203.6,136.3,202.8,135.3,202.8C135.3,202.8,135.3,202.7,135.3,202.8L135.3,202.8z M149,202.8
		c-1,0-1.8,0.8-1.8,1.8c0,1,0.8,1.8,1.8,1.8c1,0,1.8-0.8,1.8-1.8C150.8,203.6,150,202.8,149,202.8C149,202.8,149,202.8,149,202.8
		L149,202.8z M162.7,202.8c-1,0-1.8,0.8-1.8,1.8c0,1,0.8,1.8,1.8,1.8c1,0,1.8-0.8,1.8-1.8C164.5,203.6,163.7,202.8,162.7,202.8
		C162.7,202.8,162.7,202.7,162.7,202.8L162.7,202.8z"/>
	<path class="st6" d="M163.1,194.3c-2.8,0.2-5.6,0.6-8.3,1.2c-1.4,0.3-2.7,0.7-4,1.1c-0.7,0.2-1.3,0.4-2,0.6
		c-0.7,0.2-1.4,0.3-2.1,0.4c0,0-0.1,0-0.1,0.1s0,0.1,0.1,0.1c0.7,0,1.4,0,2.1,0c0.7-0.1,1.3-0.2,2-0.3c1.4-0.3,2.8-0.7,4.1-1
		c2.8-0.6,5.6-1.3,8.4-1.8c0.1,0,0.1-0.1,0.1-0.2S163.2,194.3,163.1,194.3z"/>
	<path class="st6" d="M170,196.9c-2.3-0.3-4.6-0.5-6.9-0.5c-1.1,0-2.3,0.1-3.5,0.1c-0.5,0-1.1,0.1-1.6,0.1c-0.6,0.1-1.2,0.2-1.8,0.3
		c-0.1,0-0.1,0.1,0,0.1c0.6,0,1.1,0,1.7,0h5.2c2.3,0,4.6,0,6.9,0C170,197.1,170.1,197,170,196.9C170,197,170,196.9,170,196.9z"/>
	<path class="st29" d="M144.8,153c0.3,1,5.4,7.6,10.1,7.2c1.5-0.1,1.2-8.5,1.2-8.5l0.1-0.6l1.7-8.8l-10.4-6.2l-1.5-0.8
		c0,0-0.3,2.4-0.6,5.4c0,0.1,0,0.3,0,0.4s-0.1,0.3-0.1,0.5c-0.1,0.4-0.1,0.9-0.2,1.4s-0.1,0.7-0.1,1.1s-0.1,0.7-0.1,1.1
		C144.7,147.8,144.6,150.4,144.8,153z"/>
	<path class="st6" d="M157.9,142.3l-1.6,8.4c-4.7-1.5-8.7-4.8-11-9.2l0.1-0.9c0.4-3,0.6-5.4,0.6-5.4l1.5,0.8L157.9,142.3z"/>
	<path class="st29" d="M168.6,128.1c2.2,15.5-6.9,18.5-10.2,19c-3,0.4-13.4,1.5-17.2-13.7s2.8-21.1,9.6-22.4
		S166.4,112.6,168.6,128.1z"/>
	<path class="st6" d="M166,126c-0.4,0-0.7-0.1-1.1-0.1c-0.4,0-0.8-0.1-1.1-0.3c-0.2-0.2-0.2-0.5-0.1-0.7c0.3-0.4,0.8-0.5,1.3-0.4
		c0.5,0,1,0.2,1.3,0.6c0.2,0.2,0.2,0.6-0.1,0.8C166.3,126,166.1,126,166,126z"/>
	<path class="st6" d="M155.4,126.6c0.3-0.1,0.7-0.2,1-0.3c0.4-0.1,0.7-0.2,1-0.5c0.1-0.2,0.1-0.5-0.1-0.7c-0.4-0.3-0.9-0.4-1.4-0.2
		c-0.5,0.1-0.9,0.4-1.2,0.8c-0.2,0.3-0.1,0.6,0.2,0.8C155.1,126.6,155.2,126.6,155.4,126.6z"/>
	<path class="st6" d="M157.9,129.5c0,0-0.1,0.1-0.1,0.1c0.1,1,0.1,2.3-0.8,2.7c0,0,0,0.1,0,0.1C158.2,132.1,158.2,130.5,157.9,129.5
		z"/>
	<path class="st6" d="M156.8,128.5c-1.7,0.1-1.5,3.5,0.1,3.4S158.2,128.5,156.8,128.5z"/>
	<path class="st6" d="M156.1,128.7c-0.3,0.2-0.6,0.6-0.9,0.6s-0.8-0.3-1.1-0.6h-0.1c0,0.7,0.3,1.3,1,1.4s1.1-0.6,1.2-1.2
		C156.4,128.8,156.2,128.6,156.1,128.7z"/>
	<path class="st6" d="M163.8,129C163.8,129,163.9,129,163.8,129c0.1,1.1,0.4,2.4,1.4,2.6 M165.2,131.7c-1.2-0.1-1.5-1.7-1.4-2.7
		L165.2,131.7z"/>
	<path class="st6" d="M164.7,127.8c1.7-0.3,2.1,3.1,0.5,3.4S163.2,128,164.7,127.8z"/>
	<path class="st6" d="M165.4,127.9c0.3,0.1,0.6,0.4,0.9,0.4s0.6-0.4,0.8-0.8c0,0,0.1,0,0.1,0c0.1,0.6,0,1.4-0.6,1.6s-1-0.3-1.3-0.9
		C165.2,128.1,165.3,127.9,165.4,127.9z"/>
	<path class="st6" d="M159.2,138.2c0.3,0.2,0.6,0.5,1,0.5c0.4-0.1,0.8-0.2,1.1-0.4 M161.4,138.3c-0.2,0.5-0.7,0.8-1.2,0.8
		c-0.5,0-0.9-0.4-1-0.8c0-0.1,0.1-0.1,0.1-0.1L161.4,138.3z"/>
	<path class="st6" d="M158.5,135.4c0.7,0.7,1.6,1.2,2.6,1.2c0.4,0,0.9,0,1.3-0.1l0.2-0.1l0.2-0.1c0.1,0,0.2-0.1,0.2-0.3l0,0V136l0,0
		v-0.1c-0.1-0.8-0.4-2-0.4-2c0.3,0.1,1.9,0.5,1.8,0.1c-0.6-3.6-1.6-7-3-10.4c0,0,0-0.1-0.1-0.1c0,0-0.1,0-0.1,0.1
		c0.6,3.3,1.7,6.5,2.4,9.8c-0.6-0.2-1.2-0.2-1.7-0.2c-0.1,0,0.6,2.3,0.6,2.7l0,0c-1.3,0.3-2.7,0.1-3.8-0.6
		C158.5,135.2,158.4,135.3,158.5,135.4z"/>
	<path class="st6" d="M141.4,132.5c3.7-0.1,3.4-6,3.4-6s4.2-0.6,4.1-7.4c1.8,2.7,4.8,4.4,8,4.5c1.2,0.1-3-2.8-3-2.8s5.1,4.1,13.9,2
		c0.6-0.2-1.2-9.6-8.4-12.4s-13.5-0.7-17.6,4c-2.5,1.5-4,4-4.2,6.9C137.3,126.2,139.9,132.6,141.4,132.5z"/>
	<path class="st29" d="M143.8,134.2c0,0-3.7-4.7-5.8-3.4s0.8,8.3,3.4,9.1c1.4,0.5,2.9-0.1,3.4-1.5c0,0,0-0.1,0-0.1L143.8,134.2z"/>
	<path class="st6" d="M138.9,132.9c1.9,0.6,2.9,2.3,3.7,4c-0.4-0.7-1.4-0.9-2-0.4c-0.1,0-0.1,0.1-0.2,0.1c0,0,0,0.1,0.1,0.1
		c0.6-0.2,1.4-0.1,1.8,0.5c0.4,0.4,0.7,0.9,0.9,1.4c0.1,0.2,0.4,0.1,0.3-0.1l0,0C143.4,136.1,141.4,132.9,138.9,132.9L138.9,132.9z"
		/>
	<path class="st1" d="M143.2,139.2c0,0.4-0.3,0.8-0.7,0.8c-0.4,0-0.8-0.3-0.8-0.7c0,0,0,0,0,0c0-0.4,0.3-0.8,0.7-0.8c0,0,0,0,0,0
		C142.8,138.4,143.2,138.7,143.2,139.2z"/>
	<polygon class="st5" points="145.6,128.9 139.1,128.9 139.2,127.1 145.7,127.9 	"/>
	<polygon class="st5" points="145.9,127.2 139.4,126 139.9,124.4 146.1,126.3 	"/>
	<rect x="190" y="139.1" transform="matrix(0.2129 -0.9771 0.9771 0.2129 8.3921 376.5562)" class="st1" width="95.8" height="88"/>
	<path class="st2" d="M184.7,220.5l86,18.6l-0.2,0.1l20.3-93.7l0.2,0.3l-86-18.8l0.2-0.1L184.7,220.5z M184.7,220.5l20.2-93.7v-0.2
		h0.2l86,18.7l0.2,0.1l-0.1,0.2l-20.5,93.7v0.2h-0.2L184.7,220.5z"/>
	
		<rect x="193.5" y="143.6" transform="matrix(0.2095 -0.9778 0.9778 0.2095 7.953 376.2594)" class="st5" width="86.4" height="79.3"/>
	
		<rect x="193.5" y="143.6" transform="matrix(0.2095 -0.9778 0.9778 0.2095 7.953 376.2594)" class="st31" width="86.4" height="79.3"/>
	<polygon class="st5" points="221.6,194.6 273.4,205.8 253.2,174.3 	"/>
	<polygon class="st32" points="221.6,194.6 273.4,205.8 253.2,174.3 	"/>
	<polygon class="st5" points="196.1,189 242,199 222.8,177.1 	"/>
	
		<rect x="217.1" y="172.1" transform="matrix(0.2129 -0.9771 0.9771 0.2129 -24.4747 392.9429)" class="st5" width="29.1" height="79.1"/>
	<path class="st31" d="M227.9,158.2c-0.8,3.9-4.7,6.4-8.6,5.5c-3.9-0.8-6.4-4.7-5.5-8.6c0.8-3.9,4.7-6.4,8.6-5.5c0,0,0,0,0,0
		C226.3,150.5,228.8,154.3,227.9,158.2z"/>
	<path class="st29" d="M139.3,167c0.7,8.3,6.7,46.1,17,56.1c6.3,6.1,39.7,7.9,48,7.9c3.6,0,5-23.9,2.2-26.4s-33.9-2.7-36.6-3.8
		c0,0-12.4-23-19-35.3C144.7,153.9,138.1,151.5,139.3,167z"/>
	<path class="st29" d="M228.5,207.1c4.5-0.2,10.2-4.2,11.3-1.1c1,2.8-3.2,5.2-3.2,5.2s5.6-1.2,5.9,2.2s-4.9,5-4.9,5s4.6-1.2,4.6,2.1
		s-4.1,5.6-4.1,5.6s1.6,0.6,0.5,2.9c-1.5,3.4-9.2,5.3-13.5,5.3s-20-2.9-22.4-3.4l-0.5-27.5c0,0,7.6-3.6,11.6-4.9s18.7-2.1,19.1,1.5
		s-9.9,4-12.4,4.6s-2.8,1.3-1.4,1.9C220,206.9,226.5,207.2,228.5,207.1z"/>
	<path class="st6" d="M236.4,211.2c-6.1,2.9-9.3,3.1-16,2.3c-0.1,0-0.2,0.2,0,0.2c6.4,1.4,10.5,1.7,16.1-2.2
		C236.8,211.3,236.7,211.1,236.4,211.2z"/>
	<path class="st6" d="M237.8,218.2c-6.6,2.5-10.1,2.7-17.1,2.4c-0.1,0-0.1,0.2,0,0.2c6.9,0.9,10.9,1.1,17.2-2.2
		C238.2,218.4,238.1,218.1,237.8,218.2z"/>
	<path class="st6" d="M238,226.1c-6.6,1.9-10.4,2.4-17.1,1.2c-0.1,0-0.1,0-0.1,0.1c0,0.1,0,0.1,0.1,0.1c6.8,1.9,11.5,1.3,17.2-1.2
		C238.4,226.1,238.4,225.9,238,226.1z"/>
	<path class="st11" d="M161.4,180.7l-18.9,14.6c0,0-4.6-25.9-3.8-33.9c0.9-9,5.3-6.6,10.8,0C155,168.1,161.4,180.7,161.4,180.7z"/>
	<path class="st1" d="M142.1,171.1c-1,0-1.8,0.8-1.8,1.8s0.8,1.8,1.8,1.8s1.8-0.8,1.8-1.8c0,0,0,0,0,0
		C143.9,171.9,143.1,171.1,142.1,171.1L142.1,171.1z M156.1,171.1c-0.1,0-0.2,0-0.3,0c-1,0.1-1.7,0.9-1.7,1.9
		c0.1,0.9,0.8,1.6,1.7,1.7c0.8,0,1.4-0.5,1.7-1.2C157.1,172.8,156.6,172,156.1,171.1L156.1,171.1z M149.7,161.4
		c-0.2-0.2-0.3-0.4-0.5-0.6c-0.1,0-0.2,0-0.2,0c-1,0-1.8,0.8-1.8,1.8s0.8,1.8,1.8,1.8c0.9,0,1.7-0.7,1.8-1.6
		C150.4,162.3,150.1,161.9,149.7,161.4L149.7,161.4z M142.1,192.1c-0.1,0-0.2,0-0.4,0c0.3,1.9,0.5,3.1,0.5,3.1l1.7-1.3l0,0
		C143.9,192.9,143.1,192.1,142.1,192.1L142.1,192.1z M149,181.8c-1,0-1.8,0.8-1.8,1.8c0,1,0.8,1.8,1.8,1.8c1,0,1.8-0.8,1.8-1.8
		C150.8,182.6,150,181.8,149,181.8z"/>
	<path class="st6" d="M142.4,189.8c0.6-0.6,6.5-5.2,7.8-6.1s6.6-5,8-5.8c0.1,0,0.1,0,0.1,0.1c-1.2,1.1-6.5,5.2-7.8,6.2
		S143.2,189.5,142.4,189.8C142.4,189.9,142.3,189.8,142.4,189.8z"/>
	<path class="st6" d="M159.8,182c0.5-0.5,1.4-1.2,1.4-1.2c-1.2-2.5-8.4-14.6-10.1-17.6c0,0,0-0.1,0.1,0c1.1,1.6,2.1,3.2,3.1,4.8
		c-0.1-0.2-0.2-0.4-0.3-0.7c-0.3-0.8-0.6-1.6-1-2.4c0-0.1,0.1-0.1,0.1-0.1c0.4,0.8,0.8,1.5,1.2,2.3c0.2,0.6,0.4,1.1,0.6,1.7
		c0.6,0.9,1.2,1.9,1.8,2.8c1.7,2.9,3.6,5.9,5.1,8.9c-0.6,0.5-1.3,1-2,1.4C159.8,182.1,159.8,182,159.8,182z"/>
	<path class="st6" d="M144.1,193.8c-0.6,0.5-1.2,1-1.8,1.5l-0.2,0.2l-0.1-0.2c-0.8-3.1-1.4-6.2-1.8-9.3c-0.2-1.6-0.4-3.1-0.5-4.7
		s-0.2-3.1-0.2-4.7c0.3,1.6,0.5,3.1,0.7,4.7l0.7,4.7l1.3,9.4l-0.3-0.1C142.8,194.6,143.4,194.2,144.1,193.8z"/>
	<path class="st6" d="M140.3,182.4c-0.5-0.5-0.8-1-1-1.7c-0.1-0.3-0.2-0.6-0.2-0.9c0-0.3,0-0.7,0-1c0.3,0.6,0.5,1.2,0.7,1.8
		C140,181.1,140.1,181.8,140.3,182.4z"/>
	<path class="st29" d="M240.8,122.7c1.7-0.2,3.4,0.7,4.1,2.3c0,0,1.8-3.4,5-3.1c1.6,0.1,2.9,2.8,2.9,2.8s1.6-2.6,4.4-2.2
		c2.2,0.3,3.1,3,3.1,3s2.7-1.8,4.9-0.8c4.4,2.1,3.9,21.5-3.4,24.2c-3.4,1.3-3-3.4-3-3.4s-2.2,6.6-6.2,6.6s-3.1-6.1-3.1-6.1
		s-2.2,6.4-6.3,6c-4.3-0.4-2.4-6.4-2.4-6.4s-3,4.2-6.1,3.2c-5.1-1.7,2.1-10.9,1.2-15.1l-7.9-2C228,131.6,237.3,123,240.8,122.7z"/>
	<path class="st6" d="M260.5,125.8c0-0.1,0.1-0.1,0.1,0c1.4,6.7,0.8,13.6-1.8,19.9c-0.1,0.2-0.5,0.1-0.4-0.1
		C260.1,139.2,260.8,132.5,260.5,125.8z"/>
	<path class="st6" d="M252.8,124.6c0-0.1,0.1-0.1,0.1,0c1.4,6.6,0.6,15-3.3,21.6c-0.1,0.2-0.5,0.3-0.3,0
		C251.6,141.6,253.1,130.9,252.8,124.6z"/>
	<path class="st6" d="M240.3,145.9c3.5-6.5,4.6-13.4,4.6-20.7c0-0.1,0.1-0.1,0.2,0c0.9,3.6,0.4,8.2-0.3,11.8c-0.6,3.3-2.1,6.4-4.2,9
		C240.5,146.2,240.3,146.1,240.3,145.9z"/>
</g>
</svg>
