<?xml version="1.0" encoding="utf-8"?>
<!-- Generator: Adobe Illustrator 25.3.0, SVG Export Plug-In . SVG Version: 6.00 Build 0)  -->
<svg version="1.1" id="Calque_1" xmlns="http://www.w3.org/2000/svg" xmlns:xlink="http://www.w3.org/1999/xlink" x="0px" y="0px"
	 viewBox="0 0 61 76" style="enable-background:new 0 0 61 76;" xml:space="preserve">
<style type="text/css">
	.st0{fill:#64A9A5;}
</style>
<g id="Icon">
	<path id="Shape" class="st0" d="M59.7,16.7c-0.1-4.2-0.2-9.9-0.2-14.2c0-0.2,0-0.4-0.1-0.5c0.1-0.9-0.5-1.9-1.7-1.9
		C42.8,0.6,27.8,0,12.7,0c-1.2,0-1.8,1.1-1.6,2C11,2.2,11,2.4,11,2.6c0.2,17.8,0.8,43.3,0.9,61c0,0.4,0.1,0.7,0.3,1
		c0.1,0.8,0.7,1.4,1.6,1.4c6.5-0.2,13-0.3,19.5-0.6c5.8-0.3,13,0.1,18.5-1.8c2-0.7,3.7-1.6,5.2-3.1c2.7-2.6,3.7-6.1,3.9-9.7
		c0.2-3.5-0.2-7.2-0.3-10.5C60.4,32,60,25.1,59.7,16.7z M50.2,48.4c-1.1,0-2.1,0.8-1.6,2.1c1,2.5,1.4,5.7-0.1,8.1
		c-1.8,2.9-4.9,2.8-7.9,3.2C38.8,62,36.8,61.9,35,62c-1.4,0-19.7,0.5-19.7,0.6c0-17.1-0.6-41.9-0.8-59C28.3,3.5,42.2,4,56.1,3.7
		c-0.1,14,1.2,34.3,1.3,45.4c-2.2-0.7-4.4-1-6.7-0.8C50.5,48.3,50.3,48.4,50.2,48.4z M51.5,60.1c1.4-2.4,1.7-5.2,1-8.4
		c1.7,0.1,3.3,0.4,4.9,1c0,0,0,0,0,0.1C57,56.5,54.6,58.8,51.5,60.1z"/>
	<path id="Path" class="st0" d="M43,67.5c-1.1,0-2,0.9-2,2.1V71C29,72.2,17.1,71.7,5.2,71.6C4.9,53.8,4.2,36,4.1,18.2h3.4
		c2.6,0,2.6-4.2,0-4.2H2.6c-0.2,0-0.4,0-0.5,0.1c-1,0-2.1,0.7-2.1,2c0,19,0.8,38,1.1,57.1c0,0.2,0,0.4,0.1,0.5c0,1.1,0.6,2.1,2,2.1
		c13.3,0,26.6,0.8,39.8-0.8c0.8-0.1,1.4-0.6,1.7-1.2c0.2-0.3,0.4-0.7,0.4-1.2v-3.1C45,68.4,44.1,67.5,43,67.5z"/>
	<path id="Path_1_" class="st0" d="M48,22.7c2.7-0.3,2.7-5,0-4.7c-8.6,0.9-17.2,1.2-25.9,1.3c-2.8,0-2.8,4.7,0,4.7
		C30.7,24,39.3,23.7,48,22.7z"/>
	<path id="Path_2_" class="st0" d="M46,27c-7.3,1-14.7,1.3-22,1c-2.7-0.1-2.7,4.8,0,4.9c7.4,0.3,14.7,0,22-1
		C48.6,31.6,48.7,26.7,46,27z"/>
	<path id="Path_3_" class="st0" d="M48.3,34c-8.4,1.4-16.8,2.1-25.3,2.4c-2.7,0.1-2.7,4.7,0,4.6c8.8-0.3,17.7-1,26.4-2.5
		C52.2,38,51,33.6,48.3,34z"/>
</g>
</svg>
