<?xml version="1.0" encoding="utf-8"?>
<!-- Generator: Adobe Illustrator 25.3.0, SVG Export Plug-In . SVG Version: 6.00 Build 0)  -->
<svg version="1.1" id="Calque_1" xmlns="http://www.w3.org/2000/svg" xmlns:xlink="http://www.w3.org/1999/xlink" x="0px" y="0px"
	 viewBox="0 0 72 50" style="enable-background:new 0 0 72 50;" xml:space="preserve">
<style type="text/css">
	.st0{fill:#64A9A5;}
</style>
<g id="money-stack-hand-drawn-outline">
	<path id="Shape" class="st0" d="M69.4,0.1c-20.3,0.3-46.9,1-67.1,0.4C1.4,0.4,1,0.9,0.8,1.6c0,0.1,0,0.1-0.1,0.2
		C0.6,2.4,0.6,3.1,0.6,3.8C0.1,11.2,0.2,25.5,0,32.9c0,0.3,0,0.5,0.1,0.7c0.2,0.6,0.6,1.1,1.4,1.2c20.7,2.4,47.6,0.6,68.3-0.6
		c0.4,0,0.7-0.1,0.9-0.3c0.7-0.1,1.3-0.6,1.2-1.5c-0.5-8-0.5-22.9-0.5-30.9C71.5,0.3,70.3-0.2,69.4,0.1z M3.1,31.9
		c0.1-7.1,0.1-21,0.6-28.1c0-0.1,0-0.1,0-0.2c19.5,0.6,45.2-0.1,64.7-0.4c0,7,0.1,21,0.5,28C49,32.4,22.9,34,3.1,31.9z"/>
	<path id="Shape_1_" class="st0" d="M42.3,18.3C40.8,17,38.9,16.4,37,16c-0.1-1.7-0.1-3.4-0.2-5.1c0.8,0.2,1.7,0.5,2.3,0.8
		c1.7,0.8,2.6-2,0.9-2.8c-1-0.5-2.2-0.8-3.4-1c0-0.1,0-0.2,0-0.4c-0.1-1.9-2.9-2.1-2.9-0.2c0,0.1,0,0.3,0,0.4
		c-1.8,0.2-3.6,0.8-4.8,2.1c-2.2,2.5-0.6,6.8,2.3,7.9c0.9,0.4,1.9,0.6,2.9,0.7c0.1,2.3,0.1,4.6,0.2,6.9c-1.3-0.6-2.5-1.6-3.2-2.4
		c-1.3-1.4-3.4,0.6-2.1,2c1.3,1.4,3.3,2.8,5.4,3.6c0,0.3,0,0.6,0,0.9c0,1.9,2.9,2.1,2.9,0.2c0-0.2,0-0.3,0-0.5c1.5,0,2.9-0.4,4-1.5
		C43.7,25.3,45.4,20.8,42.3,18.3z M32.8,15.2c-1.8-0.5-2.8-2.8-0.8-3.9c0.6-0.3,1.2-0.5,1.9-0.5c0.1,1.6,0.1,3.1,0.2,4.7
		C33.7,15.4,33.3,15.3,32.8,15.2z M39.2,25.6c-0.6,0.4-1.2,0.6-1.9,0.6c0-2.3-0.1-4.7-0.1-7c1.2,0.3,2.4,0.7,3.4,1.4
		C42.2,21.8,40.4,24.7,39.2,25.6z"/>
	<path id="Path" class="st0" d="M69.5,35c-22.3,1.9-44.7,2.8-67,1c-2-0.2-2,2.8,0,3c22.3,1.8,44.7,0.9,67-1
		C71.5,37.9,71.5,34.8,69.5,35z"/>
	<path id="Path_1_" class="st0" d="M69.5,41c-22.3,1.9-44.7,2.8-67,1c-2-0.2-2,2.8,0,3c22.3,1.8,44.7,0.9,67-1
		C71.5,43.9,71.5,40.8,69.5,41z"/>
	<path id="Path_2_" class="st0" d="M69.5,45c-22.3,1.9-44.7,2.8-67,1c-2-0.2-2,2.8,0,3c22.3,1.8,44.7,0.9,67-1
		C71.5,47.9,71.5,44.8,69.5,45z"/>
	<path id="Shape_2_" class="st0" d="M13,9.4C13,9.4,13,9.4,13,9.4c-0.1-1-0.4-2-1.2-2.6c-0.9-0.7-2-0.9-3.1-0.8c-0.1,0-0.2,0-0.3,0
		c-1,0.1-1.9,0.4-2.7,1.1C5.6,7.3,5.6,7.4,5.5,7.5C5.4,7.6,5.4,7.7,5.3,7.8C5,8.5,4.9,9.3,5.1,10.1c0,0.2,0,0.4,0.2,0.6
		c0.5,0.8,1.2,1.4,2,1.9c0.1,0,0.1,0.1,0.2,0.1c0.1,0,0.2,0.1,0.3,0.1c1.3,0.3,2.6,0.1,3.7-0.5c0.1-0.1,0.2-0.2,0.3-0.2c0,0,0,0,0,0
		C12.6,11.4,13.1,10.4,13,9.4C13,9.4,13,9.4,13,9.4z M10.5,10.1c0,0-0.1,0.2-0.2,0.3c0.1-0.1-0.1,0.1-0.2,0.1
		c-0.5,0.3-1.1,0.4-1.7,0.2c-0.4-0.2-0.7-0.5-1-0.9c0,0,0-0.1,0-0.1C7.3,9.4,7.4,9,7.5,8.7c0.4-0.3,0.8-0.4,1.4-0.5
		c0.1,0,0.1,0,0.2,0c0.4,0,0.8,0,1,0.2c0.1,0.1,0.2,0.2,0.3,0.3c0.1,0.2,0.2,0.4,0.2,0.7c0,0,0,0,0,0c0,0,0,0.1,0,0.1
		c0,0.1,0,0.3,0,0.4C10.6,9.8,10.5,10,10.5,10.1z"/>
	<path id="Shape_3_" class="st0" d="M67,8.4C67,8.4,67,8.4,67,8.4c-0.1-1-0.4-2-1.2-2.6c-0.9-0.7-2-0.9-3.1-0.8c-0.1,0-0.2,0-0.3,0
		c-1,0.1-1.9,0.4-2.7,1.1c-0.1,0.1-0.2,0.2-0.2,0.3c-0.1,0.1-0.1,0.2-0.2,0.3c-0.3,0.8-0.4,1.6-0.2,2.3c0,0.2,0,0.4,0.2,0.6
		c0.5,0.8,1.2,1.4,2,1.9c0.1,0,0.1,0.1,0.2,0.1c0.1,0,0.2,0.1,0.3,0.1c1.3,0.3,2.6,0.1,3.7-0.5c0.1-0.1,0.2-0.2,0.3-0.2c0,0,0,0,0,0
		C66.6,10.4,67.1,9.4,67,8.4C67,8.4,67,8.4,67,8.4z M64.5,9.1c0,0-0.1,0.2-0.2,0.3c0.1-0.1-0.1,0.1-0.2,0.1
		c-0.5,0.3-1.1,0.4-1.7,0.2c-0.4-0.2-0.7-0.5-1-0.9c0,0,0-0.1,0-0.1c-0.1-0.4-0.1-0.7,0.1-1c0.4-0.3,0.8-0.4,1.4-0.5
		c0.1,0,0.1,0,0.2,0c0.4,0,0.8,0,1,0.2c0.1,0.1,0.2,0.2,0.3,0.3c0.1,0.2,0.2,0.4,0.2,0.7c0,0,0,0,0,0c0,0,0,0.1,0,0.1
		c0,0.1,0,0.3,0,0.4C64.6,8.8,64.5,9,64.5,9.1z"/>
</g>
</svg>
