<?xml version="1.0" encoding="utf-8"?>
<!-- Generator: Adobe Illustrator 25.3.0, SVG Export Plug-In . SVG Version: 6.00 Build 0)  -->
<svg version="1.1" id="Calque_1" xmlns="http://www.w3.org/2000/svg" xmlns:xlink="http://www.w3.org/1999/xlink" x="0px" y="0px"
	 viewBox="0 0 60 60" style="enable-background:new 0 0 60 60;" xml:space="preserve">
<style type="text/css">
	.st0{fill:#64A9A5;}
</style>
<g id="world-grid-hand-drawn-symbol">
	<path id="Shape" class="st0" d="M43.7,4.3C37.7,1,30.7,0.4,24,0c-2.1-0.1-4.7,0.7-6.7,1.3c-2.5,0.8-4.9,1.9-6.9,3.5
		C5.6,8.6,2.8,14.2,1.3,20c-1.3,5-1.7,10.6-1,16c0,0.3,0,0.5,0.1,0.8c0.8,5.5,2.9,10.8,6.7,14.9c12.1,13,36.5,9.9,47.4-3
		c6.9-8.1,6.7-18.9,2.8-28.3C54.4,13.7,50.1,7.8,43.7,4.3z M8.4,12.1c3.5-5.5,9.2-7.9,15.2-8.3c-3.9,2.8-6.8,6.4-8.9,10.6
		c-3,0.6-5.9,1.4-8.7,2.4C6.7,15.1,7.5,13.6,8.4,12.1z M3.9,34.5C3.4,30,3.6,25.3,4.7,20.9c2.7-1,5.6-1.9,8.4-2.6
		c-2.1,6.3-2.4,13.4-1,20.1c-2.9-0.7-5.6-1.8-8.2-3.2C3.9,35,3.9,34.7,3.9,34.5z M20.4,55.4c-8.5-2.2-13.6-8.1-15.7-15.9
		c2.7,1.2,5.5,2.1,8.4,2.7c1.6,5,4.2,9.6,7.9,13.3C20.8,55.5,20.6,55.4,20.4,55.4z M17,42.9c2.7,0.4,5.3,0.5,8,0.6
		c0,3.9,0.2,7.7,0.6,11.6C21.6,51.9,18.8,47.6,17,42.9z M24.9,40c-3,0-6.1-0.3-9.1-0.8C14,32,14.4,24.1,17.2,17.5
		c2.8-0.5,5.7-0.9,8.6-1C25.5,24.3,25,32.1,24.9,40z M26,13c-2.3,0.1-4.5,0.3-6.8,0.6c1.8-2.9,4.1-5.4,7-7.3
		C26.1,8.5,26.1,10.7,26,13z M44,8.5c3.1,2,5.7,5,7.6,8.3c-3.9-1.5-7.9-2.5-12.1-3.2c-2-3.4-4.4-6.5-7-9.3C36.6,5.1,40.5,6.2,44,8.5
		z M29.7,6.4c2,2.1,3.8,4.3,5.4,6.7c-1.9-0.2-3.7-0.2-5.6-0.2C29.6,10.7,29.6,8.6,29.7,6.4z M29.3,16.3c2.7,0,5.3,0.1,8,0.5
		c2.2,4.1,3.6,8.6,3.9,13.4c0.2,3-0.2,5.9-1,8.6c-3.4,0.5-6.9,0.9-10.3,1c-0.5,0-1,0-1.5,0.1C28.5,32.1,29,24.2,29.3,16.3z M29,54.4
		c-0.3-3.7-0.5-7.3-0.5-11c3.4-0.1,6.9-0.3,10.3-0.8C36.6,47.2,33.1,51.1,29,54.4z M46.5,51.1c-4.2,2.8-9.2,4.5-14.2,5.1
		c4.7-4,8.4-8.7,10.5-14.2c4.4-0.8,8.8-1.9,13-3.2C54.3,43.7,51.2,48,46.5,51.1z M56.5,34.9c-0.1,0-0.1,0-0.2,0
		c-4,1.4-8.2,2.4-12.4,3.2c0.5-2.2,0.8-4.5,0.8-7c0-4.8-1.2-9.4-3.1-13.7c4,0.8,7.9,2,11.7,3.7c0.2,0.1,0.5,0.2,0.7,0.2
		c0.7,1.8,1.3,3.6,1.8,5.3C56.5,29.5,56.7,32.2,56.5,34.9z"/>
</g>
</svg>
