<?xml version="1.0" encoding="utf-8"?>
<!-- Generator: Adobe Illustrator 25.3.0, SVG Export Plug-In . SVG Version: 6.00 Build 0)  -->
<svg version="1.1" id="Calque_1" xmlns="http://www.w3.org/2000/svg" xmlns:xlink="http://www.w3.org/1999/xlink" x="0px" y="0px"
	 viewBox="0 0 68 67" style="enable-background:new 0 0 68 67;" xml:space="preserve">
<style type="text/css">
	.st0{fill:#64A9A5;}
</style>
<g id="Icon">
	<path id="Shape" class="st0" d="M67.2,3c-0.1-0.3-0.2-0.5-0.4-0.6c-0.3-0.6-1-1-1.7-0.9c0-0.8-0.7-1.6-1.7-1.4
		C53.2,2.4,42.7,4.9,32.7,8.1c-7.3,2.3-14.5,4.8-21.7,7.4c-3.1,1.1-7.5,2-10.1,4.2c-0.5,0.4-0.6,1.1-0.3,1.6c-0.5,0.2-0.8,1-0.3,1.6
		c3.4,4.1,8.4,11.7,14.3,12.9c-0.7,9-1.4,18.8,2.1,27.3c0.4,1,1.5,1.4,2.3,0.6c0.3-0.3,0.6-0.6,0.9-0.9c2.4,0.2,5.2-2,7.1-3.2
		c2.5-1.6,5-3.4,7.4-5.2c1.1-0.8,2.7-1.7,3.7-2.9c2.7,1.8,5.6,3.3,8.7,4c5.3,1.2,6-0.8,8.3-5.2c4.1-8,6.8-17,9.7-25.5
		C67,17.8,69.2,10.2,67.2,3z M17.9,48.5c-0.1,1.7-0.5,4.2-0.5,6.5c-1.1-6.3-0.7-12.9-1-19.3c0.9,0,1.8-0.2,2.7-0.5
		C18.7,39.7,18.2,44.1,17.9,48.5z M2.4,22.2c11.1-3.9,22.2-8,33.4-11.6c7-2.2,15.5-2.8,22.7-5.4C56.4,7,54.2,9,51.8,10.5
		c-5.3,3.3-10.7,6.3-16.2,9.3c-4.7,2.7-8.6,6.6-13,9.8C13.9,35.9,8.4,28,2.4,22.2z M50.7,17.4c0-0.4-0.1-0.7-0.1-1.1
		c0-0.4,0-0.9,0-1.4c1.6-0.9,3.1-1.8,4.6-2.7c0.2-0.2,0.5-0.3,0.8-0.5C55,12.9,54,14,53,15C52.2,15.8,51.5,16.6,50.7,17.4z M49.3,19
		c-0.4,0.4-0.7,0.8-1.1,1.2c-0.2-1.1-0.5-2.3-0.7-3.4c0.5-0.3,1-0.6,1.5-0.8C48.9,17,49,18,49.3,19z M43.1,25.8
		c-0.6,0.7-1.3,1.4-1.9,2.1c-0.2-0.3-0.7-0.5-1-0.2c-0.5-2.2-0.8-4.3-1-6.5c0.8-0.5,1.5-0.9,2.3-1.3C41.5,22,41.5,25.7,43.1,25.8z
		 M42.9,22.3c-0.1-1-0.1-2.1-0.2-3.1c1.1-0.6,2.3-1.2,3.4-1.8c0,1.4,0.3,2.9,0.8,4.1c-1,1.1-2,2.2-2.9,3.3c-0.1-0.1-0.2-0.1-0.3-0.2
		C43.2,24.6,43,22.7,42.9,22.3z M39.2,30.3c-1.2,1.4-2.4,2.9-3.5,4.3c0,0,0,0,0,0c-0.1-0.4-0.2-0.8-0.2-1.2
		c-0.1-1.1-0.2-2.2-0.2-3.3c-0.1-1.8,0-3.7-0.1-5.5c0-0.3-0.2-0.4-0.3-0.4c1.1-0.8,2.2-1.6,3.3-2.3C38.1,24.7,38.5,27.6,39.2,30.3z
		 M33.8,33.4c0,0.6,0.3,1.9,0.8,2.5c-0.7,0.9-1.4,1.8-2.1,2.7c0-1.7-0.3-3.4-0.4-4.9c-0.2-2.2-0.4-4.4-0.9-6.6
		c0.9-0.8,1.9-1.6,2.7-2.3c0.1,0,0.1-0.1,0.2-0.1C34,27.6,33.7,30.5,33.8,33.4z M29.1,44.8c0.1,0.1,0.2,0.2,0.4,0.3
		c-0.4,0.3-0.7,0.7-1,1.1C27.7,41,28,35.9,27.6,30.7c0-0.1-0.1-0.2-0.2-0.3c1-0.8,1.9-1.6,2.8-2.4c0.3,2.1,0.4,4.3,0.5,6.5
		c0,2.1-0.3,4.3,0.2,6.4c-0.4,0.6-0.9,1.2-1.4,1.8c0,0,0,0.1,0,0.1C28.7,42.9,28.2,44.1,29.1,44.8z M20.3,58.1
		c-0.1-7.8,0.7-15.7,0.4-23.4c2-0.9,3.9-2.2,5.8-3.6c0,0.2,0,0.4-0.1,0.7c0,0.2-0.1,0.3-0.1,0.7c-0.4,4.7-0.6,9.6,0.4,14.2
		c0.1,0.5,0.5,0.7,0.9,0.6c-0.7,1.1-1.3,2.2-2,3.3c-0.3,0.4-0.6,0.9-0.9,1.3c0.3-2.5-0.1-5.4,0-7.7c0-3.5-0.4-7-0.4-10.3
		c0-0.3-0.5-0.3-0.5,0c-0.2,3.4-0.8,6.9-0.9,10.3c-0.1,3.1-1,7.1-0.1,10.1c0,0.1,0.1,0.2,0.2,0.3C22.2,55.7,21.3,56.9,20.3,58.1z
		 M33.8,51.2c-2,1.6-4,3.1-6.1,4.6c-1.4,1-2.8,1.9-4.2,2.8c1-1.3,1.9-2.6,2.8-3.9c1.7-2.5,3.9-5.3,5-8.2c1.4,1.1,2.8,2.2,4.2,3.2
		C34.9,50.2,34.4,50.8,33.8,51.2z M56.6,37.9c-2.3,6.1-3,15.9-10.8,14.2c-5-1.1-9.7-5.2-14.1-8.2C42.4,30.9,54.1,18.7,64.8,5.8
		C66.5,16.3,60.2,28.6,56.6,37.9z"/>
	<path id="Path" class="st0" d="M5.7,52.2c-0.5-1.4-0.9-2.9-1-4.5c-0.1-1-1.6-1.1-1.6,0c-0.1,1.5,0.2,2.9,0.5,4.4
		c0.4,1.4,0.8,3.2,1.6,4.4c0.5,0.7,2,0.6,1.8-0.5C6.8,54.7,6.2,53.5,5.7,52.2z"/>
	<path id="Path_1_" class="st0" d="M3.9,55.6C3.3,54.4,2.5,53.4,2,52c-0.6-1.7-0.6-3.4-0.3-5.1c0.1-0.9-0.9-1.2-1.2-0.4
		c-1,3.3-0.5,8.3,2.3,10.4C3.5,57.4,4.3,56.4,3.9,55.6z"/>
	<path id="Path_2_" class="st0" d="M35.9,59.6c-0.2-0.5-0.9-0.7-1.4-0.5c-0.6,0.3-0.8,0.7-1.1,1.2c-0.3,0.5-0.7,0.9-1.2,1.3
		c-1,0.9-2.4,1.4-3.7,2c-1,0.4-0.3,1.7,0.7,1.4c1.6-0.4,3-1.1,4.3-1.9C34.6,62.3,36.4,60.8,35.9,59.6z"/>
	<path id="Path_3_" class="st0" d="M39,59.3c-0.9,0.9-1.7,2.1-2.6,3c-1,1-2.2,1.9-3.2,3c-0.7,0.8,0.2,2,1.1,1.5
		c1.3-0.7,2.5-1.9,3.6-2.9c1-0.9,2.4-1.9,2.9-3.1C41.4,59.6,40,58.4,39,59.3z"/>
</g>
</svg>
