<?xml version="1.0" encoding="utf-8"?>
<!-- Generator: Adobe Illustrator 25.3.0, SVG Export Plug-In . SVG Version: 6.00 Build 0)  -->
<svg version="1.1" id="Calque_1" xmlns="http://www.w3.org/2000/svg" xmlns:xlink="http://www.w3.org/1999/xlink" x="0px" y="0px"
	 viewBox="0 0 32 26" style="enable-background:new 0 0 32 26;" xml:space="preserve">
<style type="text/css">
	.st0{fill:#64A9A5;}
</style>
<path class="st0" d="M29.2,8.9h-1.5v-5c0-1.9-1.5-3.4-3.4-3.4h-21C1.5,0.5,0,2,0,3.9v13.6c0,1.9,1.5,3.4,3.4,3.4h9.3v2.3H9.8
	c-0.6,0-1.2,0.5-1.2,1.2s0.5,1.2,1.2,1.2h8.1c0.6,0,1.2-0.5,1.2-1.2s-0.5-1.2-1.2-1.2H15v-2.3h2.6c0.6,0,1.2-0.5,1.2-1.2
	c0-0.6-0.5-1.2-1.2-1.2H3.4c-0.6,0-1-0.4-1-1V3.9c0-0.6,0.4-1,1-1h21c0.6,0,1,0.4,1,1v5h-1.5c-1.6,0-2.8,1.3-2.8,2.8v10.9
	c0,1.6,1.3,2.8,2.8,2.8h5.3c0.6,0,1.2-0.5,1.2-1.2s-0.5-1.2-1.2-1.2h-5.3c-0.3,0-0.5-0.2-0.5-0.5V11.7c0-0.3,0.2-0.5,0.5-0.5h5.3
	c0.3,0,0.5,0.2,0.5,0.5V20c0,0.6,0.5,1.2,1.2,1.2S32,20.6,32,20v-8.2C32,10.1,30.7,8.9,29.2,8.9z"/>
</svg>
