<?xml version="1.0" encoding="utf-8"?>
<!-- Generator: Adobe Illustrator 25.3.0, SVG Export Plug-In . SVG Version: 6.00 Build 0)  -->
<svg version="1.1" id="Calque_1" xmlns="http://www.w3.org/2000/svg" xmlns:xlink="http://www.w3.org/1999/xlink" x="0px" y="0px"
	 viewBox="0 0 500 500" style="enable-background:new 0 0 500 500;" xml:space="preserve">
<style type="text/css">
	.st0{fill:#FAFAFA;}
	.st1{fill:#E6E6E6;}
	.st2{fill:#FFFFFF;}
	.st3{fill:#EBEBEB;}
	.st4{fill:#E0E0E0;}
	.st5{opacity:0.15;}
	.st6{fill:#CAE8E3;}
	.st7{opacity:0.2;enable-background:new    ;}
	.st8{opacity:0.2;fill:#FFFFFF;enable-background:new    ;}
	.st9{opacity:0.1;enable-background:new    ;}
	.st10{fill:#455A64;}
	.st11{opacity:0.3;fill:#FFFFFF;enable-background:new    ;}
	.st12{fill:#787878;}
	.st13{fill:#CFCFCF;}
	.st14{fill:#F0F0F0;}
	.st15{fill:#F5F5F5;}
	.st16{opacity:0.2;fill:#CAE8E3;enable-background:new    ;}
	.st17{opacity:0.6;}
	.st18{opacity:0.7;}
	.st19{opacity:0.4;fill:#FFFFFF;enable-background:new    ;}
	.st20{opacity:0.5;}
	.st21{fill:#37474F;}
	.st22{fill:#263238;}
	.st23{fill:#FFA8A7;}
	.st24{fill:#FFD080;}
	.st25{opacity:0.3;enable-background:new    ;}
	.st26{opacity:0.4;enable-background:new    ;}
	.st27{opacity:0.4;fill:#FFD080;enable-background:new    ;}
	.st28{opacity:0.7;fill:#FFD080;enable-background:new    ;}
	.st29{opacity:0.2;fill:#FFD080;enable-background:new    ;}
	.st30{opacity:0.5;enable-background:new    ;}
	.st31{fill:#F28F8F;}
	.st32{opacity:0.1;fill:#FFFFFF;enable-background:new    ;}
</style>
<g id="freepik--Floor--inject-561">
	<path class="st0" d="M418.5,241.5c-93.6-54.1-245-54.1-338,0s-92.6,141.7,1.1,195.8s245,54.1,338,0S512.1,295.6,418.5,241.5z"/>
</g>
<g id="freepik--Shadows--inject-561">
	<path class="st1" d="M108.1,370l84.2-48.6l67.2,38.7c3.4-3.9,7.5-7.2,12-9.8c24-13.8,62.7-13.8,86.5,0s23.7,36.3-0.3,50.1
		c-5.2,2.9-10.7,5.2-16.4,6.8l6.8,3.9c1.5,0.8,2,2.7,1.1,4.2c-0.3,0.5-0.6,0.8-1.1,1.1L270,461.5c-3.8,2.2-8.4,2.2-12.2,0
		l-149.6-86.2c-1.5-0.8-2-2.7-1.1-4.2C107.3,370.6,107.6,370.3,108.1,370z"/>
	<path class="st1" d="M99.4,344.4c-6.9-4-18.1-4-25,0s-6.8,10.5,0.1,14.5s18.1,4,25,0S106.3,348.4,99.4,344.4z"/>
</g>
<g id="freepik--Plant--inject-561">
	<path class="st2" d="M103.7,321.3l-16.8,0.5l-16.8-0.5c-0.7,11.3,1.5,22.9,4.5,28.5l0,0c0.7,1.4,1.9,2.6,3.3,3.4
		c5,2.9,13,2.9,17.9,0c1.5-0.8,2.6-2,3.3-3.5C102.2,344.1,104.4,332.6,103.7,321.3z"/>
	<path class="st3" d="M98.7,314.5c6.6,3.8,6.6,9.9,0.1,13.7s-17.2,3.8-23.7,0s-6.6-10-0.1-13.7S92.2,310.7,98.7,314.5z"/>
	<path class="st4" d="M96.1,316c5.1,3,5.2,7.8,0.1,10.7s-13.4,3-18.5,0s-5.2-7.8-0.1-10.7S91,313,96.1,316z"/>
	<g class="st5">
		<path d="M96.1,316c5.1,3,5.2,7.8,0.1,10.7s-13.4,3-18.5,0s-5.2-7.8-0.1-10.7S91,313,96.1,316z"/>
	</g>
	<path class="st6" d="M114.5,249.8c-37.8,12.4-38.1,37.6-29.6,55.7c2.2,3.6,8.7,5.6,14.3-16.8l-9.9,1.3l11.6-5.9l3-9l-9.7,0.7
		l12.2-5.1C108.7,263.5,111.4,256.6,114.5,249.8z"/>
	<path class="st7" d="M114.5,249.8c-37.8,12.4-38.1,37.6-29.6,55.7c2.2,3.6,8.7,5.6,14.3-16.8l-9.9,1.3l11.6-5.9l3-9l-9.7,0.7
		l12.2-5.1C108.7,263.5,111.4,256.6,114.5,249.8z"/>
	<path class="st8" d="M114.5,249.8c-37.8,12.4-38.1,37.6-29.6,55.7c2.2,3.6,8.7,5.6,14.3-16.8l-9.9,1.3l11.6-5.9l3-9l-9.7,0.7
		l12.2-5.1C108.7,263.5,111.4,256.6,114.5,249.8z"/>
	<path class="st2" d="M103.8,256.1c-19.9,15.1-21.7,32.5-16.1,50.6C85.7,290.7,83.6,274.6,103.8,256.1z"/>
	<path class="st6" d="M50.5,275.5c37.3,5.2,41.8,28.7,36.8,46.9c-1.4,3.8-7.1,6.6-16.1-13.3l9.4-0.5l-11.7-3.5l-4.3-7.9l9.1-0.9
		l-12.3-2.8C58.2,287.3,54.5,281.3,50.5,275.5z"/>
	<path class="st8" d="M50.5,275.5c37.3,5.2,41.8,28.7,36.8,46.9c-1.4,3.8-7.1,6.6-16.1-13.3l9.4-0.5l-11.7-3.5l-4.3-7.9l9.1-0.9
		l-12.3-2.8C58.2,287.3,54.5,281.3,50.5,275.5z"/>
	<path class="st9" d="M50.5,275.5c37.3,5.2,41.8,28.7,36.8,46.9c-1.4,3.8-7.1,6.6-16.1-13.3l9.4-0.5l-11.7-3.5l-4.3-7.9l9.1-0.9
		l-12.3-2.8C58.2,287.3,54.5,281.3,50.5,275.5z"/>
	<path class="st2" d="M61.5,279.6c21.1,10.8,25.6,26.6,23.4,44.4C84.1,308.8,83.4,293.5,61.5,279.6z"/>
	<path class="st6" d="M125.4,284.3c-34.2,0.6-40.9,21.2-38.5,38.2c0.8,3.5,5.7,6.8,16-10.1l-8.5-1.5l11-1.9l4.8-6.6l-8.1-1.9
		l11.3-1.1C117.1,294.1,121.1,289,125.4,284.3z"/>
	<path class="st2" d="M115,286.7c-20.2,7.4-26.1,21.1-26.1,37.4C91.4,310.6,93.7,296.8,115,286.7z"/>
	<path class="st8" d="M125.4,284.3c-34.2,0.6-40.9,21.2-38.5,38.2c0.8,3.5,5.7,6.8,16-10.1l-8.5-1.5l11-1.9l4.8-6.6l-8.1-1.9
		l11.3-1.1C117.1,294.1,121.1,289,125.4,284.3z"/>
</g>
<g id="freepik--side-table--inject-561">
	<polygon class="st9" points="156.2,274.5 203.9,302 261.1,269 213.3,241.3 	"/>
	<polygon class="st4" points="254.5,213.7 211.3,188.6 161.8,217.2 162,274 205.2,299.2 209.5,296.6 209.5,291.8 246.1,270.7 
		250.3,273.1 254.7,270.6 	"/>
	<polygon class="st10" points="246.1,270.7 250.3,273.1 250.3,268.3 	"/>
	<polygon class="st11" points="246.1,270.7 250.3,273.1 250.3,268.3 	"/>
	<polygon class="st12" points="250.2,244.8 250.2,244.8 250.2,244.8 250.2,244.8 	"/>
	<rect x="229.9" y="233" class="st13" width="0" height="47"/>
	<polygon class="st13" points="250.1,221.3 209.4,244.8 209.4,244.8 	"/>
	<path class="st3" d="M250.3,268.3v4.8l4.4-2.5l-0.2-56.9L205,242.3l0.2,56.9l4.4-2.5v-4.8l36.6-21.1L250.3,268.3z M209.4,244.8
		L209.4,244.8l40.7-23.5l0.1,18.4l-40.7,23.5L209.4,244.8z M209.5,268.3L209.5,268.3l40.7-23.5l0,0v0.1l0.1,18.4l-40.7,23.5
		L209.5,268.3z"/>
	<path class="st11" d="M209.4,244.8L209.4,244.8l40.7-23.5l0.1,18.4l-40.7,23.5L209.4,244.8z M209.5,268.3L209.5,268.3l40.7-23.5
		l0,0v0.1l0.1,18.4l-40.7,23.5L209.5,268.3z"/>
	<polygon class="st4" points="250.2,263.2 250.2,244.8 250.2,244.8 209.5,268.3 209.5,268.3 209.6,286.7 	"/>
	<polygon class="st4" points="250.2,239.7 250.1,221.3 209.4,244.8 209.4,244.8 209.5,263.2 	"/>
	<polygon class="st14" points="205,242.3 161.8,217.2 162,274 205.2,299.2 	"/>
	<polygon class="st15" points="205,242.3 254.5,213.7 211.3,188.6 161.8,217.2 	"/>
	<path class="st4" d="M220.6,209.9c-6.9-4-18.1-4-25,0s-6.8,10.5,0.1,14.5s18.1,4,25,0S227.6,213.9,220.6,209.9z"/>
	<path class="st2" d="M194.6,192.6l14.1,0.4l14.1-0.4c0.6,9.5-1.2,19.2-3.8,23.9l0,0c-0.6,1.2-1.6,2.2-2.8,2.8
		c-4.7,2.4-10.3,2.4-15,0c-1.2-0.6-2.2-1.7-2.8-2.9C195.8,211.7,194,202.1,194.6,192.6z"/>
	<path class="st3" d="M198.8,186.8c-5.5,3.2-5.5,8.3-0.1,11.5s14.4,3.2,19.9,0s5.5-8.4,0.1-11.5S204.3,183.7,198.8,186.8z"/>
	<path class="st4" d="M200.9,188.1c-4.3,2.5-4.3,6.5-0.1,9s11.2,2.5,15.5,0s4.3-6.5,0.1-9C211.6,185.6,205.8,185.6,200.9,188.1z"/>
	<g class="st5">
		<path d="M200.9,188.1c-4.3,2.5-4.3,6.5-0.1,9s11.2,2.5,15.5,0s4.3-6.5,0.1-9C211.6,185.6,205.8,185.6,200.9,188.1z"/>
	</g>
	<path class="st10" d="M209.9,193c-2.3,1.9-5.4,2.6-8.2,1.9c-2.8-0.9-5-3-5.8-5.9c1.7-0.8,3.2-1.9,4.5-3.1c-2.1-0.5-4.3-0.4-6.4,0.2
		c-1.2-1.8-1.4-4.1-0.5-6.1c2.4-1.1,5.1-1.3,7.6-0.5c-2.1-1.8-4.9-2.7-7.7-2.4c-0.2-4,0.4-8.1,1.9-11.9c5.2,0.3,10.3,2.5,12.1,4.2
		c0.1,1.9-0.1,3.8-0.6,5.6c1.4-0.7,2.3-2.1,2.4-3.6c3.3,0.8,4.7,2.5,5.2,3.7c-0.5,2.3-1.5,4.5-3.1,6.3c3.1-0.9,4.3-4.4,4.3-4.4
		C218.6,184.2,218,192.3,209.9,193z"/>
	<path class="st7" d="M209.9,193c-2.3,1.9-5.4,2.6-8.2,1.9c-2.8-0.9-5-3-5.8-5.9c1.7-0.8,3.2-1.9,4.5-3.1c-2.1-0.5-4.3-0.4-6.4,0.2
		c-1.2-1.8-1.4-4.1-0.5-6.1c2.4-1.1,5.1-1.3,7.6-0.5c-2.1-1.8-4.9-2.7-7.7-2.4c-0.2-4,0.4-8.1,1.9-11.9c5.2,0.3,10.3,2.5,12.1,4.2
		c0.1,1.9-0.1,3.8-0.6,5.6c1.4-0.7,2.3-2.1,2.4-3.6c3.3,0.8,4.7,2.5,5.2,3.7c-0.5,2.3-1.5,4.5-3.1,6.3c3.1-0.9,4.3-4.4,4.3-4.4
		C218.6,184.2,218,192.3,209.9,193z"/>
	<path class="st15" d="M210,193.8L210,193.8c0.2,0,0.3-0.2,0.3-0.3c-0.5-6.6-4.3-17.6-13.3-26.6c-0.1-0.1-0.3-0.1-0.4,0
		s-0.1,0.3,0,0.4c8.9,8.9,12.7,19.7,13.2,26.2C209.7,193.7,209.8,193.8,210,193.8C210,193.8,210,193.8,210,193.8z"/>
	<path class="st10" d="M207.6,196.6c3.7,3,9.1,2.4,12.1-1.3c0.6-0.7,1-1.4,1.3-2.3c-1.5-0.7-2.9-1.6-4.1-2.8c2-0.5,4.1-0.4,6.1,0.2
		c1.2-1.5,1.5-3.6,0.8-5.4c-2.3-0.9-4.8-1.1-7.2-0.4c2.1-1.7,4.8-2.5,7.5-2.2c0.5-3.6,0.1-7.2-1-10.6c-5,0.3-10,2.4-11.7,3.8
		c-0.2,1.7-0.1,3.3,0.2,4.9c-1.2-0.6-2-1.8-2.1-3.2c-3.1,0.8-4.6,2.2-5.1,3.3c0.3,2.1,1.2,4,2.5,5.6c-1.8-0.6-3.2-2-3.8-3.8
		C199.9,188.8,200,195.9,207.6,196.6z"/>
	<path class="st2" d="M207.4,197.3c0.1,0,0.3-0.1,0.3-0.3c0.9-5.8,5.1-15.4,14-23.4c0.1-0.1,0.1-0.3,0-0.4c0,0,0,0,0,0
		c-0.1-0.1-0.3-0.1-0.4,0c0,0,0,0,0,0c-9.1,8.1-13.4,17.8-14.2,23.7C207,197.1,207.1,197.3,207.4,197.3L207.4,197.3z"/>
</g>
<g id="freepik--Folders--inject-561">
	<polygon class="st6" points="322.5,54.8 327.1,52.5 342.1,61.2 342,99.7 299.6,75.2 299.7,43.4 299.7,41.7 	"/>
	<polygon class="st6" points="299.6,84.8 342,109.3 342,105.6 299.6,81.1 	"/>
	<polygon class="st6" points="299.6,88.9 299.6,92.7 322.1,105.7 322.1,101.9 	"/>
	<polygon class="st16" points="299.6,84.8 342,109.3 342,105.6 299.6,81.1 	"/>
	<polygon class="st16" points="299.6,88.9 299.6,92.7 322.1,105.7 322.1,101.9 	"/>
	<g class="st17">
		<polygon class="st2" points="322.5,54.8 327.1,52.5 342.1,61.2 342,99.7 299.6,75.2 299.7,43.4 299.7,41.7 		"/>
		<polygon class="st2" points="299.6,84.8 342,109.3 342,105.6 299.6,81.1 		"/>
		<polygon class="st2" points="299.6,88.9 299.6,92.7 322.1,105.7 322.1,101.9 		"/>
		<polygon class="st8" points="299.6,84.8 342,109.3 342,105.6 299.6,81.1 		"/>
		<polygon class="st8" points="299.6,88.9 299.6,92.7 322.1,105.7 322.1,101.9 		"/>
	</g>
	<g class="st18">
		<path class="st2" d="M333.3,77.7l0.3,0.8l-0.3,0.4c-2.5,4-7.2,4.5-12.5,1.4c-2-1.2-3.8-2.6-5.4-4.3l-5,2.9l-1.6-2.8l4.5-2.6
			c-2.1-2.7-3.8-5.8-5-9.1l-0.3-0.8l0.3-0.5c2.5-4,7.2-4.5,12.5-1.4c2,1.2,3.8,2.6,5.4,4.3l5-2.9l1.6,2.8l-4.5,2.6
			C330.5,71.4,332.1,74.5,333.3,77.7z M320.8,77.8c4.3,2.5,8.1,2.2,10.2-0.8c-1-2.7-2.5-5.2-4.3-7.4l-1.7,1c0.5,1.1,0.7,2.2,0.7,3.3
			c0,3.1-2.2,4.3-4.9,2.8c-1-0.6-1.8-1.4-2.5-2.3l-1.1,0.6C318.2,76.1,319.5,77,320.8,77.8 M314.9,72.6l1.7-1
			c-0.4-1.1-0.7-2.2-0.7-3.3c0-3.1,2.2-4.3,4.9-2.8c1,0.6,1.8,1.4,2.5,2.3l1.1-0.6c-1.1-1-2.3-2-3.6-2.7c-4.3-2.5-8.1-2.2-10.2,0.8
			C311.6,67.9,313.1,70.4,314.9,72.6 M318.3,70.6l3.3-1.9c-0.3-0.3-0.5-0.5-0.9-0.7c-1.4-0.8-2.6-0.2-2.6,1.5
			C318.2,69.9,318.2,70.3,318.3,70.6 M323.3,71.5l-3.3,2c0.3,0.3,0.5,0.5,0.9,0.7c1.4,0.8,2.6,0.2,2.6-1.5
			C323.5,72.3,323.4,71.9,323.3,71.5"/>
	</g>
	<polygon class="st6" points="322.5,120.9 327.1,118.6 342.1,127.3 342,165.8 299.6,141.3 299.7,109.4 299.7,107.7 	"/>
	<polygon class="st6" points="299.6,150.9 342,175.4 342,171.6 299.6,147.2 	"/>
	<polygon class="st6" points="299.6,155 299.6,158.8 322.1,171.8 322.1,168 	"/>
	<polygon class="st16" points="299.6,150.9 342,175.4 342,171.6 299.6,147.2 	"/>
	<polygon class="st16" points="299.6,155 299.6,158.8 322.1,171.8 322.1,168 	"/>
	<g class="st17">
		<polygon class="st2" points="322.5,120.9 327.1,118.6 342.1,127.3 342,165.8 299.6,141.3 299.7,109.4 299.7,107.7 		"/>
		<polygon class="st2" points="299.6,150.9 342,175.4 342,171.6 299.6,147.2 		"/>
		<polygon class="st2" points="299.6,155 299.6,158.8 322.1,171.8 322.1,168 		"/>
		<polygon class="st8" points="299.6,150.9 342,175.4 342,171.6 299.6,147.2 		"/>
		<polygon class="st8" points="299.6,155 299.6,158.8 322.1,171.8 322.1,168 		"/>
	</g>
	<g class="st18">
		<path class="st2" d="M333.3,143.8l0.3,0.8l-0.3,0.4c-2.5,4-7.2,4.5-12.5,1.4c-2-1.2-3.8-2.6-5.4-4.3l-5,2.9l-1.6-2.8l4.5-2.6
			c-2.1-2.7-3.8-5.8-5-9.1l-0.3-0.8l0.3-0.4c2.5-4,7.2-4.5,12.5-1.4c2,1.2,3.8,2.6,5.4,4.3l5-2.9l1.6,2.8l-4.5,2.6
			C330.5,137.5,332.1,140.5,333.3,143.8z M320.8,143.9c4.3,2.5,8.1,2.2,10.2-0.8c-1-2.7-2.5-5.2-4.3-7.4l-1.7,1
			c0.5,1.1,0.7,2.2,0.7,3.3c0,3.1-2.2,4.3-4.9,2.8c-1-0.6-1.8-1.4-2.5-2.3l-1.1,0.6C318.3,142.2,319.5,143.1,320.8,143.9
			 M314.9,138.7l1.7-1c-0.4-1.1-0.7-2.2-0.7-3.4c0-3.1,2.2-4.3,4.9-2.8c1,0.6,1.8,1.4,2.5,2.3l1.1-0.6c-1.1-1.1-2.3-2-3.6-2.7
			c-4.3-2.5-8.1-2.2-10.2,0.8C311.7,134,313.1,136.5,314.9,138.7 M318.4,136.7l3.3-1.9c-0.3-0.3-0.5-0.5-0.9-0.7
			c-1.4-0.8-2.6-0.2-2.6,1.5C318.2,136,318.3,136.4,318.4,136.7 M323.3,137.6l-3.3,1.9c0.3,0.3,0.5,0.5,0.9,0.7
			c1.4,0.8,2.6,0.2,2.6-1.5C323.5,138.3,323.4,138,323.3,137.6"/>
	</g>
	<polygon class="st6" points="383.7,90.2 388.3,87.9 403.3,96.6 403.2,135.1 360.8,110.6 360.9,78.7 360.9,77 	"/>
	<polygon class="st6" points="360.8,120.2 403.2,144.7 403.2,140.9 360.8,116.4 	"/>
	<polygon class="st6" points="360.8,124.3 360.8,128.1 383.3,141 383.3,137.3 	"/>
	<polygon class="st16" points="360.8,120.2 403.2,144.7 403.2,140.9 360.8,116.4 	"/>
	<polygon class="st16" points="360.8,124.3 360.8,128.1 383.3,141 383.3,137.3 	"/>
	<g class="st17">
		<polygon class="st2" points="383.7,90.2 388.3,87.9 403.3,96.6 403.2,135.1 360.8,110.6 360.9,78.7 360.9,77 		"/>
		<polygon class="st2" points="360.8,120.2 403.2,144.7 403.2,140.9 360.8,116.4 		"/>
		<polygon class="st2" points="360.8,124.3 360.8,128.1 383.3,141 383.3,137.3 		"/>
		<polygon class="st8" points="360.8,120.2 403.2,144.7 403.2,140.9 360.8,116.4 		"/>
		<polygon class="st8" points="360.8,124.3 360.8,128.1 383.3,141 383.3,137.3 		"/>
	</g>
	<g class="st18">
		<path class="st2" d="M394.5,113.1l0.3,0.8l-0.3,0.4c-2.5,4-7.2,4.5-12.5,1.4c-2-1.2-3.8-2.6-5.4-4.3l-5,2.9l-1.6-2.8l4.5-2.6
			c-2.1-2.7-3.8-5.8-5-9.1l-0.3-0.8l0.3-0.4c2.5-4,7.2-4.5,12.5-1.4c2,1.2,3.8,2.6,5.4,4.3l5-2.9l1.6,2.8l-4.5,2.6
			C391.7,106.8,393.3,109.8,394.5,113.1z M382,113.1c4.3,2.5,8.1,2.2,10.2-0.8c-1-2.7-2.5-5.2-4.3-7.4l-1.7,1
			c0.5,1.1,0.7,2.2,0.7,3.3c0,3.1-2.2,4.3-4.9,2.8c-1-0.6-1.8-1.4-2.5-2.3l-1.1,0.6C379.4,111.4,380.7,112.3,382,113.1 M376.1,108
			l1.7-1c-0.5-1.1-0.7-2.2-0.7-3.3c0-3.1,2.2-4.3,4.9-2.8c1,0.6,1.8,1.4,2.5,2.3l1.1-0.6c-1.1-1.1-2.3-2-3.7-2.7
			c-4.3-2.5-8.1-2.2-10.2,0.8C372.8,103.3,374.3,105.8,376.1,108 M379.5,106l3.3-1.9c-0.3-0.3-0.5-0.5-0.9-0.7
			c-1.4-0.8-2.6-0.2-2.6,1.5C379.4,105.3,379.4,105.6,379.5,106 M384.4,106.9l-3.3,1.9c0.3,0.3,0.5,0.5,0.9,0.7
			c1.4,0.8,2.6,0.2,2.6-1.5C384.6,107.6,384.5,107.2,384.4,106.9"/>
	</g>
	<polygon class="st6" points="383.7,156.2 388.3,154 403.3,162.6 403.2,201.1 360.8,176.6 360.9,144.8 360.9,143.1 	"/>
	<polygon class="st6" points="360.8,186.3 403.2,210.8 403.2,207 360.8,182.5 	"/>
	<polygon class="st6" points="360.8,190.4 360.8,194.1 383.3,207.1 383.3,203.3 	"/>
	<polygon class="st16" points="360.8,186.3 403.2,210.8 403.2,207 360.8,182.5 	"/>
	<polygon class="st16" points="360.8,190.4 360.8,194.1 383.3,207.1 383.3,203.3 	"/>
	<g class="st17">
		<polygon class="st2" points="383.7,156.2 388.3,154 403.3,162.6 403.2,201.1 360.8,176.6 360.9,144.8 360.9,143.1 		"/>
		<polygon class="st2" points="360.8,186.3 403.2,210.8 403.2,207 360.8,182.5 		"/>
		<polygon class="st2" points="360.8,190.4 360.8,194.1 383.3,207.1 383.3,203.3 		"/>
		<polygon class="st8" points="360.8,186.3 403.2,210.8 403.2,207 360.8,182.5 		"/>
		<polygon class="st8" points="360.8,190.4 360.8,194.1 383.3,207.1 383.3,203.3 		"/>
	</g>
	<g class="st18">
		<path class="st2" d="M394.5,179.2l0.3,0.8l-0.3,0.4c-2.5,4-7.2,4.5-12.5,1.4c-2-1.2-3.8-2.6-5.4-4.3l-5,2.9l-1.6-2.8l4.5-2.6
			c-2.1-2.8-3.8-5.8-5-9.1l-0.3-0.8l0.3-0.4c2.5-4,7.2-4.5,12.5-1.4c2,1.2,3.8,2.6,5.4,4.3l5-2.9l1.6,2.8l-4.5,2.6
			C391.7,172.8,393.3,175.9,394.5,179.2z M382,179.2c4.3,2.5,8.1,2.2,10.2-0.8c-1-2.7-2.5-5.2-4.3-7.4l-1.7,1
			c0.5,1.1,0.7,2.2,0.7,3.3c0,3.1-2.2,4.3-4.9,2.8c-1-0.6-1.8-1.4-2.5-2.3l-1.1,0.6C379.5,177.5,380.7,178.4,382,179.2 M376.1,174.1
			l1.7-1c-0.5-1.1-0.7-2.2-0.7-3.3c0-3.1,2.2-4.3,4.9-2.8c1,0.6,1.8,1.4,2.5,2.3l1.1-0.6c-1.1-1.1-2.3-2-3.6-2.7
			c-4.3-2.5-8.1-2.2-10.2,0.8C372.8,169.3,374.3,171.8,376.1,174.1 M379.5,172.1l3.3-1.9c-0.3-0.3-0.5-0.5-0.9-0.7
			c-1.4-0.8-2.6-0.2-2.6,1.5C379.4,171.4,379.4,171.7,379.5,172.1 M384.5,172.9l-3.3,1.9c0.3,0.3,0.5,0.5,0.9,0.7
			c1.4,0.8,2.6,0.2,2.6-1.5C384.6,173.6,384.6,173.3,384.5,172.9"/>
	</g>
	<polygon class="st6" points="444.9,125.5 449.5,123.2 464.5,131.9 464.4,170.4 422,145.9 422.1,114.1 422.1,112.3 	"/>
	<polygon class="st6" points="422,155.5 464.4,180 464.4,176.3 422,151.8 	"/>
	<polygon class="st6" points="422,159.6 422,163.4 444.5,176.4 444.5,172.6 	"/>
	<polygon class="st16" points="422,155.5 464.4,180 464.4,176.3 422,151.8 	"/>
	<polygon class="st16" points="422,159.6 422,163.4 444.5,176.4 444.5,172.6 	"/>
	<g class="st17">
		<polygon class="st2" points="444.9,125.5 449.5,123.2 464.5,131.9 464.4,170.4 422,145.9 422.1,114.1 422.1,112.3 		"/>
		<polygon class="st2" points="422,155.5 464.4,180 464.4,176.3 422,151.8 		"/>
		<polygon class="st2" points="422,159.6 422,163.4 444.5,176.4 444.5,172.6 		"/>
		<polygon class="st8" points="422,155.5 464.4,180 464.4,176.3 422,151.8 		"/>
		<polygon class="st8" points="422,159.6 422,163.4 444.5,176.4 444.5,172.6 		"/>
	</g>
	<g class="st18">
		<path class="st2" d="M455.7,148.4l0.3,0.8l-0.3,0.4c-2.5,4-7.2,4.5-12.5,1.4c-2-1.2-3.8-2.6-5.4-4.3l-5,2.9l-1.6-2.8l4.5-2.6
			c-2.1-2.7-3.8-5.8-5-9.1l-0.3-0.8l0.3-0.4c2.5-4,7.2-4.5,12.5-1.4c2,1.2,3.8,2.6,5.4,4.3l5-2.9l1.6,2.8l-4.5,2.6
			C452.9,142.1,454.5,145.2,455.7,148.4z M443.2,148.4c4.3,2.5,8.1,2.2,10.2-0.8c-1-2.7-2.5-5.2-4.3-7.4l-1.7,1
			c0.5,1.1,0.7,2.2,0.7,3.3c0,3.1-2.2,4.3-4.9,2.8c-1-0.6-1.8-1.4-2.5-2.3l-1.1,0.6C440.6,146.7,441.9,147.7,443.2,148.4
			 M437.3,143.3l1.7-1c-0.5-1.1-0.7-2.2-0.7-3.3c0-3.1,2.2-4.3,4.9-2.8c1,0.6,1.8,1.4,2.5,2.3l1.1-0.6c-1.1-1.1-2.3-2-3.6-2.7
			c-4.3-2.5-8.1-2.2-10.2,0.8C434,138.5,435.5,141,437.3,143.3 M440.7,141.3l3.3-1.9c-0.3-0.3-0.5-0.5-0.9-0.7
			c-1.4-0.8-2.6-0.2-2.6,1.5C440.6,140.6,440.6,140.9,440.7,141.3 M445.7,142.2l-3.3,1.9c0.3,0.3,0.5,0.5,0.9,0.7
			c1.4,0.8,2.6,0.2,2.6-1.5C445.8,142.9,445.7,142.5,445.7,142.2"/>
	</g>
	<polygon class="st6" points="444.9,191.6 449.5,189.3 464.5,198 464.4,236.5 422,212 422.1,180.1 422.1,178.4 	"/>
	<polygon class="st6" points="422,221.6 464.4,246.1 464.4,242.3 422,217.8 	"/>
	<polygon class="st6" points="422,225.7 422,229.5 444.5,242.4 444.5,238.7 	"/>
	<polygon class="st16" points="422,221.6 464.4,246.1 464.4,242.3 422,217.8 	"/>
	<polygon class="st16" points="422,225.7 422,229.5 444.5,242.4 444.5,238.7 	"/>
	<g class="st17">
		<polygon class="st2" points="444.9,191.6 449.5,189.3 464.5,198 464.4,236.5 422,212 422.1,180.1 422.1,178.4 		"/>
		<polygon class="st2" points="422,221.6 464.4,246.1 464.4,242.3 422,217.8 		"/>
		<polygon class="st2" points="422,225.7 422,229.5 444.5,242.4 444.5,238.7 		"/>
		<polygon class="st8" points="422,221.6 464.4,246.1 464.4,242.3 422,217.8 		"/>
		<polygon class="st8" points="422,225.7 422,229.5 444.5,242.4 444.5,238.7 		"/>
	</g>
	<g class="st18">
		<path class="st2" d="M455.7,214.5l0.3,0.8l-0.3,0.4c-2.5,4-7.2,4.5-12.5,1.4c-2-1.2-3.8-2.6-5.4-4.3l-5,2.9l-1.6-2.8l4.5-2.6
			c-2.1-2.8-3.8-5.8-5-9.1l-0.3-0.8l0.3-0.4c2.5-4,7.2-4.5,12.5-1.4c2,1.2,3.8,2.6,5.4,4.3l5-2.9l1.6,2.8l-4.5,2.6
			C452.9,208.2,454.5,211.2,455.7,214.5z M443.2,214.6c4.3,2.5,8.1,2.2,10.2-0.8c-1-2.7-2.5-5.2-4.3-7.4l-1.7,1
			c0.5,1.1,0.7,2.2,0.7,3.3c0,3.1-2.2,4.3-4.9,2.8c-1-0.6-1.8-1.4-2.5-2.3l-1.1,0.6C440.6,212.9,441.9,213.8,443.2,214.6
			 M437.3,209.4l1.7-1c-0.5-1.1-0.7-2.2-0.7-3.3c0-3.1,2.2-4.3,4.9-2.8c1,0.6,1.8,1.4,2.5,2.3l1.1-0.6c-1.1-1.1-2.3-2-3.6-2.7
			c-4.3-2.5-8.1-2.2-10.2,0.8C434,204.7,435.5,207.2,437.3,209.4 M440.7,207.4l3.3-1.9c-0.3-0.3-0.5-0.5-0.9-0.7
			c-1.4-0.8-2.6-0.2-2.6,1.5C440.6,206.7,440.6,207.1,440.7,207.4 M445.7,208.3l-3.3,1.9c0.3,0.3,0.5,0.5,0.9,0.7
			c1.4,0.8,2.6,0.2,2.6-1.5C445.8,209,445.7,208.6,445.7,208.3"/>
	</g>
	<polygon class="st6" points="194.2,78.6 194.1,73.6 194.1,59.6 191.3,58 141.9,86.5 133.9,105.1 67.4,143.5 67.7,241.6 70.5,243.2 
		194.4,171.6 	"/>
	<polygon class="st8" points="67.4,143.5 70.2,145.1 70.5,243.2 67.7,241.6 	"/>
	<polygon class="st19" points="133.9,105.1 136.7,106.8 70.2,145.1 67.4,143.5 	"/>
	<polygon class="st8" points="141.9,86.5 144.7,88.1 136.7,106.8 133.9,105.1 	"/>
	<polygon class="st19" points="191.3,58 194.1,59.6 144.7,88.1 141.9,86.5 	"/>
	<polygon class="st6" points="197.7,80.9 197.7,75.9 195,74.1 71.1,145.7 71.3,243.7 74.1,245.6 198,174 	"/>
	<polygon class="st8" points="71.1,145.7 73.8,147.5 74.1,245.6 71.3,243.7 	"/>
	<polygon class="st19" points="197.7,75.9 195,74.1 71.1,145.7 73.8,147.5 	"/>
	<polygon class="st19" points="198,174 197.7,80.9 197.7,75.9 195,74.1 194.1,74.6 194.1,73.6 194.1,59.6 191.3,58 141.9,86.5 
		133.9,105.1 67.4,143.5 67.7,241.6 70.5,243.2 70.5,243.2 70.5,243.2 71.3,242.7 71.3,243.7 74.1,245.6 74.1,245.6 74.1,245.6 	"/>
	<g class="st18">
		<path class="st2" d="M170.4,141c-2.7-4.6-7.3-7.7-12.6-8.4l11.3-19.6l-4-2.3l-12.6,21.9l-4.5,7.7l-2.8,4.8l-4.2,7.4l-8.3,14.4
			l-4.3,7.4l-4.3,7.5c-4.4-0.3-8.4-2.5-10.9-6.1c5.4-13.7,14.9-25.4,25.6-31.6c2.8-1.7,5.9-3,9.2-3.7l4.5-7.7
			c-4.8,0.7-9.5,2.3-13.7,4.9c-13.4,7.8-25.2,22.7-31.4,40l-0.7,1.9l0.7,1.1c2.7,4.6,7.3,7.6,12.6,8.4l-11.3,19.6l4.1,2.3l12.6-21.9
			c4.8-0.7,9.5-2.3,13.7-4.9c13.4-7.8,25.2-22.7,31.4-40l0.7-1.9L170.4,141z M145.1,154.7c0.3,0.7,0.4,1.5,0.4,2.3
			c-0.2,4.6-2.7,8.8-6.5,11.3c-0.7,0.4-1.4,0.7-2.1,0.8L145.1,154.7z M139,177.4c-2.8,1.7-5.9,3-9.2,3.7l2.7-4.8l0,0
			c2.3,0.2,4.5-0.4,6.4-1.6c6.8-3.9,12.2-13.4,12.2-21.2c0.1-2.3-0.5-4.5-1.8-6.3l4.3-7.5c4.4,0.3,8.4,2.5,10.9,6.1
			C159.2,159.5,149.8,171.2,139,177.4z"/>
		<path class="st2" d="M138.9,146.6c-6.8,3.9-12.3,13.4-12.2,21.2c-0.1,2.3,0.5,4.5,1.8,6.3l4.3-7.4c-0.3-0.7-0.4-1.5-0.4-2.3
			c0.2-4.6,2.7-8.8,6.5-11.3c0.7-0.4,1.4-0.7,2.1-0.8l4.2-7.4C143.1,144.8,140.8,145.3,138.9,146.6z"/>
	</g>
	<polygon class="st6" points="250,119.7 250,126.9 249,126.3 249,123.2 247.9,122.6 247.9,125.7 246.9,125.1 246.9,117.9 
		247.9,118.4 247.9,121.5 249,122.2 249,119.1 	"/>
	<polygon class="st6" points="251.7,120.7 251.7,127.9 250.7,127.3 250.7,120.1 	"/>
	<path class="st6" d="M254,122c1,0.5,1.5,1.5,1.5,2.6v3.7c0,1.2-0.5,1.5-1.5,0.9l-1.6-0.9v-7.2L254,122z M254.5,127.8V124
		c0.1-0.4-0.1-0.8-0.5-1l-0.6-0.3v5.2l0.6,0.3C254.3,128.4,254.5,128.3,254.5,127.8"/>
	<path class="st6" d="M257.7,124.1c1,0.5,1.5,1.5,1.5,2.6v3.7c0,1.1-0.5,1.5-1.5,0.9l-1.6-0.9v-7.2L257.7,124.1z M258.2,129.9v-3.8
		c0.1-0.4-0.1-0.8-0.5-1l-0.6-0.3v5.2l0.6,0.3C258,130.5,258.2,130.4,258.2,129.9"/>
	<polygon class="st6" points="262.5,126.9 262.5,127.9 260.8,126.9 260.8,128.9 262.1,129.7 262.1,130.8 260.8,130 260.8,132.1 
		262.5,133.1 262.5,134.1 259.8,132.6 259.8,125.3 	"/>
	<polygon class="st6" points="266.3,129.1 266.2,136.3 265.2,135.7 264,129.8 264,129.8 264,135 263.1,134.5 263.1,127.2 
		264.4,127.9 265.4,132.9 265.4,132.9 265.4,128.5 	"/>
	<polygon class="st6" points="262.3,136.8 262.3,139.1 246.9,130.2 246.9,127.9 	"/>
	<polygon class="st6" points="257.5,138.1 257.5,140.4 246.9,134.2 246.9,131.9 	"/>
	<g class="st20">
		<polygon class="st2" points="250,119.7 250,126.9 249,126.3 249,123.2 247.9,122.6 247.9,125.7 246.9,125.1 246.9,117.9 
			247.9,118.4 247.9,121.5 249,122.2 249,119.1 		"/>
		<polygon class="st2" points="251.7,120.7 251.7,127.9 250.7,127.3 250.7,120.1 		"/>
		<path class="st2" d="M254,122c1,0.5,1.5,1.5,1.5,2.6v3.7c0,1.2-0.5,1.5-1.5,0.9l-1.6-0.9v-7.2L254,122z M254.5,127.8V124
			c0.1-0.4-0.1-0.8-0.5-1l-0.6-0.3v5.2l0.6,0.3C254.3,128.4,254.5,128.3,254.5,127.8"/>
		<path class="st2" d="M257.7,124.1c1,0.5,1.5,1.5,1.5,2.6v3.7c0,1.1-0.5,1.5-1.5,0.9l-1.6-0.9v-7.2L257.7,124.1z M258.2,129.9v-3.8
			c0.1-0.4-0.1-0.8-0.5-1l-0.6-0.3v5.2l0.6,0.3C258,130.5,258.2,130.4,258.2,129.9"/>
		<polygon class="st2" points="262.5,126.9 262.5,127.9 260.8,126.9 260.8,128.9 262.1,129.7 262.1,130.8 260.8,130 260.8,132.1 
			262.5,133.1 262.5,134.1 259.8,132.6 259.8,125.3 		"/>
		<polygon class="st2" points="266.3,129.1 266.2,136.3 265.2,135.7 264,129.8 264,129.8 264,135 263.1,134.5 263.1,127.2 
			264.4,127.9 265.4,132.9 265.4,132.9 265.4,128.5 		"/>
		<polygon class="st2" points="262.3,136.8 262.3,139.1 246.9,130.2 246.9,127.9 		"/>
		<polygon class="st2" points="257.5,138.1 257.5,140.4 246.9,134.2 246.9,131.9 		"/>
	</g>
	<polygon class="st6" points="248.5,170.5 248.5,172.9 237.5,166.6 237.5,164.1 	"/>
	<polygon class="st6" points="242.5,183.3 242.5,185.7 237.5,182.7 237.5,180.3 	"/>
	<g class="st20">
		<polygon class="st2" points="248.5,170.5 248.5,172.9 237.5,166.6 237.5,164.1 		"/>
		<polygon class="st2" points="242.5,183.3 242.5,185.7 237.5,182.7 237.5,180.3 		"/>
		<polygon class="st2" points="251.6,184.4 251.6,186.8 237.5,178.7 237.5,176.3 		"/>
		<polygon class="st2" points="257.1,183.6 257.1,186 237.5,174.6 237.5,172.2 		"/>
		<polygon class="st2" points="257.1,179.5 257.1,181.9 237.5,170.6 237.5,168.2 		"/>
	</g>
	<polygon class="st6" points="267.9,43.5 256.9,37.1 256.9,41.5 267.9,47.8 	"/>
	<polygon class="st6" points="256.8,57.7 261.9,60.6 261.9,58.2 256.9,55.3 	"/>
	<polygon class="st6" points="256.9,53.7 271,61.8 271,59.4 256.9,51.2 	"/>
	<polygon class="st6" points="256.9,49.6 276.5,60.9 276.5,58.5 256.9,47.2 	"/>
	<polygon class="st6" points="256.9,43.2 256.9,45.6 276.5,56.9 276.5,54.5 	"/>
	<polygon class="st6" points="267.9,67.3 256.9,60.9 256.9,63.3 267.9,69.7 	"/>
	<polygon class="st6" points="256.9,65 256.9,67.4 276.5,78.7 276.5,76.3 	"/>
	<polygon class="st6" points="256.9,69 256.9,71.4 263.4,75.2 263.4,72.8 	"/>
	<g class="st20">
		<polygon class="st2" points="267.9,43.5 256.9,37.1 256.9,41.5 267.9,47.8 		"/>
		<polygon class="st2" points="256.8,57.7 261.9,60.6 261.9,58.2 256.9,55.3 		"/>
		<polygon class="st2" points="256.9,53.7 271,61.8 271,59.4 256.9,51.2 		"/>
		<polygon class="st2" points="256.9,49.6 276.5,60.9 276.5,58.5 256.9,47.2 		"/>
		<polygon class="st2" points="256.9,43.2 256.9,45.6 276.5,56.9 276.5,54.5 		"/>
		<polygon class="st2" points="267.9,67.3 256.9,60.9 256.9,63.3 267.9,69.7 		"/>
		<polygon class="st2" points="256.9,65 256.9,67.4 276.5,78.7 276.5,76.3 		"/>
		<polygon class="st2" points="256.9,69 256.9,71.4 263.4,75.2 263.4,72.8 		"/>
	</g>
	<polygon class="st6" points="201.4,129 182.2,118.1 182.4,117.6 201.4,128.4 239.5,106.5 258.7,117.6 258.4,118 239.5,107.1 	"/>
	<path class="st6" d="M258.9,115.7c1.1,0.7,1.8,1.9,1.9,3.2c0,1.2-0.8,1.7-1.9,1.1c-1.1-0.7-1.8-1.9-1.9-3.2
		C257,115.6,257.9,115.1,258.9,115.7z"/>
	<polygon class="st6" points="233.6,171.8 233.1,171.8 233.1,121.3 240.6,125.7 240.3,126.2 233.6,122.3 	"/>
	<path class="st6" d="M241.6,124.4c1.1,0.7,1.8,1.9,1.9,3.2c0,1.2-0.8,1.7-1.9,1.1c-1.1-0.7-1.8-1.9-1.9-3.2
		C239.7,124.3,240.6,123.8,241.6,124.4z"/>
	
		<ellipse transform="matrix(0.8646 -0.5024 0.5024 0.8646 -54.7342 140.4821)" class="st6" cx="233.3" cy="171.8" rx="1.5" ry="2.6"/>
	<polygon class="st6" points="28.9,180.2 56,164.5 56,175.3 28.9,191 	"/>
	<polygon class="st6" points="28.9,196.7 56,181 56,191.8 28.9,207.5 	"/>
	<polygon class="st6" points="28.9,213.2 56,197.5 56,208.3 28.9,224 	"/>
	<polygon class="st6" points="28.9,229.7 56,214 56,224.8 28.9,240.5 	"/>
	<polygon class="st6" points="28.9,246.2 56,230.6 56,241.4 28.9,257 	"/>
	<g class="st20">
		<polygon class="st2" points="28.9,180.2 56,164.5 56,175.3 28.9,191 		"/>
		<polygon class="st2" points="28.9,196.7 56,181 56,191.8 28.9,207.5 		"/>
		<polygon class="st2" points="28.9,213.2 56,197.5 56,208.3 28.9,224 		"/>
		<polygon class="st2" points="28.9,229.7 56,214 56,224.8 28.9,240.5 		"/>
		<polygon class="st2" points="28.9,246.2 56,230.6 56,241.4 28.9,257 		"/>
	</g>
	<polygon class="st6" points="289.5,132.9 281.6,128.3 281.6,50.7 289.8,55.4 289.5,55.8 282.1,51.6 282.1,128 289.8,132.4 	"/>
	<path class="st6" d="M290,53.8c1.1,0.7,1.8,1.9,1.9,3.2c0,1.2-0.8,1.7-1.9,1.1c-1.1-0.7-1.8-1.9-1.9-3.2
		C288.1,53.7,289,53.2,290,53.8z"/>
	<path class="st6" d="M290,130.5c1.1,0.7,1.8,1.9,1.9,3.2c0,1.2-0.8,1.7-1.9,1.1c-1.1-0.7-1.8-1.9-1.9-3.2
		C288.1,130.4,289,129.9,290,130.5z"/>
	<polygon class="st6" points="99.8,97.6 99.8,98.8 30.8,138.7 30.8,137.5 	"/>
	<polygon class="st6" points="30.8,143.9 30.8,145.1 52.7,132.4 52.7,131.2 	"/>
	<polygon class="st6" points="72.4,87.8 72.4,89 89.7,79.1 89.7,77.9 	"/>
	<polygon class="st6" points="30.8,111.8 30.8,113 61.6,95.2 61.6,94.1 	"/>
	<polygon class="st6" points="30.8,118.7 30.8,119.8 84.6,88.8 84.6,87.6 	"/>
	<polygon class="st6" points="168,32.8 155.6,40 155.6,41.2 168,34 	"/>
	<polygon class="st6" points="99.4,72.3 99.4,73.5 129.6,56.1 129.6,54.9 	"/>
	<polygon class="st6" points="136.7,50.9 136.7,52 146.6,46.3 146.6,45.2 	"/>
	<polygon class="st6" points="464,114.8 464,116 442.1,103.3 442.1,102.2 	"/>
	<polygon class="st6" points="422.4,58.8 422.4,60 405,50 405,48.8 	"/>
	<polygon class="st6" points="464,82.8 464,83.9 433.1,66.2 433.1,65 	"/>
	<polygon class="st6" points="464,89.6 464,90.8 410.1,59.7 410.1,58.5 	"/>
	<polygon class="st6" points="464,108.4 424,85.3 424,86.5 464,109.6 	"/>
	<polygon class="st6" points="418.6,311.5 423.2,309.2 438.4,318 438.3,357 395.4,332.2 395.5,299.9 395.5,298.2 	"/>
	<polygon class="st6" points="395.4,342 438.3,366.8 438.3,362.9 395.4,338.1 	"/>
	<polygon class="st6" points="395.4,346.1 395.4,349.9 418.1,363 418.1,359.2 	"/>
	<polygon class="st16" points="395.4,342 438.3,366.8 438.3,362.9 395.4,338.1 	"/>
	<polygon class="st16" points="395.4,346.1 395.4,349.9 418.1,363 418.1,359.2 	"/>
	<g class="st17">
		<polygon class="st2" points="418.6,311.5 423.2,309.2 438.4,318 438.3,357 395.4,332.2 395.5,299.9 395.5,298.2 		"/>
		<polygon class="st2" points="395.4,342 438.3,366.8 438.3,362.9 395.4,338.1 		"/>
		<polygon class="st2" points="395.4,346.1 395.4,349.9 418.1,363 418.1,359.2 		"/>
		<polygon class="st8" points="395.4,342 438.3,366.8 438.3,362.9 395.4,338.1 		"/>
		<polygon class="st8" points="395.4,346.1 395.4,349.9 418.1,363 418.1,359.2 		"/>
	</g>
	<g class="st18">
		<path class="st2" d="M429.5,334.8l0.3,0.8l-0.3,0.5c-2.5,4-7.3,4.6-12.7,1.5c-2-1.2-3.9-2.7-5.5-4.4l-5.1,2.9l-1.6-2.8l4.6-2.6
			c-2.1-2.8-3.8-5.9-5-9.2l-0.3-0.8l0.3-0.5c2.5-4,7.3-4.6,12.7-1.5c2,1.2,3.9,2.7,5.5,4.4l5.1-2.9l1.6,2.8l-4.6,2.6
			C426.6,328.4,428.3,331.5,429.5,334.8z M416.8,334.8c4.3,2.5,8.2,2.2,10.4-0.8c-1.1-2.7-2.5-5.2-4.4-7.5l-1.8,1
			c0.5,1.1,0.7,2.2,0.7,3.4c0,3.1-2.2,4.4-5,2.8c-1-0.6-1.9-1.4-2.6-2.3l-1.1,0.6C414.3,333.1,415.5,334,416.8,334.8 M410.9,329.6
			l1.8-1c-0.5-1.1-0.7-2.2-0.7-3.4c0-3.1,2.2-4.4,5-2.8c1,0.6,1.9,1.4,2.6,2.3l1.1-0.6c-1.1-1.1-2.3-2-3.7-2.8
			c-4.3-2.5-8.2-2.2-10.4,0.8C407.6,324.8,409.1,327.3,410.9,329.6 M414.4,327.6l3.4-1.9c-0.3-0.3-0.5-0.5-0.9-0.7
			c-1.5-0.8-2.6-0.2-2.6,1.5C414.2,326.9,414.3,327.2,414.4,327.6 M419.4,328.5l-3.4,1.9c0.3,0.3,0.5,0.5,0.9,0.7
			c1.5,0.8,2.6,0.2,2.6-1.5C419.5,329.2,419.5,328.9,419.4,328.5"/>
	</g>
	<polygon class="st6" points="464.6,333.9 452.2,326.7 452.2,331.6 464.6,338.8 	"/>
	<polygon class="st6" points="452.2,349.8 457.9,353.1 457.9,350.4 452.2,347.1 	"/>
	<polygon class="st6" points="452.2,345.3 468,354.4 468.1,351.7 452.2,342.6 	"/>
	<polygon class="st6" points="452.2,340.7 474.3,353.5 474.3,350.8 452.2,338 	"/>
	<polygon class="st6" points="452.2,333.5 452.2,336.2 474.3,348.9 474.3,346.2 	"/>
	<polygon class="st6" points="464.6,360.6 452.2,353.5 452.2,356.2 464.6,363.3 	"/>
	<polygon class="st6" points="452.2,358 452.2,360.7 474.3,373.4 474.3,370.7 	"/>
	<polygon class="st6" points="452.2,362.5 452.2,365.2 459.5,369.5 459.5,366.8 	"/>
	<g class="st20">
		<polygon class="st2" points="464.6,333.9 452.2,326.7 452.2,331.6 464.6,338.8 		"/>
		<polygon class="st2" points="452.2,349.8 457.9,353.1 457.9,350.4 452.2,347.1 		"/>
		<polygon class="st2" points="452.2,345.3 468,354.4 468.1,351.7 452.2,342.6 		"/>
		<polygon class="st2" points="452.2,340.7 474.3,353.5 474.3,350.8 452.2,338 		"/>
		<polygon class="st2" points="452.2,333.5 452.2,336.2 474.3,348.9 474.3,346.2 		"/>
		<polygon class="st2" points="464.6,360.6 452.2,353.5 452.2,356.2 464.6,363.3 		"/>
		<polygon class="st2" points="452.2,358 452.2,360.7 474.3,373.4 474.3,370.7 		"/>
		<polygon class="st2" points="452.2,362.5 452.2,365.2 459.5,369.5 459.5,366.8 		"/>
	</g>
	<path class="st6" d="M448.1,325.7c1,0.6,1.6,1.7,1.6,2.8c0,1-0.7,1.5-1.6,0.9c-1-0.6-1.6-1.7-1.6-2.8
		C446.5,325.6,447.2,325.2,448.1,325.7z"/>
	<path class="st6" d="M421,302.8c1,0.6,1.6,1.7,1.6,2.8c0,1-0.7,1.5-1.6,0.9c-1-0.6-1.6-1.7-1.6-2.8
		C419.3,302.7,420.1,302.3,421,302.8z"/>
	<polygon class="st6" points="448.2,327.8 448,327.4 462.3,319.1 429.3,300.1 421.1,304.9 420.9,304.5 429.3,299.6 463.2,319.1 	"/>
	<polygon class="st6" points="251.6,184.4 251.6,186.8 237.5,178.7 237.5,176.3 	"/>
	<polygon class="st6" points="257.1,183.6 257.1,186 237.5,174.6 237.5,172.2 	"/>
	<polygon class="st6" points="257.1,179.5 257.1,181.9 237.5,170.6 237.5,168.2 	"/>
</g>
<g id="freepik--Character--inject-561">
	<path class="st4" d="M292.3,381.5L292.3,381.5l2.9,1.8h0l0,0c1.1,0.5,2.3,0.3,3.2-0.3c2.7-1.8,4.4-4.7,4.6-7.9
		c0.1-1.1-0.4-2.2-1.3-2.9l0,0l0,0l0,0l-0.8-0.5l27.4-11.1c0,0.7,0.4,1.3,1,1.6l-2.5,21.5v2.9c-2.2,1.8-3.6,4.5-3.8,7.4
		c-0.1,1.2,0.4,2.4,1.4,3l0,0l2.9,1.8h0.1l0,0c1.1,0.5,2.3,0.3,3.2-0.3c2.7-1.7,4.4-4.7,4.6-7.9c0.1-1.1-0.4-2.2-1.3-2.9l0,0l0,0
		l0,0l-2.9-1.8l0,0c-0.5-0.3-1-0.4-1.5-0.3l3.2-22.4l0,0c0.7,0,1.4-0.1,2-0.3l0,0l25.9,14l-1.5,1l0,0l0,0l0,0
		c-0.9,0.7-1.4,1.8-1.3,2.9c0.2,3.2,1.9,6.2,4.6,7.9c0.9,0.7,2.2,0.8,3.2,0.3l0,0h0.1l2.9-1.8l0,0c1-0.6,1.6-1.8,1.4-3
		c-0.2-2.8-1.5-5.5-3.7-7.3v-4.5L342,357.8l12.7-3.2c-0.8,1.4-1.3,2.9-1.4,4.5c-0.1,1.2,0.4,2.4,1.4,3l0,0l2.9,1.8h0.1l0,0
		c1.1,0.5,2.3,0.3,3.2-0.3c2.7-1.7,4.4-4.7,4.6-7.9c0.1-1.1-0.4-2.2-1.3-2.9l0,0l0,0l0,0l-3.2-1.9l0,0c-0.7-0.4-1.4-0.4-2.2-0.2V350
		l-1.5-0.5l-20.7,1.1v-3.6c0.2-0.1,0.4-0.2,0.6-0.3c1.1-0.5,1.9-1.6,2-2.8v-24h-13.8v23.9c0.1,1.2,0.9,2.3,2,2.8
		c0.2,0.1,0.4,0.2,0.7,0.3v3.1l-15-3.2l-0.7,0.3v2.8l0,0l0,0l-2.9,1.8l0,0l0,0l0,0c-0.9,0.7-1.4,1.8-1.3,2.9
		c0.1,2.1,0.9,4.2,2.2,5.8l-14.5,6.5v3.4c-0.2,0.1-0.4,0.2-0.6,0.3c-2.7,1.8-4.4,4.7-4.6,7.9C290.7,379.7,291.3,380.8,292.3,381.5z
		 M300.9,366l10.5-4.7l0,0l-14.1,6.3L300.9,366z M319.4,354.2l2.1,1.1l-1.5,0.7C319.9,355.4,319.7,354.8,319.4,354.2L319.4,354.2z
		 M328.2,353.9l-7.9,3.5l0,0L328.2,353.9z"/>
	<path class="st21" d="M361.7,356.7l2.3-3.9l-3-1.9l0,0c-1.1-0.5-2.3-0.4-3.3,0.3c-2.7,1.7-4.4,4.7-4.6,7.9c-0.1,1.2,0.4,2.4,1.4,3
		l0,0l2.9,1.9l2.4-4.1C360.7,358.9,361.3,357.8,361.7,356.7z"/>
	<path class="st10" d="M360.7,353.1c2.5-1.5,4.6-0.3,4.6,2.6c-0.2,3.2-1.9,6.2-4.6,7.9c-2.5,1.5-4.6,0.3-4.6-2.6
		C356.3,357.7,358,354.8,360.7,353.1z"/>
	<path class="st21" d="M311.8,355.6l-2.3-3.9l3-1.9l0,0c1.1-0.5,2.3-0.4,3.3,0.3c2.7,1.7,4.4,4.7,4.6,7.9c0.1,1.2-0.4,2.4-1.4,3l0,0
		l-2.9,1.8l-2.4-4.1C312.8,357.7,312.2,356.7,311.8,355.6z"/>
	<path class="st10" d="M312.8,351.9c-2.5-1.5-4.6-0.3-4.6,2.6c0.2,3.2,1.9,6.1,4.6,7.9c2.5,1.5,4.6,0.3,4.6-2.6
		C317.2,356.6,315.5,353.7,312.8,351.9z"/>
	<path class="st3" d="M328.2,345.9h8.5v14.6l0,0c-0.1,0.8-0.6,1.4-1.2,1.7c-1.9,1-4.1,1-6,0c-0.7-0.3-1.2-1-1.2-1.7l0,0V345.9z"/>
	<polygon class="st4" points="358.9,350 358.9,353.4 336.6,359 336.6,351.7 	"/>
	<polygon class="st15" points="358.9,350 357.3,349.4 336.6,350.5 336.6,351.7 	"/>
	<path class="st21" d="M361.1,381.5l-2.3-3.9l3-1.9l0,0c1.1-0.5,2.3-0.4,3.3,0.3c2.7,1.7,4.4,4.7,4.6,7.9c0.1,1.2-0.4,2.4-1.4,3l0,0
		l-2.9,1.9l-2.4-4.1C362.1,383.7,361.5,382.7,361.1,381.5z"/>
	<path class="st10" d="M362.1,377.9c-2.5-1.5-4.6-0.3-4.6,2.6c0.2,3.2,1.9,6.2,4.6,7.9c2.5,1.5,4.6,0.3,4.6-2.6
		C366.5,382.6,364.8,379.7,362.1,377.9z"/>
	<path class="st21" d="M331.5,391.5l2.3-3.9l-3-1.9l0,0c-1.1-0.5-2.3-0.4-3.3,0.3c-2.7,1.7-4.4,4.7-4.6,7.9c-0.1,1.2,0.4,2.4,1.4,3
		l0,0l2.9,1.9l2.4-4.1C330.5,393.7,331.1,392.6,331.5,391.5z"/>
	<path class="st10" d="M330.5,387.9c2.5-1.5,4.6-0.3,4.6,2.6c-0.2,3.2-1.9,6.2-4.6,7.9c-2.5,1.5-4.6,0.3-4.6-2.6
		C326.1,392.6,327.8,389.6,330.5,387.9z"/>
	<path class="st21" d="M299.4,376.1l2.3-3.9l-3-1.9l0,0c-1.1-0.5-2.3-0.4-3.3,0.3c-2.7,1.8-4.4,4.7-4.6,7.9c-0.1,1.2,0.4,2.4,1.4,3
		l0,0l2.9,1.9l2.4-4.1C298.4,378.3,299,377.2,299.4,376.1z"/>
	<path class="st10" d="M298.4,372.5c2.5-1.5,4.6-0.3,4.6,2.6c-0.2,3.2-1.9,6.1-4.6,7.9c-2.5,1.5-4.6,0.3-4.6-2.6
		C294,377.2,295.7,374.2,298.4,372.5z"/>
	<polygon class="st4" points="364.2,373.1 364.2,378.7 334.4,362.6 334.4,354.8 	"/>
	<polygon class="st15" points="365.9,372.1 336.1,354.4 334.4,354.8 364.2,373.1 	"/>
	<polygon class="st14" points="365.9,377.7 364.2,378.7 364.2,373.1 365.9,372.1 	"/>
	<polygon class="st4" points="332.5,354.8 328.8,383.6 328.8,388.8 332.5,362.9 	"/>
	<rect x="326.7" y="383.6" class="st14" width="2.1" height="5.1"/>
	<polygon class="st15" points="326.7,383.6 330,354.8 332.5,354.8 328.8,383.6 	"/>
	<polygon class="st4" points="297.2,367.7 297.2,373.1 328.2,360.5 328.2,353.9 	"/>
	<polygon class="st14" points="296,372.3 297.2,373.1 297.2,367.7 296,366.9 	"/>
	<polygon class="st15" points="300.9,366 297.2,367.7 296,366.9 328.2,352.4 328.2,353.9 	"/>
	<polygon class="st4" points="312.5,347 312.5,350.5 321.5,355.4 328.2,352.4 328.2,350.9 	"/>
	<polygon class="st15" points="312.5,347 313.2,346.7 328.2,350 328.2,350.9 	"/>
	<path class="st4" d="M325.5,319.8h13.9v23.9l0,0c-0.1,1.2-0.9,2.3-2,2.8c-3.1,1.6-6.7,1.6-9.8,0c-1.1-0.5-1.9-1.6-2-2.8l0,0
		L325.5,319.8z"/>
	<path class="st21" d="M270.8,281.4c0.7-1,1.6-1.9,2.6-2.5l5.2-2.7c0-18.5-2.7-16.7-7.8-23.9s2.7-11.8,8.6-8.6l0,0
		c0,0,32.9,9.7,41.6,1.1c10.8-10.6,6.3-37.4,5-47.9s0-17.7,2.9-20.8s7.1-7.6,20.7-1.9c0,0,36.7,15.9,54.7,24.8
		c4.2,0.9,8.1,2.9,11.3,5.8c0.9,0.7,1.6,1.7,2.1,2.7c0.5,1.1,0.3,2.3-0.4,3.3c-0.6,0.6-1.3,1-2.1,1l-22.7,83.8
		c-1.5,5.5-5.2,10.1-10.3,12.6l-39.6,20.1c-3.8,1.9-8.4,1.9-12.2-0.1l-56.6-30C268.1,294.8,267.6,286.2,270.8,281.4z"/>
	<path class="st22" d="M270.8,281.4c0.8,1.2,1.8,2.1,3,2.8l56.6,30c3.8,2,8.3,2.1,12.2,0.1l39.6-20.1c5.1-2.6,8.8-7.2,10.3-12.7
		l19.1-70.6l1,0.3c0.8,0.3,1.7,0.4,2.5,0.4h0.1l-22.7,83.8c-1.5,5.5-5.2,10.1-10.3,12.6l-39.6,20.1c-3.8,1.9-8.4,1.9-12.2-0.1
		l-56.6-30C268.1,294.8,267.6,286.2,270.8,281.4z"/>
	<path class="st21" d="M273.4,278.8l41-21l54,27.8c-1.8,0.4-3.5,0.8-5.3,1.1c-4.6,0.9-9.4,2-13.4,4.4s-7.3,6.7-7.3,11.5l1.4,11.1
		l0,0l-1.2,0.6c-3.8,1.9-8.4,1.9-12.2-0.1l-56.6-30c-1.2-0.7-2.2-1.7-3-2.8C271.5,280.3,272.4,279.4,273.4,278.8z"/>
	<path class="st21" d="M279.4,243.6c0,0,32.9,9.7,41.6,1.1c10.8-10.6,6.3-37.4,5-47.9s0-17.7,2.9-20.8s7.1-7.6,20.7-1.9
		c-13.8,7.1-15.6,40.8-11.2,54.4c-10.8,11.1-10.1,28.4-10.3,36.4c0,0-28.1,6.9-42.8,14.9L279.4,243.6z"/>
	<path class="st10" d="M285.4,279.8l-6.7-3.6c0-18.5-2.7-16.7-7.8-23.9s2.7-11.8,8.6-8.6S287.6,256.6,285.4,279.8z"/>
	<path class="st10" d="M349.6,174.1c0,0,36.9,16,54.8,24.8l-1.3,6.6l-58.8-26.7C345.7,176.9,347.5,175.3,349.6,174.1z"/>
	<path class="st10" d="M338.4,228.5c-3.7-11.6-3-37.8,5.9-49.7l58.8,26.7l-13.4,67.3l-21.3,12.7l-40.2-20.7
		C328.4,256.8,327.6,239.6,338.4,228.5z"/>
	<path class="st10" d="M374.8,242c-1-0.6-1.8-0.1-1.8,1c0.1,1.3,0.7,2.4,1.8,3.1c1,0.6,1.8,0.1,1.8-1
		C376.5,243.9,375.9,242.7,374.8,242z"/>
	<path class="st10" d="M365.7,236.6c-1-0.6-1.8-0.1-1.8,1c0.1,1.3,0.7,2.4,1.8,3.1c1,0.6,1.8,0.1,1.8-1
		C367.4,238.5,366.8,237.3,365.7,236.6z"/>
	<path class="st10" d="M356.6,231.3c-1-0.6-1.8-0.1-1.8,1c0.1,1.3,0.7,2.4,1.8,3.1c1,0.6,1.8,0.1,1.8-1
		C358.3,233.2,357.7,232,356.6,231.3z"/>
	<path class="st10" d="M347.5,226c-1-0.6-1.8-0.1-1.8,1c0.1,1.3,0.7,2.4,1.8,3.1c1,0.6,1.8,0.1,1.8-1
		C349.2,227.9,348.6,226.7,347.5,226z"/>
	<path class="st21" d="M374.8,242c-1-0.6-1.8-0.1-1.8,1c0.1,1.3,0.7,2.4,1.8,3.1c1,0.6,1.8,0.1,1.8-1
		C376.5,243.9,375.9,242.7,374.8,242z"/>
	<path class="st21" d="M365.7,236.6c-1-0.6-1.8-0.1-1.8,1c0.1,1.3,0.7,2.4,1.8,3.1c1,0.6,1.8,0.1,1.8-1
		C367.4,238.5,366.8,237.3,365.7,236.6z"/>
	<path class="st21" d="M356.6,231.3c-1-0.6-1.8-0.1-1.8,1c0.1,1.3,0.7,2.4,1.8,3.1c1,0.6,1.8,0.1,1.8-1
		C358.3,233.2,357.7,232,356.6,231.3z"/>
	<path class="st21" d="M347.5,226c-1-0.6-1.8-0.1-1.8,1c0.1,1.3,0.7,2.4,1.8,3.1c1,0.6,1.8,0.1,1.8-1
		C349.2,227.9,348.6,226.7,347.5,226z"/>
	<path class="st22" d="M349.7,291.1c4-2.5,8.8-3.5,13.4-4.4c1.8-0.4,3.5-0.7,5.3-1.1c2.9-0.6,5.6-1.6,8.2-3
		c6.5-3.6,10.9-10.3,13-17.4s2.1-14.7,1.7-22.1s-1.4-14.8-1.1-22.2c0.1-4.3,0.8-8.9,3.7-12.1s7.9-4.3,12.3-3.7
		c1.4,0.2,2.9,0.5,4.3,1l2,2.3l-0.8,2.8l-19.1,70.6c-1.3,4.9-4.5,9.1-8.8,11.8c-0.5,0.3-1,0.6-1.5,0.9l-38.4,19.4l-1.4-11.1
		C342.4,297.8,345.6,293.6,349.7,291.1z"/>
	<path class="st21" d="M349.6,283.5c14-4,27.8-4.5,32.9-14.6s5.4-24,2.9-48.2c-0.3-3.1-0.2-6.3,0.2-9.4c1.5-9,6.9-12.9,13.2-13
		c6.2-0.1,12.2,2.1,16.8,6.3c0.9,0.7,1.6,1.7,2.1,2.7c0.5,1.1,0.3,2.3-0.4,3.3c-0.6,0.6-1.3,1-2.1,1H415c-0.8,0-1.7-0.1-2.5-0.4
		l-1-0.3c-1.7-0.5-3.4-1.2-5.1-1.6c-2.1-0.6-4.3-0.6-6.3,0c-2,0.8-3.5,2.5-4,4.5c-5.9,19.3,1.6,40.1-5,56.1
		c-5.5,14.5-24.3,20.5-37.5,24.8l0,0c1.3-0.5,2.4-1.3,3.3-2.4c1.4-2.1,1.1-4.9-0.5-6.7C354.6,283.9,352.1,283.1,349.6,283.5z"/>
	<path class="st10" d="M339.9,293.5c0.8-2.3,2-4.4,3.6-6.3c1.6-1.9,3.7-3.2,6.1-3.6c2.4-0.5,4.9,0.4,6.6,2.2
		c1.7,1.9,1.9,4.6,0.5,6.7c-0.9,1.1-2,1.9-3.3,2.4c-1.1,0.5-2.1,1-3.1,1.5c-2.6,1.8-4.5,4.4-5.3,7.5c-0.8,3-1.2,6.2-1.2,9.3v0.6
		l-6.6-3.6C337,304.4,337.9,298.7,339.9,293.5z"/>
	<path class="st22" d="M315.9,320.3c6.5-2.8,15.3-7.5,18.6-13.7s3-17.6,1.7-24.6l-52.1-14.5c-1.6,15.1-15.5,25-15.5,25L315.9,320.3z
		"/>
	<path class="st23" d="M214.9,370.6c0.2,5.1,0,11.1,0,11.1l3,0.2c2.9,0.2,5.4,2,6.4,4.7l0.1,0.2c0.5,1.4,2,2.2,3.5,1.7l0,0
		c0.7-0.2,1.4-0.8,1.7-1.5l1.5-12.8L214.9,370.6z"/>
	<path class="st21" d="M210.5,415c-7.8,3.3-19.6,4-24.6-4v2.1c4.9,7.9,16.8,7.3,24.6,4s6.1-8.7,13-11.6c2.5-0.9,4.9-2.4,6.8-4.3
		c0-0.6,0.1-1.4,0.2-2.3c-2,1.9-4.4,3.4-7,4.5C216.6,406.3,218.3,411.7,210.5,415z"/>
	<path class="st24" d="M230.6,391.8c-0.3-1.5-0.3-3.1,0-4.6c0.2-0.7,0.1-1.4-0.4-2l-0.6-0.6l-0.3,2.4c-0.7,1.4-2.3,2-3.7,1.3
		c-0.7-0.3-1.2-0.9-1.4-1.6l-0.1-0.2c-1-2.7-3.5-4.6-6.4-4.7l-3-0.2c-0.9,0-1.8,0.5-2.1,1.3c-3.1,7.5-10.9,15.8-16.9,19.6
		c-4.4-0.1-9.9,3.6-9.9,8v0.4c4.9,7.9,16.8,7.3,24.6,4s6.1-8.7,13-11.6c2.6-1.1,5-2.6,7-4.5C230.8,396.5,230.9,394.2,230.6,391.8z"
		/>
	<path class="st2" d="M215.5,398c0.4,0.4,1,0.3,1.4-0.1c0.3-0.3,0.3-0.8,0.1-1.1c-2.4-3.2-6.2-4.8-10.1-4.5c-0.4,0.5-0.8,1-1.3,1.5
		C209.3,393.6,212.6,394.4,215.5,398z"/>
	<path class="st2" d="M218.6,394.5c0.4,0.4,1,0.3,1.4-0.1c0.3-0.3,0.3-0.8,0.1-1.1c-2.5-3.2-6.5-5-10.6-4.6
		c-0.4,0.6-0.8,1.1-1.2,1.7C212.2,390.1,215.6,390.9,218.6,394.5z"/>
	<path class="st2" d="M212.4,401.3c0.4,0.4,1,0.3,1.4-0.1c0.3-0.3,0.3-0.8,0.1-1.1c-2.3-3.1-6-4.8-9.9-4.5c-0.5,0.5-1,1-1.5,1.5
		C206.3,396.7,210,398.3,212.4,401.3z"/>
	<path class="st2" d="M195.8,402.6c-4.4-0.1-9.9,3.6-9.9,8v0.4c4.9,7.8,16.5,7.3,24.2,4.1C209.6,404.5,199.3,402.5,195.8,402.6z"/>
	<path class="st2" d="M209.1,404.5c0.4,0.4,1,0.3,1.4-0.1c0.3-0.3,0.3-0.8,0.1-1.1c-2.3-3.1-6-4.8-9.9-4.5c-0.6,0.5-1.2,1.1-1.9,1.6
		C202.7,400.1,206.1,400.8,209.1,404.5z"/>
	<path class="st23" d="M266.9,380.4c0.2,5.1,0,11.1,0,11.1l3,0.2c2.9,0.2,5.4,2,6.4,4.7l0.1,0.2c0.5,1.4,2,2.2,3.5,1.7l0,0
		c0.7-0.2,1.4-0.8,1.7-1.5l1.5-12.8L266.9,380.4z"/>
	<path class="st21" d="M262.5,424.8c-7.8,3.3-19.6,4-24.6-4v2.2c4.9,7.9,16.8,7.3,24.6,4s6.1-8.7,13-11.6c2.5-0.9,4.9-2.4,6.8-4.3
		c0-0.6,0.1-1.4,0.2-2.3c-2,1.9-4.4,3.4-7,4.5C268.6,416.1,270.3,421.5,262.5,424.8z"/>
	<path class="st24" d="M282.6,401.7c-0.3-1.5-0.3-3.1,0-4.6c0.2-0.7,0.1-1.4-0.4-2l-0.6-0.6l-0.3,2.4c-0.3,0.7-0.9,1.2-1.7,1.5
		c-1.4,0.4-3-0.3-3.5-1.7l-0.1-0.2c-1-2.7-3.5-4.6-6.4-4.7l-3-0.2c-0.9-0.1-1.8,0.5-2.1,1.3c-3.1,7.5-10.9,15.8-16.9,19.6
		c-4.4-0.1-9.9,3.6-9.9,8v0.5c4.9,7.9,16.8,7.3,24.6,4s6.1-8.7,13-11.6c2.6-1.1,5-2.6,7-4.5C282.9,406.4,282.9,404,282.6,401.7z"/>
	<path class="st2" d="M267.5,407.8c0.4,0.4,1,0.3,1.4-0.1c0.3-0.3,0.3-0.8,0.1-1.1c-2.4-3.2-6.2-4.8-10.1-4.5
		c-0.4,0.5-0.8,1-1.3,1.5C261.3,403.4,264.6,404.2,267.5,407.8z"/>
	<path class="st2" d="M270.6,404.4c0.4,0.4,1,0.3,1.4-0.1c0.3-0.3,0.3-0.8,0.1-1.1c-2.5-3.3-6.5-5-10.6-4.6
		c-0.4,0.6-0.8,1.1-1.2,1.7C264.2,400,267.6,400.7,270.6,404.4z"/>
	<path class="st2" d="M264.4,411.1c0.4,0.4,1,0.3,1.4-0.1c0.3-0.3,0.3-0.8,0.1-1.1c-2.3-3.1-6-4.8-9.9-4.5c-0.5,0.5-1,1-1.5,1.5
		C258.3,406.5,262,408.1,264.4,411.1z"/>
	<path class="st2" d="M247.8,412.4c-4.4-0.1-9.9,3.6-9.9,8v0.5c4.9,7.8,16.5,7.3,24.2,4.1C261.6,414.3,251.3,412.4,247.8,412.4z"/>
	<path class="st2" d="M261.1,414.3c0.3,0.4,1,0.5,1.4,0.1c0.4-0.3,0.5-0.9,0.2-1.4c-2.3-3.1-6-4.8-9.9-4.5c-0.6,0.5-1.2,1.1-1.9,1.6
		C254.7,409.9,258.1,410.6,261.1,414.3z"/>
	<path class="st22" d="M244.5,350.9c-2.5,10.5-4.2,17.1-8.8,31.3c0,0-17.7,3.8-24.7-3.1l8-38.5L244.5,350.9z"/>
	<path class="st22" d="M287.6,354c-0.7,10.8-0.3,20.5-2.4,35.2c0,0-15.1,5-23.1-0.6l-1.3-25.7L287.6,354z"/>
	<path class="st22" d="M347.8,311.8l-156.3-90.1l-84.1,48.6v8.7l0,0v93.6l3.3,1.9l3.3-1.9v-66.7l20-11.5l126.5,73.1v93.6l3.3,1.9
		l3.2-1.9v-66.7l74.2-42.8v62.9l3.3,1.9l3.3-1.9v-93.6l-3.3,1.9l0,0l3.3-1.9L347.8,311.8L347.8,311.8z M114,282.9l13.6,7.9
		l-13.6,7.9V282.9z M341.2,344.2L267,387v-19.5l74.2-42.8L341.2,344.2z"/>
	<polygon class="st22" points="110.7,280.9 110.7,374.5 114,372.6 114,279 	"/>
	<polygon class="st21" points="110.7,280.9 110.7,374.5 107.4,372.6 107.4,279 	"/>
	<polygon class="st22" points="114,305.9 191.5,261.2 191.5,257.6 114,302.3 	"/>
	<polygon class="st10" points="114,298.6 188.2,255.7 191.5,257.6 114,302.3 	"/>
	<polygon class="st22" points="344.5,322.8 344.5,416.4 347.8,414.4 347.8,320.8 	"/>
	<polygon class="st21" points="344.5,322.8 344.5,416.4 341.2,414.4 341.2,320.8 	"/>
	<polygon class="st22" points="263.7,369.4 263.7,463 267,461.1 267,367.5 	"/>
	<polygon class="st21" points="263.7,369.4 263.7,463 260.4,461.1 260.4,367.5 	"/>
	<polygon class="st22" points="267,394.4 344.5,349.6 344.5,346.1 267,390.8 	"/>
	<polygon class="st10" points="267,387 341.2,344.2 344.5,346.1 267,390.8 	"/>
	<polygon class="st10" points="263.7,360.4 107.4,270.3 191.5,221.7 347.8,311.8 	"/>
	<polygon class="st21" points="263.7,369.4 107.4,279 107.4,270.3 263.7,360.4 	"/>
	<polygon class="st22" points="263.7,360.4 347.8,311.8 347.8,320.8 263.7,369.4 	"/>
	<polygon class="st1" points="199.3,243.1 186.8,270.5 154.1,265.5 166.6,238.1 	"/>
	<polygon class="st14" points="211.6,248.4 183.3,271.5 155.6,260.2 184,237.1 	"/>
	<polygon class="st2" points="217.4,240.7 234.4,257.7 192,271.9 175,254.9 	"/>
	<path class="st4" d="M192.2,287l34.3-19.9c2.2-1.1,4.8-1.1,7,0l56.6,32.7c0.8,0.4,1.3,1.1,1.5,1.9l0,0v2.2l0,0c0,0.1,0,0.3,0,0.5
		c0,0,0,0,0,0c-0.1,0.2-0.1,0.3-0.2,0.5l0,0c-0.1,0.2-0.3,0.3-0.4,0.5l0,0c-0.2,0.2-0.4,0.3-0.6,0.5l-34.3,19.9
		c-0.3,0.2-0.7,0.3-1,0.4c-0.1,0-0.2,0.1-0.4,0.1s-0.3,0.1-0.5,0.1l-0.6,0.1h-0.1c-0.3,0-0.6,0-0.8,0h-0.1c-0.3,0-0.6,0-0.8,0h-0.1
		c-0.3,0-0.5-0.1-0.8-0.1h-0.1c-0.2-0.1-0.5-0.1-0.7-0.2h-0.1c-0.3-0.1-0.5-0.2-0.8-0.4l-56.6-32.7c-0.2-0.1-0.4-0.3-0.6-0.5
		l-0.2-0.2c-0.1-0.1-0.2-0.2-0.3-0.3c0-0.1-0.1-0.1-0.1-0.2c-0.1-0.1-0.1-0.2-0.2-0.3c0-0.1,0-0.2,0-0.2c0-0.1,0-0.2,0-0.3v-2
		C190.9,288.2,191.4,287.4,192.2,287z"/>
	<path class="st25" d="M291.6,301.7c0,0.2,0,0.4-0.1,0.6l0,0c-0.1,0.2-0.1,0.3-0.2,0.5v0.1c-0.1,0.2-0.3,0.3-0.4,0.5l0,0
		c-0.2,0.2-0.4,0.3-0.6,0.5l-34.3,19.9c-0.3,0.2-0.7,0.3-1,0.4l-0.4,0.1l-0.5,0.1l-0.6,0.1h-0.1c-0.3,0-0.6,0-0.8,0h-0.1
		c-0.3,0-0.6,0-0.8,0h-0.1c-0.3,0-0.5-0.1-0.8-0.1h-0.1c-0.2-0.1-0.5-0.1-0.7-0.2h-0.1c-0.3-0.1-0.5-0.2-0.8-0.4l-56.7-32.7
		c-0.2-0.1-0.4-0.3-0.6-0.5l-0.2-0.2c-0.1-0.1-0.2-0.2-0.3-0.3c0-0.1-0.1-0.1-0.1-0.2c-0.1-0.1-0.1-0.2-0.2-0.3c0-0.1,0-0.2,0-0.2
		c0-0.1,0-0.2,0-0.3v2c0,0.1,0,0.2,0,0.3c0,0.1,0,0.2,0,0.2c0,0.1,0.1,0.2,0.2,0.3c0,0.1,0.1,0.1,0.1,0.2c0.1,0.1,0.2,0.2,0.3,0.3
		l0.2,0.2c0.2,0.2,0.4,0.3,0.6,0.5l56.6,32.7c0.2,0.1,0.5,0.3,0.8,0.4h0.1c0.2,0.1,0.5,0.2,0.7,0.2h0.1c0.3,0.1,0.5,0.1,0.8,0.1h0.1
		c0.3,0,0.6,0,0.8,0h0.1c0.3,0,0.6,0,0.8,0h0.1l0.6-0.1c0.2,0,0.3-0.1,0.5-0.1s0.2-0.1,0.4-0.1c0.3-0.1,0.7-0.3,1-0.4l34.3-19.9
		c0.2-0.1,0.4-0.3,0.6-0.5l0,0c0.2-0.1,0.3-0.3,0.4-0.5l0,0c0.1-0.2,0.2-0.3,0.2-0.5c0,0,0,0,0,0c0-0.1,0-0.3,0-0.5l0,0v-2.2H291.6z
		"/>
	<path class="st4" d="M195.5,289.1l55,31.8l0.2,0.1h0.1l0.4,0.1l0.3,0.1h0.2c0.1,0,0.3,0,0.5,0h0.1c0.2,0,0.4,0,0.6,0l0.4-0.1
		l0.4-0.1c0.1,0,0.3-0.1,0.4-0.2l17.7-10.3L215,277.7L195.5,289.1z"/>
	<path class="st22" d="M252.4,321.2L252.4,321.2z"/>
	<path class="st4" d="M247.8,280.3l-10.3,6.1c-0.5,0.2-0.7,0.8-0.5,1.3c0.1,0.2,0.3,0.4,0.5,0.5l15.5,8.9c0.5,0.3,1.2,0.3,1.7,0
		l10.3-6.1c0.5-0.2,0.7-0.8,0.5-1.3c-0.1-0.2-0.3-0.4-0.5-0.5l-15.5-8.9C249,280,248.4,280,247.8,280.3z"/>
	<path class="st7" d="M195.5,289.1l55,31.8l0.2,0.1h0.1l0.4,0.1l0.3,0.1h0.2c0.1,0,0.3,0,0.5,0h0.1c0.2,0,0.4,0,0.6,0l0.4-0.1
		l0.4-0.1c0.1,0,0.3-0.1,0.4-0.2l17.7-10.3L215,277.7L195.5,289.1z"/>
	<path class="st7" d="M247.8,280.3l-10.3,6.1c-0.5,0.2-0.7,0.8-0.5,1.3c0.1,0.2,0.3,0.4,0.5,0.5l15.5,8.9c0.5,0.3,1.2,0.3,1.7,0
		l10.3-6.1c0.5-0.2,0.7-0.8,0.5-1.3c-0.1-0.2-0.3-0.4-0.5-0.5l-15.5-8.9C249,280,248.4,280,247.8,280.3z"/>
	<path class="st6" d="M240.8,260c-4.2,6,5.7,14.6,9.9,12.6S249.5,255.6,240.8,260z"/>
	<path class="st26" d="M240.8,260c-4.2,6,5.7,14.6,9.9,12.6S249.5,255.6,240.8,260z"/>
	<path class="st23" d="M276.4,209.8l-11.4,34l-25.4,19.9c-1.6,0.7-3.3,0.9-5.1,0.8l-10.2-0.8c-1.2-0.1-2.4,0.2-3.4,0.8L215,268
		c-0.6,0.4-1.1,0.8-1.6,1.3l-2.9,3.4c-0.8,0.9-0.6,2.3,0.3,3c0,0,0.1,0.1,0.1,0.1l1.8,1.3c1.9,1.4,4.5,1.6,6.6,0.5l4.5-2.3l9.3,1
		v2.4l-2.5,2.2c-1.1,1-1.2,2.7-0.3,3.8c0.1,0.1,0.2,0.2,0.3,0.3l0,0c0,0,6.2-1.9,11.9-10.9l29.8-14.8c5.1-2.5,9-7,10.8-12.5l17-52.2
		l-6.7,0.8C285.6,196.6,278.9,202.1,276.4,209.8z"/>
	<path class="st6" d="M293.3,193.6c-8.8,1.1-16.1,7.2-18.9,15.5l-11.2,33.4l-14.3,11.2c6.1,0.9,10.3,6.6,9.4,12.6
		c-0.2,1-0.4,2-0.9,3l16.1-8c5.6-2.8,9.9-7.7,11.8-13.7l18-55.4L293.3,193.6z"/>
	<path class="st6" d="M257,259.5c-1.7-3-4.7-5.1-8.1-5.7l-8,6.3c5.5-0.1,10.1,4.2,10.3,9.7c0,1-0.1,1.9-0.3,2.8l6.6-3.2
		C258.8,266.2,258.6,262.5,257,259.5z"/>
	<path class="st27" d="M293.3,193.6c-8.8,1.1-16.1,7.2-18.9,15.5l-11.2,33.4l-14.3,11.2c6.1,0.9,10.3,6.6,9.4,12.6
		c-0.2,1-0.4,2-0.9,3l16.1-8c5.6-2.8,9.9-7.7,11.8-13.7l18-55.4L293.3,193.6z"/>
	<path class="st28" d="M257,259.5c-1.7-3-4.7-5.1-8.1-5.7l-8,6.3c5.5-0.1,10.1,4.2,10.3,9.7c0,1-0.1,1.9-0.3,2.8l6.6-3.2
		C258.8,266.2,258.6,262.5,257,259.5z"/>
	<path class="st7" d="M263.2,242.5c7.2,0.1,10.6,3.9,11.5,5.7C275,237.5,264,240,264,240L263.2,242.5z"/>
	<path class="st4" d="M182.9,247.1L182.9,247.1l1.4-0.7l0,0c0.5-0.2,1.1-0.2,1.5,0.1l57,33.1c1.8,1,3,2.8,3.3,4.9l5.9,37.3
		c0.1,0.8-0.3,1.5-1,1.8l0,0l-1.3,0.6l0,0c-0.5,0.2-1,0.1-1.5-0.1l-57-33.1c-1.8-1-3-2.8-3.3-4.9l-5.9-37.3
		C181.9,248.1,182.3,247.4,182.9,247.1z"/>
	<path class="st2" d="M214,281.1c2.9,1.8,5,4.8,5.7,8.1c0.4,2.9-1.6,4-4.3,2.4c-2.9-1.8-5-4.8-5.7-8.1
		C209.3,280.6,211.2,279.6,214,281.1z"/>
	<path class="st25" d="M250.8,322.3l-5.8-37.3c-0.3-2-1.5-3.8-3.3-4.9l-57-33.1c-0.5-0.3-1.2-0.3-1.7,0l0,0l1.4-0.7l0,0
		c0.5-0.2,1.1-0.2,1.5,0.1l57,33.1c1.8,1,3,2.8,3.3,4.9l5.8,37.3c0.1,0.8-0.3,1.5-1,1.8l0,0l-1.3,0.6l0,0
		C250.5,323.9,251,323.2,250.8,322.3z"/>
	<path class="st6" d="M279.1,270.8v8.9c14.1,10.4,48.6,8,59.9,1.9l-1.1-9.1L279.1,270.8z"/>
	<path class="st8" d="M279.1,270.8v8.9c14.1,10.4,48.6,8,59.9,1.9l-1.1-9.1L279.1,270.8z"/>
	<path class="st7" d="M337.8,272.4l-58.7-1.6v3.7c3.5,3.1,8.3,4.5,12.9,5.5c12.9,2.7,26.3,2.3,39-1.3c1.7-0.5,3.6,0.5,4.1,2.3
		c0,0.2,0.1,0.3,0.1,0.5l0.2,1.6c1.2-0.4,2.5-0.9,3.6-1.6L337.8,272.4z"/>
	<path class="st6" d="M301.1,193.1l-5,0.5c-3.7,0.4-7,2.4-9,5.4c-5.2,7.9-7.6,20.1-6.2,33.3c1.1,10-1.7,22-4,29.9
		c-1.6,5.5,1.1,11.3,6.4,13.5c16.8,6.7,40.8,3.7,53.2-0.4c3.9-1.3,6.1-5.5,4.8-9.4c-0.1-0.2-0.2-0.5-0.3-0.7c0,0-4.6-20.7-3.8-22.8
		c2-4.8,2.5-16.3,3-23.5c0.3-6.5-1.1-12.9-4-18.7l-19-7.1L301.1,193.1z"/>
	<path class="st29" d="M301.1,193.1l-5,0.5c-3.7,0.4-7,2.4-9,5.4c-5.2,7.9-7.6,20.1-6.2,33.3c1.1,10-1.7,22-4,29.9
		c-1.6,5.5,1.1,11.3,6.4,13.5c16.8,6.7,40.8,3.7,53.2-0.4c3.9-1.3,6.1-5.5,4.8-9.4c-0.1-0.2-0.2-0.5-0.3-0.7c0,0-4.6-20.7-3.8-22.8
		c2-4.8,2.5-16.3,3-23.5c0.3-6.5-1.1-12.9-4-18.7l-19-7.1L301.1,193.1z"/>
	<path class="st7" d="M337.2,242.4c2-4.8,2.5-16.3,3-23.5c0.1-1.8,0.1-3.6-0.1-5.3l-9.9,3.9c-0.2,5.7,0.4,11.3,1.8,16.8
		c1.8,7.2,3.2,14.6,4,22l0.1,0.5c0.3,2.7,0.3,5.3,0,8l-0.6,6.1c-0.2,2.2-1.3,4.2-3,5.6c1.4-0.4,2.8-0.8,4-1.2
		c3.9-1.3,6.1-5.5,4.9-9.4c-0.1-0.3-0.2-0.5-0.3-0.8C341,265.2,336.4,244.5,337.2,242.4z"/>
	<path class="st29" d="M288.6,250.9c11.7,3.5,27.1,1.7,27.1,1.7c-0.1,7,6.3,10.7,8,10.7v11.1c-25,3.8-36.8-1.1-41-3.5v-8.4
		C287.9,260.9,288.6,250.9,288.6,250.9z"/>
	<path class="st6" d="M290.2,195.2l0.3-0.2c-0.9-0.5-2-0.4-2.8,0.3c-2.3,1.5-3.8,4-3.9,6.8c-0.1,0.9,0.3,1.9,1,2.5
		C284.9,200.8,287,197.3,290.2,195.2z"/>
	<path class="st6" d="M287.6,206.2c0.2-3.8,2.2-7.3,5.4-9.4c1.1-0.8,2.6-1,3.8-0.4l0,0l-2.8-1.6l0,0c-1.2-0.6-2.5-0.5-3.6,0.2
		l-0.3,0.2c-3.2,2.1-5.2,5.6-5.4,9.4l0,0c-0.1,1.4,0.5,2.7,1.6,3.5l0,0l2.8,1.6l0,0C288.1,208.9,287.5,207.6,287.6,206.2z"/>
	<path class="st6" d="M296.9,196.4c-1.3-0.6-2.7-0.4-3.8,0.4c-3.2,2.1-5.2,5.6-5.4,9.4c-0.3,1.8,0.8,3.5,2.6,3.9
		c1,0.2,2.1-0.1,2.8-0.8c3.2-2.1,5.2-5.6,5.4-9.4C298.6,198.6,298,197.2,296.9,196.4z M293.1,206.6c-1.7,1-3.1,0.2-3.1-1.8
		c0.1-2.1,1.2-4.1,3-5.3c1.7-1,3.1-0.2,3.1,1.7C296,203.5,294.9,205.4,293.1,206.6z"/>
	<path class="st6" d="M293,199.6c-1.8,1.2-2.9,3.1-3,5.3c0,2,1.4,2.7,3.1,1.8c1.8-1.2,2.9-3.1,3-5.3
		C296.1,199.4,294.7,198.6,293,199.6z"/>
	<path class="st11" d="M290.2,195.2l0.3-0.2c-0.9-0.5-2-0.4-2.8,0.3c-2.3,1.5-3.8,4-3.9,6.8c-0.1,0.9,0.3,1.9,1,2.5
		C284.9,200.8,287,197.3,290.2,195.2z"/>
	<path class="st7" d="M287.6,206.2c0.2-3.8,2.2-7.3,5.4-9.4c1.1-0.8,2.6-1,3.8-0.4l0,0l-2.8-1.6l0,0c-1.2-0.6-2.5-0.5-3.6,0.2
		l-0.3,0.2c-3.2,2.1-5.2,5.6-5.4,9.4l0,0c-0.1,1.4,0.5,2.7,1.6,3.5l0,0l2.8,1.6l0,0C288.1,208.9,287.5,207.6,287.6,206.2z"/>
	<path class="st25" d="M296.9,196.4c-1.3-0.6-2.7-0.4-3.8,0.4c-3.2,2.1-5.2,5.6-5.4,9.4c-0.3,1.8,0.8,3.5,2.6,3.9
		c1,0.2,2.1-0.1,2.8-0.8c3.2-2.1,5.2-5.6,5.4-9.4C298.6,198.6,298,197.2,296.9,196.4z M293.1,206.6c-1.7,1-3.1,0.2-3.1-1.8
		c0.1-2.1,1.2-4.1,3-5.3c1.7-1,3.1-0.2,3.1,1.7C296,203.5,294.9,205.4,293.1,206.6z"/>
	<path class="st30" d="M293,199.6c-1.8,1.2-2.9,3.1-3,5.3c0,2,1.4,2.7,3.1,1.8c1.8-1.2,2.9-3.1,3-5.3
		C296.1,199.4,294.7,198.6,293,199.6z"/>
	<path class="st2" d="M291.7,233.7c-0.1,0-0.2,0-0.3-0.1c-0.3-0.2-0.4-0.5-0.2-0.8c3-5.4,4.3-11.6,4-17.7c-0.1-1.3-0.2-2.6-0.4-3.9
		c-0.2-1.5-0.4-3-0.4-4.5c-0.3-2.9,0.3-5.9,1.7-8.5c0.1-0.3,0.4-0.5,0.7-0.4c0.3,0.1,0.5,0.4,0.4,0.7c0,0.1-0.1,0.1-0.1,0.2
		c-1.2,2.4-1.8,5.1-1.5,7.9c0.1,1.5,0.2,3,0.4,4.4c0.2,1.3,0.3,2.6,0.4,4c0.4,6.4-1.1,12.8-4.1,18.4
		C292.1,233.6,291.9,233.7,291.7,233.7z"/>
	<path class="st22" d="M294.6,182.6c0.1-2.2,0.6-4.6,2.3-6.1c1.9-1.6,4.6-1.8,6.8-0.6c2.1,1.2,3.7,3.2,4.4,5.6
		c0.7,2.3,0.9,4.8,0.6,7.2c0,2.4-0.7,4.8-2,6.9c-1.3,1.9-5.1,4.1-7.2,2.2c-2.4-2.1-3.8-6.2-4.5-9.3
		C294.7,186.5,294.5,184.6,294.6,182.6z"/>
	<path class="st6" d="M302.9,202.3c-8-11.1-12.1-37-9.5-46.2l-9.6,3.7C279.1,184.3,291,201.3,302.9,202.3z"/>
	<path class="st22" d="M286.5,171.3c-5.4-3.8-6.9-11.1-3.5-16.8c-1.4-0.6-2.6-1.8-3.4-3.2c-0.8-1.9,0-4.1,1.9-4.9c0.9-0.4,2-0.4,3,0
		c-0.8-2.3,0.1-4.8,2.1-6.1c2-1.1,4.6-0.7,6.1,1.1c0-1.5,0.9-2.8,2.3-3.3c1.4-0.4,2.9-0.3,4.2,0.3c1.4,0.5,2.6,1.1,4,1.6
		c2.4,0.6,4.8,0.9,7.2,0.9c2.5,0,4.9,0.7,7,1.9c2,1.3,3.8,4.4,2.7,7.1c0.7-0.9,1.8-1.5,2.9-1.5c1.1,0,2.2,0.4,3,1.3
		c-1.5,0.9-3,2-4.5,2.9c1.5-0.7,3.8,0.4,4.6,1.9c0.7,1.5,1,3.2,0.8,4.9c-0.2,6.4-1.4,12.7-3.4,18.8c-1,3.1-2.5,6.4-5.5,7.9
		L286.5,171.3z"/>
	<path class="st23" d="M317.4,180.5v13c0,1.8-0.8,3.4-2.1,4.6c-3.4,3-7.9,4.5-12.4,4.2c-0.9,0-1.8-0.3-2.6-0.8
		c-0.9-0.9-1.3-2.3-0.8-3.5c0.2-0.7,0.5-1.3,0.9-1.9c0.7-1,1-2.1,1-3.3v-12.3H317.4z"/>
	<path class="st7" d="M307.9,191c-2.1,0.6-4.3,1.1-6.5,1.3v-11.8h15.9v2.8c-0.4,0.8-0.8,1.6-1.3,2.3
		C314,188.2,311.2,190.1,307.9,191z"/>
	<path class="st23" d="M285.6,155.9c-1.1,8.7-0.6,17.4,1.7,25.9c0.4,1.9,1.1,3.7,2.1,5.3c0.9,1.7,2.4,3,4.2,3.7c2.2,0.8,4.6,0.4,7,0
		c4.2-0.7,8.5-1.5,12.2-3.7s6.6-6.2,6.2-10.5c2.1,1.3,4.8,1.5,7,0.4c2.2-1.2,3.6-3.4,3.8-5.9c0.2-2.4-1.2-5.1-3.6-5.5
		c-1.5-0.2-3,0.2-4.1,1.2c-1.1,1-2.1,2.1-2.9,3.3c-0.4,0.6-0.8,1.1-1.4,1.5c-0.6,0.4-1.4,0.4-2,0c-0.5-0.6-0.7-1.4-0.6-2.1l0.2-5.4
		c0-0.8-0.4-1.6-1.2-2c-1.1-0.6-1.9-1.6-2.4-2.8c-0.4-1-0.6-2.1-0.7-3.3c-0.1-0.7-0.7-1.3-1.4-1.2c-0.1,0-0.3,0-0.4,0.1
		C302.2,157.7,293.1,157.9,285.6,155.9z"/>
	<polygon class="st31" points="297.5,169.1 292.7,177.3 298.5,178.4 	"/>
	<path class="st31" d="M304.1,181.2l-4.4,2.1c0.8,1,2.1,1.4,3.4,0.9C304.1,183.6,304.5,182.4,304.1,181.2z"/>
	<path class="st25" d="M304.1,181.2l-4.4,2.1c0.8,1,2.1,1.4,3.4,0.9C304.1,183.6,304.5,182.4,304.1,181.2z"/>
	<path class="st31" d="M301.5,184.4c0.5,0.1,1,0.1,1.5-0.1c0.8-0.5,1.3-1.4,1.2-2.3C302.8,181.9,301.6,183,301.5,184.4z"/>
	<path class="st22" d="M306,169.4c0,0.9-0.7,1.7-1.6,1.8c-0.9,0-1.6-0.6-1.7-1.4c-0.1-0.9,0.5-1.8,1.4-1.9c0.9-0.1,1.8,0.5,1.9,1.4
		C306,169.3,306,169.4,306,169.4z"/>
	<path class="st22" d="M292,170.3c0.1,0.9-0.6,1.7-1.5,1.8c-0.9,0.1-1.7-0.6-1.8-1.5c-0.1-0.9,0.6-1.7,1.5-1.8c0,0,0,0,0,0
		C291.1,168.7,291.9,169.4,292,170.3z"/>
	<path class="st22" d="M289.7,163.8l-3.4,2.9c-0.4-0.9-0.2-2,0.5-2.7C287.6,163.4,288.7,163.3,289.7,163.8z"/>
	<path class="st22" d="M303.9,162.2l3.9,2.2c0.2-1-0.2-2-1-2.5C305.8,161.4,304.7,161.5,303.9,162.2z"/>
	<path class="st6" d="M317.5,201.6c-4.7,1.6-9.8,1.8-14.6,0.7c13.7-16.3,18.2-39.6,12.6-52.8c-2.1-4.7-6.2-8-11.2-9.1
		c-0.8-0.2-1.5-0.4-2.2-0.7c10,0,20.1-2.3,29.5,1.4c3.4,1.4,6.8,3.2,8.9,6.2c2.3,3.2,2.8,7.5,2.3,11.4c-1,7.7-5.2,14.5-9.6,20.9
		c-3.8,5.6-8.5,11.5-11,17.9C321.3,199.4,319.6,200.9,317.5,201.6z"/>
	<path class="st29" d="M317.5,201.6c-4.7,1.6-9.8,1.8-14.6,0.7c13.7-16.3,18.2-39.6,12.6-52.8c-2.1-4.7-6.2-8-11.2-9.1
		c-0.8-0.2-1.5-0.4-2.2-0.7c10,0,20.1-2.3,29.5,1.4c3.4,1.4,6.8,3.2,8.9,6.2c2.3,3.2,2.8,7.5,2.3,11.4c-1,7.7-5.2,14.5-9.6,20.9
		c-3.8,5.6-8.5,11.5-11,17.9C321.3,199.4,319.6,200.9,317.5,201.6z"/>
	<path class="st7" d="M311.4,197.7c5.5-8.5,9.3-18,11.1-27.9c1.1-5,1.2-10.2,0.3-15.3c-0.9-5.1-3.5-9.8-7.5-13.1
		C331.8,151.4,327.6,176,311.4,197.7z"/>
	<path class="st6" d="M325.6,195.4l-0.7-1.1c1.1,2.3-2.3,6.8-4.8,8.8l1.7,1.4c2-1.8,3.5-4,4.2-6.6
		C326.2,197.1,326.1,196.2,325.6,195.4z"/>
	<path class="st6" d="M324.9,194.3c-0.2-0.4-0.5-0.7-0.9-0.9c-0.4,0.6-0.7,1.2-0.9,1.8c0,0,0.3,3.2-4.5,7.1l1.6,0.8
		C322.6,201.1,326,196.6,324.9,194.3z"/>
	<path class="st30" d="M325.6,195.4l-0.7-1.1c1.1,2.3-2.3,6.8-4.8,8.8l1.7,1.4c2-1.8,3.5-4,4.2-6.6
		C326.2,197.1,326.1,196.2,325.6,195.4z"/>
	<path class="st25" d="M324.9,194.3c-0.2-0.4-0.5-0.7-0.9-0.9c-0.4,0.6-0.7,1.2-0.9,1.8c0,0,0.3,3.2-4.5,7.1l1.6,0.8
		C322.6,201.1,326,196.6,324.9,194.3z"/>
	<polygon class="st6" points="322.2,203.1 322.2,203.1 322.2,203.1 	"/>
	<path class="st6" d="M312.9,212.6c0.2-3.7,2.2-7.1,5.3-9.2c1-0.7,2.4-0.9,3.6-0.5l-2.5-1.5h-0.1l0,0c-1.2-0.5-2.6-0.4-3.7,0.4
		c-3.1,2-5.1,5.4-5.3,9.2c-0.1,1.3,0.5,2.7,1.6,3.4l0,0l2.7,1.6l0,0C313.3,215.2,312.8,213.9,312.9,212.6z"/>
	<path class="st6" d="M315.5,212.8c0.2-2.9,1.7-5.6,4.1-7.1c0.9-0.6,2-0.7,2.9-0.3c0.4,0.2,0.7,0.5,1,0.8c0-1.2-0.5-2.3-1.4-3l0,0
		c-0.1-0.1-0.3-0.2-0.4-0.2c-1.2-0.4-2.5-0.2-3.6,0.5c-3.1,2-5.1,5.4-5.3,9.2c-0.1,1.3,0.5,2.6,1.5,3.4c1,0.5,2.3,0.5,3.3-0.1
		c-0.4-0.1-0.8-0.3-1.1-0.5C315.8,214.8,315.4,213.8,315.5,212.8z"/>
	<path class="st6" d="M323.5,206.2c-0.3-0.3-0.6-0.6-1-0.8c-1-0.4-2.1-0.3-2.9,0.3c-2.4,1.6-4,4.2-4.1,7.1c-0.1,1,0.3,2,1.1,2.6
		c0.3,0.2,0.7,0.4,1.1,0.5c0.9,0.4,2,0.4,2.9,0c2.4-1.6,4-4.2,4.1-7.1C324.6,207.8,324.2,206.9,323.5,206.2z"/>
	<path class="st7" d="M312.9,212.6c0.2-3.7,2.2-7.1,5.3-9.2c1-0.7,2.4-0.9,3.6-0.5l-2.5-1.5h-0.1l0,0c-1.2-0.5-2.6-0.4-3.7,0.4
		c-3.1,2-5.1,5.4-5.3,9.2c-0.1,1.3,0.5,2.7,1.6,3.4l0,0l2.7,1.6l0,0C313.3,215.2,312.8,213.9,312.9,212.6z"/>
	<path class="st32" d="M315.5,212.8c0.2-2.9,1.7-5.6,4.1-7.1c0.9-0.6,2-0.7,2.9-0.3c0.4,0.2,0.7,0.5,1,0.8c0-1.2-0.5-2.3-1.4-3l0,0
		c-0.1-0.1-0.3-0.2-0.4-0.2c-1.2-0.4-2.5-0.2-3.6,0.5c-3.1,2-5.1,5.4-5.3,9.2c-0.1,1.3,0.5,2.6,1.5,3.4c1,0.5,2.3,0.5,3.3-0.1
		c-0.4-0.1-0.8-0.3-1.1-0.5C315.8,214.8,315.4,213.8,315.5,212.8z"/>
	<path class="st11" d="M323.5,206.2c-0.3-0.3-0.6-0.6-1-0.8c-1-0.4-2.1-0.3-2.9,0.3c-2.4,1.6-4,4.2-4.1,7.1c-0.1,1,0.3,2,1.1,2.6
		c0.3,0.2,0.7,0.4,1.1,0.5c0.9,0.4,2,0.4,2.9,0c2.4-1.6,4-4.2,4.1-7.1C324.6,207.8,324.2,206.9,323.5,206.2z"/>
	<path class="st2" d="M310.7,240.8h-0.1c-0.3-0.1-0.5-0.4-0.5-0.7c0,0,0,0,0,0c1.7-9.2,1-18.7-2.1-27.6l-0.3-0.9
		c-0.8-2-1.3-4.1-1.4-6.2c0-2.4,1.3-5.4,4-6.2c0.3-0.1,0.6,0.1,0.7,0.4s-0.1,0.6-0.4,0.7c-2.1,0.6-3.2,3-3.2,5.1
		c0.1,2,0.6,4,1.4,5.8l0.3,0.9c3.1,9.1,3.9,18.8,2.1,28.2C311.2,240.6,311,240.8,310.7,240.8z"/>
	<path class="st23" d="M336.4,200.2l-20.1,60.3l-35.8,13.9c-1.8,0.8-3.8,1.1-5.8,0.9l-9.6-1.7c-1.4-0.1-2.7,0.2-3.9,0.9l-6.6,4
		c-0.7,0.4-1.3,0.9-1.8,1.5l-3.2,3.8c-0.9,1-0.7,2.6,0.3,3.4c0,0,0.1,0.1,0.1,0.1l2,1.5c2.2,1.6,5.1,1.8,7.5,0.6l5.1-2.6l2.4,0.6
		c5.2,1.3,10.6,0.8,15.5-1.4l0,0l38.8-7.9c5.8-1.2,10.6-5.3,12.6-10.9c0,0,18.5-44,14.2-53.9C346.2,209,336.4,200.2,336.4,200.2z"/>
	<path class="st6" d="M336.4,200.2l-20.8,59.6l-35.8,13.7c6.7,3.7,7,12.1,6.3,13l37.9-7.9c4.9-1,9-4.5,10.8-9.2L350,229
		C356.6,210.9,347,204.3,336.4,200.2L336.4,200.2z"/>
	<path class="st27" d="M336.4,200.2l-20.8,59.6l-35.8,13.7c6.7,3.7,7,12.1,6.3,13l37.9-7.9c4.9-1,9-4.5,10.8-9.2L350,229
		C356.6,210.9,347,204.3,336.4,200.2L336.4,200.2z"/>
	<path class="st19" d="M294.6,276.4c-1-2.7-2.7-5-5-6.7l-9.7,3.7c6.7,3.7,7,12.1,6.3,13l8.7-1.8
		C295.6,281.9,295.5,279.1,294.6,276.4z"/>
	<path class="st7" d="M315.6,259.8c6.6,0.1,11.2,2.9,11.9,5c-1.1-9.9-10.8-8.1-10.8-8.1L315.6,259.8z"/>
</g>
</svg>
