<?xml version="1.0" encoding="utf-8"?>
<!-- Generator: Adobe Illustrator 25.3.0, SVG Export Plug-In . SVG Version: 6.00 Build 0)  -->
<svg version="1.1" id="Calque_1" xmlns="http://www.w3.org/2000/svg" xmlns:xlink="http://www.w3.org/1999/xlink" x="0px" y="0px"
	 viewBox="0 0 500 500" style="enable-background:new 0 0 500 500;" xml:space="preserve">
<style type="text/css">
	.st0{opacity:0.7;fill:#FFFFFF;enable-background:new    ;}
	.st1{fill:#CAE8E3;}
	.st2{fill:#FFFFFF;stroke:#263238;stroke-linecap:round;stroke-linejoin:round;}
	.st3{fill:#CAE8E3;stroke:#263238;stroke-linecap:round;stroke-linejoin:round;}
	.st4{fill:none;stroke:#263238;stroke-linecap:round;stroke-linejoin:round;}
	.st5{opacity:0.1;enable-background:new    ;}
	.st6{fill:#FFFFFF;}
	.st7{clip-path:url(#SVGID_2_);}
	.st8{clip-path:url(#SVGID_4_);}
	.st9{opacity:0.2;enable-background:new    ;}
	.st10{clip-path:url(#SVGID_6_);}
	.st11{opacity:0.2;fill:#64A9A5;enable-background:new    ;}
	.st12{clip-path:url(#SVGID_8_);}
	.st13{opacity:0.7;}
	.st14{fill:#64A9A5;}
	.st15{clip-path:url(#SVGID_10_);}
	.st16{opacity:0.4;}
	.st17{fill:#263238;stroke:#263238;stroke-linecap:round;stroke-linejoin:round;}
	.st18{fill:#263238;}
	.st19{clip-path:url(#SVGID_12_);}
	.st20{opacity:0.2;fill:#FFFFFF;enable-background:new    ;}
	.st21{clip-path:url(#SVGID_14_);}
	.st22{clip-path:url(#SVGID_16_);}
	.st23{clip-path:url(#SVGID_18_);}
	.st24{clip-path:url(#SVGID_20_);}
	.st25{fill:#FFD080;}
	.st26{fill:#BFBFBF;stroke:#263238;stroke-linecap:round;stroke-miterlimit:10;}
	.st27{fill:#FFFFFF;stroke:#263238;stroke-linecap:round;stroke-miterlimit:10;}
	.st28{fill:none;stroke:#FFFFFF;stroke-linecap:round;stroke-miterlimit:10;}
	.st29{clip-path:url(#SVGID_22_);}
	.st30{opacity:0.6;fill:#FFF1D9;enable-background:new    ;}
	.st31{fill:#999999;stroke:#263238;stroke-linecap:round;stroke-linejoin:round;}
	.st32{fill:#757575;stroke:#263238;stroke-linecap:round;stroke-linejoin:round;}
</style>
<g id="freepik--background-simple--inject-635">
	<path class="st0" d="M67.9,167.1c0,0-27.9,72,11.3,144.5s119.9,110.8,184.5,143.6s131.7,16.8,163.5-36.8s-11.8-91.9-11.9-168.4
		s11.5-96.7-30-161.4s-143.1-78.9-219.9-31S67.9,167.1,67.9,167.1z"/>
	<path class="st1" d="M49.6,238.7c1.2-22.1,9.2-43.2,22.8-60.7c18.7-24.4,48.1-37.4,78-41.4c43.5-5.8,81.8,4.4,122.5-19.3
		c12.5-7.3,23.9-16.5,36.6-23.6c37.4-20.8,79.5-5.4,105.3,26.5c53.8,66.4,51.7,168,26.3,245.3c-11.4,34.7-37.3,62.8-70.2,78.6
		c-74.6,35.6-174.3-1.4-235.8-47.8C89.1,361.8,46,298.8,49.6,238.7z"/>
	<path class="st0" d="M49.6,238.7c1.2-22.1,9.2-43.2,22.8-60.7c18.7-24.4,48.1-37.4,78-41.4c43.5-5.8,81.8,4.4,122.5-19.3
		c12.5-7.3,23.9-16.5,36.6-23.6c37.4-20.8,79.5-5.4,105.3,26.5c53.8,66.4,51.7,168,26.3,245.3c-11.4,34.7-37.3,62.8-70.2,78.6
		c-74.6,35.6-174.3-1.4-235.8-47.8C89.1,361.8,46,298.8,49.6,238.7z"/>
</g>
<g id="freepik--Book--inject-635">
	<path class="st2" d="M340.1,157.1l-4.3,5.6c0,0-15.5-7-20.5-17.2c0,0-12.3,5.1-21.3-1l4.4-16.3l29.2,8.9L340.1,157.1z"/>
	<path class="st3" d="M341.9,159.3l12.4-39.8c0,0-15.2-2.9-21.6-12.7l-5.2-1.7c-7,3-15.1,2.5-21.7-1.2l-14.9,36.3
		c0,0,11.1,7.3,22.6,2.4l3.9,2C317.3,144.6,332.5,162.9,341.9,159.3z"/>
	<line class="st4" x1="317.3" y1="144.6" x2="330.6" y2="109.5"/>
	<line class="st4" x1="327.4" y1="105.1" x2="315.2" y2="138.3"/>
</g>
<g id="freepik--Character--inject-635">
	<path class="st5" d="M296.2,276.2c0,0,19.4,16,25.8,24.7s40.7,34.5,42.3,43.2s-2.2,20.8-10.1,21.8s-43.8-0.7-43.8-0.7l2.3,20.4
		c0,0,14.7-5.2,21.5-4.5s13.1,2.6,20,2.7s53.9-23.7,53.9-23.7l-48.5,71.8L288,447.7c0,0-53,4.8-75.3-9.5s-75.5-51.9-79.9-71.6
		s-10-70-10-70s22,43.7,27.9,50.2s31.6,33.2,35.9,29.6c0,0-20.3-16.4-23.3-25.8s49.4-49.2,49.4-49.2L296.2,276.2z"/>
	<path class="st6" d="M344.8,211.4c0,8.9-9,51.2-14.8,62.4c-0.3,0.5-0.5,1-0.8,1.5c-4.8,9.8-2.7,10.1-9.3,6.9
		c-2.9-1.4-3.9-2-4.1-2.3c-10.5-0.4-102.4-3.9-122.1,0c0,0-6.2,8.4-9.9,5c0,0-2.2-10-7.2-16.2c0,0-0.1-0.1-0.1-0.1
		c-5-6.8-13.1-57-13.3-65.6c-0.3-11.1-0.5-16.6,4.2-13.4c0,0,4.1-0.7,11.1-1.6c25.8-3.3,91.4-10,145.8-0.3c2.4,0.4,4.8,0.9,7.1,1.4
		c0,0,10.6,0.2,13.2,2.7S344.8,202.6,344.8,211.4z"/>
	<g>
		<defs>
			<path id="SVGID_1_" d="M344.8,211.4c0,8.9-9,51.2-14.8,62.4c-0.3,0.5-0.5,1-0.8,1.5c-4.8,9.8-2.7,10.1-9.3,6.9
				c-2.9-1.4-3.9-2-4.1-2.3c-10.5-0.4-102.4-3.9-122.1,0c0,0-6.2,8.4-9.9,5c0,0-2.2-10-7.2-16.2c0,0-0.1-0.1-0.1-0.1
				c-5-6.8-13.1-57-13.3-65.6c-0.3-11.1-0.5-16.6,4.2-13.4c0,0,4.1-0.7,11.1-1.6c25.8-3.3,91.4-10,145.8-0.3
				c2.4,0.4,4.8,0.9,7.1,1.4c0,0,10.6,0.2,13.2,2.7S344.8,202.6,344.8,211.4z"/>
		</defs>
		<clipPath id="SVGID_2_">
			<use xlink:href="#SVGID_1_"  style="overflow:visible;"/>
		</clipPath>
		<g class="st7">
			<path class="st5" d="M329.3,275.4c-4.8,9.8-2.7,10.1-9.3,6.9c-2.9-1.4-3.9-2-4.1-2.3c-10.5-0.4-102.4-3.9-122.1,0
				c0,0-6.2,8.4-9.9,5c0,0-2.2-10-7.2-16.2c0,0-0.1-0.1-0.1-0.1c6.1,2.9,12.3,5.6,13.6,5.7c2.8,0.1,20.1-3.6,21.9-4.3
				s0.4-8.6-8.8-12s-8.8,7.9-18.3-8.6s-3-17.3,2.9-19.5s-4.4-17.7-8.8-19.6c-3.2-1.4-1.8-13-0.5-22.1c25.8-3.3,91.4-10,145.8-0.3
				c0,0-6.8,17.9-2.9,21s6.1,14.2,8.4,17.2s-6,13.2-10.4,14.8s-7.6,9.8-9.2,10.8s8.3,8,10.9,8.3c-2.4,0.9-10.9,4.3-16.5,2.1
				c-7-2.7-15.3,1.2-16.9,2s13.6,9.2,18.7,10.2s7.4-1.4,10.2,0.8C318.4,276.3,324.3,275.9,329.3,275.4z"/>
		</g>
	</g>
	<path class="st4" d="M344.8,211.4c0,8.9-9,51.2-14.8,62.4c-0.3,0.5-0.5,1-0.8,1.5c-4.8,9.8-2.7,10.1-9.3,6.9
		c-2.9-1.4-3.9-2-4.1-2.3c-10.5-0.4-102.4-3.9-122.1,0c0,0-6.2,8.4-9.9,5c0,0-2.2-10-7.2-16.2c0,0-0.1-0.1-0.1-0.1
		c-5-6.8-13.1-57-13.3-65.6c-0.3-11.1-0.5-16.6,4.2-13.4c0,0,4.1-0.7,11.1-1.6c25.8-3.3,91.4-10,145.8-0.3c2.4,0.4,4.8,0.9,7.1,1.4
		c0,0,10.6,0.2,13.2,2.7S344.8,202.6,344.8,211.4z"/>
	<path class="st3" d="M300.5,385.6c1.4,2.4-3.6,8.1-3.6,8.1l-44.4-10.9l20.5-20.1l7-1L300.5,385.6z"/>
	<path class="st6" d="M296.3,386.6l-2.4,0.5c-7,1.4-27.5,5.4-33.1,5.5h-1.1c-3.6,0-7.3-0.2-10.9-0.7c0,0-0.2-2.1-0.4-4.6
		c-0.3-4.1-0.2-9.4,1.6-8.5c17.9,8.7,34.5-3.5,44.4,3.2l0.7,1.8l0,0L296.3,386.6z"/>
	<g>
		<defs>
			<path id="SVGID_3_" d="M296.3,386.6l-2.4,0.5c-7,1.4-27.5,5.4-33.1,5.5h-1.1c-3.6,0-7.3-0.2-10.9-0.7c0,0-0.2-2.1-0.4-4.6
				c-0.3-4.1-0.2-9.4,1.6-8.5c17.9,8.7,34.5-3.5,44.4,3.2l0.7,1.8l0,0L296.3,386.6z"/>
		</defs>
		<clipPath id="SVGID_4_">
			<use xlink:href="#SVGID_3_"  style="overflow:visible;"/>
		</clipPath>
		<g class="st8">
			<path class="st9" d="M295.2,383.8c-0.3-0.1-6-2.3-10.4-1.8s-19.8,5.7-22.7,4.6l-0.8,2.1l-1.5,3.8c-3.6,0-7.3-0.2-10.9-0.7
				c0,0-0.2-2.1-0.4-4.6c-0.3-4.1-0.2-9.4,1.6-8.5c17.9,8.7,34.5-3.5,44.4,3.2L295.2,383.8z"/>
		</g>
	</g>
	<path class="st4" d="M296.3,386.6l-2.4,0.5c-7,1.4-27.5,5.4-33.1,5.5h-1.1c-3.6,0-7.3-0.2-10.9-0.7c0,0-0.2-2.1-0.4-4.6
		c-0.3-4.1-0.2-9.4,1.6-8.5c17.9,8.7,34.5-3.5,44.4,3.2l0.7,1.8l0,0L296.3,386.6z"/>
	<path class="st1" d="M330,424.4l-105.3,18.9c0,0-3.3-11.6-4.4-14.3s0.9-13.7-0.2-15.5s-1.1-8.2,0-8c0.5,0.1,0.8-3.8,1-7.9
		c0.2-4.8,0.3-10,0.3-10c4.3-1.5,17-1.1,27-0.3c4.3,0.3,8.5,0.7,12.8,1.4h0.2c3.8,0.9,23.2-0.8,32.5-1.7c3-0.3,4.9-0.5,4.9-0.5
		L330,424.4z"/>
	<g>
		<defs>
			<path id="SVGID_5_" d="M330,424.4l-105.3,18.9c0,0-3.3-11.6-4.4-14.3s0.9-13.7-0.2-15.5s-1.1-8.2,0-8c0.5,0.1,0.8-3.8,1-7.9
				c0.2-4.8,0.3-10,0.3-10c4.3-1.5,17-1.1,27-0.3c4.3,0.3,8.5,0.7,12.8,1.4h0.2c3.8,0.9,23.2-0.8,32.5-1.7c3-0.3,4.9-0.5,4.9-0.5
				L330,424.4z"/>
		</defs>
		<clipPath id="SVGID_6_">
			<use xlink:href="#SVGID_5_"  style="overflow:visible;"/>
		</clipPath>
		<g class="st10">
			<path class="st9" d="M261.2,388.7l-1.5,3.8l-3.4,8.8c0,0-17.4-6.3-24.5-6.1c-3.7,0.3-7.3,1.1-10.7,2.3c0.2-4.8,0.3-10,0.3-10
				c4.3-1.5,17-1.1,27-0.3C252.7,387.5,257,388,261.2,388.7z"/>
			<path class="st11" d="M308.7,398.5c-10.9,6.6-12.2,23.3-13.9,26s-13,2.2-19.1,2.3c5.6-4.2,11.8-7.7,18.4-10.3
				c-1.3-1.5-3.2-2.2-5.2-1.8c-1.9,0.4-3.7,0.9-5.5,1.5c-4.3,1.2-8.9,0.8-13.3,1.1c-1.4,0.1-3.1,0.4-3.7,1.7c-0.5,1-0.2,2.2-0.9,3.1
				c-4.2-0.9-16.3-7.3-18.3-9c-4.1-3.5,1.1-9.8-10.4-11.8c-5.6-1-14.2,9.1-14.2,9.1l2.1,33L330,424.4L308.7,398.5z"/>
		</g>
	</g>
	<path class="st4" d="M330,424.4l-105.3,18.9c0,0-3.3-11.6-4.4-14.3s0.9-13.7-0.2-15.5s-1.1-8.2,0-8c0.5,0.1,0.8-3.8,1-7.9
		c0.2-4.8,0.3-10,0.3-10c4.3-1.5,17-1.1,27-0.3c4.3,0.3,8.5,0.7,12.8,1.4h0.2c3.8,0.9,23.2-0.8,32.5-1.7c3-0.3,4.9-0.5,4.9-0.5
		L330,424.4z"/>
	<path class="st4" d="M261.5,395.2c0,0,30.3,0,39.9-5.6"/>
	<path class="st4" d="M299.2,400.6c0,0,5.3,5.5,11.3,4.9"/>
	<path class="st4" d="M257,421.1l13.5,4.6c0,0,18.9-10.4,22-8.9"/>
	<path class="st4" d="M263,401.3c0,0,0.6,13.4,1.7,13.6s5.7,10.8,5.7,10.8s-3.7,1.4-1,6.1"/>
	<path class="st4" d="M294.5,382c1.6,0.8,4.2,2.7,3,3.7"/>
	<path class="st1" d="M207.7,282.3c0,0,20.6-13.9,43.8-13.9s41.7,7.7,48.5,13.9s-12.7,66.1-12.7,66.1l13.2,37.2
		c-8.5-11-17.8-15.7-17.8-15.7c-10.2,13.9-26,11.2-26,11.2l-1.8,15.2c-11.6,0.8-27.4-7.1-37.3-2.3c0,0,2.9-38.2,3.8-44.4
		S207.6,319.5,207.7,282.3z"/>
	<g>
		<defs>
			<path id="SVGID_7_" d="M207.7,282.3c0,0,20.6-13.9,43.8-13.9s41.7,7.7,48.5,13.9s-12.7,66.1-12.7,66.1l13.2,37.2
				c-8.5-11-17.8-15.7-17.8-15.7c-10.2,13.9-26,11.2-26,11.2l-1.8,15.2c-11.6,0.8-27.4-7.1-37.3-2.3c0,0,2.9-38.2,3.8-44.4
				S207.6,319.5,207.7,282.3z"/>
		</defs>
		<clipPath id="SVGID_8_">
			<use xlink:href="#SVGID_7_"  style="overflow:visible;"/>
		</clipPath>
		<g class="st12">
			<g class="st13">
				<path class="st14" d="M291.1,375.7c-0.5-0.4-1-0.8-1.4-1.2c-1.5-4.6-3.4-9.1-5-12.9c-2-4.7-3.6-8.7-4.1-11.6
					c-0.4-1.4-0.2-2.8,0.4-4.1c1.8-2.8,3.7-11.2,3.8-19.5c0.2-4.1-0.4-8.3-1.6-12.2c-3.5-9.8,3.8-33.6,4.3-35.2
					c0.1-1.2,0.4-2.4,1-3.5l0.9,0.4c-0.5,1-0.9,2.1-1,3.2v0.1c-0.1,0.2-7.7,25.1-4.3,34.7c1.3,4.2,1.9,8.6,1.7,13
					c-0.2,8.4-2.1,16.8-4,19.6c-0.5,1.1-0.6,2.3-0.2,3.5c0.5,2.9,2.2,6.9,4,11.3S289.5,370.5,291.1,375.7z"/>
				<path class="st1" d="M281.9,274c0,0.2-4.2,22.7-3.7,28.9c0.2,3.1,0.5,12,0.2,20.5c-0.2,6.8-0.7,13.2-1.8,16.3
					c-0.9,3.1-1.1,6.4-0.5,9.6l0,0c0.2,1.3,0.6,2.6,1,3.9c0,0.2,1.8,9.6,3,19.7c-0.3,0.3-0.6,0.6-0.9,0.9c-1.2-10.3-3-20.2-3.1-20.3
					c-0.5-1.5-0.9-3-1.1-4.5c-0.6-3.2-0.4-6.5,0.6-9.6c1-3,1.5-9.6,1.7-16.5c0.2-8,0-16.5-0.2-20c-0.5-6.3,3.6-28.2,3.7-29.1
					l0.1-1.1l1,0.3C282,273.4,281.9,273.7,281.9,274z"/>
				<path class="st1" d="M274,377.7c-0.3,0.2-0.6,0.4-1,0.5c-0.5-5.7-1.2-12-1.8-17.2c-0.7-5.8-1.2-10.5-1.2-12.6c0-0.6,0-1.2,0-1.8
					c0-1.6,0-2.9,0.1-4.1c0.1-2.7,0.1-5.3,0-10.5c0-3.9,0.2-7.8,0.7-11.7c0.1-1.4,0.3-2.8,0.5-4.2c0.6-5.2,1.1-10.1,1-13.2
					c-0.3-4.6,0.5-22.7,0.9-32.3l1,0.2c-0.4,9.6-1.2,27.6-0.9,32.1c0.2,3.1-0.4,8.1-1,13.3c-0.2,1.5-0.3,3-0.5,4.4
					c-0.5,3.8-0.7,7.6-0.7,11.4c0.2,5.2,0.1,7.8,0,10.6c0,1.4-0.1,2.8-0.1,4.5c0,0.4,0,0.8,0,1.3c0,2.1,0.6,7,1.2,12.5
					C272.8,366,273.5,372.1,274,377.7z"/>
				<path class="st14" d="M264.9,372.8c0.2,2.8,0.3,5.5,0.5,8c-0.3,0.1-0.7,0.1-1,0.2c-0.1-2.5-0.3-5.2-0.5-8.1
					c-0.4-7.9-0.9-16.9-1.4-22.3c-0.2-1.8-0.3-3.6-0.4-5.5c-0.4-8.7,0-17.5,1-26.1c0-0.3,0.1-0.7,0.1-1.1c1-9.8,2.9-36.2,3.7-48.4
					l1,0.1c-0.9,12.3-2.8,38.9-3.7,48.5c0,0.3-0.1,0.6-0.1,0.9c-1,8.5-1.3,17.1-1,25.7c0.1,1.9,0.2,3.8,0.4,5.7
					C264,356,264.5,364.9,264.9,372.8z"/>
				<path class="st1" d="M250.4,359.1c-0.1,4.4-0.2,9-0.1,11.9c0.2,3.4-0.9,16.6-1.6,25l-1-0.1c0.8-8.5,1.8-21.6,1.6-24.9
					c-0.2-2.9-0.1-7.5,0.1-12c0.1-3.3,0.2-6.4,0.1-8.5c0-1.3-0.2-3.3-0.5-5.9c-0.7-6.2-2.3-15.6-4.6-26.2c-0.4-1.9-0.9-3.9-1.4-5.9
					c-3.2-13.5,0.1-34.6,1.8-43.8l1-0.1c-1.7,9-5.1,30.3-1.9,43.7c0.5,2,0.9,3.9,1.4,5.8c2.4,10.8,3.9,20.4,4.7,26.6
					c0.3,2.5,0.5,4.5,0.5,5.8C250.6,352.7,250.5,355.8,250.4,359.1z"/>
				<path class="st1" d="M243.7,350.6c0,0.6,0,1.2-0.1,1.8c-0.9,4.9-1.6,30.4-1.8,42.5l-1-0.2c0.1-12.5,1-38,1.8-42.5
					c0.1-0.7,0.1-1.5,0.1-2.2c-0.1-4.7-1.8-13.6-3.5-23c-0.4-2-0.8-4.1-1.1-6.2c-1.3-6.9-2.4-13.6-2.8-18.6
					c-0.8-9.5,1.3-23.9,3.1-32.5l1-0.2c-1.7,8.1-4,22.7-3.2,32.6c0.4,4.9,1.5,11.4,2.8,18.3c0.4,2.1,0.8,4.2,1.2,6.4
					C242,336.6,243.7,345.9,243.7,350.6z"/>
				<path class="st1" d="M236.1,347.2c0,0.4,0,0.8,0,1.2c-0.3,4.2-0.8,8.4-1.7,12.5c-1.2,6.7-2.5,13.5-1.8,20.2
					c0.5,4.4,0.7,8.6,0.8,12.1l-1-0.2c-0.1-3.4-0.3-7.6-0.7-11.9c-0.7-6.8,0.6-13.7,1.8-20.4c0.9-4.1,1.4-8.2,1.7-12.4
					c0-0.3,0-0.6,0-0.9c0-6.3-2.1-15.6-3.8-23.5l-0.3-1.3c-0.9-3.7-1.6-6.9-2-9.4c-0.8-4.3,0.4-9.7,1.6-15.4
					c1.1-5.4,2.3-10.9,1.8-15.5c-0.4-3.9-0.5-7.7-0.6-10.9l1-0.3c0,3.2,0.2,7.1,0.6,11c0.5,4.8-0.7,10.4-1.8,15.8
					c-1.2,5.6-2.3,10.9-1.6,15c0.4,2.5,1.1,5.7,2,9.4l0.2,1.1C234,331.3,236.1,340.7,236.1,347.2z"/>
				<path class="st1" d="M230,348.4c0,0.1,0,0.2,0,0.4c-0.1,4.3-1.1,10.8-2.1,17.7c-1.3,8.8-2.8,18.5-2.9,26h-1
					c0.1-7.6,1.6-17.4,2.9-26.2c1-5.7,1.7-11.4,2.1-17.2c0-0.2,0-0.4,0-0.6c0.1-6.3-1.3-12.2-2.6-18c-0.3-1.2-0.6-2.4-0.8-3.5
					c-0.6-2.6-1-5.2-1.3-7.8c-0.4-4.4,0.2-10.9,0.7-16.1c0.4-4.2,0.8-8.6,0.4-9.5c-0.7-1.4-0.5-8.4-0.2-18.2c0-0.6,0-1.1,0.1-1.7
					l1-0.4l-0.1,2.1c-0.2,7-0.5,16.5,0.1,17.7c0.5,1,0.2,4.3-0.3,10c-0.5,5.2-1,11.6-0.7,16c0.2,2.5,0.6,4.9,1.2,7.4
					c0.3,1.2,0.6,2.5,0.9,3.8C228.6,336,230,342,230,348.4z"/>
				<path class="st6" d="M223.6,350.3c-0.8,4.7-2.1,10.2-3.7,16.5c0.2-2.2,0.4-4.3,0.5-6.3c0.9-3.6,1.6-7,2.1-9.9
					c1.2-6.3,1.6-11,1.4-14.2c-0.1-1.4-0.3-4-0.5-7.2c0-0.4-0.1-0.7-0.1-1.1c-0.6-9-1.4-21.9-2.5-31.7c-0.8-6.5-2-13-3.6-19.4
					l0.9-0.4c1.7,6.5,3,13.1,3.7,19.7c1.1,9.6,1.9,22.2,2.4,31.2c0,0.5,0.1,1.1,0.1,1.6c0.2,3.2,0.4,5.8,0.5,7.2
					C225.2,339.5,224.8,344.2,223.6,350.3z"/>
			</g>
			<path class="st9" d="M292.8,330.4c-2.9,10.2-5.4,17.9-5.4,17.9c-1.9,0.8-3.8,1.3-5.8,1.6c-0.4,0-0.7,0.1-1,0.1
				c-1.5,0.1-3-0.2-4.4-0.7l0,0c-0.4-0.1-0.7-0.2-1.1-0.4c-1-0.4-2.5-1.2-4.1-1.9l-1-0.5c-1.7-0.9-3.4-1.5-5.2-2
				c-0.5,0-1.1,0.1-1.6,0.2c-0.3,0.1-0.7,0.2-1,0.3c-2.5,1-4.9,2.2-7.3,3.5l-0.3-3c0,0-2.6-0.6-4.6-0.9l-1-0.1c-0.2,0-0.5,0-0.7,0
				c-1.7,0-2.9,6.9-4.6,6c-0.3-0.1-0.6-0.4-1-0.6c-1.9-1.2-4.6-3.2-4.6-3.2c-0.1,0-0.9,0.2-2.1,0.5l-1,0.2c-1.4,0.3-3.2,0.8-5.2,1.3
				l-1,0.3c-1.7,0.4-3.6,0.9-5.3,1.4l-1.1,0.3l-1.2,0.3c0.1-0.5,0.1-1,0.2-1.3c0.4-2.6-2.1-8.6-5.1-17.4c2.1-1.3,4.4-2.7,6.9-4.1
				l1-0.5l1.1-0.6l0.9-0.5c1.6-0.9,3.2-1.7,4.8-2.5l0.9-0.5c1.9-0.9,3.9-1.8,5.9-2.6c0.3-0.1,0.6-0.3,1-0.4c1.8-0.7,3.6-1.4,5.4-2
				l1-0.3c2.8-0.9,5.6-1.4,8.6-1.5c3.2,0,6.3,0.5,9.4,1.3l1,0.3c2.1,0.6,4.2,1.3,6.4,2.1l1,0.4c1.9,0.7,3.9,1.5,5.8,2.3l1,0.4
				c2.2,1,4.4,2,6.4,3l1,0.5C288.3,328.1,290.6,329.3,292.8,330.4z"/>
		</g>
	</g>
	<path class="st4" d="M207.7,282.3c0,0,20.6-13.9,43.8-13.9s41.7,7.7,48.5,13.9s-12.7,66.1-12.7,66.1l13.2,37.2
		c-8.5-11-17.8-15.7-17.8-15.7c-10.2,13.9-26,11.2-26,11.2l-1.8,15.2c-11.6,0.8-27.4-7.1-37.3-2.3c0,0,2.9-38.2,3.8-44.4
		S207.6,319.5,207.7,282.3z"/>
	<path class="st3" d="M224.7,284.4c0,0,3.1-17.5,27.1-19.9s31.9,21.2,31.9,21.2s-6.8-4-8.5-4S265,293.7,265,293.7
		c-5.8,3.5-10.1,9.1-12.1,15.6c0,0-2.8-11.1-7.6-13.5c0,0-12.6-11.9-13.5-13.2S224.7,284.4,224.7,284.4z"/>
	<path class="st2" d="M241.5,269.2c0,0-5.8,4.6-4.5,10.8s14.8,19.2,14.8,19.2l1.1,3.7c0,0,15.2-17.7,16-25.6S255,264,241.5,269.2z"
		/>
	<path class="st4" d="M255.9,293.3c1-3.5,5.1-3.3,7.8-4.8"/>
	<path class="st4" d="M240.7,286.8c4.1,2.8,9,3.5,10.1,6.9"/>
	<path class="st1" d="M207.7,282.3c-7.2,6.9-14.8,19.1-20.6,31.9c-7.3,16.1-26.6,32.7-10.4,44.1c10.4,7.3,19.5-5.4,38.2-30.8
		c0,0,5.1-24.7,0-33.8"/>
	<g>
		<defs>
			<path id="SVGID_9_" d="M207.7,282.3c-7.2,6.9-14.8,19.1-20.6,31.9c-7.3,16.1-26.6,32.7-10.4,44.1c10.4,7.3,19.5-5.4,38.2-30.8
				c0,0,5.1-24.7,0-33.8"/>
		</defs>
		<clipPath id="SVGID_10_">
			<use xlink:href="#SVGID_9_"  style="overflow:visible;"/>
		</clipPath>
		<g class="st15">
			<g class="st16">
				<path class="st6" d="M210.2,286.3h-0.2c-3.8,0-12.1,16.3-16.6,25.1c-1.8,3.6-3.1,6.1-3.8,7l-1.1,1.6
					c-3.1,4.1-12.4,16.6-11.3,19.2c0.1,0.3,0,0.5-0.3,0.7c0,0,0,0,0,0c-0.1,0-0.1,0-0.2,0c-0.2,0-0.4-0.1-0.5-0.3
					c-1.2-2.7,5.1-11.7,11.4-20.2l1.1-1.5c0.6-0.8,2-3.5,3.7-6.9c6.4-12.6,13-24.9,17.1-25.6L210.2,286.3z"/>
				<path class="st14" d="M213.7,291.9l-0.4,0.1c-0.7,0.2-1.9,0.6-1.7,1.7c-0.9,1.8-10,19.1-16.9,26.6c-2,2.3-3.9,4.6-5.7,7.1
					c-2.7,3.7-5.2,7.6-7.4,11.7c-1.5,2.8-2.4,4.9-2,5.3c0.1,0.1,0.2,0.2,0.4,0.2c0.1,0,0.2,0,0.3-0.1c0.2-0.1,0.3-0.4,0.2-0.6
					c0.4-1.2,0.9-2.4,1.5-3.5c2.6-4.7,5.4-9.3,8.6-13.6c1.5-2.1,3.1-4.1,4.9-6c7.4-7.9,17.1-26.8,17.1-26.9c0-0.1,0-0.2,0-0.4
					c-0.1-0.2,0-0.3,1-0.7c0.2-0.1,0.5-0.1,0.7-0.2L213.7,291.9z"/>
				<path class="st6" d="M217.2,304.5c-1.2,0.5-2.1,1.4-2.6,2.6c-1.9,3.5-4,6.8-6.3,10l0,0c-1.6,2.3-3.4,4.4-5.4,6.4
					c-6.2,6-13,17.7-13.1,17.8c-0.1,0.2-0.3,0.2-0.4,0.2c-0.1,0-0.2,0-0.2-0.1c-0.2-0.1-0.3-0.4-0.2-0.7c0,0,0,0,0,0
					c0.1-0.1,7-11.9,13.3-18.1c1.6-1.6,3.1-3.3,4.5-5.2l0,0c2.6-3.5,4.9-7.1,7-10.9c0.7-1.5,2-2.6,3.5-3.2
					C217.1,303.8,217.1,304.2,217.2,304.5z"/>
				<path class="st6" d="M216.9,313.6c0,0.4-0.1,0.9-0.1,1.3l-0.6,0.4c-0.6,0.4-1.1,0.7-1.8,1.1l-0.3,0.5c-2,2.9-10.8,15.8-14,19.8
					c-2.1,2.6-5.2,6.2-7.6,8.8l0,0c-1.7,1.9-2.9,3.2-2.9,3.2c-0.1,0.1-0.2,0.2-0.4,0.2c-0.1,0-0.2-0.1-0.3-0.1
					c-0.2-0.2-0.2-0.5,0-0.7c0,0,1-1.1,2.3-2.6l0,0c2.3-2.6,5.9-6.5,8.1-9.4c3-3.8,11-15.5,13.5-19.2l0,0l0.8-1.1
					c0-0.1,0.1-0.1,0.1-0.1c0.7-0.5,1.3-0.8,1.9-1.2L216.9,313.6z"/>
			</g>
			<path class="st9" d="M216.6,316.9c-0.7,6-1.6,10.6-1.6,10.6c-4.7,6.4-8.8,12-12.4,16.6c-3.3,0.8-6.6,1.2-10,1.3
				c-0.4,0-0.9,0-1.3,0c-4.6-0.2-8.2-1.6-9.2-5c-0.1-0.5-0.3-1-0.4-1.4c-1.4-6.9,2.9-10,7.4-11.7c0.5-0.2,1-0.4,1.6-0.5
				c1.5-0.4,3-0.7,4.2-1c4.9-0.9,7.9-6.6,11.8-8.3c0.5-0.2,1-0.4,1.6-0.5l0,0c1.6-0.2,3.1-0.3,4.7-0.2h1.2
				C214.9,316.9,215.8,316.9,216.6,316.9z"/>
		</g>
	</g>
	<path class="st3" d="M207.7,282.3c-7.2,6.9-14.8,19.1-20.6,31.9c-7.3,16.1-26.6,32.7-10.4,44.1c10.4,7.3,19.5-5.4,38.2-30.8
		c0,0,5.1-24.7,0-33.8"/>
	<path class="st17" d="M238.9,296.1v-2.9c0-1,0.9-1.9,1.9-1.9H265c1,0,1.9,0.9,1.9,1.9v3.5L253,318.2L238.9,296.1z"/>
	<path class="st18" d="M261.1,332h-16.4c-1.1,0-2.1-0.9-2.2-2l-3.5-33.2c-0.1-1.2,0.8-2.4,2-2.5c0.1,0,0.2,0,0.2,0h23.5
		c1.2,0,2.3,1,2.3,2.3c0,0.1,0,0.2,0,0.2l-3.5,33.2C263.2,331.1,262.3,332,261.1,332z"/>
	<g>
		<defs>
			<path id="SVGID_11_" d="M261.1,332h-16.4c-1.1,0-2.1-0.9-2.2-2l-3.5-33.2c-0.1-1.2,0.8-2.4,2-2.5c0.1,0,0.2,0,0.2,0h23.5
				c1.2,0,2.3,1,2.3,2.3c0,0.1,0,0.2,0,0.2l-3.5,33.2C263.2,331.1,262.3,332,261.1,332z"/>
		</defs>
		<clipPath id="SVGID_12_">
			<use xlink:href="#SVGID_11_"  style="overflow:visible;"/>
		</clipPath>
		<g class="st19">
			<path class="st20" d="M261.1,332h-16.4c-1.1,0-2.1-0.9-2.2-2l-3.5-33.2c-0.1-1.2,0.8-2.4,2-2.5c0.1,0,0.2,0,0.2,0h23.5
				c1.2,0,2.3,1,2.3,2.3c0,0.1,0,0.2,0,0.2l-3.5,33.2C263.2,331.1,262.3,332,261.1,332z"/>
		</g>
	</g>
	<path class="st4" d="M261.1,332h-16.4c-1.1,0-2.1-0.9-2.2-2l-3.5-33.2c-0.1-1.2,0.8-2.4,2-2.5c0.1,0,0.2,0,0.2,0h23.5
		c1.2,0,2.3,1,2.3,2.3c0,0.1,0,0.2,0,0.2l-3.5,33.2C263.2,331.1,262.3,332,261.1,332z"/>
	<path class="st18" d="M242.2,298.6l0.4,3.8c0,0.3,0.3,0.5,0.5,0.5h4.8c0.3,0,0.5-0.2,0.5-0.5v-3.8c0-0.3-0.2-0.5-0.5-0.5h-5.1
		C242.4,298.1,242.2,298.3,242.2,298.6C242.2,298.6,242.2,298.6,242.2,298.6z"/>
	<ellipse class="st20" cx="244.1" cy="299.5" rx="1" ry="0.6"/>
	<path class="st20" d="M247.5,301.5c0,0.4-0.4,0.7-0.9,0.7s-0.9-0.3-0.9-0.7s0.4-0.6,0.9-0.6S247.5,301.2,247.5,301.5z"/>
	<ellipse class="st20" cx="246.6" cy="299.5" rx="1" ry="0.6"/>
	<ellipse class="st20" cx="244.4" cy="301.5" rx="0.9" ry="0.6"/>
	<path class="st1" d="M177.7,335.8c0,0,7.9-6.5,14.2-5.3c0,0,10.5-2.8,12.1-3.8c1.4-0.7,3-1,4.5-1l6-4c0,0,7.8,9.3,8.2,19.6
		c0,0-21.8,13-29,15.8c-6.3,2.5-10.5,4.6-15.1,2.4c-0.4-0.2-0.7-0.4-1.1-0.6c-0.2-0.2-0.5-0.3-0.7-0.5"/>
	<g>
		<defs>
			<path id="SVGID_13_" d="M177.7,335.8c0,0,7.9-6.5,14.2-5.3c0,0,10.5-2.8,12.1-3.8c1.4-0.7,3-1,4.5-1l6-4c0,0,7.8,9.3,8.2,19.6
				c0,0-21.8,13-29,15.8c-6.3,2.5-10.5,4.6-15.1,2.4c-0.4-0.2-0.7-0.4-1.1-0.6c-0.2-0.2-0.5-0.3-0.7-0.5"/>
		</defs>
		<use xlink:href="#SVGID_13_"  style="overflow:visible;fill:#64A9A5;"/>
		<clipPath id="SVGID_14_">
			<use xlink:href="#SVGID_13_"  style="overflow:visible;"/>
		</clipPath>
		<g class="st21">
			<g class="st16">
				<path class="st14" d="M214.1,325.4c0,0.4-0.1,0.8-0.1,1.2c-8.5,5.1-22.6,9.3-29.7,10.2c-2.4,0.3-4.7,1.1-6.8,2.3V338
					c2.1-1.1,4.3-1.8,6.6-2.1C192.4,334.8,206.3,330.4,214.1,325.4z"/>
				<path class="st1" d="M215.6,334.4c-7.3,3.7-19.9,7.7-29.7,10.9c-3.5,1.1-6.6,2.1-8.8,2.9l0.1-1.1c2.2-0.8,5.1-1.7,8.4-2.8
					c9.3-3,22.3-7.2,29.6-10.9c0.1,0.2,0.1,0.4,0.2,0.5S215.6,334.2,215.6,334.4z"/>
				<path class="st1" d="M219,339.3c-10,7.1-30.1,15.9-40.4,20.2c-0.4-0.2-0.7-0.4-1.1-0.6c9.9-4.2,30.6-13.2,40.8-20.3
					C218.5,338.8,218.8,339,219,339.3z"/>
			</g>
		</g>
	</g>
	<path class="st4" d="M177.7,335.8c0,0,7.9-6.5,14.2-5.3c0,0,10.5-2.8,12.1-3.8c1.4-0.7,3-1,4.5-1l6-4c0,0,7.8,9.3,8.2,19.6
		c0,0-21.8,13-29,15.8c-6.3,2.5-10.5,4.6-15.1,2.4c-0.4-0.2-0.7-0.4-1.1-0.6c-0.2-0.2-0.5-0.3-0.7-0.5"/>
	<path class="st4" d="M214.5,323.1c-0.1,0.6-0.3,1.1-0.3,1.7c0,0.2,0,0.3-0.1,0.5c0,0.4-0.1,0.8-0.1,1.2s0,1,0,1.5
		c0.1,1.8,0.5,3.6,1.1,5.3c0.1,0.2,0.1,0.4,0.2,0.5s0.1,0.3,0.2,0.4c0.7,1.5,1.5,2.9,2.6,4.1l0,0c0.2,0.3,0.4,0.5,0.7,0.7
		c0.1,0.1,0.2,0.2,0.3,0.3c0.6,0.6,1.3,1.1,2.1,1.5"/>
	<path class="st2" d="M248,316l2,6.9c0,0-0.9,1.8-3.2,0v4.2l-1.5,1.2l-1,2.4c0,0-1.2,0.2-2.6-4c-0.8-2.5-3.6-1-3.6-1
		s-1.5,6.3-8.9,5.5l-8.9,7.5l-1.2,1c-0.4-0.3-0.7-0.7-1.1-1.1c-1.2-1.4-2.1-2.9-2.8-4.5c-0.8-1.8-1.2-3.8-1.4-5.8
		c0-0.5,0.1-0.9,0.1-1.3l1.4-0.8c2.8-1.5,8.9-4.9,9.3-5.7c0.6-1,6.6-9.5,7.8-10.7s9.6-1.2,11.5,0c2,1.4,3.9,3,5.7,4.8
		C250,314.4,250.1,316.8,248,316z"/>
	<path class="st4" d="M248,316c0,0-3.6-3.1-4.5-3.6s-5.4-0.5-5.4-0.5"/>
	<path class="st4" d="M246.9,323l-1.1-4.4c0,0-3.4-1.8-4.6-2.5c-0.9-0.5-2-0.7-3-0.8"/>
	<path class="st4" d="M245.3,328.3c-0.3-1.8-0.8-3.6-1.3-5.3c-0.3-0.2-5.3-2.4-5.3-2.4"/>
	<path class="st1" d="M300,282.2c7.1,3.5,31.1,55.2,34.8,56.3s2.6,16.9-6.8,21.1c-5.5,2.5-15.4-5-17.6-7.6s-9.9-15.9-17-23.5
		c0,0-5.9-19.6-2.9-35.1"/>
	<g>
		<defs>
			<path id="SVGID_15_" d="M300,282.2c7.1,3.5,31.1,55.2,34.8,56.3s2.6,16.9-6.8,21.1c-5.5,2.5-15.4-5-17.6-7.6s-9.9-15.9-17-23.5
				c0,0-5.9-19.6-2.9-35.1"/>
		</defs>
		<clipPath id="SVGID_16_">
			<use xlink:href="#SVGID_15_"  style="overflow:visible;"/>
		</clipPath>
		<g class="st22">
			<g class="st16">
				<path class="st14" d="M329.5,336c-1.4-3.1-3.4-5.8-5.9-8.1c-5.8-5.4-22.3-37-25.5-43.4l-0.7,0.8c3.5,6.9,18.2,35.1,24.7,42.4
					c0.3,0.3,0.5,0.6,0.9,0.9c1,0.9,1.9,1.8,2.7,2.9c1,1.2,1.9,2.6,2.6,4C328.6,335.6,329.1,335.7,329.5,336z"/>
				<path class="st14" d="M324.5,346.2c0,0.3-0.2,0.5-0.5,0.5c0,0,0,0,0,0l0,0c-0.3,0-0.5-0.2-0.5-0.5c-0.2-1.9-0.7-3.8-1.4-5.5
					c-2.6-6.6-8.1-14.1-11.9-17.4c-0.8-0.7-1.5-1.5-2-2.3c-5.4-7.3-13.9-25.5-14.6-27c-0.6-0.7-1.1-1.3-1.7-1.9l-0.2-0.2l0.7-0.8
					l0.3,0.3c0.5,0.6,1.1,1.2,1.7,1.9c0,0,0.1,0.1,0.1,0.1c0.1,0.2,10,21.7,15.4,27.9c0.3,0.4,0.7,0.7,1,1.1
					c3.8,3.2,9.1,10.4,11.9,16.9C323.7,341.6,324.3,343.9,324.5,346.2z"/>
				<path class="st6" d="M316.9,341.5c-0.2,0.2-0.5,0.1-0.7-0.1c-1.3-1.6-8-12.5-9.6-16.6c-0.7-1.4-1.6-2.7-2.6-3.9
					c-3.8-4.8-10.4-11.2-10.4-11.3c-1-0.9-2.3-1.9-3.5-2.9l-0.4-0.4c0-0.4,0-0.9,0-1.3l1.1,0.9c1.2,1,2.4,2,3.5,2.9
					c3.8,3.8,7.5,7.8,10.9,11.9c0.9,1.1,1.7,2.4,2.4,3.7c1.6,4,8.2,14.7,9.5,16.3C317.2,341,317.2,341.3,316.9,341.5
					C316.9,341.5,316.9,341.5,316.9,341.5z"/>
				<path class="st6" d="M310.6,342.7c-0.1,0-0.1,0-0.2,0c-0.2,0-0.4-0.1-0.5-0.3c-1.5-3.4-9.2-14.1-14.2-20.9l-2.8-3.8l-0.7-0.9
					c-0.1-0.2-0.3-0.4-0.3-0.6c-0.1-0.2-0.1-0.3-0.3-0.4c-0.4-0.2-0.7-0.4-1.1-0.5c-0.1-0.4-0.1-0.7-0.2-1.1
					c0.6,0.2,1.2,0.4,1.7,0.7c0.4,0.2,0.6,0.5,0.8,0.9c0.1,0.1,0.1,0.3,0.2,0.4l0.7,0.9c0.9,1.2,2,2.7,3.3,4.5
					c5,6.9,12.2,17,13.8,20.4C311,342.3,310.9,342.6,310.6,342.7C310.6,342.7,310.6,342.7,310.6,342.7z"/>
			</g>
			<path class="st9" d="M325.6,331.5c0,1.4-0.4,2.8-1,4c-0.6,1.3-1.2,2.6-1.8,4l-0.6,1.2c-2.6,5.6-5.6,10.5-12.7,10
				c-3-4.3-9.8-15.5-16.1-22.2c0,0-0.9-2.9-1.8-7.3c1.3,0.1,2.8,0.3,4.2,0.4l1.3,0.1c2.7,0.2,5.1,0.2,5.8-0.3
				c0.3-0.2,0.7-0.4,1.1-0.5c0.4-0.1,0.8-0.1,1.1-0.1c1,0,2,0.1,3,0.3c0.6,0.1,1.1,0.3,1.6,0.5c1.8,0.6,3.4,1.6,4.8,3
				c1.7,1.8,5,2.4,7.5,3.4C323.9,328.5,325.4,329.6,325.6,331.5z"/>
		</g>
	</g>
	<path class="st3" d="M300,282.2c7.1,3.5,31.1,55.2,34.8,56.3s2.6,16.9-6.8,21.1c-5.5,2.5-15.4-5-17.6-7.6s-9.9-15.9-17-23.5
		c0,0-5.9-19.6-2.9-35.1"/>
	<path class="st14" d="M329.1,335.8c0,0-7.9-6.5-14.2-5.3c0,0-10.5-2.8-12.1-3.8c-1.4-0.7-3-1-4.5-1l-6-4c0,0-7.8,9.3-8.2,19.6
		c0,0,21.8,13,29,15.8s11.6,5.2,17,1.2"/>
	<g>
		<defs>
			<path id="SVGID_17_" d="M329.1,335.8c0,0-7.9-6.5-14.2-5.3c0,0-10.5-2.8-12.1-3.8c-1.4-0.7-3-1-4.5-1l-6-4c0,0-7.8,9.3-8.2,19.6
				c0,0,21.8,13,29,15.8s11.6,5.2,17,1.2"/>
		</defs>
		<clipPath id="SVGID_18_">
			<use xlink:href="#SVGID_17_"  style="overflow:visible;"/>
		</clipPath>
		<g class="st23">
			<g class="st16">
				<path class="st6" d="M328.7,340.1l-0.2-0.2c-0.1-0.1-0.1-0.2-0.2-0.3c-0.6-0.2-1.1-0.5-1.6-0.6c-1.4-0.5-3.4-1.1-5.8-1.8
					c-7.6-2.3-19.8-6.1-28.3-10.6c0,0.4,0,0.8,0,1.1c8.4,4.4,20,7.9,28,10.4c2.4,0.7,4.4,1.4,5.8,1.8c0.5,0.2,1,0.4,1.6,0.7l0,0h0.2
					h0.3c0-0.1,0-0.2,0.1-0.3L328.7,340.1z"/>
				<path class="st6" d="M329.1,352.4c-0.2-0.2-0.3-0.4-0.4-0.6c-3.1-1.5-6-3-8.1-4c-5.4-2.6-14.1-7.2-21.8-11.2l-7-3.7
					c-0.1,0.3-0.2,0.6-0.4,0.9l6.9,3.6c7.7,4,16.4,8.6,21.8,11.2c2.2,1,5.1,2.5,8.4,4.1h0.1c0.2,0.1,0.4,0.1,0.6,0.1h0.1
					c0-0.1,0-0.1,0.1-0.2c0-0.1-0.1-0.2-0.1-0.3L329.1,352.4z"/>
				<path class="st6" d="M325.1,359.6c0.1-0.1,0.2-0.2,0.3-0.2l0.5-0.3c0-0.1-0.1-0.1-0.1-0.2c-9.7-3.9-28.7-12.1-37.5-20.1
					c-0.2,0.3-0.5,0.5-0.7,0.7C296.4,347.6,315.1,355.7,325.1,359.6L325.1,359.6z"/>
			</g>
		</g>
	</g>
	<path class="st4" d="M329.1,335.8c0,0-7.9-6.5-14.2-5.3c0,0-10.5-2.8-12.1-3.8c-1.4-0.7-3-1-4.5-1l-6-4c0,0-7.8,9.3-8.2,19.6
		c0,0,21.8,13,29,15.8s11.6,5.2,17,1.2"/>
	<path class="st4" d="M285.4,341.1c0.8-0.4,1.5-0.9,2.1-1.5l0.1-0.1c0.2-0.2,0.5-0.5,0.7-0.7c0.1-0.1,0.1-0.2,0.2-0.3
		c1.2-1.4,2.1-2.9,2.8-4.5l0,0c0.1-0.3,0.3-0.6,0.4-0.9c0.6-1.6,0.9-3.2,1-4.9c0-0.1,0-0.3,0-0.4c0-0.4,0-0.8,0-1.1
		c0-0.6-0.1-1.1-0.1-1.6c-0.1-0.6-0.2-1.2-0.3-1.7"/>
	<path class="st2" d="M292.7,328.1c-0.1,2-0.6,4-1.4,5.9c-0.7,1.6-1.6,3.2-2.8,4.5c-0.3,0.4-0.7,0.8-1.1,1.1l-1.2-1l-8.9-7.5
		c-7.4,0.9-8.9-5.5-8.9-5.5s-2.8-1.5-3.6,1c-1.3,4.2-2.6,4-2.6,4l-1-2.4l-1.5-1.2V323c-2.3,1.8-3.2,0-3.2,0l2-6.9
		c-2.1,0.8-2-1.6-2-1.6c1.8-1.7,3.7-3.3,5.7-4.8c2-1.2,10.3-1.2,11.5,0s7.3,9.7,7.8,10.7c0.5,0.8,6.5,4.1,9.3,5.7l1.5,0.8
		C292.6,327.2,292.7,327.6,292.7,328.1z"/>
	<path class="st4" d="M258.8,316c0,0,3.6-3.1,4.5-3.6s5.4-0.5,5.4-0.5"/>
	<path class="st4" d="M259.9,323l1.1-4.4c0,0,3.4-1.8,4.5-2.5c0.9-0.5,2-0.7,3-0.8"/>
	<path class="st4" d="M261.5,328.3c0.4-1.8,0.8-3.6,1.4-5.4c0.3-0.2,5.4-2.4,5.4-2.4"/>
	<path class="st3" d="M254.6,336.4c0,0,0.4,31.9,1.6,35.2s0.5,9.5,0.5,9.5"/>
	<path class="st4" d="M285.4,300.2c0,0,1.3,11.5,5.2,15"/>
	<path class="st4" d="M221.4,299.5c0,0,0,16.7-5,18.6"/>
	<path class="st4" d="M238.6,349.4c0,0,3.8,21.3,22.5,22.7"/>
	<path class="st4" d="M287.4,348.4c0,0-8.6,6.3-13.7,3.9"/>
	<path class="st4" d="M220.1,405.5c0,0,12.4-7.8,22.4-2.4"/>
	<circle class="st18" cx="259.9" cy="377.7" r="1.1"/>
	<circle class="st18" cx="257" cy="352.3" r="1.1"/>
	<path class="st4" d="M259.9,330.4v7.1c0,2.9,28,27.2,39.3,31.6s25.3,1.3,37.5-2.4s23.6-12.9,19.1-27.2s-11.9-27.5-12.1-30.8
		s2.9-24.8,1.1-28.9s2.2-11.4,2.2-11.4"/>
	<path class="st4" d="M351.2,326.9c-2.1-5,1.5-11.9,4.4-15.5s14.1,1.6,16.3-1s8.2-11.6,11.1-12.3s4.8-9.5,4.8-9.5"/>
	<path class="st17" d="M345,273.4c-0.7-0.3,1.8-5.8,3.6-6.7c2-1,3.4,1.2,3.4,1.2l-1.4,2.6c0,0-1.1,0.7-1.5,0
		c-0.2-0.3-0.9-0.3-1.6-0.3S345.9,273.7,345,273.4z"/>
	<path class="st17" d="M387.4,290.6c0.8,0.2,2.2-5.7,1.3-7.5c-1-2.1-3.4-1.1-3.4-1.1l-0.5,2.9c0,0,0.4,1.2,1.1,0.9
		c0.4-0.1,0.9,0.3,1.4,0.8S386.5,290.3,387.4,290.6z"/>
	<path class="st18" d="M324.6,222.6c0,0,3.3,6.1-4.1,6.9c-5.5,0.5-10.1,1.7-13.2,5.3c1.3-3.7,3.1-6.8,8.1-7.1c0,0-7.5,0-11.7,3.6
		c0.1-1.1,0.4-2.2,0.9-3.2c2.2-4.8,4.1-4.8,11.1-10.7s1.1-13.4-1.5-20.4c-1.6-3.9-0.6-8.3,2.6-11.1c0,0-10,4.7-7.8,11.1
		s-12.2,11.9-12.2,11.9s9.3-5.6,0.7-16.7s-13.3-15.2-9.6-20c0,0-9.3,7.8-6.9,16.8c-0.7-1.8-1.8-4.8-3.7-10.1
		c-3.1-8.7-10.9-9.3-10.9-9.3s11.2,5.8,7.2,15.2c-0.3,0.7-0.7,1.4-1.3,1.9c0.5-1.5,0.4-3-0.2-4.5c-2.3-5.9-7.7-5.1-7.7-5.1
		s7.8,1.5,6.9,7c-0.2,1.8-1.4,3.4-3,4.1c-1.4-1.4-3-2.7-4.6-3.9c0.6-2,0.5-4.1-0.4-6c-1.9-4.4-6.5-5.4-11.4-5.2
		c-1.6-0.9-3.3-1.7-5-2.4c-18.5-7.2-32.6,6.3-32.6,6.3s12.9-10.4,26.2-5.4c1.5,0.5,2.9,1.3,4.1,2.3l-2.5,0.5c-7,1.3-8.4-1.7-10.7-2
		s-5-1.1-6.6,3c0,0,3.3-3.7,6.6-1.1c0.6,0.4,1.2,0.8,1.9,1.1c-9.8-1.9-14.2,2.7-20.6,5.8c-7.4,3.5-16.9-0.9-12.8-5
		c3.2-3.2,6.1-2.6,7.1-2.2c-3.2-1.4-6.9-0.5-9.2,2.1c-4.3,4.6,0.9,10.9,9.3,9.3c-1.5,2.7-4.5,4.2-7.6,3.9
		c-5.6-0.4-10.4-5.8-13.9-3.3c0,0,3.3-0.9,6.7,2.2c1.7,1.6,2.1,4.5,4.4,6.5c-1,0.2-2.1,0.4-3.1,0.4c-3.4-4.2-2.1-6.8-7.9-7.1
		c-6.5-0.4-5.8,4.8-3.4,5.1c0,0-3-3.2,1.3-4s5.7-0.4,7.8,5c0.1,0.3,0.2,0.6,0.4,0.9c-1.7-0.3-2.9-1.8-2.9-3.4c0,0,0,9.5,14.1,11.8
		c0,0-0.2,0.1-0.7,0.3c-2.8,0.6-5.6,0.5-8.4-0.3c-3-0.8-5.2-3.3-5.8-6.3c-0.4,1.5-0.4,3.2,0,4.7c-1,0.9-2.4,3,2.6,6.7
		c0.8,0.6,1.7,1,2.6,1.4c2.1,4.5,5.4,8.2,9.5,10.9c-3.1-1.1-5.9-2.6-8.4-4.7c-14.3-11.1-8.7-19.3-8.7-19.3s-8.2,9.6,8.1,20.4
		c3.9,2.7,8.2,5,12.7,6.6c-4.3-0.4-8.5-1.8-12.1-4.2c-8.2-5.4-15.6-2.6-17.4,4.3c0,0,5.1-9.8,14.4-2.3c1.8,1.5,3.5,2.8,5,4
		c-1.3,0.1-2.3,1-2.5,2.3c-0.6,3.8,4.7,8.4,15.7,8.8c0.7,0,1.3,0,1.9,0c-2.8,1.6-7.7,3.4-12.6,1.2c-7.8-3.3-13,9.2-0.8,12.8
		c0,0-8.5-4.7-1.5-6.5s12.6,8.1,23.4,6.5l-0.2,0.4c-0.9,0.8-1.9,1.4-2.9,1.7c-5.2,2-4.4,8.3,0,10.3c0,0-3.4-2.9-2.3-5.7
		c0.6-1.5,2-1.5,3.5-1.8c-0.4,2,0,4.1,1.2,5.8c3.3,4.7,9.2,3.2,9.2,3.2s-4.6-2.7-1.7-5.2c0,0,3.1,1.4,7.9,2.8
		c-0.5,0.3-1,0.5-1.5,0.7c-4.8,1.1-2.7,4-1.9,5c-1-1.4-0.3-5.5,6.3-3.3c2.9,1,4.6,0.6,5.7-0.1c5.9,1.3,12.6,2.1,18.6,1.3
		c1.5,0.8,4.8,1.6,11.8,0.3c8.3-1.5,9.5-7.3,9.7-9.7c3.3,2.4,9.4-0.3,16.7-1.7c6.5-1.2,6.9-5.2,7.3-9.4c3.2-4.9,6.4-10.4,13.5-10.8
		C330.9,233.6,324.6,222.6,324.6,222.6z M282,191.3l-0.1-0.1C282,191.2,282,191.3,282,191.3z M260.9,180.8c0,0.5-0.1,1-0.3,1.4
		c-0.9-2.3-2.3-4.4-4.2-6C258.9,176.2,260.8,177.4,260.9,180.8L260.9,180.8z M247.7,177.5c0.1,0.2,0.1,0.3,0.2,0.5
		c-0.5,0-1-0.1-1.4-0.1c-1.4,0-2.8,0.1-4.2,0.4c-0.9-0.4-1.7-0.8-2.6-1.2C242.2,177.7,245,177.8,247.7,177.5L247.7,177.5z
		 M189.8,206c-1.9-1.5-1.8-3-1.4-4c0.6,1.6,1.8,2.9,3.4,3.6c0.1,0.4,0.3,0.9,0.5,1.5C191.4,206.9,190.6,206.6,189.8,206z
		 M195.6,228.8c-0.3-1.2,0.3-2.4,1.5-2.7c0.1,0,0.1,0,0.2,0c5.1,4,9.1,6.7,14.4,8.1C205.7,235.4,196.2,231.6,195.6,228.8
		L195.6,228.8z M273.7,264.4c-2.5,0.5-5.1,0.6-7.7,0.3c1-0.3,1.9-0.6,2.9-1.1c7-3.2,11-6.2,13.4-8.6c0.3,0.4,0.6,0.8,1,1.1
		C282.9,258.2,281.4,263,273.7,264.4L273.7,264.4z M304.5,251.3c-1.9,1.3-5.6,0.7-9.1,2.6s-6.8,2.3-9.3-0.1c-0.8-0.8-1.2-1.9-0.8-3
		c0-0.1,0-0.1,0-0.2v-0.1c0.2,0.1,12.3,4.9,17.8,0c1.4-1.3,2.6-2.7,3.6-4.3C306.5,248.4,305.8,250.3,304.5,251.3L304.5,251.3z"/>
	<path class="st18" d="M207.2,173.9c0.2,0.1,0.3,0.1,0.5,0.2C207.5,174,207.4,173.9,207.2,173.9z"/>
	<path class="st18" d="M231.6,267.9c0,0-0.1-0.1-0.3-0.3C231.4,267.7,231.5,267.8,231.6,267.9z"/>
	<path class="st2" d="M242.3,279.7c1.6-5,1-10.2-0.3-14.8l0,0c-1.2-4.1-3-8-5.3-11.5h30.1c-1,2-1.8,4-2.4,6.1
		c-0.9,3.1-1.4,6.4-1.5,9.7c-0.1,3,0.2,6.1,0.8,9"/>
	<path class="st18" d="M264.5,259.5c-0.9,3.1-1.4,6.4-1.5,9.7c-3,2.6-6.8,5.1-10.1,4.4c-6.2-1.3-10.6-8.2-10.9-8.7l0,0L264.5,259.5z
		"/>
	<path class="st2" d="M274.3,236.5c0,0,3.7-2.6,5.9-1.2s-3.3,9.9-3.6,11.7s-2.8,4.1-4.4,3.4S270.4,240.2,274.3,236.5z"/>
	<path class="st2" d="M230.8,236.5c0,0-3.7-2.6-6-1.2s3.3,9.9,3.6,11.7s2.9,4.1,4.4,3.4S234.8,240.2,230.8,236.5z"/>
	<path class="st2" d="M251.5,206.1c31.3,0,22.4,40.2,20.2,46.2c-2.3,6.4-13.6,19.1-19.3,19.1c-5.9,0-17.9-13.2-19.3-19.7
		C232.4,248.1,222.2,206.1,251.5,206.1z"/>
	<path class="st18" d="M263.9,244.9c-0.2,0.9-1.1,1.5-2,1.3c-0.9-0.2-1.5-1.1-1.3-2c0.2-0.8,0.8-1.3,1.6-1.3
		C263.3,243,264,243.9,263.9,244.9z"/>
	<path class="st18" d="M244.7,244.9c-0.2,0.9-1.1,1.5-2,1.3c-0.9-0.2-1.5-1.1-1.3-2c0.2-0.8,0.8-1.3,1.6-1.3
		C244.1,243,244.8,243.9,244.7,244.9z"/>
	<path class="st4" d="M257.6,236.7c0,0,5.1-4,9.3,1"/>
	<path class="st4" d="M246.5,237.2c0,0-3.2-4.2-9.8,0"/>
	<path class="st4" d="M253.6,249.4c-0.1,1.2,0,4.8,0.9,5.6s0.3,2.5-1.7,2.5"/>
	<path class="st4" d="M258.8,260.1c-5.1,1.7-12.2,0-12.2,0c0.7,2.4,2.8,4,5.3,4.1c4.3,0.1,5.3-2.7,5.3-2.7"/>
	<path class="st18" d="M263.9,223c-1.1-3.9-21.3-2.4-25.3,0s-7,12.6-7.2,18.6c0,0-2.2-0.2-3.9-15.9s12.3-26.7,26.3-25.8
		s23.5,16.7,24.6,24.2s-4.9,20.8-4.9,20.8c0-3.6-0.8-7.2-2.3-10.5C268.8,229.5,265.2,227.7,263.9,223z"/>
	<g class="st16">
		<path class="st6" d="M262.3,218.1c0.4,0,0.8-0.2,1.1-0.6c0.3-0.3,0.4-0.7,0.5-1.1c0.2-0.8,0.3-1.6,0.2-2.5
			c-0.1-1.7-0.3-3.3-0.8-4.9c-0.7-3.2-2.7-6-5.6-7.8c-2.9-1.6-6.1-2.4-9.4-2.3c-3.3,0-6.6,0.3-9.9,0.9c-1.6,0.3-3.3,0.6-5,0.9
			c-1.7,0.2-3.4,0.4-5.1,0.4c-3.4,0.1-6.8-0.5-10-1.6c-1.6-0.6-3.1-1.4-4.5-2.4c-1.4-1-2.5-2.4-3.2-4c-0.6-1.7-0.3-3.5,0.8-4.9
			c1.1-1.3,2.4-2.3,4-3c-1.5,0.7-2.8,1.8-3.8,3.1c-1,1.3-1.2,3.1-0.6,4.6c0.7,1.5,1.7,2.8,3.1,3.7c1.3,0.9,2.8,1.7,4.4,2.2
			c3.1,1,6.4,1.5,9.8,1.4c1.7,0,3.3-0.2,4.9-0.4c1.6-0.2,3.3-0.6,4.9-0.9c3.3-0.6,6.7-0.9,10.1-0.8c3.4,0.1,6.9,0.7,9.8,2.6
			c0.7,0.5,1.4,1,2,1.6l0.9,1c0.3,0.3,0.5,0.7,0.8,1c0.9,1.4,1.6,3,2,4.7c0.4,1.6,0.5,3.3,0.6,5c0,0.8-0.1,1.7-0.4,2.5
			c-0.1,0.4-0.3,0.8-0.6,1.1C263.1,217.9,262.7,218.1,262.3,218.1z"/>
		<path class="st6" d="M254.8,219c1.4-0.7,2.4-1.9,2.8-3.5c0.1-1.5-0.3-3-1.3-4.2c-0.9-1.2-2.4-1.8-3.9-1.6c-1.5,0.1-3,0.4-4.5,0.9
			c-5.9,1.8-11.6,4.4-17.6,6.2s-12.4,2.8-18.6,1.4c-3.1-0.7-6-1.8-8.7-3.5c-1.3-0.9-2.5-1.9-3.6-3c-1.1-1.1-2-2.4-2.5-3.9
			c1.2,2.9,3.8,4.9,6.4,6.5c2.7,1.5,5.6,2.6,8.6,3.1c6.1,1.2,12.3,0.2,18.2-1.6c3-0.9,5.9-1.9,8.8-3s5.8-2.2,8.9-3
			c1.5-0.4,3.1-0.7,4.7-0.8c0.8,0,1.6,0.1,2.4,0.4c0.8,0.3,1.5,0.8,1.9,1.5c1,1.3,1.4,2.9,1.1,4.5
			C257.4,217.1,256.3,218.4,254.8,219z"/>
		<path class="st6" d="M266.9,221.2c1.6,2.4,3.4,4.7,5.3,6.8c1.9,2.1,4.1,4,6.6,5.4c2.4,1.5,5.2,2,8,1.4c0.7-0.2,1.3-0.4,1.9-0.7
			c0.6-0.3,1.2-0.7,1.8-1.1s1.1-0.8,1.7-1.2c0.5-0.5,1-0.9,1.5-1.4c0.9-1,1.7-2.2,2.4-3.4c0.6-1.2,1.2-2.6,1.9-3.9
			c0.7-1.3,1.7-2.5,2.8-3.5c0.6-0.5,1.2-0.9,1.9-1.2c0.3-0.2,0.6-0.4,1-0.5l1-0.4l2-0.8c0.7-0.3,1.3-0.6,1.9-1
			c0.3-0.2,0.6-0.4,0.9-0.6c0.3-0.2,0.6-0.4,0.8-0.6l0.7-0.8c0.2-0.3,0.4-0.5,0.6-0.8c0.8-1.2,1.1-2.6,1.1-4c0-1.4-0.4-2.8-1.1-4.1
			c0.8,1.2,1.2,2.7,1.3,4.1c0.1,1.5-0.2,3-1,4.3c-0.2,0.3-0.4,0.6-0.6,0.9l-0.7,0.8c-0.3,0.3-0.6,0.5-0.8,0.7
			c-0.3,0.3-0.6,0.5-0.9,0.7c-1.2,0.8-2.5,1.4-3.9,2l-1,0.4c-0.3,0.2-0.6,0.4-0.9,0.5c-0.6,0.4-1.2,0.8-1.7,1.2
			c-1.1,0.9-1.9,2-2.6,3.2c-0.7,1.2-1.2,2.6-1.8,3.9c-0.6,1.3-1.5,2.6-2.5,3.7c-0.5,0.6-1.1,1-1.6,1.5s-1.2,0.9-1.8,1.3
			s-1.2,0.8-1.9,1.1c-0.7,0.3-1.4,0.6-2.1,0.8c-3,0.6-6.1,0-8.6-1.7c-2.5-1.6-4.7-3.5-6.6-5.8C270,226.1,268.3,223.7,266.9,221.2z"
			/>
		<path class="st6" d="M269.9,217.1c1.9,0.9,3.9,1.6,6,2.2c2,0.7,4,1.1,6.1,1.1c1,0,2-0.2,2.8-0.7c0.8-0.6,1.4-1.4,1.9-2.3
			c0.9-1.8,1.2-4,2-6c0.8-2.1,2.1-3.9,3.9-5.3l0.6-0.5l0.6-0.5c0.4-0.3,0.7-0.7,1-1.1c0.6-0.8,0.9-1.8,1-2.8c0-0.3,0.1-0.5,0-0.8
			c0-0.2,0-0.5,0-0.8c-0.1-0.5-0.1-1-0.3-1.5c-0.3-1-0.7-2-1.2-2.9c-1-1.9-2.6-3.4-4.5-4.2c2.1,0.7,3.8,2.1,4.9,4
			c0.6,0.9,1.1,1.9,1.4,2.9c0.2,0.5,0.3,1.1,0.4,1.6c0,0.3,0,0.6,0,0.8c0,0.3,0,0.6,0,0.8c-0.1,1.1-0.4,2.2-1.1,3.2
			c-0.3,0.5-0.7,0.9-1.1,1.2l-0.6,0.5L293,207c-1.6,1.3-2.8,3-3.5,4.9c-0.8,1.9-1.2,4-2.2,6c-0.5,1-1.3,1.9-2.2,2.6
			c-1,0.6-2.1,0.9-3.3,0.8c-2.2-0.1-4.3-0.6-6.3-1.4C273.6,219.1,271.7,218.2,269.9,217.1z"/>
		<path class="st6" d="M233,226c-2.1,2-4.5,3.6-7.1,4.8c-2.7,1.2-5.5,1.9-8.4,2c-2.9,0.1-5.8-0.3-8.6-1.4c-1.4-0.5-2.7-1.1-3.9-1.8
			c-0.3-0.2-0.6-0.4-0.9-0.6l-0.9-0.6c-0.6-0.4-1.2-0.8-1.7-1.3c1.3,0.6,2.4,1.5,3.7,2c1.3,0.6,2.6,1.1,3.9,1.5
			c2.7,0.9,5.5,1.2,8.2,1.1c2.8-0.1,5.6-0.7,8.2-1.7c0.6-0.3,1.3-0.5,1.9-0.8s1.3-0.6,1.9-1C230.7,227.6,231.9,226.8,233,226z"/>
		<path class="st6" d="M266.9,210.3c2.3-3.9,2.7-8.6,1.1-12.9c-0.6-2.2-2.5-3.4-4.4-4.4c-2-1-4.1-1.8-6.2-2.4
			c-4.3-1.3-8.7-2.3-13.1-3.1c-2.2-0.4-4.4-0.8-6.7-1.2s-4.5-0.7-6.7-1c4.5,0.2,9,0.8,13.5,1.5c4.5,0.7,8.9,1.6,13.3,2.9
			c2.2,0.7,4.3,1.5,6.4,2.5c1.1,0.5,2,1.2,2.9,2c0.5,0.4,0.9,0.9,1.2,1.4c0.3,0.5,0.5,1.1,0.7,1.6
			C270.2,201.6,269.6,206.5,266.9,210.3L266.9,210.3z"/>
		<path class="st6" d="M260.9,187.8c0.8-1.6,1.5-3.3,1.9-5c0.2-0.8,0.3-1.7,0.3-2.6c-0.1-0.9-0.3-1.7-0.8-2.5c0.6,0.7,1,1.5,1.2,2.4
			c0.1,0.9,0.1,1.9-0.2,2.8c-0.2,0.9-0.5,1.7-1,2.6C261.9,186.3,261.4,187.1,260.9,187.8z"/>
		<path class="st6" d="M237.4,177.2c0.9,0.9,1.9,1.8,2.8,2.6c1,0.8,2,1.6,3,2.4c1,0.8,2.1,1.4,3.2,2c1.1,0.6,2.3,1,3.6,1.1
			c-1.3,0-2.6-0.3-3.8-0.8c-1.2-0.5-2.3-1.2-3.4-1.9c-1-0.8-2-1.6-2.9-2.5C239.1,179.2,238.2,178.2,237.4,177.2z"/>
		<path class="st6" d="M251.8,176.2c0.7,0.6,1.3,1.2,1.8,1.9c0.5,0.7,1,1.4,1.5,2.2c0.4,0.8,0.8,1.6,1,2.4c0.2,0.8,0.3,1.7,0.3,2.6
			c-0.1-0.8-0.3-1.7-0.6-2.5c-0.3-0.8-0.7-1.6-1.1-2.3C253.8,179,252.9,177.5,251.8,176.2z"/>
		<path class="st6" d="M277.7,182.8c0.6,2.2,1,4.5,1.2,6.9c0.2,2.3,0.2,4.7,0,7c-0.2,2.4-0.9,4.7-2,6.8c-0.6,1-1.4,1.9-2.4,2.6
			c-1,0.6-2.2,1-3.4,1c2.2-0.5,4.1-1.9,5.1-4c0.9-2.1,1.5-4.3,1.7-6.5c0.2-2.3,0.3-4.6,0.2-6.9c0-1.1-0.1-2.3-0.2-3.4
			S277.8,184,277.7,182.8z"/>
	</g>
</g>
<g id="freepik--Blanket--inject-635">
	<path class="st6" d="M429.7,390.6c-9.9,16.7-23.2,31-39.2,42c-2.7,1.9-5.4,3.6-8.2,5.3l0,0c-3.7,2.2-7.5,4.3-11.5,6.1
		c-3.9,1.9-8,3.6-12.2,5.1c-10.8,3.9-22,6.5-33.3,7.8c-9.1,1.1-18.3,1.5-27.5,1.2c-29.9-0.9-60.5-8.6-89-20.2
		c-4.3-1.7-8.5-3.6-12.7-5.5c-15.8-7.2-30.9-15.6-45.4-25.1l-0.3-0.2c-5.3-3.5-10.5-7.1-15.4-10.8c-11.1-8.4-21.3-17.8-30.7-28
		l-0.4-0.4c-0.5-0.6-1-1.1-1.5-1.7c-4.2-4.7-8.2-9.5-12.1-14.5c-4.9-6.4-9.5-13-13.7-19.8c-1-1.6-2-3.2-2.9-4.8
		c-5.3-9-9.9-18.4-13.7-28.2c1.3-7.8,3.1-14.4,3.5-16.5c1.1-5.2-6-44.3,5.8-47.6s40.7-4.9,40.7-4.9s-13.7,13.7-12.1,21.4
		c0.2,1.2,0.4,2.3,0.4,3.5c0.3,6.1-1.9,11.3-1.5,14.5c0.1,2,0.5,4,1.2,5.9c1.6,4.7,5.6,11,15.2,13.4c1.2,0.3,2.4,0.7,3.5,1.2
		c13.7,5.7,18.6,22.1,17.6,29.4c-1,7.8,4.9,37,17.1,49l0.5,0.5c12.5,11.7,17.2,15.4,32,16.4c3.1,0.2,7,0.4,11.4,0.9
		c16.8,1.7,40.6,6.9,50.3,29.6c0.7,1.6,1.5,3.1,2.4,4.5c0.2,0.3,0.4,0.6,0.6,1c10.6,14.9,33.1,13.9,48.5,2
		c7.2-5.4,12.4-13,14.8-21.7c8.1-29.9,23.7-8.2,46.8-11.7c1.3-0.2,2.7-0.5,4-0.9c21.3-5.9,28.8-22.1,30.6-27.2
		c0.4-1,0.5-1.5,0.5-1.5s8.7-13.1,23.7-17.3l0.5-0.2C418,342.6,427.6,373.7,429.7,390.6z"/>
	<g>
		<defs>
			<path id="SVGID_19_" d="M429.7,390.6c-9.9,16.7-23.2,31-39.2,42c-2.7,1.9-5.4,3.6-8.2,5.3l0,0c-3.7,2.2-7.5,4.3-11.5,6.1
				c-3.9,1.9-8,3.6-12.2,5.1c-10.8,3.9-22,6.5-33.3,7.8c-9.1,1.1-18.3,1.5-27.5,1.2c-29.9-0.9-60.5-8.6-89-20.2
				c-4.3-1.7-8.5-3.6-12.7-5.5c-15.8-7.2-30.9-15.6-45.4-25.1l-0.3-0.2c-5.3-3.5-10.5-7.1-15.4-10.8c-11.1-8.4-21.3-17.8-30.7-28
				l-0.4-0.4c-0.5-0.6-1-1.1-1.5-1.7c-4.2-4.7-8.2-9.5-12.1-14.5c-4.9-6.4-9.5-13-13.7-19.8c-1-1.6-2-3.2-2.9-4.8
				c-5.3-9-9.9-18.4-13.7-28.2c1.3-7.8,3.1-14.4,3.5-16.5c1.1-5.2-6-44.3,5.8-47.6s40.7-4.9,40.7-4.9s-13.7,13.7-12.1,21.4
				c0.2,1.2,0.4,2.3,0.4,3.5c0.3,6.1-1.9,11.3-1.5,14.5c0.1,2,0.5,4,1.2,5.9c1.6,4.7,5.6,11,15.2,13.4c1.2,0.3,2.4,0.7,3.5,1.2
				c13.7,5.7,18.6,22.1,17.6,29.4c-1,7.8,4.9,37,17.1,49l0.5,0.5c12.5,11.7,17.2,15.4,32,16.4c3.1,0.2,7,0.4,11.4,0.9
				c16.8,1.7,40.6,6.9,50.3,29.6c0.7,1.6,1.5,3.1,2.4,4.5c0.2,0.3,0.4,0.6,0.6,1c10.6,14.9,33.1,13.9,48.5,2
				c7.2-5.4,12.4-13,14.8-21.7c8.1-29.9,23.7-8.2,46.8-11.7c1.3-0.2,2.7-0.5,4-0.9c21.3-5.9,28.8-22.1,30.6-27.2
				c0.4-1,0.5-1.5,0.5-1.5s8.7-13.1,23.7-17.3l0.5-0.2C418,342.6,427.6,373.7,429.7,390.6z"/>
		</defs>
		<clipPath id="SVGID_20_">
			<use xlink:href="#SVGID_19_"  style="overflow:visible;"/>
		</clipPath>
		<g class="st24">
			<path class="st5" d="M71.1,307.7c3.5,6.6,3.5,13.8,2.6,19.4c-5.3-9-9.9-18.5-13.7-28.2c1.3-7.8,3.1-14.4,3.5-16.5
				c1.1-5.2-6-44.3,5.8-47.6s40.7-4.9,40.7-4.9s-13.7,13.7-12.1,21.4c0.2,1.2,0.4,2.3,0.4,3.5c-2.9,1.2-6,2.4-8.4,3.3
				c-6.2,2.2-16.3,1-18.8,9.1s-2.5,27.1-2.5,27.1S64.1,294.6,71.1,307.7z"/>
			<path class="st5" d="M84.2,296.5c0,0-0.3-9.8,3.4-9.7c2,0.1,6.5-5.9,10.4-11.6c1.6,4.7,5.6,11,15.2,13.4c1.2,0.3,2.4,0.7,3.5,1.2
				C95.3,304.1,84.2,296.5,84.2,296.5z"/>
			<path class="st5" d="M195.2,385.9c-1,3,0.4,6.8-7.1,6.8c-12.4,0-23.8,7.9-26.5,10.4c-1.5,1.3-6.7,2.9-11.3,4.1
				c-5.3-3.5-10.5-7.1-15.4-10.8c-11.1-8.4-21.3-17.8-30.7-28c3.2-3.5,7.7-8.4,8.4-9.6c1.1-2,2.4-13.5,2.7-17.6s5.6-12.7,5.6-12.7
				c6.6,5.6,9.2,40.6,21.8,40.6c2.9,0,5.8-0.3,8.6-0.9l0.5,0.5c12.5,11.7,17.2,15.4,32,16.4C186.9,385.2,190.9,385.4,195.2,385.9z"
				/>
			<path class="st5" d="M319.3,396.3c0,0-5.4,18.6-18.5,25.4c-1.2,0.6-2.4,1-3.7,1.2c-15.4,11.8-37.9,12.8-48.5-2
				c-0.4,6.2,0.6,14.5,7.3,19.5c2.7,2,5.6,3.6,8.6,4.9c-11.2-3.8-23.6-9.2-27.7-14.9c-8.3-11.5-22.9-2.2-27.9-1.4
				s-13.3-18.3-28.9-23.3c0.2,0.5,6.6,16,12.4,20.1c2.2,1.6,3.6,4.1,3.8,6.8c4.2,1.9,8.4,3.7,12.7,5.5c28.5,11.6,59.1,19.3,89,20.2
				c0,0,25.4-34.9,27-43.3S319.3,396.3,319.3,396.3z M277.6,449.3c3.9,0.8,6.7,1.2,7.5,1.6C285.7,451.2,282.6,450.6,277.6,449.3
				L277.6,449.3z"/>
			<path class="st5" d="M388.5,406.4c-2.1,4.5-10.7,8.5-11.1,17.7c-0.2,5-10,16-18.9,25.1c-10.8,3.9-22,6.5-33.3,7.8
				c16.3-14.3,35.8-40.4,34.3-42.1c-2-2.3-2-6.8,0.4-9.5c1.5-1.7,0-10-1.3-15.9c1.3-0.2,2.7-0.5,4-0.9c21.3-5.9,28.8-22.1,30.6-27.2
				C394.4,379.6,390.1,402.9,388.5,406.4z"/>
			<path class="st5" d="M429.7,390.6c-9.9,16.7-23.2,31-39.2,42c-2.7,1.9-5.4,3.6-8.2,5.3c4.9-10.7,11.9-26.1,13.5-28.6
				c2.6-4,17.2-12.7,20.9-16.9c2.4-2.8,1.7-30.7,0.9-49.6l0.5-0.2C418.1,342.6,427.6,373.7,429.7,390.6z"/>
			<path class="st5" d="M103.9,367.9c-0.5-0.6-1-1.1-1.5-1.7c-4.2-4.7-8.2-9.5-12.1-14.5c3.6-0.5,7-1.3,8.7-2.3
				c4.5-2.6,4.3-16.8,4.3-16.8l3.5,15.3C108.4,354.7,107.4,361.8,103.9,367.9z"/>
		</g>
	</g>
	<path class="st4" d="M429.7,390.6c-9.9,16.7-23.2,31-39.2,42c-2.7,1.9-5.4,3.6-8.2,5.3l0,0c-3.7,2.2-7.5,4.3-11.5,6.1
		c-3.9,1.9-8,3.6-12.2,5.1c-10.8,3.9-22,6.5-33.3,7.8c-9.1,1.1-18.3,1.5-27.5,1.2c-29.9-0.9-60.5-8.6-89-20.2
		c-4.3-1.7-8.5-3.6-12.7-5.5c-15.8-7.2-30.9-15.6-45.4-25.1l-0.3-0.2c-5.3-3.5-10.5-7.1-15.4-10.8c-11.1-8.4-21.3-17.8-30.7-28
		l-0.4-0.4c-0.5-0.6-1-1.1-1.5-1.7c-4.2-4.7-8.2-9.5-12.1-14.5c-4.9-6.4-9.5-13-13.7-19.8c-1-1.6-2-3.2-2.9-4.8
		c-5.3-9-9.9-18.4-13.7-28.2c1.3-7.8,3.1-14.4,3.5-16.5c1.1-5.2-6-44.3,5.8-47.6s40.7-4.9,40.7-4.9s-13.7,13.7-12.1,21.4
		c0.2,1.2,0.4,2.3,0.4,3.5c0.3,6.1-1.9,11.3-1.5,14.5c0.1,2,0.5,4,1.2,5.9c1.6,4.7,5.6,11,15.2,13.4c1.2,0.3,2.4,0.7,3.5,1.2
		c13.7,5.7,18.6,22.1,17.6,29.4c-1,7.8,4.9,37,17.1,49l0.5,0.5c12.5,11.7,17.2,15.4,32,16.4c3.1,0.2,7,0.4,11.4,0.9
		c16.8,1.7,40.6,6.9,50.3,29.6c0.7,1.6,1.5,3.1,2.4,4.5c0.2,0.3,0.4,0.6,0.6,1c10.6,14.9,33.1,13.9,48.5,2
		c7.2-5.4,12.4-13,14.8-21.7c8.1-29.9,23.7-8.2,46.8-11.7c1.3-0.2,2.7-0.5,4-0.9c21.3-5.9,28.8-22.1,30.6-27.2
		c0.4-1,0.5-1.5,0.5-1.5s8.7-13.1,23.7-17.3l0.5-0.2C418,342.6,427.6,373.7,429.7,390.6z"/>
	<path class="st4" d="M63.6,282.3c3.8,21.4,29.6,28.9,34.9,36.8s11.6,43,6.3,45c-1,0.5-1.8,1.2-2.4,2.1"/>
	<path class="st4" d="M273.7,450.9c0,0-25.5-6.3-36.9-20.5s-22.8-37.5-33.3-37.7s-32.2-1.4-39.1,7.9c-2.2,3-7.5,5.1-13.7,6.8"/>
	<path class="st4" d="M164.4,400.6c12.1-0.9,33.4,17.1,34.6,20.5c0.8,2.2,6.2,11,9.8,16.8"/>
	<path class="st4" d="M73.7,319.1c0,0,1.7,5.7,3,12.8"/>
	<path class="st4" d="M393.8,360.1c0,0,0,41.4-5.3,46.3s-11.1,11.9-11.1,17.7s-23.2,26.3-27.4,26.8"/>
	<path class="st4" d="M390.5,432.6c0.5-3.1,1.6-6,3.3-8.6c7.9-12.1,12.2-18.6,12.2-18.6s9-0.5,15.3-4.2"/>
	<path class="st4" d="M247.9,419.9c-0.2,5.6,5,20.4,7.9,20.4s24.2,4.2,34.7,0s31-21.9,31-24.7"/>
</g>
<g id="freepik--friend-3--inject-635">
	<circle class="st2" cx="419.4" cy="173.1" r="51.7"/>
	<circle class="st3" cx="419.4" cy="173.1" r="45.9"/>
	<path class="st25" d="M461.3,192.1c-10.5,23.1-37.7,33.4-60.8,22.9c-8.9-4-16.2-10.7-21-19.2c-0.7-1.2-1.4-2.5-1.9-3.8
		c0.3-0.1,0.6-0.1,0.9-0.1V190c0,0,1.5,0.1,3.5,0.4l0,0c3.1,0.4,7.7,1.2,10.4,2.8c0.6,0.3,1.2,0.8,1.7,1.3l-1.7,3.8l-1.2,6.7
		c2.2-1.3,4.6-2.3,7-3.1c6.3-2.5,18-4.1,18-4.1c0.1-4.1,2.5-7.8,6.2-9.5c0.6-0.3,1.2-0.5,1.8-0.7l0.8-0.2c2.5-0.8,5.3-1.6,8.2-2.4
		l0.4-0.1c2.8-0.7,5.6-1.4,8.1-1.8c2.6-0.6,5.2-0.7,7.9-0.6c4.7,0.7,4.9,8,4.9,8C456.7,190.7,459.1,191.2,461.3,192.1z"/>
	<path class="st26" d="M384.6,186.2l-3.6,5.7c0,0,4.5,3.9,10,3.9l4.8-9.6"/>
	<path class="st26" d="M393.4,189c1.9,0.2,3.7-1.4,4.6-2.2c0.8-0.7,1.5-1.6,2-2.5c0.5-0.8,1.1-1.6,1.7-2.4c0.4-0.5,0.9-1,1.3-1.4
		c0.9-0.9,1.8-1.8,2.8-2.6c0,0-0.4-2-2.2-1.3c-0.5,0.2-0.9,0.5-1.4,0.8c-0.7,0.6-1.4,1.2-1.9,1.8c-0.3,0.3-0.7,0.6-1.1,0.7
		c-0.2,0-0.4,0-0.5,0h0h-0.2c-0.4-0.1-0.7-0.2-1-0.5c-0.2-0.1-0.3-0.3-0.4-0.5c0,0-0.1-0.1-0.1-0.1c-0.1-0.1-0.1-0.2-0.1-0.3
		c-0.2-0.6-0.3-1.3-0.3-2l0,0c0-1,0.1-2,0.2-2.9l0,0c0-0.4,0.1-0.7,0.2-1.1c0.1-0.9,0.3-1.8,0.6-2.6c0.2-0.6,0.4-1.3,0.5-1.9
		s0.3-1.3,0.4-1.9c0.2-1.8,0.1-3.1-1.1-3s-1.2,0.8-1.6,2.2c-0.1,0.5-0.3,1.1-0.5,1.9c-0.4,1.3-0.9,2.6-1.5,3.8l0,0
		c-0.1,0.2-0.2,0.3-0.2,0.5l-0.7-0.1c-0.1,0.1-0.1-0.1-0.1-0.7l0,0c0-1.4,0-2.8,0.1-4.1c0-0.6,0.1-1.3,0.2-1.9s0.2-1.2,0.3-1.8
		c0.5-2.9-1.6-2.4-2.2-1.6c-0.5,0.9-0.7,2-0.8,3c-0.1,0.6-0.2,1.3-0.3,2c0,0.3-0.1,0.6-0.2,0.9c-0.2,1.2-0.5,2.5-0.6,3.4l-0.1,0.3
		l-0.9,0.2c0-0.1-0.1-0.3-0.1-0.4l0,0c-0.3-1.2-0.5-2.5-0.6-3.8c-0.1-0.9,0-1.6-0.1-2.1c0-1-0.1-1.5-0.9-1.8s-1.4,0.7-1.6,2
		c-0.2,1-0.3,2.1-0.1,3.1l0,0c0,0.2,0.1,0.4,0.1,0.5c0.2,0.9,0.2,1.9,0.2,2.8c0,0.2,0,0.4,0,0.6l-0.6,0.5c-0.1-0.2-0.2-0.5-0.3-0.7
		l0,0c-0.3-0.8-0.6-1.6-0.8-2.4l0,0c-0.1-0.7-0.3-1.3-0.6-2c-0.1-0.4-0.4-0.7-0.9-0.8c-0.7-0.1-1,0.8-1,1.8c0,0.6,0.1,1.3,0.2,1.9
		c0.1,0.5,0.2,0.9,0.4,1.4c0.3,0.8,0.5,1.7,0.7,2.6c0.1,0.4,0.1,0.7,0.2,1.1c0.2,1.3,0.3,2.5,0.4,2.9c0,0.1,0,0.2,0,0.2
		c-0.1,1-0.1,1.8-0.1,2.5c-0.1,1.7,0.3,3.4,1,5c0.3,0.8,1.5,1.5,2.9,1.9"/>
	<path class="st4" d="M397,178.9c0,0-4.1-0.8-5.8,2.7"/>
	<path class="st27" d="M423.4,198.5c0,0,9.1-7.2,20.9-4c0,0,0,2.3-8.7,6.9c-3.2,1.7-6.3,3.6-9.3,5.7
		C426.2,207.1,421.3,201.1,423.4,198.5z"/>
	<path class="st26" d="M444.2,194.5c-4.2,6-18,4.2-18,4.2c0.1-2.6,0-5.2-0.4-7.8c-0.2-1.9-0.8-3.7-1.7-5.3c-0.1-0.2-0.2-0.3-0.3-0.4
		c0,0,20.4-14.3,18.4-8S444.2,194.5,444.2,194.5z"/>
	<path class="st18" d="M434.9,182.4c0,0-3.5,7.6-9.1,8.5c-0.2-1.9-0.8-3.7-1.7-5.3L434.9,182.4z"/>
	<path class="st18" d="M415.2,153.6c0,0-4.2,1.8-3.2,3.3s1.2,4.8-0.2,5.8s2.5,3.6,3.4,3.2S415.2,153.6,415.2,153.6z"/>
	<path class="st26" d="M440.4,178.5c1.7-2.3,3-4.9,3.8-7.6c2.9-9.9-0.8-30.4-17.8-25.5c-11.7,3.3-14.2,13.9-12.6,21.6
		s-0.6,7,2.5,13.5c1.7,3.7,3.8,8.3,8.3,8.3c3.6,0,11.6-4.7,11.6-7.5"/>
	<path class="st4" d="M422.6,163.7c0,0,4.3-1,7.2,1.2"/>
	<path class="st4" d="M417.1,163.5c0,0-2.8-0.4-3.7,0.7"/>
	<path class="st4" d="M418.1,166.6c0,0,1,1.9-0.9,5.1c-1.8,3-2.6,5.4,1.9,4.4"/>
	<ellipse class="st18" cx="425.4" cy="168.1" rx="0.9" ry="1.2"/>
	<path class="st18" d="M417.1,167.8c0,0.7-0.4,1.2-0.9,1.2s-0.9-0.6-0.9-1.2s0.4-1.2,0.9-1.2S417.1,167.2,417.1,167.8z"/>
	<path class="st2" d="M418.4,178.2c0,0,4,1,6.9-0.5c-0.2,1.8-1.5,3.2-3.2,3.5c-1.1,0.4-2.2-0.2-2.6-1.3c-0.1-0.3-0.1-0.7-0.1-1.1"/>
	<path class="st18" d="M414.9,155.2c0,0-3.1-2.4-1.5-5s3.1,0.5,4.1-2.8s2.6-5.9,5.1-4.9s3.6,1.5,5.6,0s5.4-2.7,6.9-1.2
		s1.7,4.1,4.8,3.4s2.8-1.9,5.1,1s0.6,6.4,2.3,6.7s5.8,2.3,4.3,4.1s-3,4.4-1.8,5.6s0.1,5-1.5,6.2s0.3,6.1-2,6.9
		c-1.6,0.4-2.8,1.6-3.2,3.2c-0.2,0.9-2.2,2.3-2.9,2.7s-1.6-0.4-1.6-0.4s2.9-6-3.6-9.9c0.3-2.7-0.9-5.4-3.1-7.1
		c-1.9-1.4-0.1-6.7-0.9-8.3C429.2,152.6,420.6,159.6,414.9,155.2z"/>
	<path class="st26" d="M435.5,171.9c0,0,0.7-6.4,3.5-5.3s2.5,10.4-1.2,10.6"/>
	<path class="st28" d="M416.7,199.7c0,0,0,4.8,5.2,8.4"/>
	<path class="st28" d="M391.1,206.5c0,0-0.2,1.1-0.6,2.3"/>
	<path class="st28" d="M454.4,192.1c0,1.8-0.7,3.5-1.9,4.8c-2,2.2-21.1,9.6-22.7,11.1"/>
	<path class="st28" d="M444.7,193.3c0,0,3.3-5.1,1.1-7.1"/>
	<path class="st28" d="M379.5,195.8c0,0,6.3,5.6,11.6,3.1"/>
	<path class="st28" d="M422.9,197.7c0,0-0.5-3.5,1.3-4.9"/>
	<polyline class="st2" points="377.5,200.4 277.8,293.3 385.3,211.9 	"/>
</g>
<g id="freepik--friend-2--inject-635">
	<circle class="st2" cx="201.2" cy="97" r="63.4"/>
	<path class="st3" d="M259.4,97c0,32.1-26,58.2-58.2,58.2s-58.2-26-58.2-58.2s26-58.2,58.2-58.2c31.9-0.2,57.9,25.5,58.2,57.4
		C259.4,96.5,259.4,96.7,259.4,97z"/>
	<path class="st26" d="M249.1,130c-18.2,26.5-54.4,33.1-80.9,14.9c-1.7-1.2-3.4-2.5-5-3.8c1.1-2.4,2.2-4.7,3.6-6.9
		c2.6-4.2,12.4-4.5,12.4-4.5s3.8-6.8,17.2-8.1s22.1,2.5,22.1,2.5c2.9-1.1,6.1-1.6,9.2-1.4C231.4,122.8,242.5,127.2,249.1,130z"/>
	<path class="st2" d="M189.4,124.1c0,0-10.7,4.6-10.1,10.1s39.3,8.8,39.3,8.8s7.2-7,3.6-13.4S208.6,121.8,189.4,124.1z"/>
	<path class="st2" d="M187.8,128.1c3.5-5.4,2.2-15.1-2.2-23.2s22,6.3,22,6.3s-0.1,0.7-0.1,1.9c-0.1,2.2,0,4.4,0.1,6.6
		c0.2,3,1.1,5.9,2.6,8.5"/>
	<path class="st18" d="M207.7,119.6c-5.9-3-8-7.2-8-7.2l7.9,0.6C207.5,115.2,207.5,117.4,207.7,119.6z"/>
	<path class="st18" d="M212.1,65.8c0,0,15.6,5.9,7.6,34.8s-46.6-14.2-46.6-14.2s-2.4,21.8,2.4,33c0,0-11.5,5.3-21.2,2
		c0,0-2.1-38.3,6.7-49.2s16.8-2.8,16.8-2.8L212.1,65.8z"/>
	<path class="st2" d="M184.9,107.3c-2-1.5-3.7-3.4-5.1-5.6c-5.1-9-9.7-34.3,21.6-35.8c15.4-0.8,19.3,10.8,19.1,22.2
		c0,1.8,1.7,4.7,1.7,8.9c-0.1,7.2-2.6,17.5-7.3,19c-4.4,1.4-16.4-0.3-17.1-3.6"/>
	<path class="st4" d="M207,83.9c0,0-4.9-1.2-7.3,2.2"/>
	<path class="st4" d="M214.9,82.5c0,0,1.4-2.4,4.9,0"/>
	<path class="st2" d="M212.9,88.1c0,0,3.4,5.8,6.9,7.4s-3.4,4-3.4,4"/>
	<path class="st4" d="M217.3,103.8c-3.4,1-7,1-10.3,0c0,0,1.1,4.8,5.9,5.1s3.3-4.4,3.3-4.4"/>
	<path class="st18" d="M207.7,89.7c-0.2,0.7-0.9,1.1-1.5,0.9c-0.7-0.2-1.1-0.9-0.9-1.5c0.1-0.6,0.7-1,1.2-1
		C207.2,88.2,207.8,88.9,207.7,89.7z"/>
	<path class="st18" d="M218.6,88.1c-0.2,0.7-0.9,1.1-1.5,0.9c-0.7-0.2-1.1-0.9-0.9-1.5c0.1-0.6,0.6-0.9,1.2-0.9
		C218.1,86.6,218.6,87.3,218.6,88.1z"/>
	<path class="st18" d="M207.7,62.5c0,0-12.7-4.1-24.2,1.2c-18.8,8.7-14.9,29.7-9.3,38.6c3.2,5.1,9.7,9.8,13.5,8.8
		c2.9-0.8-0.1-7.9,3.6-11.6c8.4-8.3,4.3-21.2,4.3-21.2c0.8,0.6,2.2,4.1,2.2,4.1c1.1-0.6,2.3-1.2,3.5-1.7c0.4-2.8,0.3-5.7-0.4-8.4
		c1.3,2.3,2.3,4.9,2.9,7.5c2.1-0.7,4.2-1.2,6.4-1.5c0.2-3.4,0.1-7.2-0.9-9.9c0,0,2.5,3.1,3.4,9.7c1.7-0.1,3.4-0.1,5.1,0
		c0.3-2.6,0-5.3-0.9-7.7c0,0,3.1,2.4,4.6,8.2c0.6,0.1,1.3,0.3,1.9,0.5C224.8,62.5,207.7,62.5,207.7,62.5z"/>
	<path class="st2" d="M196,95.7c0,0-0.9-5.7-7.8-7.5s-4.8,15.9,5,15.4"/>
	<path class="st4" d="M192,134.2c6,1.6,12.2,2.4,18.4,2.6c2.5,0.1,4.6,2.7,4.6,2.7"/>
	<path class="st2" d="M217.3,138.8l-0.2-1.8c-0.1-1.4,0.5-2.8,1.6-3.7c1.4-1,2.6-2.2,3.5-3.7"/>
	<polyline class="st2" points="222,155.2 235,210.1 208.9,158.3 	"/>
</g>
<g id="freepik--friend-1--inject-635">
	<circle class="st2" cx="75.7" cy="257.4" r="53.9"/>
	<path class="st3" d="M124.5,257.4c0,26.9-21.8,48.7-48.7,48.7S27,284.3,27,257.4c0-26.9,21.8-48.7,48.7-48.7
		c26.8-0.1,48.7,21.6,48.7,48.5C124.5,257.2,124.5,257.3,124.5,257.4z"/>
	<path class="st1" d="M107.3,294.5c-20.4,17.4-51.1,15-68.6-5.4c7-2.3,14.3-3.7,21.7-4.1c1.9-0.1,3.9-0.2,5.9-0.1
		c3.9,0.1,7.8,0.5,11.7,1.1c1.2,0.2,2.3,0.4,3.5,0.6C90.3,288.3,99,291,107.3,294.5z"/>
	<g>
		<defs>
			<path id="SVGID_21_" d="M107.3,294.5c-20.4,17.4-51.1,15-68.6-5.4c7-2.3,14.3-3.7,21.7-4.1c1.9-0.1,3.9-0.2,5.9-0.1
				c3.9,0.1,7.8,0.5,11.7,1.1c1.2,0.2,2.3,0.4,3.5,0.6C90.3,288.3,99,291,107.3,294.5z"/>
		</defs>
		<clipPath id="SVGID_22_">
			<use xlink:href="#SVGID_21_"  style="overflow:visible;"/>
		</clipPath>
		<g class="st29">
			<path class="st30" d="M107.3,294.5c-20.4,17.4-51.1,15-68.6-5.4c7-2.3,14.3-3.7,21.7-4.1c1.9-0.1,3.9-0.2,5.9-0.1
				c3.9,0.1,7.8,0.5,11.7,1.1c1.2,0.2,2.3,0.4,3.5,0.6C90.3,288.3,99,291,107.3,294.5z"/>
		</g>
	</g>
	<path class="st4" d="M107.3,294.5c-20.4,17.4-51.1,15-68.6-5.4c7-2.3,14.3-3.7,21.7-4.1c1.9-0.1,3.9-0.2,5.9-0.1
		c3.9,0.1,7.8,0.5,11.7,1.1c1.2,0.2,2.3,0.4,3.5,0.6C90.3,288.3,99,291,107.3,294.5z"/>
	<path class="st2" d="M58.9,287.6c0,0,7,10.1,19,8.7c6.6-0.8,5.9-5.9,5.9-5.9c-0.9-0.6-1.6-1.5-2-2.6c-0.7-1.8-1-4.8,0.7-9.4
		c0-0.1,0.1-0.3,0.1-0.4c1.9-5-20.8-12.1-20.8-12.1S64.7,279.1,58.9,287.6z"/>
	<path class="st18" d="M69.9,275.1c0,0,4.2,10.5,12,12.9c-0.7-1.8-1-4.8,0.7-9.4L69.9,275.1z"/>
	<path class="st2" d="M67.8,272.6c-0.5,4.5,10.9,11.3,17.6,11.3c3.1,0,7.3-5.9,9.1-14.6c0.9-4.4-1.8-8.7,0.4-14.8
		c1.9-5.2-1.8-20.9-17.2-22.1c-22-1.8-24.6,21.8-14.9,37.7"/>
	<path class="st4" d="M95.4,253.2c-1.2-1.7-3.4-2.5-5.4-2"/>
	<path class="st4" d="M82.7,251.1c0,0-4.6-0.4-7.3,2.1"/>
	<path class="st4" d="M88.8,254.2c-2.1,8.2,4,9.1,3.9,10.8c-0.2,2.1-4.8,3.5-4.8,3.5"/>
	<path class="st18" d="M79.9,258.2c0,0.7,0.4,1.2,0.9,1.2s0.9-0.5,0.9-1.2s-0.4-1.2-0.9-1.2S79.9,257.5,79.9,258.2z"/>
	<path class="st18" d="M90.7,258.2c0,0.7,0.4,1.2,0.9,1.2s0.9-0.5,0.9-1.2s-0.4-1.2-0.9-1.2S90.7,257.5,90.7,258.2z"/>
	<path class="st4" d="M88.7,272.3c0,0-5.2,0.7-7.9-2.1"/>
	<path class="st4" d="M81.7,271c0.3,1.6,1.5,2.9,3.1,3.2c2.8,0.7,2.7-1.8,2.7-1.8"/>
	<path class="st18" d="M73.9,242.4c0,0,24.5,6.7,27.1-3.6c0,0-4.5,0.5-9.4-4.9c-6-6.6-15.7-8.3-23.9-5.3s-7.7,7.3-7.7,7.3
		s-4.8,0.6-7,6.5s1.3,26.5,9.5,30.9l2.3-2.9c0,0-0.9-5.9,3-10.3l2.2,0.6c0,0-2.4-5.1,0.1-7.9C72.6,249.8,74,246.2,73.9,242.4z"/>
	<path class="st2" d="M67.6,259.5c0,0-2.5-7.1-5.6-5.2s0.3,15.5,5.6,12.5"/>
	<path class="st31" d="M95.4,245.4c0,0-3-23.3-24-19.4s-23.8,21.1-17,34.5c0,0-1.6-6.8,13.3-14.3S90.7,240.5,95.4,245.4z"/>
	<path class="st32" d="M66.3,246.2c0,0,12-18.8,24.4-19.1s22.1,4.6,18.9,9.6s-14.2,8.8-14.2,8.8S90.6,234.5,66.3,246.2z"/>
	<polyline class="st2" points="126.4,268.5 212.7,301.3 122.8,279.9 	"/>
</g>
</svg>
